<svg xmlns="http://www.w3.org/2000/svg" xmlns:xlink="http://www.w3.org/1999/xlink" width="400" zoomAndPan="magnify" viewBox="0 0 300 299.999988" height="400" preserveAspectRatio="xMidYMid meet" version="1.0"><defs><clipPath id="id1"><path d="M 37.523438 37.523438 L 262.523438 37.523438 L 262.523438 262.523438 L 37.523438 262.523438 Z M 37.523438 37.523438 " clip-rule="nonzero"/></clipPath><clipPath id="id2"><path d="M 37.523438 37.523438 L 262.523438 37.523438 L 262.523438 262.523438 L 37.523438 262.523438 Z M 37.523438 37.523438 " clip-rule="nonzero"/></clipPath></defs><rect x="-30" width="360" fill="#ffffff" y="-29.999999" height="359.999986" fill-opacity="1"/><rect x="-30" width="360" fill="#d7573b" y="-29.999999" height="359.999986" fill-opacity="1"/><g clip-path="url(#id1)"><path fill="#43241e" d="M 229.574219 70.476562 C 208.324219 49.226562 180.074219 37.523438 150.023438 37.523438 C 119.976562 37.523438 91.722656 49.226562 70.476562 70.476562 C 49.226562 91.722656 37.523438 119.976562 37.523438 150.023438 C 37.523438 180.074219 49.226562 208.324219 70.476562 229.574219 C 91.722656 250.824219 119.976562 262.523438 150.023438 262.523438 C 180.074219 262.523438 208.324219 250.824219 229.574219 229.574219 C 250.820312 208.324219 262.523438 180.074219 262.523438 150.023438 C 262.523438 119.976562 250.820312 91.722656 229.574219 70.476562 Z M 193.65625 222.460938 C 184.496094 228 174.519531 231.695312 163.980469 233.453125 L 163.980469 187.792969 Z M 214.851562 204.289062 L 163.980469 144.867188 L 163.980469 66.597656 C 204.9375 73.417969 234.609375 108.417969 234.609375 150.023438 C 234.609375 169.839844 227.59375 189.089844 214.851562 204.289062 Z M 136.066406 187.792969 L 136.066406 233.453125 C 125.53125 231.695312 115.550781 228 106.390625 222.460938 Z M 136.066406 144.867188 L 85.199219 204.289062 C 72.453125 189.089844 65.441406 169.839844 65.441406 150.023438 C 65.441406 108.417969 95.109375 73.417969 136.066406 66.597656 Z M 136.066406 144.867188 " fill-opacity="1" fill-rule="nonzero"/></g><path fill="#e5c2bd" d="M 228.941406 71.109375 C 207.859375 50.03125 179.835938 38.421875 150.023438 38.421875 C 120.214844 38.421875 92.1875 50.03125 71.109375 71.109375 C 50.03125 92.1875 38.421875 120.214844 38.421875 150.023438 C 38.421875 179.835938 50.03125 207.859375 71.109375 228.941406 C 92.1875 250.019531 120.214844 261.628906 150.023438 261.628906 C 179.835938 261.628906 207.859375 250.019531 228.941406 228.941406 C 250.019531 207.859375 261.628906 179.835938 261.628906 150.023438 C 261.628906 120.214844 250.019531 92.1875 228.941406 71.109375 Z M 63.472656 87.546875 C 50.632812 105.777344 43.84375 127.238281 43.84375 149.617188 C 43.84375 164.304688 46.742188 178.542969 52.457031 191.9375 C 52.554688 192.164062 52.449219 192.425781 52.222656 192.523438 C 52.164062 192.550781 52.105469 192.5625 52.046875 192.5625 C 51.871094 192.5625 51.707031 192.457031 51.632812 192.289062 C 45.871094 178.78125 42.949219 164.425781 42.949219 149.617188 C 42.949219 127.054688 49.792969 105.410156 62.738281 87.03125 C 62.882812 86.828125 63.160156 86.777344 63.363281 86.921875 C 63.566406 87.066406 63.613281 87.34375 63.472656 87.546875 Z M 106.824219 248.253906 C 106.75 248.417969 106.585938 248.511719 106.417969 248.511719 C 106.355469 248.511719 106.289062 248.5 106.230469 248.472656 C 94.429688 243.03125 83.785156 235.578125 74.589844 226.328125 C 74.414062 226.152344 74.414062 225.867188 74.589844 225.695312 C 74.765625 225.519531 75.050781 225.519531 75.222656 225.695312 C 84.347656 234.871094 94.902344 242.261719 106.605469 247.660156 C 106.828125 247.761719 106.929688 248.027344 106.824219 248.253906 Z M 136.964844 233.980469 C 136.964844 234.113281 136.90625 234.234375 136.804688 234.320312 C 136.722656 234.390625 136.621094 234.429688 136.515625 234.429688 C 136.492188 234.429688 136.46875 234.425781 136.445312 234.421875 C 125.429688 232.65625 115.007812 228.796875 105.472656 222.949219 C 105.363281 222.882812 105.285156 222.769531 105.265625 222.636719 C 105.246094 222.507812 105.28125 222.378906 105.367188 222.277344 L 136.175781 186.289062 C 136.296875 186.148438 136.496094 186.09375 136.671875 186.160156 C 136.847656 186.226562 136.964844 186.394531 136.964844 186.582031 Z M 136.964844 145.03125 C 136.964844 145.140625 136.925781 145.242188 136.855469 145.324219 L 85.535156 205.273438 C 85.449219 205.375 85.324219 205.429688 85.195312 205.429688 C 85.0625 205.429688 84.9375 205.375 84.855469 205.273438 C 71.757812 189.847656 64.542969 170.226562 64.542969 150.023438 C 64.542969 129.605469 71.890625 109.824219 85.230469 94.328125 C 98.429688 79 116.617188 68.804688 136.441406 65.625 C 136.574219 65.605469 136.707031 65.644531 136.804688 65.726562 C 136.90625 65.8125 136.960938 65.9375 136.960938 66.070312 L 136.960938 145.03125 Z M 194.574219 222.949219 C 185.039062 228.796875 174.621094 232.65625 163.605469 234.421875 C 163.582031 234.425781 163.558594 234.429688 163.535156 234.429688 C 163.429688 234.429688 163.324219 234.390625 163.242188 234.320312 C 163.144531 234.234375 163.085938 234.113281 163.085938 233.980469 L 163.085938 186.582031 C 163.085938 186.394531 163.203125 186.226562 163.378906 186.160156 C 163.554688 186.09375 163.753906 186.148438 163.875 186.289062 L 194.679688 222.277344 C 194.765625 222.378906 194.804688 222.507812 194.78125 222.636719 C 194.761719 222.769531 194.6875 222.882812 194.574219 222.949219 Z M 215.195312 205.273438 C 215.109375 205.375 214.984375 205.429688 214.855469 205.429688 L 214.851562 205.429688 C 214.722656 205.429688 214.597656 205.375 214.511719 205.273438 L 163.191406 145.324219 C 163.125 145.242188 163.085938 145.140625 163.085938 145.03125 L 163.085938 66.070312 C 163.085938 65.9375 163.144531 65.8125 163.242188 65.726562 C 163.34375 65.644531 163.476562 65.605469 163.605469 65.625 C 183.433594 68.804688 201.621094 79 214.820312 94.328125 C 228.160156 109.824219 235.503906 129.605469 235.503906 150.023438 C 235.503906 170.226562 228.292969 189.847656 215.195312 205.273438 Z M 215.195312 205.273438 " fill-opacity="1" fill-rule="nonzero"/><g clip-path="url(#id2)"><path fill="#43241e" d="M 229.574219 70.476562 C 208.324219 49.226562 180.074219 37.523438 150.023438 37.523438 C 119.976562 37.523438 91.722656 49.226562 70.476562 70.476562 C 49.226562 91.722656 37.523438 119.976562 37.523438 150.023438 C 37.523438 180.074219 49.226562 208.324219 70.476562 229.574219 C 91.722656 250.824219 119.976562 262.523438 150.023438 262.523438 C 180.074219 262.523438 208.324219 250.824219 229.574219 229.574219 C 250.820312 208.324219 262.523438 180.074219 262.523438 150.023438 C 262.523438 119.976562 250.820312 91.722656 229.574219 70.476562 Z M 150.023438 261.628906 C 120.214844 261.628906 92.1875 250.019531 71.109375 228.941406 C 50.03125 207.859375 38.421875 179.835938 38.421875 150.023438 C 38.421875 120.214844 50.03125 92.1875 71.109375 71.109375 C 92.1875 50.03125 120.214844 38.421875 150.023438 38.421875 C 179.835938 38.421875 207.859375 50.03125 228.941406 71.109375 C 250.019531 92.1875 261.628906 120.214844 261.628906 150.023438 C 261.628906 179.835938 250.019531 207.859375 228.941406 228.941406 C 207.859375 250.019531 179.835938 261.628906 150.023438 261.628906 Z M 163.875 186.289062 C 163.753906 186.144531 163.554688 186.09375 163.378906 186.160156 C 163.203125 186.226562 163.085938 186.394531 163.085938 186.582031 L 163.085938 233.980469 C 163.085938 234.113281 163.144531 234.234375 163.242188 234.320312 C 163.324219 234.390625 163.425781 234.429688 163.535156 234.429688 C 163.558594 234.429688 163.582031 234.425781 163.605469 234.421875 C 174.621094 232.65625 185.039062 228.796875 194.574219 222.949219 C 194.6875 222.882812 194.761719 222.769531 194.78125 222.636719 C 194.804688 222.507812 194.765625 222.378906 194.679688 222.277344 Z M 163.980469 233.453125 L 163.980469 187.792969 L 193.65625 222.460938 C 184.496094 228 174.519531 231.695312 163.980469 233.453125 Z M 214.820312 94.328125 C 201.621094 79 183.433594 68.804688 163.605469 65.625 C 163.476562 65.605469 163.34375 65.644531 163.242188 65.726562 C 163.144531 65.8125 163.085938 65.9375 163.085938 66.070312 L 163.085938 145.03125 C 163.085938 145.136719 163.125 145.242188 163.191406 145.324219 L 214.511719 205.273438 C 214.597656 205.375 214.722656 205.429688 214.851562 205.429688 L 214.855469 205.429688 C 214.984375 205.429688 215.109375 205.375 215.195312 205.273438 C 228.292969 189.847656 235.503906 170.226562 235.503906 150.023438 C 235.503906 129.605469 228.160156 109.824219 214.820312 94.328125 Z M 163.980469 144.867188 L 163.980469 66.597656 C 204.9375 73.417969 234.609375 108.417969 234.609375 150.023438 C 234.609375 169.839844 227.59375 189.089844 214.851562 204.289062 Z M 136.445312 65.625 C 116.617188 68.804688 98.429688 79 85.230469 94.328125 C 71.890625 109.824219 64.542969 129.605469 64.542969 150.023438 C 64.542969 170.226562 71.757812 189.847656 84.855469 205.273438 C 84.9375 205.375 85.0625 205.429688 85.195312 205.429688 C 85.328125 205.429688 85.449219 205.375 85.535156 205.273438 L 136.855469 145.324219 C 136.925781 145.242188 136.964844 145.140625 136.964844 145.03125 L 136.964844 66.070312 C 136.964844 65.9375 136.90625 65.8125 136.804688 65.726562 C 136.707031 65.644531 136.574219 65.605469 136.445312 65.625 Z M 136.066406 144.867188 L 85.199219 204.289062 C 72.453125 189.089844 65.441406 169.839844 65.441406 150.023438 C 65.441406 108.417969 95.109375 73.417969 136.066406 66.597656 Z M 136.671875 186.160156 C 136.496094 186.09375 136.296875 186.148438 136.175781 186.289062 L 105.367188 222.277344 C 105.28125 222.378906 105.246094 222.507812 105.265625 222.636719 C 105.285156 222.769531 105.363281 222.882812 105.472656 222.949219 C 115.007812 228.796875 125.429688 232.65625 136.445312 234.421875 C 136.46875 234.425781 136.492188 234.429688 136.515625 234.429688 C 136.621094 234.429688 136.722656 234.390625 136.804688 234.320312 C 136.90625 234.234375 136.964844 234.113281 136.964844 233.980469 L 136.964844 186.582031 C 136.964844 186.394531 136.847656 186.226562 136.671875 186.160156 Z M 136.066406 233.453125 C 125.53125 231.695312 115.550781 228 106.390625 222.460938 L 136.066406 187.792969 Z M 63.363281 86.921875 C 63.566406 87.066406 63.613281 87.34375 63.472656 87.546875 C 50.632812 105.777344 43.84375 127.238281 43.84375 149.617188 C 43.84375 164.304688 46.742188 178.542969 52.457031 191.9375 C 52.554688 192.164062 52.449219 192.425781 52.222656 192.523438 C 52.164062 192.550781 52.105469 192.5625 52.046875 192.5625 C 51.871094 192.5625 51.707031 192.457031 51.632812 192.289062 C 45.871094 178.78125 42.949219 164.425781 42.949219 149.617188 C 42.949219 127.054688 49.792969 105.410156 62.738281 87.03125 C 62.882812 86.828125 63.160156 86.777344 63.363281 86.921875 Z M 106.824219 248.253906 C 106.75 248.417969 106.585938 248.511719 106.417969 248.511719 C 106.355469 248.511719 106.289062 248.5 106.230469 248.472656 C 94.429688 243.03125 83.785156 235.578125 74.589844 226.328125 C 74.414062 226.152344 74.414062 225.867188 74.589844 225.695312 C 74.765625 225.519531 75.050781 225.519531 75.222656 225.695312 C 84.347656 234.871094 94.902344 242.261719 106.605469 247.660156 C 106.828125 247.761719 106.929688 248.027344 106.824219 248.253906 Z M 106.824219 248.253906 " fill-opacity="1" fill-rule="nonzero"/></g></svg>