<svg xmlns="http://www.w3.org/2000/svg" xmlns:xlink="http://www.w3.org/1999/xlink" width="400" zoomAndPan="magnify" viewBox="0 0 300 299.999988" height="400" preserveAspectRatio="xMidYMid meet" version="1.0"><defs><clipPath id="id1"><path d="M 37 35.808594 L 263 35.808594 L 263 264.558594 L 37 264.558594 Z M 37 35.808594 " clip-rule="nonzero"/></clipPath><clipPath id="id2"><path d="M 37 35.808594 L 263 35.808594 L 263 264.558594 L 37 264.558594 Z M 37 35.808594 " clip-rule="nonzero"/></clipPath></defs><rect x="-30" width="360" fill="#ffffff" y="-29.999999" height="359.999986" fill-opacity="1"/><rect x="-30" width="360" fill="#f8807f" y="-29.999999" height="359.999986" fill-opacity="1"/><g clip-path="url(#id1)"><path fill="#43241e" d="M 261.007812 140.578125 C 256.261719 151.367188 243.082031 158.828125 218.277344 164.773438 C 215.746094 165.378906 213.148438 165.710938 210.53125 165.765625 C 214.671875 167.394531 218.695312 168.351562 223.289062 168.824219 C 231.1875 169.628906 237.609375 174.230469 241.378906 181.773438 C 247.238281 193.511719 245.839844 210.296875 237.898438 223.539062 C 230.277344 236.246094 222.285156 242.890625 213.464844 243.855469 C 212.726562 243.933594 211.984375 243.972656 211.246094 243.972656 C 198.289062 243.976562 185.121094 231.960938 173.832031 220.015625 C 173.0625 219.203125 172.214844 218.460938 171.394531 217.738281 C 170.21875 216.710938 169.015625 215.65625 168.039062 214.382812 C 168.0625 214.699219 168.082031 215.007812 168.105469 215.308594 C 168.296875 218.136719 168.433594 220.179688 170.363281 224.480469 C 173.613281 231.738281 172.851562 239.613281 168.214844 246.65625 C 161.136719 257.410156 146.355469 264.523438 131.230469 264.523438 C 130.949219 264.523438 130.667969 264.523438 130.382812 264.515625 C 116.214844 264.265625 106.71875 260.574219 101.351562 253.230469 C 94.507812 243.867188 94.539062 229.019531 101.476562 205.183594 C 100.296875 205.976562 99.019531 206.855469 97.800781 207.765625 C 88.945312 214.375 77.761719 216.921875 67.117188 214.75 C 57.140625 212.710938 48.867188 206.816406 43.816406 198.152344 C 36.414062 185.453125 35.1875 173.003906 40.261719 162.148438 C 46.101562 149.660156 60.347656 140.007812 77.644531 136.746094 C 76.5 136.183594 75.246094 135.589844 73.964844 135.039062 C 63.828125 130.65625 56.035156 122.222656 52.589844 111.898438 C 49.363281 102.222656 50.320312 92.089844 55.28125 83.375 C 62.554688 70.601562 72.699219 63.3125 84.617188 62.289062 C 98.328125 61.113281 113.789062 68.652344 125.261719 82.03125 C 125.171875 80.761719 125.058594 79.375 124.894531 77.984375 C 123.609375 66.996094 127.003906 56.015625 134.203125 47.863281 C 140.953125 40.222656 150.183594 35.988281 160.195312 35.9375 C 180.089844 35.839844 189.785156 45.121094 194.421875 52.933594 C 202.542969 66.613281 201.820312 86.679688 192.6875 104.558594 C 196.121094 101.800781 199.003906 98.742188 201.660156 95.054688 C 206.304688 88.605469 213.492188 85.332031 221.894531 85.832031 C 234.96875 86.613281 248.769531 96.222656 256.246094 109.738281 C 263.113281 122.15625 264.667969 132.246094 261.007812 140.578125 Z M 261.007812 140.578125 " fill-opacity="1" fill-rule="nonzero"/></g><path fill="#c16d02" d="M 260.175781 140.210938 C 263.714844 132.15625 262.171875 122.332031 255.449219 110.179688 C 248.121094 96.925781 234.613281 87.503906 221.839844 86.742188 C 213.761719 86.257812 206.855469 89.398438 202.398438 95.589844 C 199.269531 99.929688 195.832031 103.417969 191.574219 106.566406 C 191.402344 106.695312 191.167969 106.683594 191.007812 106.542969 C 190.84375 106.402344 190.804688 106.167969 190.90625 105.980469 C 200.808594 87.925781 201.882812 67.285156 193.640625 53.398438 C 187.167969 42.492188 175.601562 36.789062 160.203125 36.847656 C 150.449219 36.894531 141.460938 41.023438 134.886719 48.464844 C 127.855469 56.425781 124.542969 67.144531 125.796875 77.878906 C 126.023438 79.8125 126.15625 81.734375 126.257812 83.359375 C 126.269531 83.554688 126.15625 83.738281 125.972656 83.8125 C 125.789062 83.882812 125.578125 83.828125 125.453125 83.675781 C 114.089844 69.859375 98.472656 62.011719 84.695312 63.195312 C 73.085938 64.191406 63.1875 71.324219 56.074219 83.824219 C 51.238281 92.3125 50.308594 102.179688 53.453125 111.609375 C 56.816406 121.6875 64.425781 129.921875 74.328125 134.199219 C 76.109375 134.972656 77.835938 135.816406 79.292969 136.542969 C 79.46875 136.628906 79.570312 136.820312 79.539062 137.015625 C 79.511719 137.210938 79.359375 137.367188 79.164062 137.398438 C 61.542969 140.355469 46.953125 149.984375 41.085938 162.535156 C 36.144531 173.109375 37.359375 185.265625 44.601562 197.691406 C 49.519531 206.132812 57.582031 211.871094 67.300781 213.855469 C 77.691406 215.976562 88.613281 213.492188 97.261719 207.039062 C 98.867188 205.835938 100.566406 204.691406 102.019531 203.730469 C 102.09375 203.679688 102.183594 203.65625 102.269531 203.65625 C 102.367188 203.65625 102.460938 203.683594 102.542969 203.746094 C 102.695312 203.863281 102.761719 204.0625 102.703125 204.246094 C 102.703125 204.25 102.6875 204.289062 102.6875 204.292969 C 95.503906 228.507812 95.320312 243.433594 102.085938 252.691406 C 107.277344 259.792969 116.539062 263.363281 130.402344 263.609375 C 145.519531 263.871094 160.410156 256.863281 167.457031 246.15625 C 171.917969 239.382812 172.65625 231.820312 169.535156 224.855469 C 167.542969 220.40625 167.398438 218.292969 167.199219 215.371094 C 167.140625 214.53125 167.082031 213.660156 166.972656 212.636719 C 166.949219 212.421875 167.082031 212.21875 167.292969 212.152344 C 167.5 212.089844 167.726562 212.183594 167.828125 212.378906 C 168.8125 214.265625 170.359375 215.621094 171.996094 217.054688 C 172.832031 217.789062 173.695312 218.546875 174.496094 219.390625 C 185.644531 231.191406 198.636719 243.0625 211.246094 243.0625 C 211.957031 243.0625 212.660156 243.027344 213.367188 242.949219 C 221.886719 242.019531 229.65625 235.519531 237.121094 223.070312 C 244.910156 210.085938 246.292969 193.652344 240.566406 182.183594 C 236.945312 174.925781 230.777344 170.503906 223.199219 169.730469 C 217.71875 169.167969 213.039062 167.929688 208.027344 165.707031 C 207.828125 165.617188 207.71875 165.398438 207.769531 165.1875 C 207.816406 164.972656 208.011719 164.824219 208.230469 164.835938 C 211.554688 164.972656 214.867188 164.65625 218.066406 163.886719 C 242.570312 158.015625 255.554688 150.714844 260.175781 140.210938 Z M 216.359375 150.964844 C 213.667969 156.519531 207.867188 160.648438 198.640625 163.574219 C 201.148438 165.410156 203.164062 168.007812 204.5 171.140625 C 207.953125 179.246094 206.628906 189.9375 201.132812 198.378906 C 194.847656 208.03125 187.492188 212.140625 179.277344 210.59375 C 179.277344 210.59375 179.273438 210.59375 179.273438 210.59375 C 174.410156 209.675781 169.539062 206.867188 164.007812 201.78125 C 163.699219 204.746094 162.585938 207.59375 160.683594 210.257812 C 155.78125 217.136719 146.613281 221.402344 136.964844 221.402344 C 136.371094 221.402344 135.773438 221.386719 135.175781 221.351562 C 133.203125 221.242188 131.335938 221.027344 129.632812 220.703125 C 122.78125 219.414062 117.898438 216.34375 115.117188 211.582031 C 112.167969 206.535156 111.695312 199.71875 113.679688 190.769531 C 109.433594 192.195312 104.929688 192.519531 100.601562 191.707031 C 93.320312 190.335938 87.175781 185.859375 83.738281 179.425781 C 77.90625 168.511719 79.808594 160.125 82.4375 155.011719 C 85.40625 149.222656 90.921875 144.496094 98.007812 141.640625 C 94.3125 138.378906 91.644531 134.195312 90.269531 129.5 C 88.304688 122.78125 89.222656 115.851562 92.855469 109.984375 C 99.242188 99.671875 108.53125 95.082031 119.007812 97.054688 C 123.667969 97.933594 128.363281 100.15625 132.636719 103.503906 C 133.605469 98.65625 135.886719 94.238281 139.265625 90.691406 C 144.085938 85.625 150.53125 82.953125 157.421875 83.175781 C 159.304688 83.238281 161.132812 83.429688 162.847656 83.753906 C 171.347656 85.355469 177.582031 90.074219 180.867188 97.402344 C 183.097656 102.367188 183.8125 108.230469 182.949219 114.414062 C 186.199219 112.96875 189.933594 112.589844 193.808594 113.320312 C 202.125 114.886719 209.960938 121.140625 214.257812 129.644531 C 218.472656 137.976562 219.179688 145.152344 216.359375 150.964844 Z M 216.359375 150.964844 " fill-opacity="1" fill-rule="nonzero"/><path fill="#dca7a0" d="M 213.449219 130.054688 C 209.277344 121.800781 201.683594 115.730469 193.636719 114.214844 C 189.648438 113.464844 185.824219 113.941406 182.578125 115.597656 C 182.425781 115.675781 182.242188 115.660156 182.105469 115.558594 C 181.964844 115.460938 181.894531 115.289062 181.921875 115.121094 C 182.949219 108.800781 182.296875 102.804688 180.039062 97.773438 C 176.878906 90.730469 170.875 86.195312 162.679688 84.652344 C 161.007812 84.335938 159.230469 84.144531 157.390625 84.085938 C 150.765625 83.871094 144.5625 86.445312 139.921875 91.320312 C 136.496094 94.917969 134.238281 99.445312 133.390625 104.410156 C 133.363281 104.566406 133.253906 104.699219 133.105469 104.757812 C 132.953125 104.816406 132.78125 104.785156 132.65625 104.683594 C 128.347656 101.167969 123.566406 98.839844 118.839844 97.949219 C 108.757812 96.050781 99.800781 100.496094 93.625 110.464844 C 90.128906 116.109375 89.25 122.777344 91.140625 129.242188 C 92.539062 134.007812 95.3125 138.222656 99.167969 141.4375 C 99.292969 141.542969 99.351562 141.703125 99.328125 141.863281 C 99.300781 142.023438 99.191406 142.15625 99.039062 142.214844 C 91.820312 144.957031 86.210938 149.648438 83.242188 155.429688 C 80.71875 160.347656 78.890625 168.429688 84.539062 178.996094 C 87.84375 185.183594 93.761719 189.492188 100.769531 190.808594 C 105.203125 191.644531 109.828125 191.238281 114.144531 189.636719 C 114.304688 189.578125 114.480469 189.609375 114.605469 189.722656 C 114.730469 189.832031 114.785156 190.003906 114.746094 190.167969 C 112.609375 199.28125 112.988281 206.136719 115.898438 211.121094 C 118.542969 215.648438 123.21875 218.570312 129.800781 219.808594 C 131.464844 220.125 133.292969 220.335938 135.226562 220.441406 C 145.210938 220.996094 154.914062 216.785156 159.945312 209.730469 C 161.945312 206.925781 163.03125 203.914062 163.171875 200.78125 C 163.179688 200.601562 163.289062 200.445312 163.453125 200.378906 C 163.617188 200.3125 163.808594 200.347656 163.9375 200.46875 C 169.628906 205.84375 174.554688 208.777344 179.445312 209.699219 C 179.445312 209.699219 179.445312 209.699219 179.449219 209.699219 C 187.265625 211.171875 194.304688 207.191406 200.371094 197.878906 C 205.707031 189.6875 207 179.332031 203.664062 171.5 C 202.261719 168.210938 200.082031 165.550781 197.359375 163.800781 C 197.210938 163.707031 197.128906 163.53125 197.15625 163.355469 C 197.179688 163.179688 197.304688 163.03125 197.472656 162.980469 C 206.972656 160.117188 212.882812 156.058594 215.542969 150.566406 C 218.230469 145.023438 217.527344 138.121094 213.449219 130.054688 Z M 212.921875 149.292969 C 209.953125 155.425781 202.210938 159.445312 187.828125 162.332031 C 186.667969 162.5625 185.484375 162.699219 184.296875 162.734375 C 186.316406 163.535156 188.328125 164.054688 190.601562 164.371094 C 195.167969 165.011719 198.800781 167.820312 200.824219 172.277344 C 203.953125 179.175781 202.792969 188.824219 197.933594 196.285156 C 193.464844 203.148438 188.738281 206.664062 183.488281 207.042969 C 176.703125 207.527344 169.355469 202.820312 159.671875 191.78125 C 158.890625 190.890625 158.183594 189.929688 157.558594 188.917969 C 157.875 191.070312 158.433594 193.078125 159.296875 195.207031 C 161.027344 199.492188 160.417969 204.046875 157.574219 208.035156 C 153.433594 213.847656 145.269531 217.570312 136.910156 217.570312 C 136.402344 217.570312 135.894531 217.554688 135.386719 217.527344 C 127.21875 217.082031 121.816406 214.738281 118.863281 210.367188 C 115.160156 204.882812 115.429688 196.480469 119.761719 183.226562 C 119.207031 183.574219 118.625 183.949219 118.066406 184.335938 C 112.816406 187.960938 106.308594 189.1875 100.210938 187.707031 C 94.492188 186.3125 89.835938 182.730469 87.105469 177.617188 C 83.109375 170.136719 82.667969 162.925781 85.832031 156.765625 C 89.394531 149.824219 97.554688 144.632812 107.324219 143.011719 C 106.828125 142.753906 106.308594 142.488281 105.777344 142.234375 C 100.019531 139.492188 95.703125 134.457031 93.9375 128.421875 C 92.277344 122.761719 93.046875 116.933594 96.101562 112.003906 C 100.566406 104.792969 106.578125 100.808594 113.484375 100.472656 C 121.261719 100.097656 129.828125 104.582031 136.113281 112.25 C 136.089844 111.691406 136.058594 111.105469 136.011719 110.519531 C 135.503906 104.148438 137.699219 97.886719 142.027344 93.335938 C 146.089844 89.066406 151.511719 86.816406 157.296875 87.003906 C 168.769531 87.371094 174.171875 92.945312 176.683594 97.554688 C 180.953125 105.398438 180.273438 116.539062 175.035156 126.433594 C 176.734375 125.082031 178.214844 123.570312 179.605469 121.78125 C 182.445312 118.136719 186.683594 116.386719 191.550781 116.863281 C 199.078125 117.59375 206.832031 123.425781 210.851562 131.375 C 214.546875 138.683594 215.222656 144.546875 212.921875 149.292969 Z M 212.921875 149.292969 " fill-opacity="1" fill-rule="nonzero"/><path fill="#e1bf4b" d="M 191.464844 117.769531 C 188.246094 117.457031 183.707031 117.996094 180.324219 122.34375 C 178.429688 124.777344 176.375 126.710938 173.855469 128.433594 C 173.679688 128.554688 173.445312 128.535156 173.289062 128.390625 C 173.132812 128.242188 173.101562 128.007812 173.210938 127.824219 C 179.222656 117.761719 180.273438 106.054688 175.886719 97.992188 C 172.449219 91.679688 166.011719 88.195312 157.269531 87.914062 C 151.746094 87.738281 146.566406 89.886719 142.6875 93.964844 C 138.535156 98.328125 136.433594 104.335938 136.917969 110.445312 C 137.007812 111.5625 137.042969 112.667969 137.066406 113.601562 C 137.070312 113.800781 136.949219 113.976562 136.761719 114.042969 C 136.578125 114.109375 136.371094 114.046875 136.25 113.890625 C 130.078125 105.792969 121.375 101.007812 113.53125 101.382812 C 106.933594 101.703125 101.175781 105.542969 96.875 112.484375 C 93.957031 117.191406 93.226562 122.757812 94.808594 128.164062 C 96.503906 133.949219 100.644531 138.78125 106.167969 141.414062 C 107.171875 141.894531 108.148438 142.414062 108.96875 142.863281 C 109.140625 142.957031 109.234375 143.152344 109.199219 143.347656 C 109.164062 143.539062 109.007812 143.6875 108.8125 143.714844 C 98.730469 145.023438 90.234375 150.183594 86.640625 157.179688 C 83.621094 163.066406 84.058594 169.984375 87.90625 177.1875 C 90.515625 182.070312 94.960938 185.492188 100.425781 186.820312 C 106.273438 188.242188 112.515625 187.0625 117.554688 183.585938 C 118.503906 182.929688 119.503906 182.308594 120.355469 181.789062 C 120.425781 181.742188 120.507812 181.722656 120.589844 181.722656 C 120.691406 181.722656 120.792969 181.753906 120.878906 181.824219 C 121.027344 181.945312 121.082031 182.148438 121.019531 182.328125 C 116.410156 195.992188 115.980469 204.472656 119.617188 209.859375 C 122.398438 213.976562 127.574219 216.1875 135.433594 216.617188 C 144.015625 217.089844 152.613281 213.425781 156.835938 207.503906 C 158.714844 204.871094 160.519531 200.65625 158.453125 195.550781 C 157.261719 192.601562 156.628906 189.875 156.410156 186.71875 C 156.394531 186.5 156.535156 186.300781 156.746094 186.246094 C 156.957031 186.1875 157.179688 186.292969 157.273438 186.488281 C 158.085938 188.199219 159.125 189.773438 160.355469 191.179688 C 169.835938 201.984375 176.949219 206.597656 183.421875 206.132812 C 188.371094 205.777344 192.871094 202.394531 197.171875 195.785156 C 201.871094 188.574219 203.003906 179.277344 199.996094 172.652344 C 198.660156 169.707031 195.921875 166.035156 190.476562 165.273438 C 187.332031 164.832031 184.664062 164.019531 181.820312 162.628906 C 181.625 162.535156 181.523438 162.3125 181.582031 162.101562 C 181.640625 161.890625 181.839844 161.75 182.054688 161.769531 C 183.9375 161.914062 185.820312 161.804688 187.648438 161.4375 C 201.726562 158.613281 209.269531 154.746094 212.105469 148.894531 C 214.273438 144.421875 213.597656 138.824219 210.039062 131.785156 C 206.15625 124.105469 198.691406 118.472656 191.464844 117.769531 Z M 175.125 157.671875 C 173.714844 165.199219 169.460938 171.730469 163.148438 176.050781 C 158.335938 179.351562 152.765625 181.066406 147.058594 181.066406 C 145.28125 181.066406 143.496094 180.898438 141.710938 180.5625 C 126.203125 177.644531 115.957031 162.621094 118.871094 147.074219 C 120.28125 139.546875 124.535156 133.015625 130.847656 128.695312 C 137.15625 124.371094 144.769531 122.769531 152.285156 124.183594 C 167.792969 127.105469 178.042969 142.125 175.125 157.671875 Z M 175.125 157.671875 " fill-opacity="1" fill-rule="nonzero"/><path fill="#f6e5cf" d="M 174.234375 157.503906 C 172.867188 164.792969 168.746094 171.113281 162.636719 175.300781 C 156.527344 179.488281 149.15625 181.039062 141.878906 179.667969 C 126.863281 176.839844 116.941406 162.292969 119.761719 147.242188 C 121.128906 139.953125 125.25 133.632812 131.359375 129.445312 C 136.019531 126.25 141.414062 124.589844 146.941406 124.589844 C 148.660156 124.589844 150.390625 124.753906 152.117188 125.078125 C 167.132812 127.90625 177.054688 142.453125 174.234375 157.503906 Z M 174.234375 157.503906 " fill-opacity="1" fill-rule="nonzero"/><g clip-path="url(#id2)"><path fill="#43241e" d="M 256.246094 109.734375 C 248.769531 96.21875 234.96875 86.613281 221.894531 85.832031 C 213.492188 85.332031 206.304688 88.605469 201.660156 95.054688 C 199.003906 98.742188 196.121094 101.800781 192.6875 104.558594 C 201.820312 86.679688 202.542969 66.613281 194.421875 52.929688 C 189.789062 45.121094 180.089844 35.839844 160.195312 35.9375 C 150.183594 35.988281 140.953125 40.222656 134.203125 47.863281 C 127.003906 56.015625 123.609375 66.996094 124.894531 77.984375 C 125.058594 79.375 125.171875 80.761719 125.261719 82.03125 C 113.789062 68.652344 98.328125 61.109375 84.617188 62.289062 C 72.699219 63.3125 62.554688 70.601562 55.28125 83.375 C 50.320312 92.089844 49.363281 102.21875 52.589844 111.898438 C 56.035156 122.222656 63.828125 130.65625 73.964844 135.035156 C 75.246094 135.589844 76.5 136.183594 77.644531 136.742188 C 60.347656 140.007812 46.101562 149.660156 40.261719 162.148438 C 35.1875 173.003906 36.414062 185.453125 43.816406 198.152344 C 48.867188 206.816406 57.140625 212.710938 67.117188 214.746094 C 77.761719 216.921875 88.945312 214.375 97.800781 207.765625 C 99.019531 206.855469 100.296875 205.976562 101.476562 205.183594 C 94.539062 229.019531 94.507812 243.863281 101.351562 253.230469 C 106.71875 260.574219 116.214844 264.265625 130.382812 264.515625 C 130.667969 264.523438 130.949219 264.523438 131.230469 264.523438 C 146.355469 264.523438 161.136719 257.410156 168.214844 246.65625 C 172.851562 239.613281 173.613281 231.738281 170.363281 224.480469 C 168.433594 220.179688 168.296875 218.136719 168.105469 215.308594 C 168.082031 215.007812 168.0625 214.699219 168.039062 214.382812 C 169.015625 215.652344 170.21875 216.710938 171.394531 217.738281 C 172.214844 218.457031 173.0625 219.203125 173.832031 220.015625 C 185.121094 231.960938 198.289062 243.976562 211.246094 243.972656 C 211.984375 243.972656 212.726562 243.933594 213.464844 243.855469 C 222.285156 242.890625 230.277344 236.246094 237.898438 223.539062 C 245.839844 210.292969 247.238281 193.511719 241.378906 181.773438 C 237.609375 174.230469 231.1875 169.628906 223.289062 168.824219 C 218.695312 168.351562 214.671875 167.394531 210.53125 165.765625 C 213.148438 165.710938 215.746094 165.378906 218.277344 164.773438 C 243.082031 158.828125 256.261719 151.367188 261.007812 140.574219 C 264.667969 132.246094 263.113281 122.15625 256.246094 109.734375 Z M 208.226562 164.832031 C 208.007812 164.824219 207.816406 164.972656 207.765625 165.183594 C 207.71875 165.398438 207.828125 165.617188 208.027344 165.707031 C 213.039062 167.925781 217.71875 169.167969 223.199219 169.726562 C 230.777344 170.503906 236.941406 174.925781 240.566406 182.179688 C 246.292969 193.652344 244.90625 210.082031 237.117188 223.070312 C 229.652344 235.515625 221.882812 242.019531 213.367188 242.949219 C 212.660156 243.023438 211.953125 243.0625 211.246094 243.0625 C 198.632812 243.0625 185.644531 231.1875 174.492188 219.390625 C 173.695312 218.542969 172.832031 217.785156 171.992188 217.054688 C 170.355469 215.617188 168.8125 214.261719 167.824219 212.375 C 167.726562 212.183594 167.5 212.089844 167.292969 212.152344 C 167.082031 212.214844 166.949219 212.417969 166.972656 212.636719 C 167.082031 213.660156 167.140625 214.53125 167.199219 215.371094 C 167.398438 218.292969 167.539062 220.402344 169.535156 224.855469 C 172.652344 231.816406 171.914062 239.382812 167.457031 246.152344 C 160.410156 256.859375 145.519531 263.871094 130.398438 263.605469 C 116.535156 263.359375 107.273438 259.789062 102.085938 252.691406 C 95.320312 243.429688 95.503906 228.507812 102.6875 204.292969 C 102.6875 204.285156 102.699219 204.25 102.703125 204.242188 C 102.757812 204.058594 102.695312 203.859375 102.542969 203.746094 C 102.460938 203.683594 102.363281 203.652344 102.269531 203.652344 C 102.179688 203.652344 102.09375 203.679688 102.019531 203.726562 C 100.566406 204.691406 98.867188 205.835938 97.257812 207.035156 C 88.613281 213.492188 77.691406 215.976562 67.300781 213.855469 C 57.582031 211.871094 49.519531 206.128906 44.601562 197.691406 C 37.359375 185.265625 36.140625 173.105469 41.085938 162.535156 C 46.953125 149.984375 61.542969 140.351562 79.164062 137.398438 C 79.359375 137.367188 79.511719 137.210938 79.539062 137.015625 C 79.566406 136.820312 79.46875 136.628906 79.292969 136.539062 C 77.835938 135.816406 76.105469 134.96875 74.324219 134.199219 C 64.421875 129.921875 56.816406 121.6875 53.453125 111.605469 C 50.308594 102.179688 51.238281 92.3125 56.070312 83.824219 C 63.1875 71.324219 73.085938 64.191406 84.691406 63.191406 C 98.46875 62.007812 114.089844 69.859375 125.453125 83.675781 C 125.578125 83.828125 125.785156 83.882812 125.96875 83.808594 C 126.152344 83.738281 126.269531 83.554688 126.257812 83.359375 C 126.15625 81.734375 126.023438 79.8125 125.796875 77.875 C 124.542969 67.144531 127.855469 56.421875 134.882812 48.464844 C 141.457031 41.019531 150.449219 36.894531 160.199219 36.84375 C 175.601562 36.789062 187.167969 42.492188 193.640625 53.394531 C 201.882812 67.28125 200.808594 87.921875 190.90625 105.980469 C 190.804688 106.167969 190.84375 106.402344 191.003906 106.542969 C 191.164062 106.683594 191.402344 106.691406 191.574219 106.566406 C 195.828125 103.417969 199.269531 99.925781 202.394531 95.585938 C 206.851562 89.398438 213.757812 86.253906 221.839844 86.738281 C 234.613281 87.503906 248.121094 96.921875 255.449219 110.175781 C 262.167969 122.332031 263.714844 132.15625 260.175781 140.207031 C 255.554688 150.710938 242.566406 158.015625 218.0625 163.882812 C 214.863281 164.652344 211.554688 164.972656 208.226562 164.832031 Z M 193.804688 113.320312 C 189.933594 112.589844 186.199219 112.96875 182.949219 114.414062 C 183.8125 108.230469 183.097656 102.367188 180.867188 97.402344 C 177.578125 90.074219 171.347656 85.355469 162.847656 83.753906 C 161.128906 83.429688 159.304688 83.238281 157.421875 83.175781 C 150.53125 82.953125 144.085938 85.625 139.261719 90.691406 C 135.886719 94.238281 133.605469 98.65625 132.636719 103.503906 C 128.363281 100.15625 123.664062 97.929688 119.007812 97.054688 C 108.527344 95.082031 99.242188 99.671875 92.855469 109.984375 C 89.21875 115.851562 88.300781 122.78125 90.269531 129.5 C 91.644531 134.195312 94.3125 138.378906 98.007812 141.640625 C 90.917969 144.496094 85.40625 149.222656 82.433594 155.011719 C 79.808594 160.125 77.90625 168.507812 83.734375 179.425781 C 87.171875 185.859375 93.320312 190.335938 100.601562 191.707031 C 104.929688 192.519531 109.433594 192.195312 113.675781 190.769531 C 111.695312 199.71875 112.167969 206.535156 115.117188 211.582031 C 117.898438 216.347656 122.78125 219.414062 129.632812 220.703125 C 131.335938 221.027344 133.203125 221.242188 135.175781 221.351562 C 135.773438 221.386719 136.371094 221.402344 136.964844 221.402344 C 146.613281 221.402344 155.78125 217.136719 160.683594 210.257812 C 162.582031 207.59375 163.699219 204.746094 164.007812 201.78125 C 169.539062 206.867188 174.410156 209.675781 179.273438 210.59375 C 179.273438 210.59375 179.277344 210.59375 179.277344 210.59375 C 187.492188 212.140625 194.847656 208.03125 201.132812 198.378906 C 206.628906 189.9375 207.949219 179.246094 204.5 171.140625 C 203.164062 168.007812 201.148438 165.410156 198.636719 163.574219 C 207.867188 160.648438 213.667969 156.519531 216.359375 150.964844 C 219.175781 145.152344 218.46875 137.976562 214.257812 129.644531 C 209.960938 121.140625 202.125 114.886719 193.804688 113.320312 Z M 197.476562 162.980469 C 197.304688 163.03125 197.179688 163.179688 197.15625 163.355469 C 197.132812 163.53125 197.210938 163.707031 197.359375 163.800781 C 200.082031 165.550781 202.261719 168.210938 203.664062 171.5 C 207 179.332031 205.707031 189.6875 200.371094 197.878906 C 194.304688 207.191406 187.265625 211.171875 179.449219 209.699219 C 179.449219 209.699219 179.445312 209.699219 179.445312 209.699219 C 174.554688 208.777344 169.628906 205.84375 163.9375 200.46875 C 163.808594 200.347656 163.617188 200.3125 163.453125 200.378906 C 163.289062 200.445312 163.179688 200.601562 163.171875 200.78125 C 163.03125 203.914062 161.945312 206.925781 159.945312 209.730469 C 154.914062 216.785156 145.214844 220.996094 135.226562 220.441406 C 133.292969 220.335938 131.464844 220.125 129.800781 219.808594 C 123.21875 218.570312 118.542969 215.648438 115.898438 211.121094 C 112.988281 206.136719 112.609375 199.28125 114.746094 190.167969 C 114.785156 190.003906 114.730469 189.832031 114.605469 189.722656 C 114.480469 189.609375 114.304688 189.578125 114.144531 189.636719 C 109.828125 191.238281 105.203125 191.644531 100.769531 190.808594 C 93.761719 189.488281 87.84375 185.183594 84.539062 178.996094 C 78.890625 168.429688 80.71875 160.347656 83.242188 155.429688 C 86.210938 149.648438 91.820312 144.957031 99.039062 142.214844 C 99.191406 142.15625 99.300781 142.023438 99.328125 141.863281 C 99.351562 141.703125 99.292969 141.542969 99.167969 141.4375 C 95.3125 138.222656 92.539062 134.007812 91.144531 129.242188 C 89.25 122.777344 90.128906 116.105469 93.628906 110.464844 C 99.804688 100.496094 108.757812 96.050781 118.839844 97.949219 C 123.566406 98.839844 128.347656 101.167969 132.65625 104.683594 C 132.78125 104.785156 132.953125 104.816406 133.105469 104.757812 C 133.253906 104.703125 133.363281 104.566406 133.390625 104.410156 C 134.238281 99.445312 136.496094 94.917969 139.921875 91.320312 C 144.5625 86.441406 150.765625 83.871094 157.390625 84.085938 C 159.230469 84.144531 161.007812 84.335938 162.679688 84.652344 C 170.875 86.195312 176.878906 90.730469 180.039062 97.773438 C 182.296875 102.804688 182.949219 108.800781 181.921875 115.121094 C 181.894531 115.289062 181.964844 115.460938 182.105469 115.558594 C 182.242188 115.660156 182.425781 115.675781 182.578125 115.597656 C 185.824219 113.941406 189.648438 113.464844 193.640625 114.214844 C 201.683594 115.730469 209.277344 121.800781 213.449219 130.054688 C 217.527344 138.121094 218.230469 145.023438 215.542969 150.566406 C 212.882812 156.058594 206.972656 160.121094 197.476562 162.980469 Z M 191.550781 116.863281 C 186.683594 116.390625 182.445312 118.136719 179.605469 121.78125 C 178.214844 123.570312 176.734375 125.082031 175.035156 126.433594 C 180.273438 116.539062 180.953125 105.398438 176.683594 97.558594 C 174.171875 92.945312 168.769531 87.371094 157.296875 87.003906 C 151.511719 86.820312 146.089844 89.066406 142.027344 93.335938 C 137.699219 97.886719 135.503906 104.148438 136.011719 110.519531 C 136.058594 111.105469 136.089844 111.691406 136.113281 112.25 C 129.828125 104.582031 121.261719 100.097656 113.484375 100.472656 C 106.578125 100.808594 100.566406 104.792969 96.101562 112.003906 C 93.046875 116.933594 92.277344 122.761719 93.9375 128.421875 C 95.703125 134.457031 100.019531 139.492188 105.777344 142.234375 C 106.308594 142.488281 106.828125 142.753906 107.324219 143.015625 C 97.554688 144.632812 89.394531 149.824219 85.832031 156.765625 C 82.667969 162.925781 83.109375 170.136719 87.105469 177.617188 C 89.835938 182.730469 94.492188 186.316406 100.210938 187.707031 C 106.308594 189.1875 112.816406 187.960938 118.066406 184.335938 C 118.625 183.949219 119.207031 183.574219 119.761719 183.226562 C 115.429688 196.480469 115.160156 204.882812 118.863281 210.371094 C 121.816406 214.738281 127.21875 217.082031 135.386719 217.527344 C 135.894531 217.554688 136.402344 217.570312 136.910156 217.570312 C 145.269531 217.570312 153.429688 213.847656 157.574219 208.035156 C 160.414062 204.046875 161.027344 199.492188 159.296875 195.207031 C 158.433594 193.078125 157.875 191.070312 157.558594 188.917969 C 158.183594 189.933594 158.890625 190.890625 159.671875 191.78125 C 169.355469 202.824219 176.703125 207.527344 183.488281 207.042969 C 188.738281 206.667969 193.464844 203.148438 197.933594 196.285156 C 202.792969 188.824219 203.953125 179.175781 200.824219 172.277344 C 198.800781 167.820312 195.167969 165.011719 190.601562 164.371094 C 188.328125 164.054688 186.316406 163.535156 184.296875 162.734375 C 185.484375 162.699219 186.667969 162.5625 187.828125 162.332031 C 202.210938 159.445312 209.953125 155.425781 212.921875 149.292969 C 215.222656 144.546875 214.546875 138.683594 210.851562 131.375 C 206.832031 123.425781 199.078125 117.59375 191.550781 116.863281 Z M 212.105469 148.894531 C 209.269531 154.746094 201.726562 158.613281 187.648438 161.4375 C 185.820312 161.804688 183.9375 161.917969 182.054688 161.769531 C 181.839844 161.75 181.640625 161.890625 181.582031 162.101562 C 181.523438 162.3125 181.625 162.535156 181.820312 162.628906 C 184.660156 164.019531 187.332031 164.832031 190.476562 165.273438 C 195.921875 166.035156 198.660156 169.707031 199.996094 172.652344 C 203.003906 179.277344 201.871094 188.574219 197.171875 195.785156 C 192.871094 202.394531 188.371094 205.777344 183.421875 206.132812 C 176.949219 206.597656 169.835938 201.984375 160.355469 191.179688 C 159.125 189.773438 158.085938 188.199219 157.273438 186.488281 C 157.179688 186.292969 156.957031 186.1875 156.746094 186.246094 C 156.535156 186.300781 156.394531 186.5 156.410156 186.71875 C 156.628906 189.875 157.261719 192.601562 158.453125 195.550781 C 160.519531 200.65625 158.710938 204.871094 156.835938 207.503906 C 152.613281 213.425781 144.015625 217.089844 135.433594 216.617188 C 127.574219 216.1875 122.398438 213.976562 119.617188 209.859375 C 115.980469 204.472656 116.40625 195.992188 121.019531 182.328125 C 121.082031 182.148438 121.027344 181.945312 120.875 181.824219 C 120.792969 181.757812 120.691406 181.722656 120.589844 181.722656 C 120.507812 181.722656 120.425781 181.742188 120.355469 181.789062 C 119.5 182.308594 118.503906 182.929688 117.550781 183.585938 C 112.515625 187.0625 106.273438 188.242188 100.425781 186.820312 C 94.960938 185.492188 90.515625 182.070312 87.90625 177.1875 C 84.058594 169.984375 83.621094 163.0625 86.640625 157.179688 C 90.234375 150.183594 98.730469 145.023438 108.808594 143.714844 C 109.003906 143.6875 109.164062 143.539062 109.199219 143.347656 C 109.234375 143.152344 109.140625 142.957031 108.96875 142.863281 C 108.148438 142.414062 107.171875 141.894531 106.167969 141.414062 C 100.644531 138.78125 96.503906 133.949219 94.808594 128.164062 C 93.222656 122.757812 93.957031 117.191406 96.871094 112.484375 C 101.175781 105.542969 106.933594 101.703125 113.527344 101.382812 C 121.375 101.007812 130.078125 105.792969 136.25 113.890625 C 136.371094 114.046875 136.574219 114.109375 136.761719 114.042969 C 136.949219 113.976562 137.070312 113.800781 137.066406 113.601562 C 137.042969 112.667969 137.007812 111.5625 136.917969 110.445312 C 136.429688 104.335938 138.535156 98.328125 142.683594 93.964844 C 146.566406 89.886719 151.746094 87.738281 157.269531 87.914062 C 166.007812 88.195312 172.445312 91.679688 175.882812 97.992188 C 180.273438 106.050781 179.222656 117.761719 173.210938 127.824219 C 173.101562 128.007812 173.132812 128.242188 173.289062 128.390625 C 173.441406 128.535156 173.679688 128.554688 173.855469 128.433594 C 176.375 126.710938 178.429688 124.777344 180.324219 122.34375 C 183.707031 117.996094 188.246094 117.457031 191.460938 117.769531 C 198.691406 118.472656 206.15625 124.105469 210.039062 131.785156 C 213.597656 138.824219 214.273438 144.421875 212.105469 148.894531 Z M 152.285156 124.183594 C 144.769531 122.769531 137.15625 124.371094 130.847656 128.695312 C 124.535156 133.015625 120.28125 139.546875 118.871094 147.074219 C 115.957031 162.621094 126.203125 177.640625 141.710938 180.5625 C 143.496094 180.898438 145.28125 181.066406 147.058594 181.066406 C 152.765625 181.066406 158.335938 179.351562 163.148438 176.050781 C 169.460938 171.730469 173.714844 165.199219 175.125 157.671875 C 178.042969 142.125 167.792969 127.105469 152.285156 124.183594 Z M 162.636719 175.300781 C 156.527344 179.488281 149.15625 181.039062 141.878906 179.667969 C 126.863281 176.839844 116.941406 162.292969 119.761719 147.242188 C 121.128906 139.953125 125.25 133.632812 131.359375 129.445312 C 136.019531 126.25 141.414062 124.589844 146.941406 124.589844 C 148.660156 124.589844 150.390625 124.753906 152.117188 125.078125 C 167.132812 127.90625 177.054688 142.453125 174.234375 157.503906 C 172.867188 164.792969 168.746094 171.113281 162.636719 175.300781 Z M 162.636719 175.300781 " fill-opacity="1" fill-rule="nonzero"/></g></svg>