<svg xmlns="http://www.w3.org/2000/svg" xmlns:xlink="http://www.w3.org/1999/xlink" width="400" zoomAndPan="magnify" viewBox="0 0 300 299.999988" height="400" preserveAspectRatio="xMidYMid meet" version="1.0"><defs><clipPath id="id1"><path d="M 38.371094 33.570312 L 263.371094 33.570312 L 263.371094 261.570312 L 38.371094 261.570312 Z M 38.371094 33.570312 " clip-rule="nonzero"/></clipPath><clipPath id="id2"><path d="M 38.371094 33.570312 L 263.371094 33.570312 L 263.371094 261.570312 L 38.371094 261.570312 Z M 38.371094 33.570312 " clip-rule="nonzero"/></clipPath></defs><rect x="-30" width="360" fill="#ffffff" y="-29.999999" height="359.999986" fill-opacity="1"/><rect x="-30" width="360" fill="#ffffff" y="-29.999999" height="359.999986" fill-opacity="1"/><rect x="-30" width="360" fill="#73a5a8" y="-29.999999" height="359.999986" fill-opacity="1"/><g clip-path="url(#id1)"><path fill="#43241e" d="M 263.023438 167.613281 C 263.113281 168.160156 262.863281 168.664062 262.382812 168.894531 C 255.644531 172.765625 248.792969 170.796875 242.164062 168.894531 C 239.503906 168.132812 236.757812 167.34375 234.089844 166.964844 C 231.207031 166.699219 228.480469 167.320312 225.523438 168.910156 C 224.339844 169.542969 222.628906 170.277344 220.542969 171.039062 C 227.066406 174.25 232.953125 178.574219 237.066406 188.03125 C 237.417969 188.816406 237.761719 189.621094 238.101562 190.421875 C 240.472656 195.972656 242.710938 201.21875 248.644531 203.300781 C 249.132812 203.46875 249.445312 203.941406 249.433594 204.476562 C 249.441406 204.519531 249.449219 204.5625 249.445312 204.609375 C 249.441406 204.652344 249.421875 204.6875 249.40625 204.726562 C 249.300781 205.261719 248.898438 205.644531 248.371094 205.699219 C 247.378906 205.871094 246.421875 205.949219 245.488281 205.949219 C 239.222656 205.949219 234.226562 202.316406 229.367188 198.789062 C 227.132812 197.164062 224.820312 195.484375 222.441406 194.21875 C 219.828125 192.988281 217.050781 192.636719 213.726562 193.121094 C 212.394531 193.3125 210.542969 193.417969 208.316406 193.421875 C 213.347656 198.667969 217.398438 204.742188 218.023438 215.03125 C 218.085938 215.890625 218.132812 216.761719 218.179688 217.628906 C 218.503906 223.65625 218.8125 229.351562 223.671875 233.335938 C 224.078125 233.660156 224.207031 234.210938 224.011719 234.710938 C 224.003906 234.753906 224 234.796875 223.976562 234.835938 C 223.953125 234.886719 223.914062 234.929688 223.875 234.964844 C 223.644531 235.320312 223.285156 235.53125 222.886719 235.53125 C 222.792969 235.53125 222.691406 235.519531 222.59375 235.492188 C 214.941406 234.132812 210.960938 228.226562 207.105469 222.515625 C 205.5625 220.222656 203.964844 217.855469 202.164062 215.851562 C 200.125 213.804688 197.640625 212.527344 194.351562 211.84375 C 193.035156 211.570312 191.25 211.035156 189.164062 210.277344 C 192.09375 216.925781 193.820312 224.019531 190.882812 233.902344 C 190.644531 234.730469 190.394531 235.5625 190.140625 236.394531 C 188.378906 242.171875 186.71875 247.625 189.921875 253.03125 C 190.191406 253.476562 190.121094 254.035156 189.769531 254.441406 C 189.75 254.476562 189.726562 254.515625 189.695312 254.546875 C 189.664062 254.578125 189.625 254.59375 189.585938 254.613281 C 189.355469 254.796875 189.089844 254.894531 188.824219 254.894531 C 188.597656 254.894531 188.371094 254.828125 188.167969 254.691406 C 181.445312 250.800781 179.722656 243.886719 178.058594 237.203125 C 177.394531 234.523438 176.703125 231.75 175.699219 229.253906 C 174.484375 226.636719 172.585938 224.585938 169.730469 222.820312 C 168.585938 222.113281 167.09375 221 165.390625 219.578125 C 165.867188 226.828125 165.058594 234.082031 158.914062 242.363281 C 158.410156 243.0625 157.886719 243.757812 157.363281 244.453125 C 153.730469 249.28125 150.300781 253.839844 151.460938 260.011719 C 151.558594 260.519531 151.304688 261.023438 150.835938 261.285156 C 150.800781 261.3125 150.769531 261.339844 150.730469 261.355469 C 150.6875 261.375 150.644531 261.378906 150.605469 261.382812 C 150.464844 261.429688 150.328125 261.457031 150.191406 261.457031 C 149.820312 261.457031 149.472656 261.289062 149.246094 260.972656 C 144.257812 255.019531 145.007812 247.9375 145.734375 241.085938 C 146.027344 238.339844 146.328125 235.5 146.238281 232.8125 C 145.996094 229.933594 144.914062 227.359375 142.832031 224.726562 C 142 223.671875 140.980469 222.121094 139.867188 220.199219 C 137.832031 227.171875 134.589844 233.710938 125.976562 239.398438 C 125.261719 239.878906 124.53125 240.355469 123.800781 240.832031 C 118.738281 244.125 113.953125 247.238281 112.925781 253.433594 C 112.847656 253.945312 112.433594 254.332031 111.902344 254.417969 C 111.863281 254.429688 111.824219 254.445312 111.777344 254.449219 C 111.769531 254.449219 111.761719 254.449219 111.753906 254.449219 C 111.730469 254.449219 111.710938 254.441406 111.691406 254.4375 C 111.691406 254.4375 111.6875 254.4375 111.6875 254.4375 C 111.125 254.4375 110.664062 254.101562 110.515625 253.582031 C 107.871094 246.285156 111 239.882812 114.03125 233.695312 C 115.242188 231.214844 116.5 228.648438 117.335938 226.089844 C 118.09375 223.304688 117.960938 220.515625 116.90625 217.332031 C 116.484375 216.054688 116.058594 214.25 115.667969 212.0625 C 111.367188 217.921875 106.082031 222.960938 96.042969 225.359375 C 95.203125 225.570312 94.355469 225.765625 93.507812 225.964844 C 87.617188 227.332031 82.054688 228.621094 78.96875 234.09375 C 78.761719 234.476562 78.359375 234.695312 77.921875 234.695312 C 77.847656 234.695312 77.769531 234.6875 77.691406 234.671875 C 77.683594 234.671875 77.679688 234.675781 77.675781 234.675781 C 77.632812 234.675781 77.585938 234.667969 77.542969 234.65625 C 77.507812 234.644531 77.480469 234.621094 77.445312 234.605469 C 76.929688 234.40625 76.613281 233.941406 76.65625 233.410156 C 76.667969 225.648438 81.800781 220.703125 86.765625 215.921875 C 88.757812 214.003906 90.816406 212.023438 92.476562 209.90625 C 94.144531 207.546875 94.972656 204.878906 95.074219 201.527344 C 95.113281 200.183594 95.332031 198.339844 95.714844 196.152344 C 89.667969 200.191406 82.972656 203.117188 72.71875 201.945312 C 71.859375 201.859375 70.992188 201.753906 70.128906 201.648438 C 64.128906 200.921875 58.460938 200.234375 53.683594 204.324219 C 53.46875 204.511719 53.199219 204.605469 52.921875 204.605469 C 52.707031 204.605469 52.488281 204.546875 52.289062 204.433594 C 52.242188 204.417969 52.195312 204.394531 52.152344 204.363281 C 52.121094 204.339844 52.101562 204.308594 52.078125 204.28125 C 51.660156 203.921875 51.523438 203.375 51.742188 202.886719 C 54.414062 195.597656 60.933594 192.707031 67.234375 189.910156 C 69.761719 188.789062 72.375 187.628906 74.664062 186.207031 C 77.035156 184.558594 78.730469 182.335938 79.972656 179.21875 C 80.46875 177.972656 81.308594 176.3125 82.417969 174.390625 C 79.457031 175.113281 76.453125 175.617188 73.285156 175.617188 C 68.894531 175.617188 64.1875 174.652344 58.820312 171.980469 C 58.046875 171.601562 57.269531 171.207031 56.492188 170.816406 C 51.101562 168.082031 46.007812 165.5 40.121094 167.710938 C 39.644531 167.898438 39.109375 167.738281 38.769531 167.332031 C 38.730469 167.304688 38.695312 167.269531 38.667969 167.226562 C 38.648438 167.195312 38.640625 167.160156 38.628906 167.125 C 38.359375 166.644531 38.417969 166.085938 38.789062 165.703125 C 43.796875 159.765625 50.910156 159.273438 57.792969 158.796875 C 60.550781 158.605469 63.40625 158.410156 66.042969 157.855469 C 68.835938 157.117188 71.1875 155.605469 73.425781 153.101562 C 74.320312 152.097656 75.675781 150.828125 77.375 149.398438 C 70.144531 148.609375 63.128906 146.554688 56.027344 139.074219 C 55.429688 138.457031 54.832031 137.820312 54.238281 137.183594 C 50.140625 132.8125 46.269531 128.675781 40.066406 128.675781 C 40.015625 128.675781 39.96875 128.675781 39.917969 128.679688 C 39.402344 128.6875 38.945312 128.351562 38.773438 127.84375 C 38.75 127.804688 38.726562 127.769531 38.71875 127.726562 C 38.710938 127.6875 38.714844 127.652344 38.714844 127.617188 C 38.625 127.070312 38.871094 126.566406 39.355469 126.332031 C 46.09375 122.464844 52.945312 124.433594 59.578125 126.335938 C 62.234375 127.097656 64.984375 127.886719 67.652344 128.265625 C 70.527344 128.527344 73.257812 127.910156 76.214844 126.320312 C 77.402344 125.683594 79.105469 124.953125 81.195312 124.191406 C 74.671875 120.976562 68.785156 116.652344 64.671875 107.199219 C 64.320312 106.414062 63.980469 105.609375 63.636719 104.808594 C 61.265625 99.257812 59.027344 94.011719 53.09375 91.925781 C 52.605469 91.761719 52.292969 91.289062 52.304688 90.75 C 52.296875 90.707031 52.289062 90.667969 52.292969 90.621094 C 52.296875 90.582031 52.316406 90.550781 52.328125 90.519531 C 52.433594 89.976562 52.835938 89.585938 53.371094 89.53125 C 61.027344 88.195312 66.792969 92.386719 72.371094 96.4375 C 74.605469 98.0625 76.917969 99.746094 79.296875 101.011719 C 81.910156 102.238281 84.6875 102.59375 88.011719 102.109375 C 89.34375 101.914062 91.195312 101.808594 93.421875 101.808594 C 88.390625 96.558594 84.339844 90.484375 83.714844 80.195312 C 83.652344 79.335938 83.605469 78.46875 83.558594 77.597656 C 83.234375 71.574219 82.925781 65.878906 78.066406 61.894531 C 77.660156 61.570312 77.53125 61.019531 77.726562 60.519531 C 77.734375 60.476562 77.738281 60.433594 77.761719 60.394531 C 77.777344 60.359375 77.804688 60.335938 77.828125 60.308594 C 78.109375 59.832031 78.625 59.605469 79.144531 59.738281 C 86.796875 61.097656 90.78125 67.003906 94.632812 72.714844 C 96.175781 75.007812 97.777344 77.375 99.574219 79.378906 C 101.613281 81.425781 104.101562 82.703125 107.386719 83.386719 C 108.703125 83.660156 110.488281 84.195312 112.574219 84.953125 C 109.644531 78.304688 107.917969 71.210938 110.855469 61.328125 C 111.09375 60.5 111.347656 59.667969 111.597656 58.832031 C 113.359375 53.058594 115.019531 47.601562 111.816406 42.199219 C 111.546875 41.753906 111.617188 41.195312 111.96875 40.789062 C 111.988281 40.753906 112.011719 40.714844 112.042969 40.683594 C 112.070312 40.660156 112.105469 40.644531 112.136719 40.625 C 112.566406 40.277344 113.125 40.238281 113.570312 40.539062 C 120.292969 44.429688 122.011719 51.34375 123.675781 58.027344 C 124.34375 60.707031 125.035156 63.480469 126.039062 65.976562 C 127.253906 68.59375 129.152344 70.644531 132.007812 72.410156 C 133.152344 73.117188 134.644531 74.230469 136.347656 75.652344 C 135.871094 68.402344 136.675781 61.148438 142.820312 52.867188 C 143.328125 52.167969 143.851562 51.472656 144.375 50.777344 C 148.007812 45.949219 151.4375 41.390625 150.277344 35.21875 C 150.175781 34.710938 150.433594 34.207031 150.902344 33.945312 C 150.9375 33.917969 150.96875 33.890625 151.011719 33.871094 C 151.046875 33.859375 151.082031 33.855469 151.117188 33.851562 C 151.640625 33.667969 152.179688 33.824219 152.492188 34.257812 C 157.480469 40.210938 156.730469 47.292969 156.003906 54.144531 C 155.710938 56.890625 155.410156 59.730469 155.5 62.417969 C 155.742188 65.292969 156.824219 67.871094 158.90625 70.503906 C 159.738281 71.558594 160.757812 73.109375 161.871094 75.03125 C 163.90625 68.058594 167.148438 61.515625 175.761719 55.832031 C 176.476562 55.347656 177.207031 54.875 177.9375 54.398438 C 183 51.101562 187.785156 47.992188 188.8125 41.792969 C 188.890625 41.28125 189.304688 40.898438 189.835938 40.8125 C 189.875 40.796875 189.914062 40.78125 189.960938 40.78125 C 189.996094 40.777344 190.027344 40.789062 190.0625 40.796875 C 190.617188 40.800781 191.078125 41.132812 191.222656 41.648438 C 193.867188 48.945312 190.738281 55.34375 187.710938 61.53125 C 186.496094 64.015625 185.238281 66.582031 184.402344 69.136719 C 183.644531 71.921875 183.78125 74.714844 184.832031 77.898438 C 185.253906 79.175781 185.679688 80.980469 186.070312 83.167969 C 190.371094 77.308594 195.660156 72.269531 205.695312 69.867188 C 206.535156 69.660156 207.382812 69.460938 208.234375 69.265625 C 214.121094 67.898438 219.683594 66.605469 222.769531 61.132812 C 223.019531 60.679688 223.539062 60.460938 224.066406 60.5625 C 224.109375 60.5625 224.152344 60.558594 224.195312 60.574219 C 224.230469 60.585938 224.261719 60.605469 224.292969 60.625 C 224.808594 60.820312 225.125 61.289062 225.082031 61.820312 C 225.070312 69.582031 219.9375 74.523438 214.972656 79.304688 C 212.980469 81.222656 210.921875 83.207031 209.257812 85.324219 C 207.59375 87.683594 206.765625 90.351562 206.664062 93.703125 C 206.625 95.046875 206.40625 96.886719 206.019531 99.074219 C 212.070312 95.039062 218.765625 92.113281 229.019531 93.28125 C 229.878906 93.371094 230.746094 93.476562 231.609375 93.582031 C 237.609375 94.308594 243.277344 94.992188 248.054688 90.90625 C 248.445312 90.566406 249.007812 90.535156 249.46875 90.8125 C 249.511719 90.824219 249.550781 90.839844 249.585938 90.867188 C 249.617188 90.890625 249.636719 90.917969 249.660156 90.949219 C 250.078125 91.308594 250.214844 91.855469 249.992188 92.339844 C 247.324219 99.628906 240.804688 102.523438 234.503906 105.320312 C 231.976562 106.441406 229.363281 107.601562 227.074219 109.023438 C 224.703125 110.667969 223.007812 112.894531 221.765625 116.011719 C 221.265625 117.257812 220.429688 118.917969 219.320312 120.839844 C 226.386719 119.109375 233.679688 118.644531 242.917969 123.25 C 243.691406 123.625 244.46875 124.019531 245.25 124.414062 C 250.636719 127.148438 255.730469 129.726562 261.617188 127.515625 C 262.097656 127.332031 262.640625 127.492188 262.980469 127.910156 C 263.011719 127.9375 263.046875 127.964844 263.070312 128.003906 C 263.089844 128.035156 263.097656 128.070312 263.113281 128.105469 C 263.378906 128.585938 263.320312 129.144531 262.949219 129.527344 C 257.941406 135.464844 250.828125 135.957031 243.945312 136.433594 C 241.1875 136.625 238.332031 136.820312 235.695312 137.375 C 232.902344 138.113281 230.550781 139.625 228.3125 142.128906 C 227.417969 143.128906 226.0625 144.402344 224.363281 145.832031 C 231.59375 146.621094 238.609375 148.675781 245.710938 156.15625 C 246.3125 156.773438 246.90625 157.410156 247.503906 158.046875 C 251.597656 162.417969 255.472656 166.550781 261.671875 166.550781 C 261.722656 166.550781 261.773438 166.550781 261.820312 166.550781 C 262.347656 166.539062 262.792969 166.878906 262.96875 167.386719 C 262.988281 167.425781 263.011719 167.460938 263.023438 167.503906 C 263.027344 167.542969 263.023438 167.578125 263.023438 167.613281 Z M 263.023438 167.613281 " fill-opacity="1" fill-rule="nonzero"/></g><path fill="#d1dd82" d="M 150.867188 206.027344 C 178.636719 206.027344 208.988281 187.746094 210.015625 147.613281 C 208.992188 107.488281 178.644531 89.207031 150.875 89.203125 C 123.101562 89.203125 92.742188 107.484375 91.722656 147.625 C 92.738281 187.742188 123.09375 206.023438 150.867188 206.027344 Z M 97.492188 147.625 C 98.414062 111.386719 125.804688 94.890625 150.871094 94.890625 L 150.875 94.890625 C 175.9375 94.894531 203.332031 111.390625 204.246094 147.605469 C 204.246094 147.613281 204.246094 147.621094 204.246094 147.628906 C 203.324219 183.84375 175.933594 200.335938 150.871094 200.335938 L 150.867188 200.335938 C 125.800781 200.335938 98.410156 183.839844 97.492188 147.625 Z M 97.492188 147.625 " fill-opacity="1" fill-rule="nonzero"/><path fill="#e1bf4b" d="M 176.265625 56.585938 C 176.980469 56.105469 177.707031 55.632812 178.433594 55.160156 C 183.253906 52.019531 188.222656 48.773438 189.558594 42.644531 C 189.472656 49.480469 185.847656 53.640625 182.027344 58.03125 C 177.378906 63.375 172.105469 69.429688 172.582031 81.296875 C 172.738281 85.238281 172.699219 88.78125 172.484375 92.003906 C 171.4375 91.632812 170.378906 91.285156 169.3125 90.96875 C 167.171875 85.296875 164.691406 80.078125 162.503906 76.140625 C 164.484375 69.011719 167.566406 62.332031 176.265625 56.585938 Z M 182.714844 58.625 C 177.953125 64.097656 173.027344 69.753906 173.488281 81.261719 C 173.648438 85.339844 173.601562 89 173.375 92.324219 C 175.070312 92.957031 176.746094 93.664062 178.386719 94.445312 C 179.765625 92.570312 181.027344 90.652344 182.265625 88.757812 C 183.277344 87.207031 184.28125 85.675781 185.332031 84.191406 C 184.910156 81.667969 184.4375 79.597656 183.972656 78.183594 C 182.859375 74.820312 182.71875 71.863281 183.53125 68.878906 C 184.394531 66.238281 185.664062 63.644531 186.894531 61.136719 C 189.796875 55.203125 192.792969 49.070312 190.46875 42.253906 C 190.523438 49.648438 186.726562 54.019531 182.714844 58.625 Z M 211.273438 74.871094 C 204.925781 78.382812 198.359375 82.015625 194.851562 92.988281 C 193.683594 96.632812 192.472656 99.875 191.207031 102.777344 C 192.652344 104.023438 194.042969 105.351562 195.367188 106.761719 C 197.148438 105.558594 198.851562 104.285156 200.53125 103.027344 C 202.015625 101.921875 203.480469 100.824219 204.976562 99.785156 C 205.445312 97.269531 205.710938 95.164062 205.753906 93.675781 C 205.859375 90.136719 206.742188 87.3125 208.53125 84.78125 C 210.246094 82.597656 212.328125 80.59375 214.339844 78.652344 C 219.101562 74.070312 224.015625 69.332031 224.167969 62.128906 C 221.683594 69.101562 216.621094 71.90625 211.273438 74.871094 Z M 183.027344 89.25 C 181.804688 91.117188 180.566406 93.003906 179.214844 94.851562 C 183.203125 96.828125 186.996094 99.261719 190.480469 102.164062 C 191.695312 99.355469 192.859375 96.226562 193.984375 92.710938 C 197.605469 81.398438 204.632812 77.507812 210.832031 74.074219 C 215.914062 71.261719 220.730469 68.59375 223.160156 62.238281 C 219.804688 67.507812 214.03125 68.851562 208.4375 70.148438 C 207.59375 70.34375 206.75 70.539062 205.910156 70.75 C 193.132812 73.808594 188.222656 81.308594 183.027344 89.25 Z M 226.574219 108.265625 C 228.933594 106.796875 231.578125 105.625 234.132812 104.488281 C 240.167969 101.8125 246.398438 99.035156 249.011719 92.335938 C 244.296875 98.023438 238.582031 98.929688 232.546875 99.886719 C 225.378906 101.019531 217.964844 102.191406 210.910156 111.300781 C 208.566406 114.328125 206.320312 116.957031 204.140625 119.25 C 204.996094 120.921875 205.78125 122.660156 206.488281 124.46875 C 208.640625 123.933594 210.738281 123.304688 212.808594 122.679688 C 214.582031 122.144531 216.335938 121.613281 218.09375 121.148438 C 219.398438 118.945312 220.367188 117.058594 220.921875 115.671875 C 222.230469 112.382812 224.027344 110.03125 226.574219 108.265625 Z M 201.078125 103.753906 C 199.421875 104.992188 197.746094 106.246094 195.992188 107.4375 C 198.917969 110.664062 201.519531 114.3125 203.699219 118.394531 C 205.789062 116.175781 207.945312 113.648438 210.191406 110.746094 C 217.46875 101.351562 225.402344 100.097656 232.40625 98.988281 C 238.144531 98.082031 243.585938 97.21875 248.042969 92.078125 C 243.085938 95.878906 237.199219 95.171875 231.5 94.480469 C 230.640625 94.375 229.777344 94.273438 228.921875 94.183594 C 215.863281 92.691406 208.679688 98.066406 201.078125 103.753906 Z M 243.96875 130.660156 C 236.84375 129.277344 229.476562 127.847656 219.726562 133.996094 C 216.347656 136.128906 213.210938 137.890625 210.269531 139.339844 C 210.511719 141.121094 210.6875 142.953125 210.800781 144.832031 C 213.097656 145.085938 215.371094 145.210938 217.613281 145.335938 C 219.464844 145.4375 221.292969 145.539062 223.105469 145.703125 C 225.085938 144.078125 226.644531 142.636719 227.636719 141.523438 C 229.996094 138.882812 232.488281 137.28125 235.488281 136.492188 C 238.207031 135.917969 241.09375 135.71875 243.882812 135.527344 C 250.480469 135.070312 257.296875 134.59375 262.046875 129.175781 C 255.660156 132.921875 249.972656 131.824219 243.96875 130.660156 Z M 213.074219 123.546875 C 211.023438 124.167969 208.949219 124.789062 206.816406 125.324219 C 208.316406 129.335938 209.445312 133.6875 210.140625 138.390625 C 212.976562 136.980469 215.992188 135.28125 219.242188 133.230469 C 229.296875 126.886719 237.183594 128.417969 244.140625 129.769531 C 249.847656 130.875 255.253906 131.921875 261.207031 128.613281 C 255.242188 130.496094 249.957031 127.816406 244.835938 125.222656 C 244.0625 124.832031 243.289062 124.4375 242.515625 124.0625 C 230.753906 118.199219 222.164062 120.796875 213.074219 123.546875 Z M 261.660156 168.257812 C 260.429688 168.484375 259.265625 168.589844 258.152344 168.589844 C 252.6875 168.589844 248.519531 166.09375 244.164062 163.476562 C 237.941406 159.746094 231.507812 155.886719 220.238281 158.335938 C 216.351562 159.179688 212.820312 159.761719 209.574219 160.117188 C 209.207031 161.980469 208.761719 163.78125 208.257812 165.527344 C 210.289062 166.523438 212.34375 167.402344 214.371094 168.269531 C 216.070312 168.996094 217.753906 169.714844 219.402344 170.488281 C 221.820312 169.640625 223.777344 168.816406 225.089844 168.109375 C 228.214844 166.429688 231.105469 165.78125 234.191406 166.0625 C 236.945312 166.453125 239.726562 167.25 242.414062 168.023438 C 248.769531 169.847656 255.339844 171.730469 261.660156 168.257812 Z M 217.566406 146.242188 C 215.355469 146.121094 213.117188 145.996094 210.855469 145.75 C 210.886719 146.363281 210.910156 146.980469 210.925781 147.605469 C 210.925781 147.613281 210.925781 147.621094 210.925781 147.628906 C 210.820312 151.703125 210.414062 155.550781 209.746094 159.1875 C 212.886719 158.832031 216.300781 158.261719 220.046875 157.449219 C 231.667969 154.921875 238.554688 159.054688 244.628906 162.699219 C 249.609375 165.6875 254.328125 168.519531 261.050781 167.445312 C 254.804688 167.171875 250.757812 162.851562 246.839844 158.667969 C 246.246094 158.035156 245.65625 157.402344 245.054688 156.78125 C 236.011719 147.257812 227.050781 146.765625 217.566406 146.242188 Z M 247.929688 204.847656 C 240.613281 203.621094 236.953125 199.132812 233.101562 194.382812 C 228.535156 188.75 223.8125 182.925781 212.382812 181.378906 C 208.613281 180.871094 205.230469 180.246094 202.167969 179.515625 C 201.152344 181.1875 200.0625 182.78125 198.902344 184.296875 C 200.398438 185.835938 201.941406 187.28125 203.464844 188.710938 C 204.816406 189.976562 206.152344 191.226562 207.4375 192.515625 C 210 192.542969 212.121094 192.4375 213.597656 192.222656 C 214.597656 192.078125 215.550781 192.003906 216.46875 192.003906 C 218.769531 192.003906 220.84375 192.464844 222.847656 193.40625 C 225.304688 194.714844 227.640625 196.414062 229.902344 198.058594 C 235.257812 201.945312 240.789062 205.960938 247.929688 204.847656 Z M 214.011719 169.101562 C 212.019531 168.25 210 167.386719 207.996094 166.410156 C 206.628906 170.894531 204.820312 174.984375 202.652344 178.695312 C 205.613281 179.390625 208.878906 179.988281 212.507812 180.480469 C 224.289062 182.074219 229.347656 188.3125 233.808594 193.8125 C 237.476562 198.332031 240.953125 202.617188 247.675781 203.890625 C 241.867188 201.511719 239.523438 196.0625 237.265625 190.777344 C 236.925781 189.980469 236.585938 189.183594 236.234375 188.394531 C 231 176.359375 222.75 172.835938 214.011719 169.101562 Z M 217.273438 217.679688 C 217.226562 216.816406 217.179688 215.949219 217.117188 215.089844 C 216.324219 201.992188 209.777344 195.859375 202.84375 189.371094 C 201.339844 187.960938 199.816406 186.535156 198.335938 185.019531 C 195.492188 188.609375 192.269531 191.746094 188.773438 194.433594 C 191.34375 196.121094 194.242188 197.824219 197.53125 199.550781 C 208.058594 205.074219 210.675781 212.660156 212.984375 219.351562 C 214.875 224.835938 216.671875 230.039062 222.515625 233.53125 C 217.902344 229.3125 217.582031 223.402344 217.273438 217.679688 Z M 222.449219 234.539062 C 216.007812 230.886719 214.117188 225.421875 212.125 219.648438 C 209.761719 212.792969 207.316406 205.707031 197.109375 200.351562 C 193.679688 198.550781 190.664062 196.777344 188 195.015625 C 186.476562 196.144531 184.90625 197.191406 183.292969 198.152344 C 184.210938 200.226562 185.21875 202.222656 186.21875 204.195312 C 187.054688 205.84375 187.882812 207.476562 188.644531 209.128906 C 191.042969 210.027344 193.074219 210.652344 194.535156 210.957031 C 198.007812 211.675781 200.640625 213.03125 202.824219 215.230469 C 204.683594 217.296875 206.296875 219.691406 207.859375 222.007812 C 211.554688 227.484375 215.375 233.140625 222.449219 234.539062 Z M 188.359375 253.742188 C 183.554688 248.113281 183.652344 242.328125 183.757812 236.222656 C 183.886719 228.976562 184.015625 221.484375 176.257812 212.964844 C 173.46875 209.902344 171.125 207.035156 169.144531 204.308594 C 167.4375 204.808594 165.71875 205.238281 163.988281 205.59375 C 164.132812 208.058594 164.421875 210.472656 164.707031 212.855469 C 164.929688 214.691406 165.144531 216.507812 165.296875 218.320312 C 167.246094 219.984375 168.9375 221.265625 170.207031 222.046875 C 173.222656 223.910156 175.234375 226.085938 176.53125 228.894531 C 177.570312 231.472656 178.269531 234.273438 178.941406 236.984375 C 180.539062 243.390625 182.191406 250.011719 188.359375 253.742188 Z M 185.410156 204.605469 C 184.417969 202.652344 183.417969 200.671875 182.503906 198.617188 C 178.550781 200.894531 174.363281 202.695312 170.0625 204.03125 C 171.988281 206.652344 174.25 209.414062 176.929688 212.355469 C 184.929688 221.140625 184.789062 229.160156 184.667969 236.238281 C 184.566406 242.039062 184.472656 247.539062 188.769531 252.820312 C 185.878906 247.28125 187.601562 241.617188 189.269531 236.132812 C 189.523438 235.304688 189.773438 234.476562 190.011719 233.648438 C 193.75 221.066406 189.699219 213.070312 185.410156 204.605469 Z M 151.425781 242.113281 C 154.027344 235.347656 156.714844 228.347656 152.34375 217.691406 C 150.734375 213.769531 149.492188 210.195312 148.554688 206.890625 C 146.828125 206.828125 145.097656 206.695312 143.363281 206.492188 C 142.640625 208.886719 142.082031 211.28125 141.527344 213.648438 C 141.105469 215.445312 140.6875 217.226562 140.210938 218.984375 C 141.46875 221.210938 142.621094 222.996094 143.546875 224.164062 C 145.742188 226.941406 146.886719 229.675781 147.144531 232.757812 C 147.238281 235.53125 146.933594 238.40625 146.640625 241.183594 C 145.945312 247.75 145.230469 254.535156 149.746094 260.148438 C 147.164062 253.214844 149.234375 247.8125 151.425781 242.113281 Z M 163.804688 212.964844 C 163.523438 210.605469 163.234375 208.214844 163.089844 205.769531 C 159.027344 206.546875 154.921875 206.933594 150.871094 206.933594 L 150.867188 206.933594 C 150.414062 206.933594 149.960938 206.929688 149.507812 206.917969 C 150.425781 210.113281 151.632812 213.566406 153.183594 217.351562 C 157.691406 228.339844 154.8125 235.828125 152.273438 242.4375 C 150.191406 247.855469 148.21875 252.988281 150.449219 259.417969 C 149.628906 253.226562 153.1875 248.492188 156.636719 243.910156 C 157.15625 243.21875 157.675781 242.523438 158.183594 241.828125 C 166.007812 231.28125 164.9375 222.382812 163.804688 212.964844 Z M 140.640625 213.441406 C 141.1875 211.109375 141.742188 208.746094 142.449219 206.382812 C 137.996094 205.800781 133.554688 204.75 129.253906 203.222656 C 129.042969 206.449219 129.003906 209.992188 129.160156 213.933594 C 129.632812 225.800781 124.363281 231.855469 119.710938 237.199219 C 115.890625 241.589844 112.269531 245.75 112.179688 252.582031 C 113.515625 246.457031 118.484375 243.207031 123.308594 240.070312 C 124.03125 239.597656 124.757812 239.125 125.472656 238.644531 C 136.4375 231.40625 138.480469 222.679688 140.640625 213.441406 Z M 119.027344 236.605469 C 123.785156 231.132812 128.710938 225.476562 128.25 213.96875 C 128.089844 209.890625 128.136719 206.230469 128.363281 202.902344 C 126.667969 202.273438 124.996094 201.566406 123.351562 200.785156 C 121.972656 202.660156 120.714844 204.578125 119.472656 206.472656 C 118.460938 208.023438 117.457031 209.550781 116.410156 211.039062 C 116.828125 213.5625 117.300781 215.632812 117.769531 217.046875 C 118.878906 220.40625 119.019531 223.363281 118.207031 226.351562 C 117.34375 228.988281 116.074219 231.585938 114.847656 234.09375 C 111.941406 240.027344 108.945312 246.160156 111.269531 252.976562 C 111.21875 245.582031 115.011719 241.214844 119.027344 236.605469 Z M 118.710938 205.976562 C 119.933594 204.113281 121.171875 202.226562 122.523438 200.378906 C 118.539062 198.402344 114.746094 195.96875 111.257812 193.066406 C 110.046875 195.875 108.878906 199.003906 107.753906 202.519531 C 104.132812 213.832031 97.105469 217.722656 90.90625 221.15625 C 85.824219 223.96875 81.007812 226.636719 78.578125 232.992188 C 81.9375 227.722656 87.710938 226.378906 93.300781 225.082031 C 94.144531 224.886719 94.988281 224.691406 95.828125 224.480469 C 108.609375 221.421875 113.515625 213.921875 118.710938 205.976562 Z M 90.464844 220.363281 C 96.8125 216.847656 103.378906 213.214844 106.886719 202.242188 C 108.054688 198.597656 109.269531 195.355469 110.53125 192.453125 C 109.085938 191.207031 107.699219 189.878906 106.371094 188.464844 C 104.589844 189.671875 102.886719 190.945312 101.207031 192.203125 C 99.726562 193.308594 98.257812 194.40625 96.765625 195.445312 C 96.292969 197.960938 96.027344 200.066406 95.984375 201.554688 C 95.878906 205.09375 94.996094 207.917969 93.207031 210.449219 C 91.492188 212.632812 89.410156 214.636719 87.398438 216.578125 C 82.636719 221.160156 77.722656 225.898438 77.570312 233.097656 C 80.054688 226.128906 85.117188 223.324219 90.464844 220.363281 Z M 69.191406 195.34375 C 76.363281 194.210938 83.773438 193.039062 90.828125 183.929688 C 93.171875 180.902344 95.421875 178.273438 97.597656 175.980469 C 96.746094 174.308594 95.960938 172.570312 95.253906 170.761719 C 93.097656 171.292969 91 171.925781 88.929688 172.550781 C 87.160156 173.085938 85.40625 173.613281 83.644531 174.078125 C 82.339844 176.28125 81.371094 178.171875 80.820312 179.554688 C 79.507812 182.84375 77.710938 185.199219 75.164062 186.964844 C 72.804688 188.433594 70.164062 189.605469 67.605469 190.738281 C 61.570312 193.417969 55.339844 196.195312 52.726562 202.890625 C 57.445312 197.207031 63.160156 196.300781 69.191406 195.34375 Z M 100.660156 191.476562 C 102.320312 190.238281 103.992188 188.984375 105.75 187.792969 C 102.820312 184.566406 100.21875 180.917969 98.042969 176.835938 C 95.949219 179.054688 93.796875 181.582031 91.546875 184.484375 C 84.273438 193.878906 76.335938 195.132812 69.335938 196.242188 C 63.597656 197.148438 58.15625 198.011719 53.695312 203.152344 C 58.65625 199.347656 64.539062 200.058594 70.238281 200.75 C 71.101562 200.851562 71.960938 200.957031 72.820312 201.046875 C 85.875 202.539062 93.058594 197.164062 100.660156 191.476562 Z M 57.769531 164.570312 C 64.894531 165.953125 72.261719 167.382812 82.011719 161.234375 C 85.394531 159.101562 88.527344 157.339844 91.46875 155.894531 C 91.226562 154.109375 91.050781 152.277344 90.9375 150.398438 C 88.640625 150.144531 86.371094 150.019531 84.125 149.894531 C 82.277344 149.792969 80.445312 149.691406 78.632812 149.527344 C 76.652344 151.152344 75.09375 152.59375 74.101562 153.707031 C 71.742188 156.347656 69.25 157.949219 66.253906 158.738281 C 63.53125 159.3125 60.644531 159.511719 57.855469 159.703125 C 51.257812 160.160156 44.441406 160.632812 39.691406 166.054688 C 46.082031 162.308594 51.765625 163.40625 57.769531 164.570312 Z M 88.667969 171.683594 C 90.714844 171.0625 92.789062 170.441406 94.921875 169.90625 C 93.425781 165.894531 92.292969 161.542969 91.597656 156.839844 C 88.765625 158.25 85.746094 159.953125 82.496094 162 C 72.441406 168.34375 64.554688 166.8125 57.597656 165.460938 C 51.894531 164.355469 46.484375 163.308594 40.535156 166.617188 C 41.929688 166.175781 43.289062 165.984375 44.617188 165.984375 C 48.960938 165.984375 52.980469 168.019531 56.902344 170.007812 C 57.675781 170.398438 58.449219 170.792969 59.226562 171.167969 C 70.984375 177.03125 79.574219 174.433594 88.667969 171.683594 Z M 84.175781 148.988281 C 86.382812 149.109375 88.621094 149.238281 90.882812 149.480469 C 90.855469 148.867188 90.832031 148.25 90.816406 147.625 C 90.917969 143.542969 91.324219 139.683594 91.996094 136.042969 C 88.855469 136.398438 85.441406 136.96875 81.695312 137.78125 C 70.074219 140.308594 63.1875 136.175781 57.109375 132.53125 C 52.132812 129.542969 47.410156 126.714844 40.691406 127.785156 C 46.933594 128.058594 50.980469 132.378906 54.902344 136.566406 C 55.492188 137.199219 56.085938 137.828125 56.683594 138.449219 C 65.726562 147.972656 74.6875 148.464844 84.175781 148.988281 Z M 57.578125 131.753906 C 63.800781 135.484375 70.234375 139.34375 81.5 136.894531 C 85.390625 136.050781 88.921875 135.46875 92.167969 135.113281 C 92.535156 133.25 92.976562 131.449219 93.484375 129.703125 C 91.449219 128.707031 89.398438 127.828125 87.371094 126.960938 C 85.667969 126.234375 83.984375 125.515625 82.335938 124.742188 C 79.917969 125.589844 77.960938 126.417969 76.648438 127.121094 C 73.523438 128.800781 70.632812 129.449219 67.546875 129.167969 C 64.792969 128.777344 62.015625 127.980469 59.324219 127.207031 C 52.96875 125.382812 46.402344 123.5 40.082031 126.972656 C 47.367188 125.632812 52.335938 128.609375 57.578125 131.753906 Z M 68.636719 100.847656 C 73.203125 106.480469 77.929688 112.304688 89.355469 113.851562 C 93.125 114.363281 96.511719 114.984375 99.574219 115.714844 C 100.589844 114.042969 101.679688 112.449219 102.835938 110.933594 C 101.34375 109.398438 99.800781 107.949219 98.273438 106.519531 C 96.921875 105.253906 95.585938 104.003906 94.300781 102.714844 C 91.738281 102.6875 89.617188 102.792969 88.140625 103.007812 C 84.632812 103.515625 81.691406 103.140625 78.890625 101.824219 C 76.4375 100.515625 74.097656 98.816406 71.835938 97.171875 C 67.101562 93.734375 62.222656 90.191406 56.21875 90.191406 C 55.4375 90.191406 54.636719 90.253906 53.8125 90.382812 C 61.125 91.609375 64.785156 96.097656 68.636719 100.847656 Z M 87.726562 126.128906 C 89.722656 126.980469 91.742188 127.84375 93.746094 128.820312 C 95.113281 124.339844 96.921875 120.246094 99.089844 116.535156 C 96.128906 115.839844 92.863281 115.242188 89.234375 114.75 C 77.449219 113.152344 72.390625 106.917969 67.929688 101.417969 C 64.261719 96.898438 60.789062 92.613281 54.0625 91.339844 C 59.875 93.71875 62.214844 99.167969 64.472656 104.457031 C 64.8125 105.25 65.152344 106.046875 65.503906 106.835938 C 70.738281 118.871094 78.992188 122.398438 87.726562 126.128906 Z M 84.464844 77.550781 C 84.511719 78.414062 84.558594 79.28125 84.621094 80.140625 C 85.417969 93.238281 91.964844 99.367188 98.894531 105.859375 C 100.402344 107.269531 101.925781 108.699219 103.402344 110.214844 C 106.246094 106.621094 109.46875 103.488281 112.96875 100.796875 C 110.394531 99.109375 107.496094 97.40625 104.207031 95.679688 C 93.679688 90.15625 91.0625 82.570312 88.753906 75.878906 C 86.863281 70.394531 85.066406 65.191406 79.222656 61.699219 C 83.835938 65.917969 84.15625 71.828125 84.464844 77.550781 Z M 79.289062 60.691406 C 85.734375 64.34375 87.621094 69.808594 89.613281 75.582031 C 91.976562 82.4375 94.421875 89.523438 104.628906 94.878906 C 108.0625 96.679688 111.074219 98.453125 113.738281 100.21875 C 115.261719 99.089844 116.832031 98.042969 118.445312 97.078125 C 117.527344 95.003906 116.519531 93.007812 115.519531 91.035156 C 114.683594 89.386719 113.859375 87.753906 113.09375 86.101562 C 110.695312 85.203125 108.664062 84.578125 107.203125 84.277344 C 103.730469 83.554688 101.097656 82.199219 98.914062 80.003906 C 97.058594 77.9375 95.441406 75.539062 93.878906 73.222656 C 90.183594 67.746094 86.363281 62.089844 79.289062 60.691406 Z M 113.378906 41.488281 C 118.183594 47.117188 118.085938 52.902344 117.980469 59.007812 C 117.855469 66.253906 117.722656 73.746094 125.480469 82.265625 C 128.269531 85.328125 130.613281 88.195312 132.597656 90.921875 C 134.300781 90.421875 136.019531 89.992188 137.75 89.636719 C 137.609375 87.171875 137.320312 84.757812 137.03125 82.375 C 136.8125 80.539062 136.59375 78.722656 136.441406 76.910156 C 134.496094 75.246094 132.800781 73.964844 131.53125 73.183594 C 128.515625 71.320312 126.507812 69.144531 125.207031 66.335938 C 124.167969 63.757812 123.472656 60.957031 122.796875 58.246094 C 121.199219 51.835938 119.546875 45.21875 113.378906 41.488281 Z M 116.332031 90.625 C 117.320312 92.578125 118.320312 94.558594 119.234375 96.617188 C 123.1875 94.335938 127.375 92.535156 131.675781 91.203125 C 129.753906 88.578125 127.488281 85.816406 124.808594 82.878906 C 116.808594 74.089844 116.949219 66.070312 117.070312 58.992188 C 117.171875 53.191406 117.269531 47.691406 112.96875 42.410156 C 115.859375 47.949219 114.136719 53.613281 112.46875 59.097656 C 112.214844 59.925781 111.964844 60.753906 111.726562 61.582031 C 107.988281 74.164062 112.039062 82.160156 116.332031 90.625 Z M 150.3125 53.117188 C 147.714844 59.882812 145.023438 66.882812 149.394531 77.539062 C 151.003906 81.460938 152.25 85.035156 153.1875 88.339844 C 158.210938 88.519531 163.289062 89.289062 168.238281 90.664062 C 164.851562 81.84375 160.6875 74.222656 158.195312 71.066406 C 155.996094 68.289062 154.851562 65.554688 154.59375 62.472656 C 154.5 59.699219 154.804688 56.824219 155.101562 54.046875 C 155.796875 47.480469 156.511719 40.695312 151.992188 35.082031 C 154.574219 42.015625 152.503906 47.417969 150.3125 53.117188 Z M 137.933594 82.265625 C 138.21875 84.625 138.503906 87.015625 138.648438 89.457031 C 142.710938 88.683594 146.816406 88.296875 150.867188 88.296875 L 150.875 88.296875 C 151.324219 88.296875 151.777344 88.300781 152.230469 88.3125 C 151.3125 85.117188 150.105469 81.664062 148.554688 77.882812 C 144.046875 66.890625 146.925781 59.402344 149.464844 52.792969 C 151.546875 47.375 153.519531 42.238281 151.289062 35.8125 C 152.109375 42.003906 148.550781 46.738281 145.101562 51.320312 C 144.582031 52.011719 144.0625 52.707031 143.554688 53.402344 C 135.730469 63.949219 136.800781 72.847656 137.933594 82.265625 Z M 150.867188 199.429688 C 175.5 199.429688 202.425781 183.21875 203.335938 147.613281 C 202.429688 112.019531 175.507812 95.800781 150.875 95.800781 C 126.234375 95.796875 99.304688 112.015625 98.402344 147.625 C 99.300781 183.210938 126.226562 199.429688 150.867188 199.429688 Z M 150.867188 199.429688 " fill-opacity="1" fill-rule="nonzero"/><g clip-path="url(#id2)"><path fill="#43241e" d="M 263.019531 167.503906 C 263.011719 167.460938 262.988281 167.425781 262.96875 167.386719 C 262.792969 166.878906 262.347656 166.539062 261.820312 166.550781 C 261.769531 166.550781 261.722656 166.550781 261.671875 166.550781 C 255.472656 166.550781 251.597656 162.417969 247.503906 158.046875 C 246.90625 157.410156 246.3125 156.773438 245.710938 156.15625 C 238.605469 148.675781 231.59375 146.621094 224.359375 145.832031 C 226.0625 144.402344 227.417969 143.128906 228.3125 142.128906 C 230.550781 139.625 232.902344 138.113281 235.695312 137.375 C 238.332031 136.820312 241.1875 136.621094 243.945312 136.433594 C 250.828125 135.957031 257.941406 135.464844 262.945312 129.527344 C 263.320312 129.144531 263.378906 128.585938 263.109375 128.105469 C 263.097656 128.070312 263.089844 128.035156 263.070312 128.003906 C 263.042969 127.964844 263.011719 127.9375 262.976562 127.910156 C 262.640625 127.492188 262.097656 127.332031 261.617188 127.515625 C 255.730469 129.726562 250.636719 127.148438 245.246094 124.414062 C 244.46875 124.019531 243.691406 123.625 242.914062 123.25 C 233.679688 118.644531 226.386719 119.109375 219.316406 120.839844 C 220.425781 118.917969 221.265625 117.257812 221.765625 116.011719 C 223.007812 112.894531 224.699219 110.667969 227.074219 109.023438 C 229.359375 107.601562 231.976562 106.441406 234.503906 105.320312 C 240.804688 102.519531 247.324219 99.628906 249.992188 92.339844 C 250.214844 91.855469 250.078125 91.308594 249.65625 90.949219 C 249.636719 90.917969 249.617188 90.890625 249.585938 90.867188 C 249.550781 90.839844 249.507812 90.824219 249.46875 90.8125 C 249.007812 90.535156 248.441406 90.566406 248.050781 90.90625 C 243.277344 94.996094 237.609375 94.308594 231.609375 93.582031 C 230.742188 93.476562 229.878906 93.371094 229.019531 93.28125 C 218.761719 92.113281 212.070312 95.039062 206.019531 99.074219 C 206.40625 96.886719 206.621094 95.046875 206.664062 93.703125 C 206.765625 90.351562 207.59375 87.683594 209.257812 85.324219 C 210.921875 83.207031 212.980469 81.222656 214.972656 79.304688 C 219.9375 74.523438 225.070312 69.582031 225.082031 61.820312 C 225.121094 61.289062 224.808594 60.820312 224.289062 60.625 C 224.257812 60.605469 224.230469 60.585938 224.195312 60.574219 C 224.152344 60.558594 224.105469 60.5625 224.0625 60.5625 C 223.535156 60.460938 223.019531 60.679688 222.765625 61.132812 C 219.679688 66.605469 214.121094 67.898438 208.230469 69.265625 C 207.382812 69.460938 206.53125 69.660156 205.695312 69.867188 C 195.65625 72.269531 190.371094 77.308594 186.066406 83.167969 C 185.679688 80.980469 185.253906 79.175781 184.832031 77.898438 C 183.777344 74.714844 183.644531 71.921875 184.402344 69.136719 C 185.238281 66.582031 186.492188 64.015625 187.707031 61.53125 C 190.734375 55.34375 193.867188 48.945312 191.222656 41.648438 C 191.074219 41.132812 190.617188 40.800781 190.0625 40.796875 C 190.027344 40.789062 189.996094 40.777344 189.960938 40.78125 C 189.914062 40.78125 189.875 40.796875 189.832031 40.8125 C 189.304688 40.898438 188.890625 41.285156 188.8125 41.792969 C 187.785156 47.992188 183 51.101562 177.9375 54.398438 C 177.207031 54.875 176.476562 55.347656 175.761719 55.832031 C 167.148438 61.515625 163.90625 68.058594 161.871094 75.03125 C 160.757812 73.109375 159.738281 71.558594 158.90625 70.503906 C 156.824219 67.871094 155.742188 65.292969 155.5 62.417969 C 155.410156 59.730469 155.710938 56.890625 156.003906 54.144531 C 156.726562 47.292969 157.480469 40.210938 152.492188 34.257812 C 152.179688 33.824219 151.640625 33.667969 151.117188 33.851562 C 151.082031 33.855469 151.042969 33.859375 151.007812 33.871094 C 150.96875 33.890625 150.9375 33.917969 150.902344 33.945312 C 150.433594 34.207031 150.175781 34.710938 150.277344 35.21875 C 151.433594 41.390625 148.007812 45.949219 144.375 50.777344 C 143.851562 51.472656 143.328125 52.167969 142.820312 52.867188 C 136.675781 61.148438 135.871094 68.402344 136.347656 75.652344 C 134.644531 74.230469 133.152344 73.117188 132.007812 72.410156 C 129.152344 70.644531 127.25 68.59375 126.039062 65.976562 C 125.035156 63.480469 124.34375 60.707031 123.675781 58.027344 C 122.011719 51.34375 120.292969 44.429688 113.566406 40.539062 C 113.125 40.238281 112.5625 40.277344 112.136719 40.625 C 112.101562 40.644531 112.070312 40.660156 112.042969 40.683594 C 112.007812 40.714844 111.988281 40.753906 111.96875 40.789062 C 111.613281 41.195312 111.546875 41.753906 111.816406 42.199219 C 115.019531 47.601562 113.355469 53.058594 111.597656 58.832031 C 111.34375 59.667969 111.089844 60.5 110.855469 61.328125 C 107.917969 71.210938 109.644531 78.304688 112.574219 84.953125 C 110.484375 84.195312 108.703125 83.660156 107.386719 83.386719 C 104.097656 82.703125 101.609375 81.425781 99.574219 79.378906 C 97.773438 77.375 96.175781 75.007812 94.632812 72.714844 C 90.78125 67.003906 86.796875 61.097656 79.144531 59.738281 C 78.625 59.605469 78.109375 59.832031 77.828125 60.308594 C 77.804688 60.335938 77.777344 60.359375 77.757812 60.394531 C 77.738281 60.433594 77.734375 60.476562 77.726562 60.519531 C 77.53125 61.019531 77.660156 61.570312 78.066406 61.894531 C 82.925781 65.878906 83.234375 71.574219 83.558594 77.601562 C 83.605469 78.46875 83.652344 79.339844 83.714844 80.199219 C 84.339844 90.488281 88.390625 96.5625 93.421875 101.808594 C 91.195312 101.8125 89.34375 101.917969 88.011719 102.109375 C 84.6875 102.59375 81.910156 102.242188 79.296875 101.011719 C 76.921875 99.746094 74.609375 98.066406 72.371094 96.441406 C 66.792969 92.390625 61.027344 88.199219 53.371094 89.535156 C 52.839844 89.585938 52.433594 89.976562 52.328125 90.519531 C 52.316406 90.554688 52.300781 90.585938 52.292969 90.625 C 52.289062 90.667969 52.296875 90.710938 52.304688 90.753906 C 52.296875 91.289062 52.605469 91.761719 53.09375 91.929688 C 59.027344 94.015625 61.265625 99.257812 63.636719 104.8125 C 63.980469 105.613281 64.320312 106.414062 64.671875 107.203125 C 68.785156 116.65625 74.671875 120.980469 81.195312 124.191406 C 79.105469 124.953125 77.402344 125.6875 76.214844 126.324219 C 73.257812 127.914062 70.527344 128.53125 67.652344 128.269531 C 64.984375 127.890625 62.234375 127.101562 59.578125 126.335938 C 52.949219 124.433594 46.09375 122.464844 39.355469 126.335938 C 38.875 126.566406 38.625 127.074219 38.714844 127.617188 C 38.714844 127.65625 38.710938 127.691406 38.71875 127.726562 C 38.726562 127.769531 38.75 127.808594 38.773438 127.84375 C 38.949219 128.351562 39.402344 128.691406 39.917969 128.679688 C 39.96875 128.679688 40.015625 128.679688 40.066406 128.679688 C 46.269531 128.679688 50.140625 132.8125 54.238281 137.1875 C 54.832031 137.820312 55.429688 138.457031 56.027344 139.078125 C 63.132812 146.558594 70.144531 148.609375 77.378906 149.402344 C 75.675781 150.828125 74.320312 152.101562 73.425781 153.105469 C 71.1875 155.605469 68.835938 157.117188 66.042969 157.855469 C 63.40625 158.410156 60.550781 158.609375 57.792969 158.800781 C 50.910156 159.273438 43.796875 159.765625 38.789062 165.703125 C 38.417969 166.085938 38.359375 166.644531 38.628906 167.128906 C 38.640625 167.160156 38.648438 167.199219 38.667969 167.230469 C 38.695312 167.273438 38.734375 167.304688 38.769531 167.335938 C 39.109375 167.742188 39.644531 167.898438 40.121094 167.714844 C 46.007812 165.503906 51.101562 168.085938 56.492188 170.816406 C 57.269531 171.210938 58.046875 171.605469 58.820312 171.980469 C 64.1875 174.65625 68.894531 175.621094 73.285156 175.621094 C 76.453125 175.621094 79.457031 175.117188 82.417969 174.394531 C 81.308594 176.316406 80.472656 177.972656 79.972656 179.222656 C 78.730469 182.335938 77.039062 184.5625 74.664062 186.207031 C 72.375 187.632812 69.761719 188.792969 67.234375 189.914062 C 60.933594 192.710938 54.414062 195.601562 51.746094 202.890625 C 51.523438 203.378906 51.660156 203.921875 52.078125 204.285156 C 52.101562 204.3125 52.121094 204.34375 52.152344 204.367188 C 52.195312 204.398438 52.242188 204.421875 52.289062 204.433594 C 52.488281 204.550781 52.707031 204.609375 52.921875 204.609375 C 53.199219 204.609375 53.46875 204.515625 53.683594 204.324219 C 58.460938 200.238281 64.128906 200.925781 70.128906 201.652344 C 70.996094 201.753906 71.859375 201.859375 72.71875 201.949219 C 82.972656 203.121094 89.667969 200.191406 95.71875 196.15625 C 95.332031 198.34375 95.113281 200.183594 95.074219 201.527344 C 94.972656 204.882812 94.144531 207.550781 92.480469 209.90625 C 90.816406 212.023438 88.757812 214.007812 86.765625 215.925781 C 81.800781 220.707031 76.667969 225.648438 76.65625 233.410156 C 76.613281 233.945312 76.929688 234.410156 77.449219 234.605469 C 77.480469 234.625 77.507812 234.648438 77.542969 234.65625 C 77.585938 234.671875 77.632812 234.675781 77.675781 234.675781 C 77.679688 234.675781 77.6875 234.675781 77.691406 234.675781 C 77.769531 234.6875 77.847656 234.699219 77.921875 234.699219 C 78.359375 234.699219 78.761719 234.476562 78.972656 234.097656 C 82.058594 228.625 87.617188 227.332031 93.507812 225.964844 C 94.355469 225.769531 95.203125 225.570312 96.042969 225.363281 C 106.082031 222.960938 111.367188 217.921875 115.667969 212.066406 C 116.058594 214.25 116.484375 216.054688 116.90625 217.332031 C 117.960938 220.519531 118.09375 223.308594 117.335938 226.09375 C 116.5 228.652344 115.246094 231.214844 114.03125 233.699219 C 111.003906 239.886719 107.871094 246.285156 110.515625 253.582031 C 110.664062 254.101562 111.125 254.441406 111.6875 254.441406 C 111.6875 254.441406 111.691406 254.441406 111.691406 254.441406 C 111.710938 254.441406 111.730469 254.453125 111.753906 254.453125 C 111.761719 254.453125 111.769531 254.453125 111.777344 254.453125 C 111.824219 254.449219 111.863281 254.433594 111.902344 254.417969 C 112.433594 254.335938 112.847656 253.949219 112.925781 253.4375 C 113.953125 247.242188 118.738281 244.128906 123.800781 240.832031 C 124.53125 240.359375 125.261719 239.882812 125.976562 239.398438 C 134.589844 233.714844 137.832031 227.175781 139.867188 220.199219 C 140.980469 222.121094 142 223.671875 142.832031 224.726562 C 144.914062 227.359375 145.996094 229.9375 146.238281 232.8125 C 146.328125 235.503906 146.027344 238.34375 145.734375 241.089844 C 145.011719 247.9375 144.257812 255.019531 149.246094 260.972656 C 149.472656 261.289062 149.820312 261.460938 150.195312 261.460938 C 150.328125 261.460938 150.46875 261.429688 150.605469 261.386719 C 150.644531 261.378906 150.6875 261.375 150.730469 261.359375 C 150.769531 261.34375 150.804688 261.3125 150.835938 261.285156 C 151.304688 261.023438 151.5625 260.523438 151.460938 260.015625 C 150.300781 253.839844 153.730469 249.28125 157.363281 244.457031 C 157.886719 243.761719 158.410156 243.0625 158.917969 242.367188 C 165.0625 234.082031 165.867188 226.828125 165.390625 219.578125 C 167.09375 221.003906 168.585938 222.117188 169.730469 222.824219 C 172.585938 224.585938 174.484375 226.636719 175.699219 229.257812 C 176.703125 231.753906 177.394531 234.523438 178.0625 237.207031 C 179.726562 243.890625 181.445312 250.800781 188.167969 254.691406 C 188.371094 254.832031 188.597656 254.898438 188.824219 254.898438 C 189.089844 254.898438 189.355469 254.800781 189.585938 254.617188 C 189.625 254.597656 189.664062 254.578125 189.695312 254.546875 C 189.726562 254.519531 189.75 254.480469 189.769531 254.445312 C 190.125 254.039062 190.191406 253.476562 189.921875 253.035156 C 186.71875 247.628906 188.382812 242.175781 190.140625 236.398438 C 190.394531 235.566406 190.648438 234.734375 190.882812 233.902344 C 193.820312 224.019531 192.09375 216.929688 189.164062 210.28125 C 191.25 211.035156 193.035156 211.574219 194.351562 211.847656 C 197.640625 212.527344 200.128906 213.804688 202.164062 215.855469 C 203.964844 217.855469 205.5625 220.226562 207.105469 222.515625 C 210.960938 228.230469 214.941406 234.136719 222.59375 235.496094 C 222.695312 235.519531 222.792969 235.535156 222.890625 235.535156 C 223.285156 235.535156 223.644531 235.324219 223.875 234.96875 C 223.917969 234.933594 223.953125 234.890625 223.980469 234.839844 C 224 234.800781 224.007812 234.757812 224.011719 234.714844 C 224.207031 234.214844 224.078125 233.664062 223.675781 233.339844 C 218.8125 229.351562 218.503906 223.660156 218.179688 217.632812 C 218.132812 216.761719 218.085938 215.894531 218.023438 215.035156 C 217.398438 204.746094 213.347656 198.671875 208.320312 193.421875 C 210.542969 193.421875 212.398438 193.316406 213.726562 193.121094 C 217.050781 192.636719 219.828125 192.992188 222.441406 194.21875 C 224.820312 195.488281 227.132812 197.167969 229.371094 198.792969 C 234.226562 202.320312 239.222656 205.953125 245.488281 205.953125 C 246.421875 205.953125 247.378906 205.871094 248.371094 205.699219 C 248.898438 205.648438 249.300781 205.265625 249.40625 204.730469 C 249.425781 204.691406 249.441406 204.652344 249.445312 204.609375 C 249.449219 204.566406 249.441406 204.523438 249.433594 204.480469 C 249.445312 203.945312 249.136719 203.472656 248.644531 203.304688 C 242.710938 201.21875 240.472656 195.976562 238.101562 190.421875 C 237.761719 189.621094 237.417969 188.820312 237.066406 188.03125 C 232.953125 178.578125 227.066406 174.253906 220.542969 171.039062 C 222.628906 170.28125 224.339844 169.546875 225.523438 168.910156 C 228.480469 167.320312 231.210938 166.703125 234.089844 166.964844 C 236.757812 167.34375 239.503906 168.132812 242.164062 168.898438 C 248.792969 170.800781 255.644531 172.769531 262.382812 168.898438 C 262.867188 168.667969 263.113281 168.160156 263.023438 167.617188 C 263.023438 167.578125 263.027344 167.542969 263.019531 167.503906 Z M 234.191406 166.0625 C 231.105469 165.78125 228.214844 166.433594 225.09375 168.109375 C 223.777344 168.816406 221.820312 169.640625 219.402344 170.492188 C 217.753906 169.714844 216.070312 168.996094 214.371094 168.269531 C 212.34375 167.402344 210.292969 166.523438 208.257812 165.527344 C 208.765625 163.78125 209.207031 161.980469 209.574219 160.117188 C 212.820312 159.761719 216.351562 159.179688 220.238281 158.335938 C 231.507812 155.886719 237.941406 159.746094 244.164062 163.476562 C 248.519531 166.09375 252.6875 168.59375 258.15625 168.59375 C 259.265625 168.59375 260.429688 168.484375 261.660156 168.257812 C 255.339844 171.730469 248.769531 169.847656 242.414062 168.023438 C 239.726562 167.25 236.945312 166.453125 234.191406 166.0625 Z M 236.234375 188.394531 C 236.585938 189.183594 236.925781 189.980469 237.265625 190.777344 C 239.523438 196.0625 241.863281 201.511719 247.675781 203.890625 C 240.949219 202.617188 237.476562 198.332031 233.808594 193.8125 C 229.347656 188.3125 224.289062 182.074219 212.503906 180.480469 C 208.875 179.988281 205.613281 179.390625 202.652344 178.695312 C 204.820312 174.984375 206.628906 170.894531 207.996094 166.410156 C 210 167.386719 212.015625 168.25 214.011719 169.101562 C 222.75 172.835938 231 176.359375 236.234375 188.394531 Z M 222.847656 193.40625 C 220.84375 192.464844 218.769531 192.003906 216.46875 192.003906 C 215.550781 192.003906 214.597656 192.078125 213.597656 192.222656 C 212.121094 192.4375 210 192.542969 207.4375 192.515625 C 206.152344 191.226562 204.816406 189.976562 203.464844 188.710938 C 201.941406 187.28125 200.398438 185.835938 198.902344 184.296875 C 200.0625 182.78125 201.152344 181.1875 202.167969 179.515625 C 205.230469 180.246094 208.613281 180.871094 212.382812 181.378906 C 223.8125 182.925781 228.535156 188.75 233.101562 194.382812 C 236.953125 199.132812 240.613281 203.621094 247.929688 204.847656 C 240.789062 205.960938 235.257812 201.945312 229.902344 198.058594 C 227.640625 196.414062 225.304688 194.714844 222.847656 193.40625 Z M 202.824219 215.230469 C 200.640625 213.03125 198.007812 211.675781 194.535156 210.957031 C 193.074219 210.652344 191.042969 210.027344 188.644531 209.128906 C 187.882812 207.476562 187.054688 205.84375 186.21875 204.195312 C 185.21875 202.222656 184.210938 200.226562 183.292969 198.152344 C 184.90625 197.191406 186.476562 196.144531 188 195.015625 C 190.664062 196.777344 193.679688 198.550781 197.109375 200.351562 C 207.316406 205.707031 209.761719 212.792969 212.125 219.648438 C 214.117188 225.421875 216.007812 230.886719 222.449219 234.539062 C 215.375 233.140625 211.554688 227.484375 207.859375 222.007812 C 206.296875 219.691406 204.683594 217.296875 202.824219 215.230469 Z M 189.269531 236.132812 C 187.601562 241.617188 185.878906 247.28125 188.769531 252.820312 C 184.472656 247.539062 184.566406 242.039062 184.667969 236.238281 C 184.789062 229.164062 184.929688 221.140625 176.929688 212.355469 C 174.25 209.414062 171.988281 206.652344 170.0625 204.03125 C 174.363281 202.695312 178.550781 200.894531 182.503906 198.617188 C 183.417969 200.671875 184.417969 202.652344 185.410156 204.605469 C 189.699219 213.070312 193.75 221.066406 190.011719 233.648438 C 189.773438 234.476562 189.523438 235.304688 189.269531 236.132812 Z M 176.53125 228.894531 C 175.234375 226.085938 173.222656 223.910156 170.207031 222.046875 C 168.9375 221.265625 167.246094 219.984375 165.296875 218.320312 C 165.144531 216.507812 164.929688 214.691406 164.707031 212.855469 C 164.421875 210.472656 164.132812 208.058594 163.988281 205.59375 C 165.71875 205.238281 167.4375 204.808594 169.144531 204.308594 C 171.125 207.035156 173.46875 209.902344 176.257812 212.964844 C 184.015625 221.484375 183.886719 228.976562 183.757812 236.222656 C 183.652344 242.328125 183.554688 248.113281 188.359375 253.742188 C 182.191406 250.011719 180.539062 243.390625 178.941406 236.984375 C 178.269531 234.273438 177.570312 231.472656 176.53125 228.894531 Z M 158.183594 241.828125 C 157.679688 242.523438 157.15625 243.214844 156.636719 243.910156 C 153.1875 248.492188 149.628906 253.226562 150.449219 259.417969 C 148.21875 252.988281 150.191406 247.855469 152.273438 242.4375 C 154.8125 235.828125 157.691406 228.335938 153.183594 217.347656 C 151.632812 213.566406 150.425781 210.113281 149.507812 206.917969 C 149.960938 206.929688 150.414062 206.933594 150.867188 206.933594 L 150.871094 206.933594 C 154.921875 206.933594 159.027344 206.546875 163.089844 205.769531 C 163.238281 208.214844 163.523438 210.605469 163.804688 212.964844 C 164.9375 222.382812 166.007812 231.28125 158.183594 241.828125 Z M 146.640625 241.183594 C 146.933594 238.40625 147.238281 235.535156 147.144531 232.757812 C 146.886719 229.675781 145.742188 226.941406 143.546875 224.164062 C 142.621094 222.996094 141.46875 221.210938 140.210938 218.984375 C 140.6875 217.226562 141.105469 215.445312 141.527344 213.648438 C 142.082031 211.28125 142.640625 208.886719 143.363281 206.492188 C 145.097656 206.695312 146.828125 206.828125 148.554688 206.890625 C 149.492188 210.195312 150.734375 213.769531 152.34375 217.691406 C 156.714844 228.347656 154.027344 235.347656 151.425781 242.113281 C 149.234375 247.8125 147.164062 253.214844 149.746094 260.148438 C 145.230469 254.535156 145.945312 247.75 146.640625 241.183594 Z M 123.308594 240.070312 C 118.484375 243.207031 113.515625 246.457031 112.179688 252.585938 C 112.269531 245.75 115.890625 241.589844 119.710938 237.199219 C 124.363281 231.855469 129.632812 225.800781 129.160156 213.933594 C 129.003906 209.992188 129.042969 206.449219 129.253906 203.226562 C 133.554688 204.75 137.996094 205.800781 142.449219 206.382812 C 141.742188 208.746094 141.1875 211.109375 140.640625 213.441406 C 138.480469 222.679688 136.4375 231.40625 125.472656 238.644531 C 124.757812 239.125 124.03125 239.597656 123.308594 240.070312 Z M 114.847656 234.09375 C 116.074219 231.585938 117.34375 228.992188 118.207031 226.351562 C 119.019531 223.363281 118.882812 220.410156 117.769531 217.046875 C 117.300781 215.632812 116.828125 213.5625 116.410156 211.039062 C 117.457031 209.554688 118.460938 208.023438 119.472656 206.476562 C 120.714844 204.578125 121.972656 202.660156 123.355469 200.785156 C 124.996094 201.566406 126.667969 202.273438 128.363281 202.90625 C 128.136719 206.230469 128.089844 209.890625 128.253906 213.972656 C 128.710938 225.476562 123.789062 231.132812 119.027344 236.605469 C 115.015625 241.214844 111.21875 245.582031 111.273438 252.976562 C 108.949219 246.160156 111.945312 240.027344 114.847656 234.09375 Z M 93.300781 225.082031 C 87.710938 226.378906 81.9375 227.722656 78.578125 232.992188 C 81.007812 226.636719 85.824219 223.96875 90.90625 221.15625 C 97.105469 217.722656 104.132812 213.832031 107.753906 202.519531 C 108.878906 199.003906 110.046875 195.875 111.257812 193.066406 C 114.746094 195.96875 118.539062 198.402344 122.523438 200.378906 C 121.171875 202.226562 119.933594 204.113281 118.710938 205.976562 C 113.515625 213.921875 108.609375 221.421875 95.828125 224.480469 C 94.988281 224.691406 94.144531 224.886719 93.300781 225.082031 Z M 87.398438 216.578125 C 89.414062 214.636719 91.492188 212.632812 93.210938 210.449219 C 94.996094 207.917969 95.878906 205.09375 95.984375 201.554688 C 96.027344 200.066406 96.292969 197.960938 96.765625 195.445312 C 98.257812 194.40625 99.726562 193.3125 101.207031 192.203125 C 102.890625 190.945312 104.589844 189.671875 106.375 188.46875 C 107.699219 189.878906 109.085938 191.207031 110.53125 192.453125 C 109.269531 195.355469 108.054688 198.597656 106.886719 202.246094 C 103.378906 213.214844 96.816406 216.847656 90.464844 220.363281 C 85.117188 223.324219 80.054688 226.128906 77.570312 233.101562 C 77.722656 225.898438 82.640625 221.160156 87.398438 216.578125 Z M 53.695312 203.152344 C 58.15625 198.011719 63.59375 197.148438 69.335938 196.242188 C 76.335938 195.132812 84.273438 193.878906 91.546875 184.484375 C 93.796875 181.582031 95.953125 179.054688 98.042969 176.835938 C 100.21875 180.917969 102.820312 184.566406 105.75 187.792969 C 103.996094 188.984375 102.320312 190.238281 100.660156 191.476562 C 93.058594 197.164062 85.875 202.539062 72.820312 201.046875 C 71.960938 200.957031 71.101562 200.851562 70.238281 200.75 C 64.539062 200.058594 58.65625 199.347656 53.695312 203.152344 Z M 67.605469 190.742188 C 70.164062 189.605469 72.804688 188.433594 75.164062 186.964844 C 77.710938 185.199219 79.507812 182.84375 80.820312 179.554688 C 81.371094 178.171875 82.339844 176.285156 83.644531 174.082031 C 85.40625 173.617188 87.160156 173.085938 88.929688 172.550781 C 91 171.925781 93.097656 171.292969 95.253906 170.761719 C 95.960938 172.570312 96.746094 174.308594 97.597656 175.980469 C 95.421875 178.273438 93.171875 180.902344 90.828125 183.929688 C 83.773438 193.039062 76.363281 194.210938 69.191406 195.34375 C 63.160156 196.300781 57.445312 197.207031 52.726562 202.894531 C 55.339844 196.195312 61.570312 193.417969 67.605469 190.742188 Z M 59.226562 171.167969 C 58.449219 170.792969 57.675781 170.398438 56.902344 170.007812 C 52.984375 168.019531 48.964844 165.984375 44.617188 165.984375 C 43.289062 165.984375 41.929688 166.175781 40.535156 166.617188 C 46.484375 163.308594 51.894531 164.355469 57.597656 165.460938 C 64.554688 166.8125 72.441406 168.34375 82.496094 162 C 85.746094 159.953125 88.765625 158.25 91.597656 156.839844 C 92.292969 161.542969 93.425781 165.894531 94.921875 169.90625 C 92.789062 170.4375 90.71875 171.0625 88.667969 171.683594 C 79.574219 174.433594 70.984375 177.03125 59.226562 171.167969 Z M 57.855469 159.703125 C 60.648438 159.511719 63.53125 159.3125 66.253906 158.738281 C 69.25 157.949219 71.746094 156.347656 74.105469 153.707031 C 75.097656 152.59375 76.652344 151.152344 78.632812 149.527344 C 80.449219 149.691406 82.277344 149.792969 84.125 149.894531 C 86.371094 150.019531 88.644531 150.144531 90.9375 150.398438 C 91.050781 152.28125 91.230469 154.113281 91.46875 155.894531 C 88.527344 157.339844 85.394531 159.101562 82.011719 161.234375 C 72.261719 167.382812 64.894531 165.953125 57.769531 164.570312 C 51.765625 163.40625 46.082031 162.308594 39.691406 166.054688 C 44.441406 160.632812 51.257812 160.160156 57.855469 159.703125 Z M 40.691406 127.785156 C 47.410156 126.714844 52.132812 129.542969 57.109375 132.53125 C 63.1875 136.175781 70.074219 140.308594 81.695312 137.78125 C 85.441406 136.96875 88.855469 136.398438 91.996094 136.042969 C 91.324219 139.683594 90.917969 143.542969 90.816406 147.625 C 90.832031 148.25 90.855469 148.867188 90.882812 149.480469 C 88.621094 149.238281 86.382812 149.109375 84.175781 148.988281 C 74.6875 148.464844 65.726562 147.972656 56.683594 138.449219 C 56.085938 137.828125 55.492188 137.199219 54.902344 136.566406 C 50.980469 132.378906 46.933594 128.058594 40.691406 127.785156 Z M 59.324219 127.207031 C 62.015625 127.980469 64.792969 128.777344 67.546875 129.167969 C 70.632812 129.449219 73.523438 128.796875 76.648438 127.121094 C 77.960938 126.417969 79.917969 125.589844 82.335938 124.742188 C 83.984375 125.515625 85.667969 126.234375 87.371094 126.960938 C 89.398438 127.828125 91.449219 128.707031 93.484375 129.703125 C 92.980469 131.449219 92.535156 133.25 92.167969 135.113281 C 88.921875 135.46875 85.390625 136.050781 81.5 136.894531 C 70.234375 139.34375 63.800781 135.484375 57.578125 131.753906 C 52.335938 128.609375 47.367188 125.632812 40.082031 126.972656 C 46.402344 123.5 52.96875 125.382812 59.324219 127.207031 Z M 65.503906 106.835938 C 65.152344 106.046875 64.8125 105.25 64.472656 104.457031 C 62.214844 99.167969 59.875 93.71875 54.0625 91.339844 C 60.789062 92.613281 64.261719 96.898438 67.929688 101.417969 C 72.390625 106.917969 77.449219 113.15625 89.234375 114.75 C 92.863281 115.242188 96.128906 115.839844 99.089844 116.535156 C 96.921875 120.25 95.113281 124.339844 93.746094 128.820312 C 91.742188 127.84375 89.722656 126.980469 87.726562 126.128906 C 78.992188 122.398438 70.738281 118.871094 65.503906 106.835938 Z M 56.21875 90.191406 C 62.222656 90.191406 67.101562 93.734375 71.835938 97.171875 C 74.097656 98.816406 76.4375 100.515625 78.890625 101.824219 C 81.695312 103.140625 84.632812 103.515625 88.140625 103.007812 C 89.617188 102.792969 91.738281 102.6875 94.300781 102.714844 C 95.585938 104.003906 96.921875 105.253906 98.273438 106.519531 C 99.800781 107.949219 101.34375 109.398438 102.835938 110.933594 C 101.679688 112.449219 100.589844 114.042969 99.574219 115.714844 C 96.511719 114.984375 93.125 114.363281 89.355469 113.851562 C 77.929688 112.304688 73.203125 106.480469 68.636719 100.847656 C 64.785156 96.097656 61.125 91.609375 53.8125 90.382812 C 54.636719 90.253906 55.4375 90.191406 56.21875 90.191406 Z M 98.914062 80 C 101.097656 82.199219 103.734375 83.554688 107.203125 84.273438 C 108.664062 84.578125 110.695312 85.203125 113.09375 86.101562 C 113.859375 87.753906 114.683594 89.386719 115.519531 91.035156 C 116.519531 93.003906 117.527344 95.003906 118.445312 97.078125 C 116.832031 98.042969 115.261719 99.089844 113.738281 100.214844 C 111.078125 98.453125 108.0625 96.679688 104.632812 94.878906 C 94.421875 89.519531 91.976562 82.433594 89.613281 75.582031 C 87.625 69.808594 85.734375 64.339844 79.292969 60.691406 C 86.367188 62.089844 90.1875 67.746094 93.878906 73.222656 C 95.441406 75.539062 97.058594 77.9375 98.914062 80 Z M 112.46875 59.097656 C 114.140625 53.613281 115.859375 47.949219 112.96875 42.410156 C 117.265625 47.691406 117.171875 53.191406 117.070312 58.992188 C 116.949219 66.070312 116.808594 74.089844 124.808594 82.875 C 127.488281 85.816406 129.753906 88.578125 131.675781 91.199219 C 127.375 92.535156 123.1875 94.335938 119.234375 96.617188 C 118.320312 94.558594 117.320312 92.578125 116.332031 90.625 C 112.039062 82.160156 107.988281 74.164062 111.726562 61.582031 C 111.964844 60.753906 112.21875 59.925781 112.46875 59.097656 Z M 125.207031 66.335938 C 126.507812 69.144531 128.515625 71.320312 131.53125 73.179688 C 132.800781 73.964844 134.496094 75.246094 136.441406 76.910156 C 136.59375 78.722656 136.8125 80.539062 137.03125 82.375 C 137.320312 84.757812 137.609375 87.171875 137.75 89.636719 C 136.019531 89.992188 134.300781 90.421875 132.597656 90.921875 C 130.613281 88.195312 128.269531 85.328125 125.480469 82.265625 C 117.722656 73.746094 117.855469 66.253906 117.980469 59.007812 C 118.085938 52.898438 118.183594 47.117188 113.378906 41.488281 C 119.546875 45.21875 121.199219 51.835938 122.796875 58.246094 C 123.472656 60.957031 124.167969 63.757812 125.207031 66.335938 Z M 143.554688 53.402344 C 144.0625 52.707031 144.582031 52.011719 145.101562 51.320312 C 148.550781 46.738281 152.109375 42.003906 151.289062 35.8125 C 153.519531 42.242188 151.546875 47.375 149.464844 52.792969 C 146.925781 59.402344 144.046875 66.894531 148.554688 77.882812 C 150.105469 81.664062 151.3125 85.117188 152.230469 88.3125 C 151.777344 88.300781 151.324219 88.296875 150.875 88.296875 L 150.867188 88.296875 C 146.816406 88.296875 142.710938 88.683594 138.648438 89.457031 C 138.503906 87.015625 138.214844 84.625 137.933594 82.265625 C 136.800781 72.847656 135.730469 63.949219 143.554688 53.402344 Z M 155.097656 54.046875 C 154.804688 56.824219 154.5 59.695312 154.59375 62.472656 C 154.851562 65.554688 155.996094 68.289062 158.191406 71.066406 C 160.6875 74.222656 164.851562 81.84375 168.238281 90.660156 C 163.285156 89.289062 158.210938 88.519531 153.183594 88.339844 C 152.25 85.035156 151.003906 81.460938 149.394531 77.539062 C 145.023438 66.882812 147.710938 59.882812 150.3125 53.117188 C 152.503906 47.414062 154.574219 42.015625 151.992188 35.082031 C 156.511719 40.695312 155.796875 47.480469 155.097656 54.046875 Z M 178.433594 55.160156 C 183.253906 52.019531 188.222656 48.773438 189.558594 42.644531 C 189.472656 49.480469 185.847656 53.640625 182.027344 58.03125 C 177.378906 63.375 172.105469 69.429688 172.582031 81.296875 C 172.738281 85.238281 172.699219 88.78125 172.484375 92.003906 C 171.4375 91.632812 170.378906 91.285156 169.3125 90.96875 C 167.171875 85.296875 164.691406 80.078125 162.503906 76.140625 C 164.484375 69.011719 167.566406 62.332031 176.265625 56.585938 C 176.980469 56.105469 177.707031 55.632812 178.433594 55.160156 Z M 186.890625 61.136719 C 185.664062 63.644531 184.394531 66.238281 183.53125 68.878906 C 182.71875 71.867188 182.859375 74.820312 183.96875 78.183594 C 184.4375 79.597656 184.910156 81.667969 185.328125 84.191406 C 184.28125 85.675781 183.277344 87.207031 182.265625 88.757812 C 181.023438 90.652344 179.765625 92.570312 178.386719 94.445312 C 176.742188 93.664062 175.070312 92.957031 173.375 92.324219 C 173.601562 89 173.648438 85.339844 173.488281 81.261719 C 173.027344 69.753906 177.953125 64.097656 182.710938 58.625 C 186.726562 54.019531 190.519531 49.648438 190.464844 42.253906 C 192.792969 49.070312 189.796875 55.203125 186.890625 61.136719 Z M 208.4375 70.148438 C 214.03125 68.851562 219.804688 67.507812 223.160156 62.238281 C 220.730469 68.59375 215.914062 71.261719 210.832031 74.074219 C 204.632812 77.507812 197.605469 81.398438 193.984375 92.710938 C 192.859375 96.226562 191.695312 99.355469 190.480469 102.164062 C 186.996094 99.261719 183.203125 96.828125 179.214844 94.851562 C 180.566406 93.003906 181.804688 91.117188 183.027344 89.253906 C 188.222656 81.308594 193.132812 73.808594 205.910156 70.75 C 206.75 70.539062 207.59375 70.34375 208.4375 70.148438 Z M 214.339844 78.652344 C 212.328125 80.59375 210.246094 82.597656 208.53125 84.78125 C 206.742188 87.3125 205.863281 90.136719 205.753906 93.675781 C 205.710938 95.164062 205.445312 97.269531 204.976562 99.785156 C 203.480469 100.824219 202.011719 101.921875 200.53125 103.027344 C 198.851562 104.285156 197.148438 105.558594 195.367188 106.761719 C 194.042969 105.351562 192.652344 104.023438 191.207031 102.777344 C 192.472656 99.875 193.683594 96.632812 194.851562 92.988281 C 198.359375 82.019531 204.925781 78.382812 211.273438 74.871094 C 216.621094 71.90625 221.683594 69.101562 224.167969 62.128906 C 224.015625 69.332031 219.101562 74.070312 214.339844 78.652344 Z M 248.042969 92.078125 C 243.585938 97.21875 238.144531 98.082031 232.40625 98.988281 C 225.402344 100.097656 217.464844 101.351562 210.191406 110.746094 C 207.945312 113.648438 205.789062 116.175781 203.699219 118.394531 C 201.519531 114.3125 198.917969 110.664062 195.992188 107.4375 C 197.746094 106.246094 199.421875 104.992188 201.078125 103.753906 C 208.679688 98.066406 215.863281 92.691406 228.921875 94.183594 C 229.777344 94.273438 230.640625 94.378906 231.5 94.480469 C 237.199219 95.171875 243.085938 95.882812 248.042969 92.078125 Z M 242.515625 124.0625 C 243.289062 124.441406 244.0625 124.832031 244.835938 125.222656 C 249.957031 127.816406 255.242188 130.496094 261.207031 128.613281 C 255.253906 131.921875 249.847656 130.875 244.140625 129.769531 C 237.183594 128.417969 229.296875 126.886719 219.242188 133.230469 C 215.992188 135.28125 212.972656 136.980469 210.140625 138.390625 C 209.445312 133.6875 208.3125 129.335938 206.816406 125.324219 C 208.949219 124.789062 211.023438 124.167969 213.070312 123.546875 C 222.164062 120.796875 230.753906 118.199219 242.515625 124.0625 Z M 243.882812 135.527344 C 241.09375 135.71875 238.207031 135.917969 235.488281 136.492188 C 232.488281 137.28125 229.996094 138.882812 227.636719 141.523438 C 226.644531 142.636719 225.085938 144.078125 223.105469 145.703125 C 221.292969 145.539062 219.464844 145.4375 217.613281 145.335938 C 215.371094 145.210938 213.097656 145.085938 210.800781 144.832031 C 210.6875 142.953125 210.511719 141.121094 210.269531 139.339844 C 213.210938 137.890625 216.347656 136.128906 219.726562 133.996094 C 229.476562 127.847656 236.84375 129.277344 243.96875 130.660156 C 249.972656 131.824219 255.660156 132.921875 262.046875 129.175781 C 257.296875 134.597656 250.480469 135.070312 243.882812 135.527344 Z M 261.050781 167.445312 C 254.328125 168.515625 249.609375 165.6875 244.628906 162.699219 C 238.554688 159.054688 231.664062 154.921875 220.046875 157.449219 C 216.300781 158.261719 212.886719 158.832031 209.746094 159.1875 C 210.414062 155.550781 210.820312 151.703125 210.925781 147.625 C 210.925781 147.617188 210.925781 147.609375 210.925781 147.601562 C 210.910156 146.980469 210.886719 146.363281 210.855469 145.75 C 213.117188 145.992188 215.355469 146.121094 217.566406 146.242188 C 227.050781 146.761719 236.011719 147.257812 245.054688 156.78125 C 245.65625 157.402344 246.246094 158.035156 246.839844 158.664062 C 250.757812 162.851562 254.804688 167.171875 261.050781 167.445312 Z M 91.722656 147.625 C 92.742188 107.484375 123.101562 89.203125 150.875 89.203125 C 178.644531 89.207031 208.992188 107.488281 210.015625 147.617188 C 208.988281 187.75 178.636719 206.027344 150.867188 206.027344 C 123.09375 206.023438 92.738281 187.742188 91.722656 147.625 Z M 212.808594 122.679688 C 210.738281 123.304688 208.640625 123.933594 206.488281 124.46875 C 205.78125 122.660156 204.996094 120.921875 204.140625 119.25 C 206.320312 116.957031 208.566406 114.328125 210.910156 111.300781 C 217.964844 102.191406 225.378906 101.019531 232.546875 99.886719 C 238.582031 98.929688 244.292969 98.023438 249.011719 92.335938 C 246.398438 99.035156 240.167969 101.8125 234.132812 104.488281 C 231.578125 105.625 228.933594 106.796875 226.574219 108.265625 C 224.027344 110.03125 222.230469 112.382812 220.921875 115.671875 C 220.367188 117.058594 219.398438 118.945312 218.09375 121.148438 C 216.332031 121.613281 214.582031 122.144531 212.808594 122.679688 Z M 88.753906 75.878906 C 91.0625 82.570312 93.679688 90.15625 104.207031 95.679688 C 107.496094 97.40625 110.394531 99.109375 112.96875 100.796875 C 109.46875 103.488281 106.246094 106.621094 103.40625 110.214844 C 101.925781 108.699219 100.402344 107.269531 98.894531 105.859375 C 91.964844 99.367188 85.417969 93.238281 84.621094 80.140625 C 84.558594 79.28125 84.511719 78.414062 84.464844 77.550781 C 84.15625 71.828125 83.835938 65.917969 79.222656 61.699219 C 85.070312 65.191406 86.863281 70.394531 88.753906 75.878906 Z M 212.984375 219.351562 C 210.675781 212.660156 208.058594 205.074219 197.53125 199.550781 C 194.242188 197.824219 191.34375 196.125 188.773438 194.433594 C 192.269531 191.746094 195.492188 188.609375 198.335938 185.019531 C 199.816406 186.535156 201.339844 187.960938 202.84375 189.371094 C 209.777344 195.859375 216.324219 201.992188 217.117188 215.089844 C 217.179688 215.949219 217.226562 216.816406 217.273438 217.679688 C 217.582031 223.402344 217.90625 229.3125 222.515625 233.53125 C 216.671875 230.039062 214.875 224.835938 212.984375 219.351562 Z M 150.867188 200.335938 L 150.871094 200.335938 C 175.933594 200.335938 203.324219 183.84375 204.246094 147.628906 C 204.246094 147.621094 204.246094 147.613281 204.246094 147.605469 C 203.332031 111.390625 175.9375 94.894531 150.875 94.890625 L 150.871094 94.890625 C 125.804688 94.890625 98.414062 111.386719 97.492188 147.625 C 98.410156 183.839844 125.800781 200.335938 150.867188 200.335938 Z M 98.402344 147.625 C 99.304688 112.015625 126.234375 95.796875 150.875 95.800781 C 175.507812 95.800781 202.429688 112.019531 203.335938 147.613281 C 202.425781 183.21875 175.5 199.429688 150.867188 199.429688 C 126.226562 199.429688 99.300781 183.210938 98.402344 147.625 Z M 98.402344 147.625 " fill-opacity="1" fill-rule="nonzero"/></g></svg>