<svg xmlns="http://www.w3.org/2000/svg" xmlns:xlink="http://www.w3.org/1999/xlink" width="40" zoomAndPan="magnify" viewBox="0 0 30 30.000001" height="40" preserveAspectRatio="xMidYMid meet" version="1.0"><defs><clipPath id="a0ca5cbbd7"><path d="M 0.484375 0 L 29.515625 0 L 29.515625 29.03125 L 0.484375 29.03125 Z M 0.484375 0 " clip-rule="nonzero"/></clipPath><clipPath id="f5df60f006"><path d="M 4.195312 3.554688 L 25.972656 3.554688 L 25.972656 25.328125 L 4.195312 25.328125 Z M 4.195312 3.554688 " clip-rule="nonzero"/></clipPath><clipPath id="3229f5b803"><path d="M 4.195312 3.554688 L 25.972656 3.554688 L 25.972656 25.328125 L 4.195312 25.328125 Z M 4.195312 3.554688 " clip-rule="nonzero"/></clipPath></defs><g clip-path="url(#a0ca5cbbd7)"><path fill="#ffffff" d="M 0.484375 0 L 29.515625 0 L 29.515625 174.195312 L 0.484375 174.195312 Z M 0.484375 0 " fill-opacity="1" fill-rule="nonzero"/><path fill="#ffffff" d="M 0.484375 0 L 29.515625 0 L 29.515625 29.03125 L 0.484375 29.03125 Z M 0.484375 0 " fill-opacity="1" fill-rule="nonzero"/><path fill="#73a5a8" d="M 0.484375 0 L 29.515625 0 L 29.515625 29.03125 L 0.484375 29.03125 Z M 0.484375 0 " fill-opacity="1" fill-rule="nonzero"/></g><g clip-path="url(#f5df60f006)"><path fill="#43241e" d="M 25.9375 16.355469 C 25.945312 16.40625 25.921875 16.453125 25.875 16.476562 C 25.222656 16.847656 24.558594 16.660156 23.917969 16.476562 C 23.660156 16.402344 23.394531 16.328125 23.136719 16.292969 C 22.859375 16.265625 22.59375 16.328125 22.308594 16.476562 C 22.195312 16.539062 22.027344 16.609375 21.824219 16.683594 C 22.457031 16.988281 23.027344 17.402344 23.425781 18.304688 C 23.460938 18.378906 23.492188 18.457031 23.527344 18.53125 C 23.753906 19.0625 23.972656 19.5625 24.546875 19.761719 C 24.59375 19.777344 24.625 19.824219 24.621094 19.875 C 24.621094 19.878906 24.625 19.882812 24.625 19.886719 C 24.621094 19.890625 24.621094 19.894531 24.621094 19.898438 C 24.609375 19.949219 24.570312 19.988281 24.519531 19.992188 C 24.421875 20.007812 24.332031 20.015625 24.242188 20.015625 C 23.632812 20.015625 23.148438 19.667969 22.679688 19.332031 C 22.464844 19.175781 22.238281 19.015625 22.011719 18.894531 C 21.757812 18.777344 21.488281 18.746094 21.167969 18.789062 C 21.039062 18.808594 20.859375 18.820312 20.644531 18.820312 C 21.128906 19.320312 21.523438 19.902344 21.582031 20.882812 C 21.589844 20.964844 21.59375 21.046875 21.597656 21.132812 C 21.628906 21.707031 21.660156 22.25 22.128906 22.632812 C 22.167969 22.664062 22.179688 22.714844 22.160156 22.761719 C 22.160156 22.765625 22.160156 22.769531 22.160156 22.773438 C 22.15625 22.78125 22.152344 22.785156 22.148438 22.789062 C 22.125 22.820312 22.089844 22.839844 22.054688 22.839844 C 22.042969 22.839844 22.035156 22.839844 22.023438 22.839844 C 21.285156 22.707031 20.898438 22.144531 20.527344 21.597656 C 20.375 21.378906 20.222656 21.152344 20.046875 20.960938 C 19.851562 20.765625 19.609375 20.644531 19.292969 20.578125 C 19.164062 20.554688 18.992188 20.5 18.789062 20.429688 C 19.074219 21.066406 19.238281 21.742188 18.957031 22.6875 C 18.933594 22.765625 18.910156 22.84375 18.882812 22.925781 C 18.714844 23.476562 18.554688 23.996094 18.863281 24.511719 C 18.890625 24.554688 18.882812 24.609375 18.847656 24.648438 C 18.847656 24.652344 18.84375 24.65625 18.839844 24.65625 C 18.835938 24.660156 18.835938 24.664062 18.832031 24.664062 C 18.808594 24.679688 18.78125 24.691406 18.757812 24.691406 C 18.734375 24.691406 18.710938 24.683594 18.691406 24.671875 C 18.042969 24.300781 17.875 23.640625 17.714844 23 C 17.652344 22.746094 17.582031 22.480469 17.488281 22.242188 C 17.367188 21.992188 17.183594 21.796875 16.910156 21.628906 C 16.796875 21.558594 16.652344 21.453125 16.488281 21.316406 C 16.535156 22.011719 16.457031 22.703125 15.863281 23.492188 C 15.8125 23.5625 15.761719 23.628906 15.710938 23.695312 C 15.359375 24.15625 15.027344 24.589844 15.140625 25.179688 C 15.152344 25.226562 15.125 25.277344 15.082031 25.300781 C 15.078125 25.304688 15.074219 25.304688 15.070312 25.308594 C 15.066406 25.308594 15.0625 25.308594 15.058594 25.3125 C 15.042969 25.316406 15.03125 25.316406 15.019531 25.316406 C 14.980469 25.316406 14.949219 25.300781 14.925781 25.269531 C 14.445312 24.703125 14.515625 24.027344 14.585938 23.371094 C 14.613281 23.109375 14.644531 22.839844 14.636719 22.582031 C 14.613281 22.308594 14.507812 22.0625 14.304688 21.808594 C 14.226562 21.707031 14.125 21.5625 14.019531 21.378906 C 13.820312 22.042969 13.507812 22.667969 12.675781 23.210938 C 12.605469 23.257812 12.535156 23.300781 12.464844 23.347656 C 11.972656 23.664062 11.511719 23.960938 11.410156 24.550781 C 11.402344 24.601562 11.363281 24.636719 11.3125 24.644531 C 11.308594 24.648438 11.304688 24.648438 11.300781 24.648438 C 11.300781 24.648438 11.300781 24.648438 11.296875 24.648438 C 11.296875 24.648438 11.292969 24.648438 11.292969 24.648438 C 11.238281 24.648438 11.191406 24.613281 11.179688 24.566406 C 10.921875 23.867188 11.226562 23.257812 11.519531 22.667969 C 11.636719 22.429688 11.757812 22.183594 11.839844 21.941406 C 11.910156 21.675781 11.898438 21.40625 11.796875 21.101562 C 11.757812 20.980469 11.714844 20.808594 11.675781 20.601562 C 11.261719 21.160156 10.75 21.640625 9.777344 21.871094 C 9.695312 21.890625 9.613281 21.910156 9.53125 21.929688 C 8.960938 22.058594 8.425781 22.179688 8.125 22.703125 C 8.105469 22.742188 8.066406 22.761719 8.023438 22.761719 C 8.015625 22.761719 8.007812 22.761719 8 22.757812 C 7.996094 22.757812 7.992188 22.757812 7.988281 22.757812 C 7.984375 22.757812 7.980469 22.753906 7.976562 22.753906 C 7.929688 22.734375 7.898438 22.691406 7.902344 22.640625 C 7.902344 21.898438 8.398438 21.425781 8.878906 20.96875 C 9.074219 20.785156 9.273438 20.597656 9.433594 20.394531 C 9.59375 20.167969 9.675781 19.914062 9.683594 19.59375 C 9.6875 19.464844 9.710938 19.289062 9.746094 19.082031 C 9.160156 19.464844 8.511719 19.746094 7.519531 19.632812 C 7.4375 19.625 7.355469 19.617188 7.269531 19.605469 C 6.6875 19.535156 6.140625 19.46875 5.679688 19.859375 C 5.65625 19.878906 5.632812 19.886719 5.605469 19.886719 C 5.585938 19.886719 5.5625 19.882812 5.542969 19.871094 C 5.539062 19.871094 5.535156 19.867188 5.53125 19.863281 C 5.527344 19.863281 5.527344 19.859375 5.523438 19.855469 C 5.484375 19.824219 5.46875 19.769531 5.492188 19.722656 C 5.75 19.027344 6.378906 18.75 6.988281 18.484375 C 7.234375 18.378906 7.488281 18.265625 7.707031 18.128906 C 7.9375 17.972656 8.101562 17.761719 8.222656 17.464844 C 8.269531 17.34375 8.351562 17.183594 8.460938 17 C 8.171875 17.070312 7.882812 17.117188 7.574219 17.121094 C 7.152344 17.121094 6.695312 17.027344 6.175781 16.773438 C 6.101562 16.734375 6.027344 16.699219 5.949219 16.660156 C 5.429688 16.398438 4.9375 16.152344 4.367188 16.363281 C 4.320312 16.382812 4.269531 16.367188 4.234375 16.328125 C 4.230469 16.324219 4.226562 16.320312 4.226562 16.316406 C 4.222656 16.316406 4.222656 16.3125 4.222656 16.308594 C 4.195312 16.261719 4.199219 16.207031 4.238281 16.171875 C 4.722656 15.605469 5.410156 15.558594 6.074219 15.511719 C 6.34375 15.496094 6.621094 15.476562 6.875 15.421875 C 7.144531 15.351562 7.371094 15.207031 7.589844 14.96875 C 7.675781 14.871094 7.808594 14.75 7.972656 14.613281 C 7.273438 14.539062 6.59375 14.34375 5.90625 13.628906 C 5.847656 13.570312 5.789062 13.507812 5.730469 13.449219 C 5.335938 13.03125 4.960938 12.636719 4.359375 12.636719 C 4.355469 12.636719 4.351562 12.636719 4.347656 12.636719 C 4.296875 12.636719 4.253906 12.605469 4.234375 12.554688 C 4.234375 12.550781 4.230469 12.550781 4.230469 12.546875 C 4.230469 12.542969 4.230469 12.539062 4.230469 12.535156 C 4.222656 12.484375 4.246094 12.433594 4.292969 12.410156 C 4.945312 12.042969 5.605469 12.230469 6.25 12.414062 C 6.507812 12.484375 6.773438 12.558594 7.03125 12.597656 C 7.308594 12.621094 7.574219 12.5625 7.859375 12.410156 C 7.972656 12.351562 8.140625 12.28125 8.339844 12.207031 C 7.710938 11.902344 7.140625 11.488281 6.742188 10.585938 C 6.707031 10.507812 6.675781 10.433594 6.640625 10.355469 C 6.414062 9.824219 6.195312 9.324219 5.621094 9.125 C 5.574219 9.109375 5.542969 9.066406 5.546875 9.011719 C 5.542969 9.007812 5.542969 9.003906 5.542969 9 C 5.542969 8.996094 5.546875 8.996094 5.546875 8.992188 C 5.558594 8.9375 5.597656 8.902344 5.648438 8.898438 C 6.390625 8.769531 6.945312 9.167969 7.488281 9.558594 C 7.703125 9.710938 7.925781 9.871094 8.15625 9.992188 C 8.410156 10.109375 8.679688 10.144531 9 10.097656 C 9.128906 10.078125 9.308594 10.070312 9.523438 10.070312 C 9.039062 9.566406 8.644531 8.988281 8.585938 8.003906 C 8.578125 7.921875 8.574219 7.839844 8.570312 7.757812 C 8.539062 7.183594 8.507812 6.636719 8.039062 6.257812 C 8 6.226562 7.988281 6.171875 8.003906 6.125 C 8.007812 6.121094 8.007812 6.117188 8.007812 6.113281 C 8.011719 6.109375 8.011719 6.109375 8.015625 6.105469 C 8.042969 6.0625 8.09375 6.039062 8.140625 6.050781 C 8.882812 6.179688 9.269531 6.746094 9.640625 7.292969 C 9.789062 7.511719 9.945312 7.734375 10.121094 7.925781 C 10.316406 8.121094 10.558594 8.246094 10.875 8.308594 C 11.003906 8.335938 11.175781 8.386719 11.378906 8.460938 C 11.09375 7.824219 10.925781 7.148438 11.210938 6.203125 C 11.234375 6.125 11.257812 6.042969 11.285156 5.964844 C 11.453125 5.414062 11.613281 4.890625 11.304688 4.375 C 11.277344 4.332031 11.285156 4.28125 11.320312 4.242188 C 11.320312 4.238281 11.324219 4.234375 11.328125 4.230469 C 11.328125 4.230469 11.332031 4.226562 11.335938 4.226562 C 11.375 4.191406 11.429688 4.1875 11.472656 4.21875 C 12.125 4.589844 12.292969 5.25 12.453125 5.886719 C 12.515625 6.144531 12.582031 6.410156 12.679688 6.648438 C 12.796875 6.898438 12.980469 7.09375 13.257812 7.261719 C 13.367188 7.328125 13.511719 7.433594 13.679688 7.570312 C 13.632812 6.878906 13.710938 6.1875 14.304688 5.394531 C 14.355469 5.328125 14.40625 5.261719 14.457031 5.195312 C 14.804688 4.734375 15.136719 4.300781 15.027344 3.710938 C 15.015625 3.660156 15.042969 3.613281 15.085938 3.589844 C 15.089844 3.585938 15.09375 3.582031 15.097656 3.582031 C 15.101562 3.578125 15.105469 3.578125 15.109375 3.578125 C 15.160156 3.5625 15.210938 3.578125 15.242188 3.617188 C 15.722656 4.1875 15.652344 4.863281 15.582031 5.515625 C 15.550781 5.78125 15.523438 6.050781 15.53125 6.308594 C 15.554688 6.582031 15.660156 6.828125 15.863281 7.078125 C 15.941406 7.179688 16.039062 7.328125 16.148438 7.511719 C 16.34375 6.847656 16.660156 6.222656 17.492188 5.679688 C 17.5625 5.632812 17.632812 5.585938 17.703125 5.542969 C 18.191406 5.226562 18.65625 4.929688 18.753906 4.335938 C 18.761719 4.289062 18.804688 4.25 18.855469 4.242188 C 18.859375 4.242188 18.863281 4.242188 18.867188 4.242188 C 18.871094 4.242188 18.875 4.242188 18.875 4.242188 C 18.929688 4.242188 18.976562 4.273438 18.988281 4.324219 C 19.246094 5.019531 18.941406 5.632812 18.648438 6.222656 C 18.53125 6.460938 18.410156 6.703125 18.328125 6.949219 C 18.253906 7.214844 18.269531 7.480469 18.371094 7.785156 C 18.410156 7.90625 18.453125 8.082031 18.488281 8.289062 C 18.90625 7.730469 19.417969 7.25 20.390625 7.019531 C 20.46875 7 20.550781 6.980469 20.636719 6.960938 C 21.203125 6.832031 21.742188 6.707031 22.042969 6.183594 C 22.066406 6.140625 22.117188 6.121094 22.167969 6.128906 C 22.171875 6.128906 22.175781 6.128906 22.179688 6.132812 C 22.183594 6.132812 22.1875 6.132812 22.1875 6.136719 C 22.238281 6.15625 22.269531 6.199219 22.265625 6.25 C 22.265625 6.992188 21.765625 7.464844 21.285156 7.921875 C 21.09375 8.105469 20.894531 8.292969 20.734375 8.496094 C 20.574219 8.71875 20.492188 8.976562 20.484375 9.296875 C 20.480469 9.421875 20.457031 9.601562 20.421875 9.808594 C 21.007812 9.421875 21.652344 9.144531 22.648438 9.253906 C 22.730469 9.265625 22.8125 9.273438 22.898438 9.285156 C 23.476562 9.351562 24.027344 9.417969 24.488281 9.027344 C 24.527344 8.996094 24.582031 8.992188 24.625 9.019531 C 24.628906 9.019531 24.632812 9.023438 24.636719 9.023438 C 24.640625 9.027344 24.640625 9.03125 24.644531 9.03125 C 24.683594 9.066406 24.699219 9.117188 24.675781 9.164062 C 24.417969 9.863281 23.789062 10.136719 23.175781 10.40625 C 22.933594 10.511719 22.679688 10.621094 22.457031 10.757812 C 22.230469 10.914062 22.066406 11.128906 21.945312 11.425781 C 21.894531 11.546875 21.816406 11.703125 21.707031 11.886719 C 22.390625 11.722656 23.097656 11.675781 23.992188 12.117188 C 24.066406 12.152344 24.140625 12.191406 24.21875 12.230469 C 24.738281 12.488281 25.230469 12.734375 25.800781 12.523438 C 25.847656 12.507812 25.898438 12.523438 25.933594 12.5625 C 25.9375 12.566406 25.9375 12.566406 25.941406 12.570312 C 25.945312 12.574219 25.945312 12.578125 25.945312 12.582031 C 25.972656 12.628906 25.964844 12.679688 25.929688 12.71875 C 25.445312 13.285156 24.757812 13.332031 24.089844 13.375 C 23.824219 13.394531 23.546875 13.414062 23.292969 13.464844 C 23.023438 13.535156 22.792969 13.679688 22.578125 13.921875 C 22.492188 14.015625 22.359375 14.136719 22.195312 14.273438 C 22.894531 14.351562 23.574219 14.546875 24.261719 15.261719 C 24.320312 15.320312 24.378906 15.378906 24.433594 15.441406 C 24.832031 15.859375 25.207031 16.253906 25.804688 16.253906 C 25.8125 16.253906 25.816406 16.253906 25.820312 16.253906 C 25.871094 16.253906 25.914062 16.285156 25.933594 16.332031 C 25.933594 16.335938 25.9375 16.339844 25.9375 16.34375 C 25.9375 16.347656 25.9375 16.351562 25.9375 16.355469 Z M 25.9375 16.355469 " fill-opacity="1" fill-rule="nonzero"/></g><path fill="#d1dd82" d="M 15.082031 20.023438 C 17.769531 20.023438 20.707031 18.277344 20.808594 14.445312 C 20.707031 10.613281 17.769531 8.867188 15.085938 8.867188 C 12.394531 8.867188 9.457031 10.613281 9.359375 14.445312 C 9.457031 18.277344 12.394531 20.023438 15.082031 20.023438 Z M 9.917969 14.445312 C 10.007812 10.984375 12.65625 9.410156 15.082031 9.410156 L 15.085938 9.410156 C 17.507812 9.410156 20.160156 10.984375 20.25 14.445312 C 20.160156 17.90625 17.507812 19.480469 15.082031 19.480469 C 12.65625 19.480469 10.007812 17.90625 9.917969 14.445312 Z M 9.917969 14.445312 " fill-opacity="1" fill-rule="nonzero"/><g clip-path="url(#3229f5b803)"><path fill="#e1bf4b" d="M 17.542969 5.75 C 17.609375 5.703125 17.679688 5.660156 17.75 5.613281 C 18.21875 5.3125 18.699219 5.003906 18.828125 4.417969 C 18.820312 5.070312 18.46875 5.46875 18.097656 5.886719 C 17.648438 6.398438 17.140625 6.976562 17.183594 8.109375 C 17.199219 8.488281 17.195312 8.824219 17.175781 9.132812 C 17.074219 9.097656 16.972656 9.066406 16.867188 9.035156 C 16.660156 8.492188 16.421875 7.992188 16.210938 7.617188 C 16.402344 6.9375 16.699219 6.300781 17.542969 5.75 Z M 18.164062 5.945312 C 17.703125 6.46875 17.226562 7.007812 17.273438 8.105469 C 17.289062 8.496094 17.285156 8.847656 17.261719 9.164062 C 17.425781 9.222656 17.585938 9.292969 17.746094 9.367188 C 17.878906 9.1875 18.003906 9.003906 18.121094 8.824219 C 18.21875 8.675781 18.316406 8.527344 18.417969 8.386719 C 18.378906 8.144531 18.332031 7.949219 18.285156 7.8125 C 18.179688 7.492188 18.164062 7.210938 18.246094 6.925781 C 18.328125 6.671875 18.449219 6.425781 18.570312 6.183594 C 18.851562 5.617188 19.140625 5.03125 18.914062 4.382812 C 18.921875 5.089844 18.554688 5.503906 18.164062 5.945312 Z M 20.929688 7.496094 C 20.316406 7.832031 19.679688 8.179688 19.339844 9.226562 C 19.226562 9.574219 19.109375 9.886719 18.988281 10.164062 C 19.128906 10.28125 19.261719 10.40625 19.390625 10.542969 C 19.5625 10.425781 19.726562 10.304688 19.890625 10.1875 C 20.03125 10.082031 20.175781 9.976562 20.320312 9.875 C 20.367188 9.636719 20.390625 9.433594 20.394531 9.292969 C 20.40625 8.953125 20.492188 8.683594 20.664062 8.445312 C 20.828125 8.234375 21.03125 8.042969 21.226562 7.859375 C 21.6875 7.421875 22.164062 6.96875 22.175781 6.28125 C 21.9375 6.945312 21.445312 7.214844 20.929688 7.496094 Z M 18.195312 8.871094 C 18.078125 9.046875 17.957031 9.230469 17.828125 9.40625 C 18.210938 9.59375 18.578125 9.828125 18.917969 10.105469 C 19.035156 9.835938 19.148438 9.535156 19.257812 9.199219 C 19.605469 8.121094 20.285156 7.75 20.886719 7.421875 C 21.378906 7.152344 21.84375 6.898438 22.078125 6.289062 C 21.753906 6.792969 21.195312 6.921875 20.65625 7.046875 C 20.574219 7.066406 20.492188 7.082031 20.410156 7.101562 C 19.171875 7.394531 18.699219 8.113281 18.195312 8.871094 Z M 22.410156 10.6875 C 22.636719 10.546875 22.894531 10.433594 23.140625 10.324219 C 23.726562 10.070312 24.328125 9.804688 24.582031 9.164062 C 24.125 9.707031 23.570312 9.792969 22.988281 9.886719 C 22.292969 9.996094 21.578125 10.105469 20.894531 10.976562 C 20.667969 11.265625 20.449219 11.515625 20.238281 11.734375 C 20.320312 11.894531 20.398438 12.0625 20.464844 12.234375 C 20.675781 12.183594 20.878906 12.121094 21.078125 12.0625 C 21.25 12.011719 21.417969 11.960938 21.589844 11.917969 C 21.714844 11.707031 21.808594 11.527344 21.863281 11.394531 C 21.988281 11.078125 22.164062 10.855469 22.410156 10.6875 Z M 19.941406 10.253906 C 19.78125 10.375 19.621094 10.492188 19.449219 10.605469 C 19.734375 10.914062 19.984375 11.265625 20.195312 11.652344 C 20.398438 11.441406 20.605469 11.199219 20.824219 10.921875 C 21.527344 10.027344 22.296875 9.90625 22.972656 9.800781 C 23.53125 9.714844 24.054688 9.632812 24.488281 9.140625 C 24.007812 9.503906 23.4375 9.4375 22.886719 9.371094 C 22.804688 9.359375 22.71875 9.351562 22.636719 9.339844 C 21.375 9.199219 20.679688 9.710938 19.941406 10.253906 Z M 24.09375 12.824219 C 23.402344 12.691406 22.691406 12.554688 21.746094 13.144531 C 21.421875 13.347656 21.117188 13.515625 20.832031 13.652344 C 20.855469 13.824219 20.871094 14 20.882812 14.179688 C 21.105469 14.203125 21.324219 14.214844 21.542969 14.226562 C 21.722656 14.238281 21.898438 14.246094 22.074219 14.261719 C 22.265625 14.105469 22.417969 13.96875 22.511719 13.863281 C 22.742188 13.609375 22.980469 13.457031 23.273438 13.382812 C 23.535156 13.328125 23.816406 13.308594 24.085938 13.289062 C 24.722656 13.246094 25.382812 13.199219 25.84375 12.683594 C 25.222656 13.042969 24.675781 12.9375 24.09375 12.824219 Z M 21.101562 12.144531 C 20.90625 12.203125 20.703125 12.265625 20.496094 12.316406 C 20.644531 12.699219 20.753906 13.113281 20.820312 13.5625 C 21.09375 13.429688 21.386719 13.265625 21.699219 13.070312 C 22.671875 12.464844 23.4375 12.609375 24.109375 12.738281 C 24.660156 12.847656 25.183594 12.945312 25.761719 12.628906 C 25.183594 12.808594 24.671875 12.554688 24.175781 12.304688 C 24.101562 12.269531 24.027344 12.230469 23.953125 12.195312 C 22.816406 11.636719 21.984375 11.882812 21.101562 12.144531 Z M 25.804688 16.417969 C 25.6875 16.4375 25.574219 16.449219 25.464844 16.449219 C 24.9375 16.449219 24.535156 16.210938 24.113281 15.960938 C 23.511719 15.601562 22.886719 15.234375 21.796875 15.46875 C 21.421875 15.550781 21.078125 15.605469 20.765625 15.640625 C 20.730469 15.816406 20.6875 15.988281 20.636719 16.15625 C 20.835938 16.25 21.03125 16.335938 21.230469 16.417969 C 21.394531 16.488281 21.554688 16.554688 21.714844 16.628906 C 21.949219 16.546875 22.140625 16.46875 22.265625 16.402344 C 22.570312 16.242188 22.847656 16.179688 23.148438 16.207031 C 23.414062 16.242188 23.683594 16.320312 23.941406 16.394531 C 24.558594 16.566406 25.195312 16.746094 25.804688 16.417969 Z M 21.539062 14.3125 C 21.324219 14.300781 21.109375 14.289062 20.890625 14.265625 C 20.890625 14.324219 20.894531 14.382812 20.894531 14.445312 C 20.886719 14.835938 20.847656 15.203125 20.78125 15.550781 C 21.085938 15.515625 21.414062 15.460938 21.777344 15.382812 C 22.902344 15.144531 23.570312 15.539062 24.15625 15.886719 C 24.640625 16.171875 25.097656 16.441406 25.746094 16.339844 C 25.140625 16.3125 24.75 15.898438 24.371094 15.5 C 24.3125 15.441406 24.257812 15.378906 24.199219 15.320312 C 23.324219 14.410156 22.457031 14.363281 21.539062 14.3125 Z M 24.476562 19.910156 C 23.769531 19.792969 23.414062 19.363281 23.042969 18.910156 C 22.597656 18.375 22.140625 17.816406 21.035156 17.667969 C 20.671875 17.621094 20.34375 17.5625 20.046875 17.492188 C 19.949219 17.652344 19.84375 17.804688 19.730469 17.949219 C 19.875 18.09375 20.027344 18.234375 20.171875 18.371094 C 20.304688 18.492188 20.433594 18.609375 20.558594 18.734375 C 20.804688 18.734375 21.011719 18.726562 21.152344 18.703125 C 21.25 18.691406 21.34375 18.683594 21.433594 18.683594 C 21.65625 18.683594 21.855469 18.726562 22.050781 18.816406 C 22.285156 18.941406 22.511719 19.105469 22.730469 19.261719 C 23.25 19.632812 23.785156 20.015625 24.476562 19.910156 Z M 21.195312 16.496094 C 21 16.414062 20.804688 16.332031 20.613281 16.238281 C 20.480469 16.667969 20.304688 17.058594 20.09375 17.414062 C 20.382812 17.480469 20.695312 17.535156 21.046875 17.582031 C 22.1875 17.734375 22.679688 18.332031 23.109375 18.855469 C 23.464844 19.289062 23.800781 19.699219 24.453125 19.820312 C 23.890625 19.59375 23.664062 19.070312 23.445312 18.566406 C 23.410156 18.492188 23.378906 18.414062 23.34375 18.339844 C 22.839844 17.191406 22.039062 16.851562 21.195312 16.496094 Z M 21.511719 21.136719 C 21.503906 21.054688 21.5 20.972656 21.496094 20.890625 C 21.417969 19.636719 20.785156 19.050781 20.113281 18.433594 C 19.96875 18.296875 19.820312 18.160156 19.675781 18.015625 C 19.402344 18.359375 19.089844 18.660156 18.75 18.917969 C 19 19.078125 19.28125 19.238281 19.597656 19.40625 C 20.617188 19.933594 20.871094 20.65625 21.09375 21.296875 C 21.277344 21.820312 21.453125 22.316406 22.015625 22.652344 C 21.570312 22.246094 21.539062 21.683594 21.511719 21.136719 Z M 22.011719 22.746094 C 21.386719 22.398438 21.203125 21.875 21.011719 21.324219 C 20.78125 20.667969 20.546875 19.992188 19.558594 19.480469 C 19.226562 19.308594 18.933594 19.140625 18.675781 18.972656 C 18.53125 19.078125 18.378906 19.179688 18.222656 19.273438 C 18.308594 19.46875 18.40625 19.660156 18.503906 19.847656 C 18.585938 20.007812 18.664062 20.160156 18.738281 20.320312 C 18.972656 20.40625 19.167969 20.464844 19.308594 20.496094 C 19.644531 20.5625 19.898438 20.691406 20.113281 20.902344 C 20.292969 21.101562 20.449219 21.328125 20.597656 21.550781 C 20.957031 22.074219 21.324219 22.613281 22.011719 22.746094 Z M 18.710938 24.582031 C 18.246094 24.042969 18.257812 23.492188 18.265625 22.90625 C 18.277344 22.214844 18.292969 21.5 17.539062 20.6875 C 17.269531 20.394531 17.042969 20.121094 16.851562 19.859375 C 16.6875 19.90625 16.519531 19.949219 16.351562 19.980469 C 16.367188 20.21875 16.394531 20.449219 16.421875 20.675781 C 16.445312 20.851562 16.464844 21.023438 16.480469 21.199219 C 16.667969 21.355469 16.832031 21.480469 16.953125 21.554688 C 17.246094 21.730469 17.441406 21.9375 17.566406 22.207031 C 17.667969 22.453125 17.734375 22.722656 17.800781 22.980469 C 17.953125 23.59375 18.113281 24.226562 18.710938 24.582031 Z M 18.425781 19.886719 C 18.332031 19.699219 18.234375 19.511719 18.144531 19.316406 C 17.761719 19.535156 17.355469 19.707031 16.941406 19.832031 C 17.128906 20.082031 17.347656 20.347656 17.605469 20.628906 C 18.378906 21.46875 18.367188 22.234375 18.355469 22.910156 C 18.34375 23.464844 18.335938 23.988281 18.75 24.492188 C 18.472656 23.964844 18.636719 23.421875 18.800781 22.898438 C 18.824219 22.820312 18.847656 22.742188 18.871094 22.660156 C 19.234375 21.460938 18.839844 20.695312 18.425781 19.886719 Z M 15.136719 23.46875 C 15.390625 22.824219 15.648438 22.15625 15.226562 21.136719 C 15.070312 20.761719 14.949219 20.421875 14.859375 20.105469 C 14.691406 20.101562 14.523438 20.085938 14.355469 20.066406 C 14.289062 20.296875 14.234375 20.527344 14.179688 20.75 C 14.140625 20.921875 14.097656 21.09375 14.050781 21.261719 C 14.175781 21.472656 14.285156 21.644531 14.375 21.753906 C 14.585938 22.019531 14.699219 22.28125 14.722656 22.578125 C 14.730469 22.839844 14.703125 23.117188 14.675781 23.382812 C 14.605469 24.007812 14.539062 24.65625 14.976562 25.191406 C 14.726562 24.53125 14.925781 24.015625 15.136719 23.46875 Z M 16.335938 20.6875 C 16.308594 20.460938 16.28125 20.234375 16.265625 20 C 15.871094 20.074219 15.476562 20.109375 15.082031 20.109375 C 15.039062 20.109375 14.996094 20.109375 14.953125 20.109375 C 15.039062 20.414062 15.15625 20.742188 15.308594 21.105469 C 15.742188 22.15625 15.464844 22.871094 15.21875 23.5 C 15.019531 24.019531 14.828125 24.507812 15.042969 25.121094 C 14.964844 24.53125 15.308594 24.078125 15.640625 23.640625 C 15.691406 23.574219 15.742188 23.507812 15.792969 23.441406 C 16.546875 22.433594 16.445312 21.585938 16.335938 20.6875 Z M 14.09375 20.730469 C 14.148438 20.507812 14.199219 20.285156 14.269531 20.058594 C 13.835938 20 13.40625 19.902344 12.992188 19.753906 C 12.972656 20.0625 12.96875 20.402344 12.984375 20.777344 C 13.027344 21.910156 12.519531 22.492188 12.066406 23 C 11.699219 23.421875 11.347656 23.816406 11.339844 24.46875 C 11.46875 23.886719 11.949219 23.574219 12.417969 23.273438 C 12.488281 23.230469 12.558594 23.183594 12.625 23.140625 C 13.6875 22.449219 13.882812 21.613281 14.09375 20.730469 Z M 12.003906 22.945312 C 12.460938 22.421875 12.9375 21.882812 12.894531 20.78125 C 12.878906 20.390625 12.882812 20.042969 12.90625 19.726562 C 12.742188 19.664062 12.578125 19.597656 12.421875 19.523438 C 12.289062 19.703125 12.164062 19.886719 12.046875 20.066406 C 11.949219 20.214844 11.851562 20.359375 11.75 20.503906 C 11.789062 20.742188 11.835938 20.941406 11.878906 21.074219 C 11.988281 21.398438 12 21.679688 11.921875 21.964844 C 11.839844 22.214844 11.714844 22.464844 11.597656 22.703125 C 11.316406 23.269531 11.027344 23.855469 11.25 24.507812 C 11.246094 23.800781 11.613281 23.382812 12.003906 22.945312 Z M 11.972656 20.019531 C 12.089844 19.839844 12.210938 19.660156 12.339844 19.484375 C 11.953125 19.296875 11.585938 19.0625 11.25 18.785156 C 11.132812 19.054688 11.019531 19.351562 10.910156 19.6875 C 10.5625 20.769531 9.878906 21.140625 9.28125 21.46875 C 8.789062 21.738281 8.324219 21.992188 8.085938 22.597656 C 8.414062 22.097656 8.972656 21.96875 9.511719 21.84375 C 9.59375 21.824219 9.675781 21.804688 9.757812 21.785156 C 10.992188 21.492188 11.46875 20.777344 11.972656 20.019531 Z M 9.238281 21.394531 C 9.851562 21.058594 10.488281 20.710938 10.828125 19.664062 C 10.941406 19.3125 11.058594 19.003906 11.179688 18.726562 C 11.039062 18.609375 10.90625 18.480469 10.777344 18.347656 C 10.605469 18.460938 10.441406 18.582031 10.277344 18.703125 C 10.132812 18.808594 9.992188 18.914062 9.847656 19.011719 C 9.800781 19.253906 9.777344 19.453125 9.773438 19.597656 C 9.761719 19.933594 9.675781 20.203125 9.503906 20.445312 C 9.335938 20.65625 9.136719 20.847656 8.941406 21.03125 C 8.480469 21.46875 8.003906 21.921875 7.992188 22.609375 C 8.230469 21.945312 8.71875 21.675781 9.238281 21.394531 Z M 7.179688 19.003906 C 7.875 18.894531 8.589844 18.78125 9.273438 17.914062 C 9.5 17.625 9.71875 17.371094 9.929688 17.152344 C 9.847656 16.996094 9.769531 16.828125 9.703125 16.65625 C 9.492188 16.707031 9.289062 16.765625 9.089844 16.828125 C 8.917969 16.878906 8.75 16.929688 8.578125 16.972656 C 8.453125 17.183594 8.359375 17.363281 8.304688 17.496094 C 8.175781 17.808594 8.003906 18.035156 7.757812 18.203125 C 7.527344 18.34375 7.273438 18.457031 7.027344 18.5625 C 6.441406 18.820312 5.839844 19.085938 5.585938 19.722656 C 6.042969 19.179688 6.59375 19.09375 7.179688 19.003906 Z M 10.226562 18.632812 C 10.386719 18.515625 10.546875 18.394531 10.71875 18.28125 C 10.433594 17.972656 10.183594 17.625 9.972656 17.234375 C 9.769531 17.449219 9.558594 17.6875 9.34375 17.964844 C 8.640625 18.863281 7.871094 18.984375 7.191406 19.089844 C 6.636719 19.175781 6.109375 19.257812 5.679688 19.75 C 6.160156 19.386719 6.730469 19.453125 7.28125 19.519531 C 7.363281 19.53125 7.449219 19.539062 7.53125 19.546875 C 8.792969 19.691406 9.488281 19.175781 10.226562 18.632812 Z M 6.074219 16.0625 C 6.761719 16.195312 7.476562 16.332031 8.421875 15.746094 C 8.746094 15.542969 9.050781 15.375 9.335938 15.234375 C 9.3125 15.066406 9.292969 14.890625 9.285156 14.710938 C 9.0625 14.6875 8.839844 14.675781 8.625 14.664062 C 8.445312 14.652344 8.269531 14.644531 8.09375 14.628906 C 7.902344 14.78125 7.75 14.921875 7.65625 15.027344 C 7.425781 15.277344 7.183594 15.429688 6.894531 15.507812 C 6.632812 15.5625 6.351562 15.582031 6.082031 15.597656 C 5.445312 15.644531 4.785156 15.6875 4.324219 16.207031 C 4.941406 15.847656 5.492188 15.953125 6.074219 16.0625 Z M 9.0625 16.742188 C 9.261719 16.683594 9.464844 16.625 9.667969 16.574219 C 9.523438 16.191406 9.414062 15.773438 9.347656 15.324219 C 9.074219 15.460938 8.78125 15.621094 8.46875 15.820312 C 7.492188 16.425781 6.730469 16.277344 6.058594 16.148438 C 5.503906 16.042969 4.980469 15.945312 4.40625 16.257812 C 4.542969 16.21875 4.671875 16.199219 4.800781 16.199219 C 5.222656 16.199219 5.609375 16.394531 5.988281 16.582031 C 6.066406 16.621094 6.140625 16.65625 6.214844 16.695312 C 7.351562 17.253906 8.183594 17.007812 9.0625 16.742188 Z M 8.628906 14.574219 C 8.84375 14.585938 9.058594 14.597656 9.277344 14.621094 C 9.277344 14.5625 9.273438 14.503906 9.273438 14.445312 C 9.28125 14.054688 9.320312 13.6875 9.386719 13.339844 C 9.082031 13.375 8.75 13.425781 8.390625 13.503906 C 7.265625 13.746094 6.597656 13.351562 6.011719 13.003906 C 5.527344 12.71875 5.070312 12.449219 4.421875 12.550781 C 5.023438 12.578125 5.417969 12.988281 5.796875 13.390625 C 5.855469 13.449219 5.910156 13.511719 5.96875 13.570312 C 6.84375 14.480469 7.710938 14.527344 8.628906 14.574219 Z M 6.054688 12.929688 C 6.65625 13.285156 7.28125 13.65625 8.371094 13.421875 C 8.746094 13.339844 9.089844 13.285156 9.402344 13.25 C 9.4375 13.074219 9.480469 12.902344 9.53125 12.734375 C 9.332031 12.640625 9.136719 12.554688 8.9375 12.472656 C 8.773438 12.402344 8.609375 12.332031 8.453125 12.261719 C 8.21875 12.339844 8.027344 12.417969 7.902344 12.488281 C 7.597656 12.648438 7.320312 12.710938 7.019531 12.683594 C 6.753906 12.644531 6.484375 12.570312 6.222656 12.496094 C 5.609375 12.320312 4.972656 12.140625 4.363281 12.472656 C 5.066406 12.34375 5.546875 12.628906 6.054688 12.929688 Z M 7.125 9.976562 C 7.566406 10.515625 8.023438 11.070312 9.128906 11.21875 C 9.496094 11.269531 9.824219 11.328125 10.121094 11.398438 C 10.21875 11.238281 10.324219 11.085938 10.433594 10.941406 C 10.289062 10.792969 10.140625 10.65625 9.992188 10.519531 C 9.863281 10.398438 9.734375 10.28125 9.609375 10.15625 C 9.363281 10.152344 9.15625 10.164062 9.011719 10.183594 C 8.671875 10.234375 8.390625 10.195312 8.117188 10.070312 C 7.878906 9.945312 7.652344 9.785156 7.433594 9.625 C 6.976562 9.296875 6.503906 8.960938 5.925781 8.960938 C 5.847656 8.960938 5.769531 8.964844 5.691406 8.976562 C 6.398438 9.09375 6.753906 9.523438 7.125 9.976562 Z M 8.972656 12.390625 C 9.167969 12.472656 9.363281 12.554688 9.554688 12.648438 C 9.6875 12.222656 9.863281 11.832031 10.074219 11.476562 C 9.785156 11.410156 9.46875 11.351562 9.117188 11.304688 C 7.976562 11.152344 7.488281 10.558594 7.058594 10.03125 C 6.703125 9.601562 6.367188 9.191406 5.714844 9.070312 C 6.277344 9.296875 6.503906 9.816406 6.722656 10.324219 C 6.753906 10.398438 6.789062 10.472656 6.824219 10.550781 C 7.328125 11.699219 8.128906 12.035156 8.972656 12.390625 Z M 8.65625 7.753906 C 8.660156 7.835938 8.667969 7.917969 8.671875 8 C 8.75 9.25 9.382812 9.835938 10.054688 10.457031 C 10.199219 10.589844 10.347656 10.726562 10.488281 10.871094 C 10.765625 10.53125 11.078125 10.230469 11.414062 9.972656 C 11.167969 9.8125 10.886719 9.648438 10.566406 9.484375 C 9.550781 8.957031 9.296875 8.230469 9.074219 7.59375 C 8.890625 7.070312 8.714844 6.574219 8.148438 6.238281 C 8.597656 6.640625 8.628906 7.207031 8.65625 7.753906 Z M 8.15625 6.140625 C 8.78125 6.492188 8.964844 7.011719 9.15625 7.566406 C 9.382812 8.21875 9.621094 8.894531 10.609375 9.40625 C 10.941406 9.578125 11.234375 9.75 11.492188 9.917969 C 11.636719 9.808594 11.789062 9.710938 11.945312 9.617188 C 11.855469 9.417969 11.757812 9.230469 11.664062 9.039062 C 11.582031 8.882812 11.5 8.726562 11.429688 8.570312 C 11.195312 8.484375 11 8.425781 10.859375 8.394531 C 10.523438 8.328125 10.265625 8.195312 10.054688 7.988281 C 9.875 7.789062 9.71875 7.5625 9.570312 7.339844 C 9.210938 6.816406 8.839844 6.277344 8.15625 6.140625 Z M 11.457031 4.308594 C 11.921875 4.847656 11.910156 5.398438 11.902344 5.980469 C 11.886719 6.671875 11.875 7.390625 12.625 8.203125 C 12.898438 8.496094 13.125 8.769531 13.316406 9.03125 C 13.480469 8.980469 13.648438 8.941406 13.8125 8.90625 C 13.800781 8.671875 13.773438 8.441406 13.746094 8.214844 C 13.722656 8.039062 13.703125 7.863281 13.6875 7.691406 C 13.5 7.53125 13.335938 7.410156 13.210938 7.335938 C 12.921875 7.15625 12.726562 6.949219 12.601562 6.679688 C 12.5 6.4375 12.433594 6.167969 12.367188 5.910156 C 12.210938 5.296875 12.050781 4.664062 11.457031 4.308594 Z M 11.742188 9 C 11.835938 9.1875 11.933594 9.378906 12.023438 9.574219 C 12.40625 9.355469 12.808594 9.183594 13.226562 9.054688 C 13.039062 8.804688 12.820312 8.542969 12.5625 8.261719 C 11.789062 7.421875 11.800781 6.65625 11.8125 5.980469 C 11.824219 5.425781 11.832031 4.902344 11.414062 4.398438 C 11.695312 4.925781 11.527344 5.464844 11.367188 5.992188 C 11.34375 6.070312 11.320312 6.148438 11.296875 6.226562 C 10.933594 7.429688 11.324219 8.191406 11.742188 9 Z M 15.03125 5.417969 C 14.777344 6.066406 14.519531 6.734375 14.941406 7.75 C 15.097656 8.125 15.21875 8.46875 15.308594 8.785156 C 15.792969 8.800781 16.285156 8.875 16.765625 9.003906 C 16.4375 8.164062 16.035156 7.433594 15.792969 7.132812 C 15.578125 6.867188 15.46875 6.605469 15.445312 6.3125 C 15.433594 6.046875 15.464844 5.773438 15.492188 5.507812 C 15.558594 4.882812 15.628906 4.234375 15.191406 3.695312 C 15.441406 4.359375 15.242188 4.875 15.03125 5.417969 Z M 13.832031 8.203125 C 13.859375 8.429688 13.886719 8.65625 13.902344 8.890625 C 14.292969 8.816406 14.691406 8.777344 15.082031 8.777344 L 15.085938 8.777344 C 15.128906 8.777344 15.171875 8.78125 15.214844 8.78125 C 15.125 8.476562 15.011719 8.144531 14.859375 7.785156 C 14.421875 6.734375 14.703125 6.019531 14.949219 5.386719 C 15.148438 4.871094 15.339844 4.378906 15.125 3.765625 C 15.203125 4.359375 14.859375 4.808594 14.527344 5.246094 C 14.476562 5.3125 14.425781 5.378906 14.375 5.445312 C 13.617188 6.453125 13.722656 7.304688 13.832031 8.203125 Z M 15.082031 19.394531 C 17.46875 19.394531 20.074219 17.84375 20.160156 14.445312 C 20.074219 11.042969 17.46875 9.496094 15.082031 9.496094 C 12.699219 9.496094 10.09375 11.042969 10.007812 14.445312 C 10.09375 17.84375 12.699219 19.394531 15.082031 19.394531 Z M 15.082031 19.394531 " fill-opacity="1" fill-rule="nonzero"/><path fill="#43241e" d="M 25.9375 16.34375 C 25.9375 16.339844 25.933594 16.335938 25.933594 16.332031 C 25.914062 16.285156 25.871094 16.253906 25.820312 16.253906 C 25.816406 16.253906 25.8125 16.253906 25.804688 16.253906 C 25.207031 16.253906 24.832031 15.859375 24.433594 15.441406 C 24.378906 15.378906 24.320312 15.320312 24.261719 15.261719 C 23.574219 14.546875 22.894531 14.351562 22.195312 14.273438 C 22.359375 14.136719 22.492188 14.015625 22.578125 13.921875 C 22.792969 13.679688 23.023438 13.535156 23.292969 13.464844 C 23.546875 13.414062 23.824219 13.394531 24.089844 13.375 C 24.757812 13.332031 25.445312 13.285156 25.929688 12.71875 C 25.964844 12.679688 25.972656 12.628906 25.945312 12.582031 C 25.945312 12.578125 25.945312 12.574219 25.941406 12.570312 C 25.9375 12.566406 25.9375 12.566406 25.933594 12.5625 C 25.898438 12.523438 25.847656 12.507812 25.800781 12.523438 C 25.230469 12.734375 24.738281 12.488281 24.21875 12.230469 C 24.140625 12.191406 24.066406 12.152344 23.992188 12.117188 C 23.097656 11.675781 22.390625 11.722656 21.707031 11.886719 C 21.816406 11.703125 21.894531 11.546875 21.945312 11.425781 C 22.066406 11.128906 22.230469 10.914062 22.457031 10.757812 C 22.679688 10.621094 22.933594 10.511719 23.175781 10.40625 C 23.789062 10.136719 24.417969 9.863281 24.675781 9.164062 C 24.699219 9.117188 24.683594 9.066406 24.644531 9.03125 C 24.640625 9.03125 24.640625 9.027344 24.636719 9.023438 C 24.632812 9.023438 24.628906 9.019531 24.625 9.019531 C 24.582031 8.992188 24.527344 8.996094 24.488281 9.027344 C 24.027344 9.417969 23.476562 9.351562 22.898438 9.285156 C 22.8125 9.273438 22.730469 9.265625 22.644531 9.253906 C 21.652344 9.144531 21.007812 9.421875 20.421875 9.808594 C 20.457031 9.601562 20.480469 9.421875 20.484375 9.296875 C 20.492188 8.976562 20.574219 8.71875 20.734375 8.496094 C 20.894531 8.292969 21.09375 8.105469 21.285156 7.921875 C 21.765625 7.464844 22.265625 6.992188 22.265625 6.25 C 22.269531 6.199219 22.238281 6.15625 22.1875 6.136719 C 22.1875 6.132812 22.183594 6.132812 22.179688 6.132812 C 22.175781 6.128906 22.171875 6.128906 22.167969 6.128906 C 22.117188 6.121094 22.066406 6.140625 22.042969 6.183594 C 21.742188 6.707031 21.203125 6.832031 20.636719 6.960938 C 20.550781 6.980469 20.46875 7 20.390625 7.019531 C 19.417969 7.25 18.90625 7.730469 18.488281 8.289062 C 18.453125 8.082031 18.410156 7.90625 18.371094 7.785156 C 18.269531 7.480469 18.253906 7.214844 18.328125 6.949219 C 18.410156 6.703125 18.53125 6.460938 18.648438 6.222656 C 18.941406 5.632812 19.246094 5.019531 18.988281 4.324219 C 18.972656 4.273438 18.929688 4.242188 18.875 4.242188 C 18.875 4.242188 18.871094 4.242188 18.867188 4.242188 C 18.863281 4.242188 18.859375 4.242188 18.855469 4.242188 C 18.804688 4.25 18.761719 4.289062 18.753906 4.335938 C 18.65625 4.929688 18.191406 5.226562 17.703125 5.542969 C 17.632812 5.585938 17.5625 5.632812 17.492188 5.679688 C 16.660156 6.222656 16.34375 6.847656 16.148438 7.511719 C 16.039062 7.328125 15.941406 7.179688 15.859375 7.078125 C 15.660156 6.828125 15.554688 6.582031 15.53125 6.308594 C 15.523438 6.050781 15.550781 5.78125 15.582031 5.515625 C 15.652344 4.863281 15.722656 4.1875 15.242188 3.617188 C 15.210938 3.578125 15.15625 3.5625 15.109375 3.578125 C 15.105469 3.578125 15.101562 3.578125 15.097656 3.582031 C 15.09375 3.582031 15.089844 3.585938 15.085938 3.589844 C 15.042969 3.613281 15.015625 3.660156 15.027344 3.710938 C 15.136719 4.300781 14.804688 4.734375 14.457031 5.195312 C 14.40625 5.261719 14.355469 5.328125 14.304688 5.394531 C 13.710938 6.1875 13.632812 6.878906 13.679688 7.570312 C 13.511719 7.433594 13.367188 7.328125 13.257812 7.261719 C 12.980469 7.09375 12.796875 6.898438 12.679688 6.648438 C 12.582031 6.410156 12.515625 6.144531 12.453125 5.886719 C 12.292969 5.25 12.125 4.589844 11.472656 4.21875 C 11.429688 4.1875 11.375 4.191406 11.335938 4.226562 C 11.332031 4.226562 11.328125 4.230469 11.324219 4.230469 C 11.324219 4.234375 11.320312 4.238281 11.320312 4.242188 C 11.285156 4.28125 11.277344 4.332031 11.304688 4.375 C 11.613281 4.890625 11.453125 5.414062 11.285156 5.964844 C 11.257812 6.042969 11.234375 6.125 11.210938 6.203125 C 10.925781 7.148438 11.09375 7.824219 11.378906 8.460938 C 11.175781 8.386719 11.003906 8.335938 10.875 8.308594 C 10.558594 8.246094 10.316406 8.121094 10.121094 7.925781 C 9.945312 7.734375 9.789062 7.511719 9.640625 7.292969 C 9.269531 6.746094 8.882812 6.179688 8.140625 6.050781 C 8.09375 6.039062 8.042969 6.0625 8.015625 6.105469 C 8.011719 6.109375 8.011719 6.109375 8.007812 6.113281 C 8.007812 6.117188 8.007812 6.121094 8.003906 6.125 C 7.988281 6.175781 8 6.226562 8.039062 6.257812 C 8.507812 6.636719 8.539062 7.183594 8.570312 7.757812 C 8.574219 7.839844 8.578125 7.921875 8.585938 8.003906 C 8.644531 8.988281 9.039062 9.570312 9.523438 10.070312 C 9.308594 10.070312 9.128906 10.078125 9 10.097656 C 8.679688 10.144531 8.410156 10.109375 8.15625 9.992188 C 7.925781 9.871094 7.703125 9.710938 7.488281 9.558594 C 6.945312 9.171875 6.390625 8.769531 5.648438 8.898438 C 5.597656 8.902344 5.558594 8.941406 5.546875 8.992188 C 5.546875 8.996094 5.542969 8.996094 5.542969 9 C 5.542969 9.003906 5.542969 9.007812 5.546875 9.011719 C 5.542969 9.066406 5.574219 9.109375 5.621094 9.125 C 6.195312 9.324219 6.414062 9.828125 6.640625 10.355469 C 6.675781 10.433594 6.707031 10.507812 6.742188 10.585938 C 7.140625 11.488281 7.710938 11.902344 8.339844 12.207031 C 8.140625 12.28125 7.972656 12.351562 7.859375 12.410156 C 7.574219 12.5625 7.308594 12.621094 7.03125 12.597656 C 6.773438 12.5625 6.507812 12.484375 6.25 12.414062 C 5.605469 12.230469 4.945312 12.042969 4.292969 12.414062 C 4.246094 12.433594 4.222656 12.484375 4.230469 12.535156 C 4.230469 12.539062 4.230469 12.542969 4.230469 12.546875 C 4.230469 12.550781 4.234375 12.554688 4.234375 12.554688 C 4.253906 12.605469 4.296875 12.636719 4.347656 12.636719 C 4.351562 12.636719 4.355469 12.636719 4.359375 12.636719 C 4.960938 12.636719 5.335938 13.03125 5.730469 13.449219 C 5.789062 13.507812 5.847656 13.570312 5.90625 13.628906 C 6.59375 14.34375 7.273438 14.539062 7.972656 14.613281 C 7.808594 14.75 7.675781 14.875 7.589844 14.96875 C 7.371094 15.207031 7.144531 15.351562 6.875 15.421875 C 6.621094 15.476562 6.34375 15.496094 6.078125 15.511719 C 5.410156 15.558594 4.722656 15.605469 4.238281 16.171875 C 4.199219 16.207031 4.195312 16.261719 4.222656 16.308594 C 4.222656 16.3125 4.222656 16.316406 4.226562 16.316406 C 4.226562 16.320312 4.230469 16.324219 4.234375 16.328125 C 4.269531 16.367188 4.320312 16.382812 4.367188 16.363281 C 4.9375 16.152344 5.429688 16.398438 5.949219 16.660156 C 6.027344 16.699219 6.101562 16.734375 6.175781 16.773438 C 6.695312 17.027344 7.152344 17.121094 7.574219 17.121094 C 7.882812 17.121094 8.171875 17.070312 8.460938 17.003906 C 8.351562 17.1875 8.269531 17.34375 8.222656 17.464844 C 8.101562 17.761719 7.9375 17.972656 7.707031 18.128906 C 7.488281 18.265625 7.234375 18.378906 6.988281 18.484375 C 6.378906 18.75 5.75 19.027344 5.492188 19.722656 C 5.46875 19.769531 5.484375 19.824219 5.523438 19.855469 C 5.527344 19.859375 5.527344 19.863281 5.53125 19.863281 C 5.535156 19.867188 5.539062 19.871094 5.542969 19.871094 C 5.5625 19.882812 5.585938 19.886719 5.605469 19.886719 C 5.632812 19.886719 5.65625 19.878906 5.679688 19.859375 C 6.140625 19.46875 6.6875 19.535156 7.269531 19.605469 C 7.355469 19.617188 7.4375 19.625 7.519531 19.632812 C 8.511719 19.746094 9.160156 19.464844 9.746094 19.082031 C 9.710938 19.289062 9.6875 19.464844 9.683594 19.59375 C 9.675781 19.914062 9.59375 20.167969 9.433594 20.394531 C 9.273438 20.597656 9.074219 20.785156 8.878906 20.96875 C 8.398438 21.425781 7.902344 21.898438 7.902344 22.640625 C 7.898438 22.691406 7.929688 22.734375 7.976562 22.753906 C 7.980469 22.753906 7.984375 22.757812 7.988281 22.757812 C 7.992188 22.757812 7.996094 22.761719 8 22.761719 C 8 22.761719 8 22.757812 8 22.757812 C 8.007812 22.761719 8.015625 22.761719 8.023438 22.761719 C 8.066406 22.761719 8.105469 22.742188 8.125 22.703125 C 8.425781 22.183594 8.960938 22.058594 9.53125 21.929688 C 9.613281 21.910156 9.695312 21.890625 9.777344 21.871094 C 10.75 21.640625 11.261719 21.160156 11.675781 20.601562 C 11.714844 20.808594 11.757812 20.980469 11.796875 21.101562 C 11.898438 21.40625 11.910156 21.675781 11.839844 21.941406 C 11.757812 22.183594 11.636719 22.429688 11.519531 22.667969 C 11.226562 23.257812 10.921875 23.867188 11.179688 24.566406 C 11.191406 24.617188 11.238281 24.648438 11.292969 24.648438 C 11.292969 24.648438 11.296875 24.648438 11.296875 24.648438 C 11.300781 24.648438 11.300781 24.648438 11.300781 24.648438 C 11.304688 24.648438 11.308594 24.648438 11.3125 24.644531 C 11.363281 24.636719 11.402344 24.601562 11.410156 24.550781 C 11.511719 23.960938 11.972656 23.664062 12.464844 23.347656 C 12.535156 23.300781 12.605469 23.257812 12.675781 23.210938 C 13.507812 22.667969 13.820312 22.042969 14.019531 21.378906 C 14.125 21.5625 14.226562 21.707031 14.304688 21.808594 C 14.507812 22.0625 14.613281 22.308594 14.636719 22.582031 C 14.644531 22.839844 14.613281 23.109375 14.585938 23.371094 C 14.515625 24.027344 14.445312 24.703125 14.925781 25.273438 C 14.949219 25.300781 14.980469 25.316406 15.019531 25.316406 C 15.03125 25.316406 15.042969 25.316406 15.058594 25.3125 C 15.0625 25.308594 15.066406 25.308594 15.070312 25.308594 C 15.074219 25.308594 15.078125 25.304688 15.082031 25.300781 C 15.125 25.277344 15.152344 25.226562 15.140625 25.179688 C 15.027344 24.589844 15.359375 24.15625 15.710938 23.695312 C 15.761719 23.628906 15.8125 23.5625 15.863281 23.496094 C 16.457031 22.703125 16.535156 22.011719 16.488281 21.316406 C 16.652344 21.453125 16.796875 21.558594 16.910156 21.628906 C 17.183594 21.796875 17.367188 21.992188 17.488281 22.242188 C 17.582031 22.480469 17.652344 22.746094 17.714844 23 C 17.875 23.640625 18.042969 24.300781 18.691406 24.671875 C 18.710938 24.683594 18.734375 24.691406 18.757812 24.691406 C 18.78125 24.691406 18.808594 24.683594 18.832031 24.664062 C 18.835938 24.664062 18.835938 24.660156 18.839844 24.65625 C 18.84375 24.65625 18.847656 24.652344 18.847656 24.648438 C 18.882812 24.609375 18.890625 24.554688 18.863281 24.511719 C 18.554688 23.996094 18.714844 23.476562 18.882812 22.925781 C 18.910156 22.84375 18.933594 22.765625 18.957031 22.6875 C 19.238281 21.742188 19.074219 21.066406 18.789062 20.429688 C 18.992188 20.503906 19.164062 20.554688 19.292969 20.578125 C 19.609375 20.644531 19.851562 20.765625 20.046875 20.960938 C 20.222656 21.152344 20.375 21.378906 20.527344 21.597656 C 20.898438 22.144531 21.285156 22.707031 22.023438 22.839844 C 22.035156 22.839844 22.042969 22.839844 22.054688 22.839844 C 22.089844 22.839844 22.125 22.820312 22.148438 22.789062 C 22.152344 22.785156 22.15625 22.78125 22.160156 22.773438 C 22.160156 22.773438 22.160156 22.765625 22.160156 22.761719 C 22.179688 22.714844 22.167969 22.664062 22.128906 22.632812 C 21.660156 22.25 21.628906 21.707031 21.597656 21.132812 C 21.59375 21.050781 21.589844 20.964844 21.582031 20.882812 C 21.523438 19.902344 21.128906 19.320312 20.644531 18.820312 C 20.859375 18.820312 21.039062 18.808594 21.167969 18.792969 C 21.488281 18.746094 21.757812 18.777344 22.011719 18.894531 C 22.238281 19.015625 22.464844 19.175781 22.679688 19.332031 C 23.148438 19.667969 23.632812 20.015625 24.242188 20.015625 C 24.332031 20.015625 24.421875 20.007812 24.519531 19.992188 C 24.570312 19.988281 24.609375 19.949219 24.621094 19.898438 C 24.621094 19.894531 24.621094 19.890625 24.625 19.886719 C 24.625 19.882812 24.621094 19.878906 24.621094 19.875 C 24.625 19.824219 24.59375 19.78125 24.546875 19.761719 C 23.972656 19.5625 23.753906 19.0625 23.527344 18.535156 C 23.492188 18.457031 23.460938 18.378906 23.425781 18.304688 C 23.027344 17.402344 22.457031 16.988281 21.824219 16.683594 C 22.027344 16.609375 22.195312 16.539062 22.308594 16.480469 C 22.59375 16.328125 22.859375 16.269531 23.136719 16.292969 C 23.394531 16.328125 23.660156 16.40625 23.917969 16.476562 C 24.558594 16.660156 25.222656 16.847656 25.875 16.476562 C 25.921875 16.457031 25.945312 16.40625 25.9375 16.355469 C 25.9375 16.351562 25.9375 16.347656 25.9375 16.34375 Z M 23.148438 16.207031 C 22.847656 16.179688 22.570312 16.242188 22.265625 16.402344 C 22.140625 16.46875 21.949219 16.546875 21.714844 16.628906 C 21.554688 16.554688 21.394531 16.488281 21.230469 16.417969 C 21.03125 16.335938 20.835938 16.25 20.636719 16.15625 C 20.6875 15.988281 20.730469 15.816406 20.765625 15.640625 C 21.078125 15.605469 21.421875 15.550781 21.796875 15.46875 C 22.886719 15.234375 23.511719 15.601562 24.113281 15.960938 C 24.535156 16.210938 24.9375 16.449219 25.464844 16.449219 C 25.574219 16.449219 25.6875 16.4375 25.804688 16.417969 C 25.195312 16.746094 24.558594 16.566406 23.941406 16.394531 C 23.683594 16.320312 23.414062 16.242188 23.148438 16.207031 Z M 23.34375 18.339844 C 23.378906 18.414062 23.410156 18.492188 23.445312 18.566406 C 23.664062 19.070312 23.890625 19.59375 24.453125 19.820312 C 23.800781 19.699219 23.464844 19.289062 23.109375 18.855469 C 22.679688 18.332031 22.1875 17.734375 21.046875 17.582031 C 20.695312 17.535156 20.382812 17.480469 20.09375 17.414062 C 20.304688 17.058594 20.480469 16.667969 20.613281 16.238281 C 20.804688 16.332031 21 16.414062 21.195312 16.496094 C 22.039062 16.851562 22.839844 17.191406 23.34375 18.339844 Z M 22.050781 18.816406 C 21.855469 18.726562 21.65625 18.683594 21.433594 18.683594 C 21.34375 18.683594 21.25 18.691406 21.152344 18.703125 C 21.011719 18.726562 20.804688 18.734375 20.558594 18.734375 C 20.433594 18.609375 20.304688 18.492188 20.171875 18.371094 C 20.027344 18.234375 19.875 18.09375 19.730469 17.949219 C 19.84375 17.804688 19.949219 17.652344 20.046875 17.492188 C 20.34375 17.5625 20.671875 17.621094 21.035156 17.667969 C 22.140625 17.816406 22.597656 18.375 23.042969 18.910156 C 23.414062 19.363281 23.769531 19.792969 24.476562 19.910156 C 23.785156 20.015625 23.25 19.632812 22.730469 19.261719 C 22.511719 19.105469 22.285156 18.941406 22.050781 18.816406 Z M 20.113281 20.902344 C 19.898438 20.691406 19.644531 20.5625 19.308594 20.496094 C 19.167969 20.464844 18.972656 20.40625 18.738281 20.320312 C 18.664062 20.160156 18.585938 20.007812 18.503906 19.847656 C 18.40625 19.660156 18.308594 19.46875 18.222656 19.273438 C 18.378906 19.179688 18.53125 19.078125 18.675781 18.972656 C 18.933594 19.140625 19.226562 19.308594 19.558594 19.480469 C 20.546875 19.992188 20.78125 20.667969 21.011719 21.324219 C 21.203125 21.875 21.386719 22.398438 22.011719 22.746094 C 21.324219 22.613281 20.957031 22.074219 20.597656 21.550781 C 20.449219 21.328125 20.292969 21.101562 20.113281 20.902344 Z M 18.800781 22.898438 C 18.636719 23.421875 18.472656 23.964844 18.75 24.492188 C 18.335938 23.988281 18.34375 23.464844 18.355469 22.910156 C 18.367188 22.234375 18.378906 21.46875 17.605469 20.628906 C 17.347656 20.347656 17.128906 20.082031 16.941406 19.832031 C 17.355469 19.707031 17.761719 19.535156 18.144531 19.316406 C 18.234375 19.511719 18.332031 19.699219 18.425781 19.886719 C 18.839844 20.695312 19.234375 21.460938 18.871094 22.660156 C 18.847656 22.742188 18.824219 22.820312 18.800781 22.898438 Z M 17.566406 22.207031 C 17.441406 21.9375 17.246094 21.730469 16.953125 21.554688 C 16.832031 21.480469 16.667969 21.355469 16.480469 21.199219 C 16.464844 21.023438 16.445312 20.851562 16.421875 20.675781 C 16.394531 20.449219 16.367188 20.21875 16.351562 19.980469 C 16.519531 19.949219 16.6875 19.90625 16.851562 19.859375 C 17.042969 20.121094 17.269531 20.394531 17.539062 20.6875 C 18.292969 21.5 18.277344 22.214844 18.265625 22.90625 C 18.257812 23.492188 18.246094 24.042969 18.710938 24.582031 C 18.113281 24.226562 17.953125 23.59375 17.800781 22.980469 C 17.734375 22.722656 17.667969 22.453125 17.566406 22.207031 Z M 15.792969 23.441406 C 15.742188 23.507812 15.691406 23.574219 15.640625 23.640625 C 15.308594 24.078125 14.964844 24.53125 15.042969 25.121094 C 14.828125 24.507812 15.019531 24.019531 15.21875 23.5 C 15.464844 22.871094 15.742188 22.15625 15.308594 21.105469 C 15.15625 20.742188 15.039062 20.414062 14.953125 20.109375 C 14.996094 20.109375 15.039062 20.109375 15.082031 20.109375 C 15.476562 20.109375 15.871094 20.074219 16.265625 20 C 16.28125 20.234375 16.308594 20.460938 16.335938 20.6875 C 16.445312 21.585938 16.546875 22.433594 15.792969 23.441406 Z M 14.675781 23.382812 C 14.703125 23.117188 14.730469 22.839844 14.722656 22.578125 C 14.699219 22.28125 14.585938 22.019531 14.375 21.753906 C 14.285156 21.644531 14.175781 21.472656 14.050781 21.261719 C 14.097656 21.09375 14.140625 20.921875 14.179688 20.75 C 14.234375 20.527344 14.289062 20.296875 14.355469 20.066406 C 14.523438 20.085938 14.691406 20.101562 14.859375 20.105469 C 14.949219 20.421875 15.070312 20.761719 15.226562 21.136719 C 15.648438 22.15625 15.390625 22.824219 15.136719 23.46875 C 14.925781 24.015625 14.726562 24.53125 14.976562 25.191406 C 14.539062 24.65625 14.605469 24.007812 14.675781 23.382812 Z M 12.417969 23.273438 C 11.949219 23.574219 11.46875 23.886719 11.339844 24.46875 C 11.347656 23.816406 11.699219 23.421875 12.066406 23 C 12.519531 22.492188 13.027344 21.910156 12.984375 20.777344 C 12.96875 20.402344 12.972656 20.0625 12.992188 19.757812 C 13.40625 19.902344 13.835938 20 14.269531 20.058594 C 14.199219 20.285156 14.148438 20.507812 14.09375 20.730469 C 13.882812 21.613281 13.6875 22.449219 12.625 23.140625 C 12.558594 23.183594 12.488281 23.230469 12.417969 23.273438 Z M 11.597656 22.703125 C 11.714844 22.464844 11.839844 22.214844 11.921875 21.964844 C 12 21.679688 11.988281 21.398438 11.878906 21.074219 C 11.835938 20.941406 11.789062 20.742188 11.75 20.503906 C 11.851562 20.359375 11.949219 20.214844 12.046875 20.066406 C 12.164062 19.886719 12.289062 19.703125 12.421875 19.523438 C 12.578125 19.597656 12.742188 19.664062 12.90625 19.726562 C 12.882812 20.042969 12.878906 20.390625 12.894531 20.78125 C 12.9375 21.882812 12.460938 22.421875 12.003906 22.945312 C 11.613281 23.382812 11.246094 23.800781 11.25 24.507812 C 11.027344 23.855469 11.316406 23.269531 11.597656 22.703125 Z M 9.511719 21.84375 C 8.972656 21.96875 8.414062 22.09375 8.085938 22.597656 C 8.324219 21.992188 8.789062 21.738281 9.28125 21.46875 C 9.878906 21.140625 10.5625 20.769531 10.910156 19.6875 C 11.019531 19.351562 11.132812 19.054688 11.25 18.785156 C 11.585938 19.0625 11.953125 19.296875 12.339844 19.484375 C 12.210938 19.660156 12.089844 19.839844 11.972656 20.019531 C 11.46875 20.777344 10.992188 21.492188 9.757812 21.785156 C 9.675781 21.804688 9.59375 21.824219 9.511719 21.84375 Z M 8.941406 21.03125 C 9.136719 20.847656 9.335938 20.65625 9.503906 20.445312 C 9.675781 20.203125 9.761719 19.933594 9.773438 19.597656 C 9.777344 19.453125 9.800781 19.253906 9.847656 19.011719 C 9.992188 18.914062 10.132812 18.808594 10.277344 18.703125 C 10.441406 18.582031 10.605469 18.460938 10.777344 18.347656 C 10.90625 18.480469 11.039062 18.609375 11.179688 18.726562 C 11.058594 19.003906 10.941406 19.3125 10.828125 19.664062 C 10.488281 20.710938 9.851562 21.058594 9.238281 21.394531 C 8.71875 21.675781 8.230469 21.945312 7.992188 22.609375 C 8.003906 21.921875 8.480469 21.46875 8.941406 21.03125 Z M 5.679688 19.75 C 6.109375 19.257812 6.636719 19.175781 7.191406 19.089844 C 7.871094 18.984375 8.640625 18.863281 9.34375 17.964844 C 9.558594 17.6875 9.769531 17.449219 9.972656 17.234375 C 10.183594 17.625 10.433594 17.972656 10.71875 18.28125 C 10.546875 18.394531 10.386719 18.515625 10.226562 18.632812 C 9.488281 19.175781 8.792969 19.691406 7.53125 19.546875 C 7.449219 19.539062 7.363281 19.53125 7.28125 19.519531 C 6.730469 19.453125 6.160156 19.386719 5.679688 19.75 Z M 7.027344 18.5625 C 7.273438 18.457031 7.527344 18.34375 7.757812 18.203125 C 8.003906 18.035156 8.175781 17.808594 8.304688 17.496094 C 8.359375 17.363281 8.453125 17.183594 8.578125 16.972656 C 8.75 16.929688 8.917969 16.878906 9.089844 16.828125 C 9.289062 16.765625 9.492188 16.707031 9.703125 16.65625 C 9.769531 16.828125 9.847656 16.996094 9.929688 17.152344 C 9.71875 17.371094 9.5 17.625 9.273438 17.914062 C 8.589844 18.78125 7.875 18.894531 7.179688 19.003906 C 6.59375 19.09375 6.042969 19.179688 5.585938 19.722656 C 5.839844 19.085938 6.441406 18.820312 7.027344 18.5625 Z M 6.214844 16.695312 C 6.140625 16.65625 6.066406 16.621094 5.988281 16.582031 C 5.609375 16.394531 5.222656 16.199219 4.800781 16.199219 C 4.671875 16.199219 4.542969 16.21875 4.40625 16.257812 C 4.980469 15.941406 5.503906 16.042969 6.058594 16.148438 C 6.730469 16.277344 7.492188 16.425781 8.46875 15.820312 C 8.78125 15.621094 9.074219 15.460938 9.347656 15.324219 C 9.414062 15.773438 9.523438 16.191406 9.667969 16.574219 C 9.464844 16.625 9.261719 16.683594 9.0625 16.742188 C 8.183594 17.007812 7.351562 17.253906 6.214844 16.695312 Z M 6.082031 15.597656 C 6.351562 15.582031 6.632812 15.5625 6.894531 15.507812 C 7.183594 15.429688 7.425781 15.277344 7.65625 15.027344 C 7.75 14.921875 7.902344 14.78125 8.09375 14.628906 C 8.269531 14.644531 8.445312 14.652344 8.625 14.664062 C 8.839844 14.675781 9.0625 14.6875 9.285156 14.710938 C 9.292969 14.890625 9.3125 15.066406 9.335938 15.234375 C 9.050781 15.375 8.746094 15.542969 8.421875 15.746094 C 7.476562 16.332031 6.761719 16.195312 6.074219 16.0625 C 5.492188 15.953125 4.941406 15.847656 4.324219 16.207031 C 4.785156 15.6875 5.445312 15.644531 6.082031 15.597656 Z M 4.421875 12.550781 C 5.070312 12.449219 5.527344 12.71875 6.011719 13.003906 C 6.597656 13.351562 7.265625 13.746094 8.390625 13.503906 C 8.75 13.425781 9.082031 13.375 9.386719 13.339844 C 9.320312 13.6875 9.28125 14.054688 9.273438 14.445312 C 9.273438 14.503906 9.277344 14.5625 9.277344 14.621094 C 9.058594 14.597656 8.84375 14.585938 8.628906 14.574219 C 7.710938 14.527344 6.84375 14.480469 5.96875 13.570312 C 5.910156 13.511719 5.855469 13.449219 5.796875 13.390625 C 5.417969 12.988281 5.023438 12.578125 4.421875 12.550781 Z M 6.222656 12.496094 C 6.484375 12.570312 6.753906 12.644531 7.019531 12.683594 C 7.320312 12.710938 7.597656 12.648438 7.902344 12.488281 C 8.027344 12.417969 8.21875 12.339844 8.453125 12.261719 C 8.609375 12.332031 8.773438 12.402344 8.9375 12.472656 C 9.136719 12.554688 9.332031 12.640625 9.53125 12.734375 C 9.480469 12.902344 9.4375 13.074219 9.402344 13.25 C 9.089844 13.285156 8.746094 13.339844 8.371094 13.421875 C 7.28125 13.65625 6.65625 13.285156 6.054688 12.929688 C 5.546875 12.628906 5.066406 12.34375 4.363281 12.472656 C 4.972656 12.140625 5.609375 12.320312 6.222656 12.496094 Z M 6.824219 10.550781 C 6.789062 10.472656 6.753906 10.398438 6.722656 10.324219 C 6.503906 9.816406 6.277344 9.296875 5.714844 9.070312 C 6.367188 9.191406 6.703125 9.601562 7.058594 10.03125 C 7.488281 10.558594 7.976562 11.152344 9.117188 11.304688 C 9.46875 11.351562 9.785156 11.410156 10.074219 11.476562 C 9.863281 11.832031 9.6875 12.222656 9.554688 12.648438 C 9.363281 12.554688 9.167969 12.472656 8.972656 12.390625 C 8.128906 12.035156 7.328125 11.699219 6.824219 10.550781 Z M 5.925781 8.960938 C 6.503906 8.960938 6.976562 9.296875 7.433594 9.625 C 7.652344 9.785156 7.878906 9.945312 8.117188 10.070312 C 8.390625 10.195312 8.671875 10.234375 9.011719 10.183594 C 9.15625 10.164062 9.363281 10.152344 9.609375 10.15625 C 9.734375 10.277344 9.863281 10.398438 9.992188 10.519531 C 10.140625 10.65625 10.289062 10.792969 10.433594 10.941406 C 10.324219 11.085938 10.21875 11.238281 10.121094 11.398438 C 9.824219 11.328125 9.496094 11.269531 9.128906 11.21875 C 8.023438 11.070312 7.566406 10.515625 7.125 9.976562 C 6.753906 9.523438 6.398438 9.09375 5.691406 8.976562 C 5.769531 8.964844 5.847656 8.960938 5.925781 8.960938 Z M 10.054688 7.988281 C 10.265625 8.195312 10.523438 8.328125 10.859375 8.394531 C 11 8.425781 11.195312 8.484375 11.429688 8.570312 C 11.5 8.726562 11.582031 8.882812 11.664062 9.039062 C 11.757812 9.230469 11.855469 9.417969 11.945312 9.617188 C 11.789062 9.710938 11.636719 9.808594 11.492188 9.917969 C 11.234375 9.75 10.941406 9.578125 10.609375 9.40625 C 9.621094 8.894531 9.382812 8.21875 9.15625 7.566406 C 8.964844 7.011719 8.78125 6.492188 8.15625 6.140625 C 8.839844 6.277344 9.210938 6.816406 9.570312 7.339844 C 9.71875 7.5625 9.875 7.789062 10.054688 7.988281 Z M 11.367188 5.992188 C 11.527344 5.464844 11.695312 4.925781 11.414062 4.398438 C 11.832031 4.902344 11.824219 5.425781 11.8125 5.980469 C 11.800781 6.65625 11.789062 7.421875 12.5625 8.261719 C 12.820312 8.542969 13.039062 8.804688 13.226562 9.054688 C 12.808594 9.183594 12.40625 9.355469 12.023438 9.574219 C 11.933594 9.378906 11.835938 9.1875 11.742188 9 C 11.324219 8.191406 10.933594 7.429688 11.296875 6.226562 C 11.320312 6.148438 11.34375 6.070312 11.367188 5.992188 Z M 12.601562 6.679688 C 12.726562 6.949219 12.921875 7.15625 13.210938 7.335938 C 13.335938 7.410156 13.5 7.53125 13.6875 7.691406 C 13.703125 7.863281 13.722656 8.039062 13.746094 8.214844 C 13.773438 8.441406 13.800781 8.671875 13.8125 8.90625 C 13.648438 8.941406 13.480469 8.980469 13.316406 9.03125 C 13.125 8.769531 12.898438 8.496094 12.625 8.203125 C 11.875 7.390625 11.886719 6.671875 11.902344 5.980469 C 11.910156 5.398438 11.921875 4.847656 11.457031 4.308594 C 12.050781 4.664062 12.210938 5.296875 12.367188 5.910156 C 12.433594 6.167969 12.5 6.433594 12.601562 6.679688 Z M 14.375 5.445312 C 14.425781 5.378906 14.476562 5.3125 14.527344 5.246094 C 14.859375 4.808594 15.203125 4.359375 15.125 3.765625 C 15.339844 4.378906 15.148438 4.871094 14.949219 5.386719 C 14.703125 6.019531 14.421875 6.734375 14.859375 7.785156 C 15.011719 8.144531 15.125 8.476562 15.214844 8.78125 C 15.171875 8.78125 15.128906 8.777344 15.082031 8.777344 C 14.691406 8.777344 14.292969 8.816406 13.902344 8.890625 C 13.886719 8.65625 13.859375 8.429688 13.832031 8.203125 C 13.722656 7.304688 13.617188 6.453125 14.375 5.445312 Z M 15.492188 5.507812 C 15.464844 5.773438 15.433594 6.046875 15.445312 6.3125 C 15.46875 6.605469 15.578125 6.867188 15.792969 7.132812 C 16.035156 7.433594 16.4375 8.164062 16.765625 9.003906 C 16.285156 8.875 15.792969 8.800781 15.308594 8.785156 C 15.21875 8.46875 15.097656 8.125 14.941406 7.75 C 14.519531 6.734375 14.777344 6.066406 15.03125 5.417969 C 15.242188 4.875 15.441406 4.359375 15.191406 3.695312 C 15.628906 4.234375 15.558594 4.878906 15.492188 5.507812 Z M 17.75 5.613281 C 18.21875 5.3125 18.699219 5.003906 18.828125 4.417969 C 18.820312 5.070312 18.46875 5.46875 18.097656 5.886719 C 17.648438 6.398438 17.140625 6.976562 17.183594 8.109375 C 17.199219 8.488281 17.195312 8.824219 17.175781 9.132812 C 17.074219 9.097656 16.972656 9.066406 16.867188 9.035156 C 16.660156 8.492188 16.421875 7.992188 16.210938 7.617188 C 16.402344 6.9375 16.699219 6.300781 17.542969 5.75 C 17.609375 5.703125 17.679688 5.660156 17.75 5.613281 Z M 18.570312 6.183594 C 18.449219 6.425781 18.328125 6.671875 18.246094 6.925781 C 18.164062 7.210938 18.179688 7.492188 18.285156 7.8125 C 18.332031 7.949219 18.378906 8.144531 18.417969 8.386719 C 18.316406 8.527344 18.21875 8.675781 18.121094 8.824219 C 18 9.003906 17.878906 9.1875 17.746094 9.367188 C 17.585938 9.292969 17.425781 9.222656 17.261719 9.164062 C 17.285156 8.847656 17.289062 8.496094 17.273438 8.105469 C 17.226562 7.007812 17.703125 6.46875 18.164062 5.945312 C 18.554688 5.503906 18.921875 5.089844 18.914062 4.382812 C 19.140625 5.03125 18.851562 5.617188 18.570312 6.183594 Z M 20.65625 7.046875 C 21.195312 6.921875 21.753906 6.792969 22.078125 6.289062 C 21.84375 6.898438 21.378906 7.152344 20.886719 7.421875 C 20.285156 7.75 19.605469 8.121094 19.257812 9.199219 C 19.148438 9.535156 19.035156 9.835938 18.917969 10.105469 C 18.578125 9.828125 18.210938 9.59375 17.828125 9.40625 C 17.957031 9.230469 18.078125 9.046875 18.195312 8.871094 C 18.699219 8.113281 19.171875 7.394531 20.410156 7.101562 C 20.492188 7.082031 20.574219 7.066406 20.65625 7.046875 Z M 21.226562 7.859375 C 21.03125 8.042969 20.828125 8.234375 20.664062 8.445312 C 20.492188 8.683594 20.40625 8.953125 20.394531 9.292969 C 20.390625 9.433594 20.367188 9.636719 20.320312 9.875 C 20.175781 9.976562 20.03125 10.082031 19.890625 10.1875 C 19.726562 10.304688 19.5625 10.425781 19.390625 10.542969 C 19.261719 10.40625 19.128906 10.28125 18.988281 10.164062 C 19.109375 9.886719 19.226562 9.574219 19.339844 9.226562 C 19.679688 8.179688 20.316406 7.832031 20.929688 7.496094 C 21.445312 7.214844 21.9375 6.945312 22.175781 6.28125 C 22.164062 6.96875 21.6875 7.421875 21.226562 7.859375 Z M 24.488281 9.140625 C 24.054688 9.632812 23.53125 9.714844 22.972656 9.800781 C 22.296875 9.90625 21.527344 10.027344 20.824219 10.921875 C 20.605469 11.199219 20.398438 11.441406 20.195312 11.652344 C 19.984375 11.265625 19.734375 10.914062 19.449219 10.605469 C 19.621094 10.492188 19.78125 10.375 19.941406 10.253906 C 20.679688 9.710938 21.375 9.199219 22.636719 9.339844 C 22.71875 9.351562 22.804688 9.359375 22.886719 9.371094 C 23.4375 9.4375 24.007812 9.503906 24.488281 9.140625 Z M 23.953125 12.195312 C 24.027344 12.230469 24.101562 12.269531 24.175781 12.304688 C 24.671875 12.554688 25.183594 12.808594 25.761719 12.628906 C 25.183594 12.945312 24.660156 12.847656 24.109375 12.738281 C 23.4375 12.609375 22.671875 12.464844 21.699219 13.070312 C 21.386719 13.265625 21.09375 13.429688 20.820312 13.5625 C 20.753906 13.113281 20.644531 12.699219 20.496094 12.316406 C 20.703125 12.265625 20.90625 12.203125 21.101562 12.144531 C 21.984375 11.882812 22.816406 11.636719 23.953125 12.195312 Z M 24.085938 13.289062 C 23.816406 13.308594 23.535156 13.328125 23.273438 13.382812 C 22.980469 13.457031 22.742188 13.609375 22.511719 13.863281 C 22.417969 13.96875 22.265625 14.105469 22.074219 14.261719 C 21.898438 14.246094 21.722656 14.238281 21.542969 14.226562 C 21.324219 14.214844 21.105469 14.203125 20.882812 14.179688 C 20.871094 14 20.855469 13.824219 20.832031 13.652344 C 21.117188 13.515625 21.421875 13.347656 21.746094 13.144531 C 22.691406 12.554688 23.402344 12.691406 24.09375 12.824219 C 24.675781 12.9375 25.222656 13.042969 25.84375 12.683594 C 25.382812 13.199219 24.722656 13.246094 24.085938 13.289062 Z M 25.746094 16.339844 C 25.097656 16.441406 24.640625 16.171875 24.15625 15.886719 C 23.570312 15.539062 22.902344 15.140625 21.777344 15.382812 C 21.414062 15.460938 21.085938 15.515625 20.78125 15.550781 C 20.847656 15.203125 20.886719 14.835938 20.894531 14.445312 C 20.894531 14.382812 20.890625 14.324219 20.890625 14.265625 C 21.109375 14.289062 21.324219 14.300781 21.539062 14.3125 C 22.457031 14.363281 23.324219 14.410156 24.199219 15.320312 C 24.257812 15.378906 24.3125 15.441406 24.371094 15.5 C 24.75 15.898438 25.140625 16.3125 25.746094 16.339844 Z M 9.359375 14.445312 C 9.457031 10.613281 12.394531 8.867188 15.085938 8.867188 C 17.769531 8.867188 20.707031 10.613281 20.808594 14.445312 C 20.707031 18.277344 17.769531 20.023438 15.082031 20.023438 C 12.394531 20.023438 9.457031 18.277344 9.359375 14.445312 Z M 21.078125 12.0625 C 20.878906 12.121094 20.675781 12.183594 20.464844 12.234375 C 20.398438 12.0625 20.320312 11.894531 20.238281 11.734375 C 20.449219 11.515625 20.667969 11.265625 20.894531 10.976562 C 21.578125 10.105469 22.292969 9.996094 22.988281 9.886719 C 23.570312 9.792969 24.125 9.707031 24.582031 9.164062 C 24.328125 9.804688 23.726562 10.070312 23.140625 10.324219 C 22.894531 10.433594 22.636719 10.546875 22.410156 10.6875 C 22.164062 10.855469 21.988281 11.078125 21.863281 11.394531 C 21.808594 11.527344 21.714844 11.707031 21.589844 11.917969 C 21.417969 11.960938 21.25 12.011719 21.078125 12.0625 Z M 9.074219 7.59375 C 9.296875 8.230469 9.550781 8.957031 10.566406 9.484375 C 10.886719 9.648438 11.167969 9.8125 11.414062 9.972656 C 11.078125 10.230469 10.765625 10.53125 10.492188 10.871094 C 10.347656 10.726562 10.199219 10.589844 10.054688 10.457031 C 9.382812 9.835938 8.75 9.25 8.671875 8 C 8.667969 7.917969 8.660156 7.835938 8.65625 7.753906 C 8.628906 7.207031 8.597656 6.640625 8.148438 6.238281 C 8.714844 6.574219 8.890625 7.070312 9.074219 7.59375 Z M 21.09375 21.296875 C 20.871094 20.65625 20.617188 19.933594 19.597656 19.40625 C 19.28125 19.238281 19 19.078125 18.75 18.917969 C 19.089844 18.660156 19.402344 18.359375 19.675781 18.015625 C 19.820312 18.160156 19.96875 18.296875 20.113281 18.433594 C 20.785156 19.050781 21.417969 19.636719 21.496094 20.890625 C 21.5 20.972656 21.503906 21.054688 21.511719 21.136719 C 21.539062 21.683594 21.570312 22.246094 22.015625 22.652344 C 21.453125 22.316406 21.277344 21.820312 21.09375 21.296875 Z M 15.082031 19.480469 C 17.507812 19.480469 20.160156 17.90625 20.25 14.445312 C 20.160156 10.984375 17.507812 9.410156 15.085938 9.410156 L 15.082031 9.410156 C 12.65625 9.410156 10.007812 10.984375 9.917969 14.445312 C 10.007812 17.90625 12.65625 19.480469 15.082031 19.480469 Z M 10.007812 14.445312 C 10.09375 11.042969 12.699219 9.496094 15.082031 9.496094 C 17.46875 9.496094 20.074219 11.042969 20.160156 14.445312 C 20.074219 17.84375 17.46875 19.394531 15.082031 19.394531 C 12.699219 19.394531 10.09375 17.84375 10.007812 14.445312 Z M 10.007812 14.445312 " fill-opacity="1" fill-rule="nonzero"/></g></svg>