<svg xmlns="http://www.w3.org/2000/svg" xmlns:xlink="http://www.w3.org/1999/xlink" width="400" zoomAndPan="magnify" viewBox="0 0 300 299.999988" height="400" preserveAspectRatio="xMidYMid meet" version="1.0"><defs><clipPath id="id1"><path d="M 35.753906 31.890625 L 264.503906 31.890625 L 264.503906 268.140625 L 35.753906 268.140625 Z M 35.753906 31.890625 " clip-rule="nonzero"/></clipPath><clipPath id="id2"><path d="M 35.753906 31.890625 L 264.503906 31.890625 L 264.503906 268.140625 L 35.753906 268.140625 Z M 35.753906 31.890625 " clip-rule="nonzero"/></clipPath></defs><rect x="-30" width="360" fill="#ffffff" y="-29.999999" height="359.999986" fill-opacity="1"/><rect x="-30" width="360" fill="#e29e28" y="-29.999999" height="359.999986" fill-opacity="1"/><g clip-path="url(#id1)"><path fill="#000000" d="M 264.480469 45.507812 L 264.480469 263.851562 C 264.480469 266.214844 262.554688 268.140625 260.1875 268.140625 L 40.078125 268.140625 C 37.710938 268.140625 35.785156 266.214844 35.785156 263.851562 L 35.785156 37.359375 C 35.785156 34.992188 37.710938 33.070312 40.078125 33.070312 L 55.574219 33.070312 C 56.726562 33.070312 57.804688 33.515625 58.617188 34.332031 C 58.941406 34.65625 59.207031 35.03125 59.410156 35.429688 L 105.03125 35.429688 C 106.148438 33.328125 108.359375 31.890625 110.902344 31.890625 L 214.011719 31.890625 C 216.554688 31.890625 218.769531 33.328125 219.882812 35.429688 L 220.136719 35.429688 C 220.492188 33.421875 222.25 31.890625 224.359375 31.890625 L 250.851562 31.890625 C 251.996094 31.890625 253.074219 32.335938 253.886719 33.144531 L 263.222656 42.472656 C 264.035156 43.285156 264.480469 44.359375 264.480469 45.507812 Z M 264.480469 45.507812 " fill-opacity="1" fill-rule="nonzero"/></g><path fill="#619ccf" d="M 253.21875 33.8125 C 252.585938 33.179688 251.746094 32.832031 250.851562 32.832031 L 224.359375 32.832031 C 222.511719 32.832031 221.011719 34.332031 221.011719 36.175781 L 221.011719 109.222656 C 221.011719 109.480469 220.800781 109.691406 220.539062 109.691406 L 59.402344 109.691406 C 59.140625 109.691406 58.929688 109.480469 58.929688 109.222656 L 58.929688 106.746094 C 58.789062 106.3125 58.710938 105.859375 58.714844 105.390625 L 58.925781 37.367188 C 58.929688 36.472656 58.582031 35.628906 57.949219 34.996094 C 57.316406 34.359375 56.472656 34.011719 55.574219 34.011719 L 40.078125 34.011719 C 38.230469 34.011719 36.726562 35.511719 36.726562 37.359375 L 36.726562 263.851562 C 36.726562 265.695312 38.230469 267.199219 40.078125 267.199219 L 62.128906 267.199219 L 62.128906 135.882812 C 62.128906 131.246094 65.902344 127.476562 70.542969 127.476562 L 229.722656 127.476562 C 234.363281 127.476562 238.140625 131.246094 238.140625 135.882812 L 238.140625 267.199219 L 260.1875 267.199219 C 262.035156 267.199219 263.539062 265.695312 263.539062 263.851562 L 263.539062 45.507812 C 263.539062 44.613281 263.191406 43.773438 262.558594 43.140625 Z M 55.117188 250.007812 C 55.117188 251.328125 54.039062 252.40625 52.714844 252.40625 L 45.628906 252.40625 C 44.304688 252.40625 43.226562 251.328125 43.226562 250.007812 L 43.226562 242.925781 C 43.226562 241.605469 44.304688 240.527344 45.628906 240.527344 L 52.714844 240.527344 C 54.039062 240.527344 55.117188 241.605469 55.117188 242.925781 Z M 257.039062 250.007812 C 257.039062 251.328125 255.960938 252.40625 254.640625 252.40625 L 247.550781 252.40625 C 246.226562 252.40625 245.152344 251.328125 245.152344 250.007812 L 245.152344 242.925781 C 245.152344 241.605469 246.226562 240.527344 247.550781 240.527344 L 254.640625 240.527344 C 255.960938 240.527344 257.039062 241.605469 257.039062 242.925781 Z M 257.039062 250.007812 " fill-opacity="1" fill-rule="nonzero"/><path fill="#ffffff" d="M 105.203125 38.527344 L 105.203125 103.054688 C 105.203125 106.195312 107.761719 108.753906 110.90625 108.753906 L 214.011719 108.753906 C 217.15625 108.753906 219.714844 106.195312 219.714844 103.054688 L 219.714844 38.527344 C 219.714844 35.386719 217.15625 32.832031 214.011719 32.832031 L 110.902344 32.832031 C 107.761719 32.832031 105.203125 35.386719 105.203125 38.527344 Z M 203.054688 94.726562 C 203.054688 98.21875 200.210938 101.058594 196.714844 101.058594 L 179.035156 101.058594 C 175.542969 101.058594 172.699219 98.21875 172.699219 94.726562 L 172.699219 46.855469 C 172.699219 43.363281 175.539062 40.523438 179.035156 40.523438 L 196.714844 40.523438 C 200.210938 40.523438 203.054688 43.363281 203.054688 46.855469 Z M 229.722656 128.417969 L 70.542969 128.417969 C 66.421875 128.417969 63.070312 131.765625 63.070312 135.882812 L 63.070312 245.996094 L 237.195312 245.996094 L 237.195312 135.882812 C 237.195312 131.765625 233.84375 128.417969 229.722656 128.417969 Z M 220.183594 231.097656 L 80.082031 231.097656 C 79.820312 231.097656 79.609375 230.886719 79.609375 230.625 C 79.609375 230.367188 79.820312 230.15625 80.082031 230.15625 L 220.183594 230.15625 C 220.445312 230.15625 220.65625 230.367188 220.65625 230.625 C 220.65625 230.886719 220.445312 231.097656 220.183594 231.097656 Z M 220.183594 209.386719 L 80.082031 209.386719 C 79.820312 209.386719 79.609375 209.175781 79.609375 208.917969 C 79.609375 208.65625 79.820312 208.445312 80.082031 208.445312 L 220.183594 208.445312 C 220.445312 208.445312 220.65625 208.65625 220.65625 208.917969 C 220.65625 209.175781 220.445312 209.386719 220.183594 209.386719 Z M 220.183594 187.675781 L 80.082031 187.675781 C 79.820312 187.675781 79.609375 187.464844 79.609375 187.207031 C 79.609375 186.945312 79.820312 186.734375 80.082031 186.734375 L 220.183594 186.734375 C 220.445312 186.734375 220.65625 186.945312 220.65625 187.207031 C 220.65625 187.464844 220.445312 187.675781 220.183594 187.675781 Z M 220.183594 165.96875 L 80.082031 165.96875 C 79.820312 165.96875 79.609375 165.757812 79.609375 165.496094 C 79.609375 165.238281 79.820312 165.027344 80.082031 165.027344 L 220.183594 165.027344 C 220.445312 165.027344 220.65625 165.238281 220.65625 165.496094 C 220.65625 165.757812 220.445312 165.96875 220.183594 165.96875 Z M 220.183594 144.257812 L 80.082031 144.257812 C 79.820312 144.257812 79.609375 144.046875 79.609375 143.785156 C 79.609375 143.527344 79.820312 143.316406 80.082031 143.316406 L 220.183594 143.316406 C 220.445312 143.316406 220.65625 143.527344 220.65625 143.785156 C 220.65625 144.046875 220.445312 144.257812 220.183594 144.257812 Z M 220.183594 144.257812 " fill-opacity="1" fill-rule="nonzero"/><g clip-path="url(#id2)"><path fill="#000000" d="M 263.222656 42.472656 L 253.886719 33.144531 C 253.074219 32.335938 251.996094 31.890625 250.851562 31.890625 L 224.359375 31.890625 C 222.25 31.890625 220.492188 33.421875 220.136719 35.429688 L 219.882812 35.429688 C 218.769531 33.328125 216.554688 31.890625 214.011719 31.890625 L 110.902344 31.890625 C 108.359375 31.890625 106.148438 33.328125 105.03125 35.429688 L 59.410156 35.429688 C 59.207031 35.027344 58.941406 34.65625 58.617188 34.328125 C 57.804688 33.515625 56.726562 33.070312 55.574219 33.070312 L 40.078125 33.070312 C 37.710938 33.070312 35.785156 34.992188 35.785156 37.359375 L 35.785156 263.851562 C 35.785156 266.214844 37.710938 268.140625 40.078125 268.140625 L 260.1875 268.140625 C 262.554688 268.140625 264.480469 266.214844 264.480469 263.851562 L 264.480469 45.507812 C 264.480469 44.359375 264.035156 43.285156 263.222656 42.472656 Z M 263.539062 263.851562 C 263.539062 265.695312 262.035156 267.199219 260.1875 267.199219 L 238.136719 267.199219 L 238.136719 246.46875 C 238.136719 246.46875 238.136719 246.464844 238.136719 246.464844 L 238.136719 135.882812 C 238.136719 131.246094 234.363281 127.476562 229.722656 127.476562 L 70.542969 127.476562 C 65.902344 127.476562 62.128906 131.246094 62.128906 135.882812 L 62.128906 267.199219 L 40.078125 267.199219 C 38.230469 267.199219 36.726562 265.695312 36.726562 263.851562 L 36.726562 37.359375 C 36.726562 35.511719 38.230469 34.011719 40.078125 34.011719 L 55.574219 34.011719 C 56.472656 34.011719 57.316406 34.359375 57.949219 34.996094 C 58.582031 35.628906 58.929688 36.472656 58.925781 37.367188 L 58.714844 105.390625 C 58.710938 105.859375 58.789062 106.3125 58.929688 106.746094 L 58.929688 109.222656 C 58.929688 109.484375 59.140625 109.691406 59.402344 109.691406 L 220.539062 109.691406 C 220.800781 109.691406 221.011719 109.484375 221.011719 109.222656 L 221.011719 36.175781 C 221.011719 34.332031 222.511719 32.832031 224.359375 32.832031 L 250.851562 32.832031 C 251.746094 32.832031 252.585938 33.179688 253.21875 33.8125 L 262.558594 43.140625 C 263.191406 43.769531 263.539062 44.613281 263.539062 45.507812 Z M 63.070312 245.996094 L 63.070312 135.882812 C 63.070312 131.765625 66.421875 128.417969 70.542969 128.417969 L 229.722656 128.417969 C 233.84375 128.417969 237.195312 131.765625 237.195312 135.882812 L 237.195312 245.996094 Z M 63.070312 246.9375 L 237.195312 246.9375 L 237.195312 267.199219 L 63.070312 267.199219 Z M 59.875 36.371094 L 104.628906 36.371094 C 104.394531 37.046875 104.261719 37.769531 104.261719 38.523438 L 104.261719 103.054688 C 104.261719 105.476562 105.570312 107.59375 107.511719 108.75 L 59.875 108.75 Z M 110.902344 32.832031 L 214.011719 32.832031 C 217.15625 32.832031 219.714844 35.386719 219.714844 38.527344 L 219.714844 103.054688 C 219.714844 106.195312 217.15625 108.753906 214.011719 108.753906 L 110.902344 108.753906 C 107.761719 108.753906 105.203125 106.195312 105.203125 103.054688 L 105.203125 38.527344 C 105.203125 35.386719 107.761719 32.832031 110.902344 32.832031 Z M 220.066406 105.773438 L 220.066406 108.75 L 217.40625 108.75 C 218.570312 108.054688 219.503906 107.015625 220.066406 105.773438 Z M 196.714844 40.523438 L 179.035156 40.523438 C 175.539062 40.523438 172.695312 43.363281 172.695312 46.855469 L 172.695312 94.726562 C 172.695312 98.21875 175.539062 101.058594 179.035156 101.058594 L 196.714844 101.058594 C 200.210938 101.058594 203.054688 98.21875 203.054688 94.726562 L 203.054688 46.855469 C 203.054688 43.363281 200.210938 40.523438 196.714844 40.523438 Z M 202.113281 94.726562 C 202.113281 97.699219 199.691406 100.117188 196.714844 100.117188 L 179.035156 100.117188 C 176.0625 100.117188 173.640625 97.699219 173.640625 94.726562 L 173.640625 46.855469 C 173.640625 43.882812 176.0625 41.464844 179.035156 41.464844 L 196.714844 41.464844 C 199.691406 41.464844 202.113281 43.882812 202.113281 46.855469 Z M 52.714844 240.527344 L 45.628906 240.527344 C 44.304688 240.527344 43.226562 241.605469 43.226562 242.925781 L 43.226562 250.007812 C 43.226562 251.328125 44.304688 252.40625 45.628906 252.40625 L 52.714844 252.40625 C 54.039062 252.40625 55.117188 251.328125 55.117188 250.007812 L 55.117188 242.925781 C 55.117188 241.605469 54.039062 240.527344 52.714844 240.527344 Z M 54.171875 250.007812 C 54.171875 250.808594 53.519531 251.464844 52.714844 251.464844 L 45.628906 251.464844 C 44.824219 251.464844 44.167969 250.808594 44.167969 250.007812 L 44.167969 242.925781 C 44.167969 242.121094 44.824219 241.46875 45.628906 241.46875 L 52.714844 241.46875 C 53.519531 241.46875 54.171875 242.121094 54.171875 242.925781 Z M 254.640625 240.527344 L 247.550781 240.527344 C 246.226562 240.527344 245.152344 241.605469 245.152344 242.925781 L 245.152344 250.007812 C 245.152344 251.328125 246.226562 252.40625 247.550781 252.40625 L 254.640625 252.40625 C 255.960938 252.40625 257.039062 251.328125 257.039062 250.007812 L 257.039062 242.925781 C 257.039062 241.605469 255.960938 240.527344 254.640625 240.527344 Z M 256.097656 250.007812 C 256.097656 250.808594 255.445312 251.464844 254.640625 251.464844 L 247.550781 251.464844 C 246.746094 251.464844 246.09375 250.808594 246.09375 250.007812 L 246.09375 242.925781 C 246.09375 242.121094 246.746094 241.46875 247.550781 241.46875 L 254.640625 241.46875 C 255.445312 241.46875 256.097656 242.121094 256.097656 242.925781 Z M 220.65625 143.785156 C 220.65625 144.046875 220.445312 144.257812 220.183594 144.257812 L 80.082031 144.257812 C 79.820312 144.257812 79.609375 144.046875 79.609375 143.785156 C 79.609375 143.527344 79.820312 143.316406 80.082031 143.316406 L 220.183594 143.316406 C 220.445312 143.316406 220.65625 143.527344 220.65625 143.785156 Z M 220.65625 165.496094 C 220.65625 165.757812 220.445312 165.96875 220.183594 165.96875 L 80.082031 165.96875 C 79.820312 165.96875 79.609375 165.757812 79.609375 165.496094 C 79.609375 165.238281 79.820312 165.027344 80.082031 165.027344 L 220.183594 165.027344 C 220.445312 165.027344 220.65625 165.238281 220.65625 165.496094 Z M 220.65625 187.207031 C 220.65625 187.464844 220.445312 187.675781 220.183594 187.675781 L 80.082031 187.675781 C 79.820312 187.675781 79.609375 187.464844 79.609375 187.207031 C 79.609375 186.945312 79.820312 186.734375 80.082031 186.734375 L 220.183594 186.734375 C 220.445312 186.734375 220.65625 186.945312 220.65625 187.207031 Z M 220.65625 208.917969 C 220.65625 209.175781 220.445312 209.386719 220.183594 209.386719 L 80.082031 209.386719 C 79.820312 209.386719 79.609375 209.175781 79.609375 208.917969 C 79.609375 208.65625 79.820312 208.445312 80.082031 208.445312 L 220.183594 208.445312 C 220.445312 208.445312 220.65625 208.65625 220.65625 208.917969 Z M 220.65625 230.625 C 220.65625 230.886719 220.445312 231.097656 220.183594 231.097656 L 80.082031 231.097656 C 79.820312 231.097656 79.609375 230.886719 79.609375 230.625 C 79.609375 230.367188 79.820312 230.15625 80.082031 230.15625 L 220.183594 230.15625 C 220.445312 230.15625 220.65625 230.367188 220.65625 230.625 Z M 220.65625 230.625 " fill-opacity="1" fill-rule="nonzero"/></g><path fill="#df68a8" d="M 59.875 36.371094 L 104.628906 36.371094 C 104.394531 37.046875 104.261719 37.769531 104.261719 38.523438 L 104.261719 103.054688 C 104.261719 105.476562 105.570312 107.59375 107.511719 108.75 L 59.875 108.75 Z M 220.066406 108.753906 L 220.066406 105.773438 C 219.503906 107.015625 218.570312 108.054688 217.40625 108.753906 Z M 196.714844 41.464844 L 179.035156 41.464844 C 176.058594 41.464844 173.640625 43.882812 173.640625 46.855469 L 173.640625 94.726562 C 173.640625 97.699219 176.0625 100.117188 179.035156 100.117188 L 196.714844 100.117188 C 199.691406 100.117188 202.113281 97.699219 202.113281 94.726562 L 202.113281 46.855469 C 202.113281 43.882812 199.691406 41.464844 196.714844 41.464844 Z M 52.714844 241.46875 L 45.628906 241.46875 C 44.824219 241.46875 44.167969 242.121094 44.167969 242.925781 L 44.167969 250.007812 C 44.167969 250.808594 44.824219 251.464844 45.628906 251.464844 L 52.714844 251.464844 C 53.519531 251.464844 54.171875 250.808594 54.171875 250.007812 L 54.171875 242.925781 C 54.171875 242.121094 53.519531 241.46875 52.714844 241.46875 Z M 254.640625 241.46875 L 247.550781 241.46875 C 246.746094 241.46875 246.09375 242.121094 246.09375 242.925781 L 246.09375 250.007812 C 246.09375 250.808594 246.746094 251.464844 247.550781 251.464844 L 254.640625 251.464844 C 255.445312 251.464844 256.097656 250.808594 256.097656 250.007812 L 256.097656 242.925781 C 256.097656 242.121094 255.445312 241.46875 254.640625 241.46875 Z M 237.195312 246.9375 L 63.070312 246.9375 L 63.070312 267.199219 L 237.195312 267.199219 Z M 237.195312 246.9375 " fill-opacity="1" fill-rule="nonzero"/></svg>