<svg xmlns="http://www.w3.org/2000/svg" xmlns:xlink="http://www.w3.org/1999/xlink" width="40" zoomAndPan="magnify" viewBox="0 0 30 30.000001" height="40" preserveAspectRatio="xMidYMid meet" version="1.0"><defs><clipPath id="45d6ba8cee"><path d="M 0.484375 0 L 29.515625 0 L 29.515625 29.03125 L 0.484375 29.03125 Z M 0.484375 0 " clip-rule="nonzero"/></clipPath><clipPath id="63fa4abce8"><path d="M 6.285156 4.554688 L 23.707031 4.554688 L 23.707031 24.148438 L 6.285156 24.148438 Z M 6.285156 4.554688 " clip-rule="nonzero"/></clipPath><clipPath id="682dd12dee"><path d="M 6.285156 4.554688 L 23.707031 4.554688 L 23.707031 24.148438 L 6.285156 24.148438 Z M 6.285156 4.554688 " clip-rule="nonzero"/></clipPath></defs><g clip-path="url(#45d6ba8cee)"><path fill="#ffffff" d="M 0.484375 0 L 29.515625 0 L 29.515625 29.03125 L 0.484375 29.03125 Z M 0.484375 0 " fill-opacity="1" fill-rule="nonzero"/><path fill="#e1bf4b" d="M 0.484375 0 L 29.515625 0 L 29.515625 29.03125 L 0.484375 29.03125 Z M 0.484375 0 " fill-opacity="1" fill-rule="nonzero"/></g><g clip-path="url(#63fa4abce8)"><path fill="#ff6840" d="M 19.171875 24.046875 C 18.457031 24.046875 17.78125 23.898438 17.167969 23.609375 C 16.902344 23.480469 16.632812 23.34375 16.375 23.210938 C 16.222656 23.132812 16.074219 23.054688 15.921875 22.980469 C 15.863281 22.949219 15.804688 22.929688 15.746094 22.90625 C 15.71875 22.898438 15.691406 22.886719 15.660156 22.875 L 15.578125 22.839844 L 15.480469 23.066406 C 15.375 23.3125 15.195312 23.4375 14.945312 23.4375 C 14.902344 23.4375 14.859375 23.433594 14.8125 23.425781 C 14.585938 23.390625 14.367188 23.285156 14.132812 23.097656 C 13.800781 22.824219 13.492188 22.488281 13.132812 22.003906 C 13.011719 21.835938 12.890625 21.671875 12.765625 21.507812 C 12.546875 21.214844 12.320312 20.914062 12.105469 20.613281 C 11.753906 20.121094 11.320312 19.679688 10.789062 19.257812 C 10.589844 19.101562 10.402344 18.917969 10.234375 18.746094 C 10.066406 18.578125 9.957031 18.386719 9.910156 18.171875 C 9.847656 17.917969 9.632812 17.792969 9.476562 17.703125 C 8.890625 17.367188 8.25 17.101562 7.578125 16.910156 C 7.230469 16.8125 6.859375 16.714844 6.464844 16.707031 C 6.398438 16.707031 6.386719 16.695312 6.386719 16.695312 C 6.386719 16.695312 6.386719 16.6875 6.386719 16.671875 C 6.386719 16.648438 6.386719 16.640625 6.476562 16.636719 L 6.496094 16.636719 C 6.816406 16.636719 7.121094 16.710938 7.433594 16.792969 C 8.144531 16.984375 8.824219 17.253906 9.445312 17.597656 C 9.511719 17.632812 9.574219 17.664062 9.640625 17.691406 C 9.671875 17.703125 9.699219 17.707031 9.726562 17.707031 L 9.792969 17.707031 L 9.820312 17.683594 C 9.824219 17.679688 9.828125 17.679688 9.832031 17.675781 C 9.84375 17.667969 9.863281 17.652344 9.878906 17.628906 C 10.097656 17.246094 10.09375 17.199219 9.769531 16.90625 C 8.878906 16.097656 7.960938 15.507812 6.964844 15.097656 C 6.957031 15.09375 6.945312 15.089844 6.9375 15.085938 C 6.921875 15.082031 6.910156 15.078125 6.902344 15.070312 C 6.855469 15.039062 6.859375 15.03125 6.867188 15.019531 C 6.871094 15.011719 6.882812 14.992188 6.894531 14.992188 C 6.898438 14.992188 6.90625 14.992188 6.917969 15 C 6.992188 15.03125 7.066406 15.0625 7.140625 15.09375 C 7.292969 15.15625 7.449219 15.222656 7.59375 15.300781 C 8.476562 15.761719 9.226562 16.285156 9.878906 16.902344 C 9.902344 16.929688 9.929688 16.949219 9.957031 16.96875 C 9.96875 16.976562 9.980469 16.984375 9.992188 16.992188 L 10.074219 17.058594 L 10.203125 16.839844 L 10.179688 16.796875 C 9.777344 16.046875 9.449219 15.417969 9.1875 14.730469 C 8.488281 12.863281 8.0625 11.3125 7.851562 9.847656 C 7.746094 9.097656 7.714844 8.316406 7.765625 7.523438 C 7.804688 6.898438 7.933594 6.351562 8.167969 5.851562 C 8.335938 5.484375 8.550781 5.207031 8.816406 5 C 9.027344 4.839844 9.246094 4.757812 9.472656 4.757812 C 9.683594 4.757812 9.890625 4.832031 10.089844 4.976562 C 10.25 5.09375 10.390625 5.242188 10.546875 5.410156 C 10.695312 5.570312 10.832031 5.742188 10.96875 5.90625 L 11.066406 6.027344 C 11.273438 6.277344 11.539062 6.460938 11.792969 6.636719 C 11.859375 6.683594 11.925781 6.730469 11.992188 6.78125 L 12.074219 6.835938 L 12.128906 6.753906 C 12.167969 6.691406 12.210938 6.628906 12.25 6.566406 C 12.335938 6.433594 12.414062 6.308594 12.503906 6.183594 C 12.90625 5.617188 13.332031 5.25 13.851562 5.023438 C 14.132812 4.902344 14.414062 4.839844 14.6875 4.839844 C 15.21875 4.839844 15.707031 5.078125 16.097656 5.527344 C 16.4375 5.914062 16.679688 6.386719 16.851562 7.019531 C 16.984375 7.503906 17.101562 8.011719 17.210938 8.578125 C 17.402344 9.570312 17.84375 10.378906 18.558594 11.042969 C 18.816406 11.285156 19.089844 11.546875 19.410156 11.875 C 19.960938 12.4375 20.257812 13.132812 20.289062 13.949219 C 20.3125 14.515625 20.152344 15.035156 19.816406 15.488281 C 19.753906 15.570312 19.675781 15.640625 19.59375 15.71875 C 19.554688 15.757812 19.511719 15.796875 19.46875 15.839844 L 19.351562 15.957031 L 19.515625 15.992188 C 19.5625 16.003906 19.605469 16.011719 19.652344 16.019531 C 19.75 16.039062 19.84375 16.058594 19.933594 16.085938 L 20.089844 16.140625 C 20.382812 16.234375 20.683594 16.332031 20.972656 16.449219 C 21.742188 16.769531 22.253906 17.347656 22.488281 18.164062 C 22.589844 18.511719 22.664062 18.878906 22.734375 19.234375 L 22.757812 19.351562 C 22.828125 19.699219 22.941406 20.054688 23.105469 20.433594 C 23.25 20.765625 23.398438 21.121094 23.511719 21.484375 C 23.609375 21.792969 23.550781 22.09375 23.34375 22.378906 C 23.167969 22.621094 22.941406 22.832031 22.625 23.042969 C 22.109375 23.386719 21.488281 23.640625 20.675781 23.835938 C 20.242188 23.9375 19.730469 24.042969 19.195312 24.046875 Z M 19.171875 24.046875 " fill-opacity="1" fill-rule="nonzero"/></g><path fill="#008b53" d="M 15.359375 22.714844 C 15.359375 23.175781 15.105469 23.359375 14.679688 23.214844 C 14.4375 23.132812 14.238281 22.980469 14.058594 22.808594 C 13.703125 22.472656 13.40625 22.085938 13.117188 21.691406 C 12.6875 21.109375 12.242188 20.53125 11.796875 19.957031 C 11.519531 19.597656 11.136719 19.34375 10.796875 19.050781 C 10.65625 18.925781 10.519531 18.796875 10.386719 18.664062 C 10.1875 18.46875 10.078125 18.226562 10.035156 17.953125 C 9.980469 17.621094 10.210938 17.332031 10.554688 17.308594 C 10.757812 17.292969 10.949219 17.332031 11.128906 17.417969 C 11.523438 17.597656 11.851562 17.863281 12.109375 18.195312 C 12.414062 18.585938 12.6875 19 12.980469 19.398438 C 13.402344 19.972656 13.824219 20.542969 14.261719 21.105469 C 14.53125 21.449219 14.832031 21.765625 15.105469 22.101562 C 15.25 22.28125 15.375 22.480469 15.359375 22.714844 Z M 15.359375 22.714844 " fill-opacity="1" fill-rule="nonzero"/><path fill="#f291d6" d="M 13.441406 18.929688 C 13.585938 18.890625 13.730469 18.847656 13.875 18.8125 C 14.609375 18.628906 15.339844 18.433594 16.078125 18.273438 C 16.664062 18.148438 17.261719 18.097656 17.855469 18.25 C 18.097656 18.3125 18.332031 18.398438 18.511719 18.582031 C 18.816406 18.890625 18.785156 19.3125 18.410156 19.53125 C 18.222656 19.644531 17.992188 19.699219 17.777344 19.761719 C 17.671875 19.796875 17.554688 19.804688 17.441406 19.8125 C 17.339844 19.820312 17.261719 19.847656 17.253906 19.960938 C 17.246094 20.066406 17.320312 20.101562 17.40625 20.121094 C 17.785156 20.214844 18.097656 20.417969 18.375 20.675781 C 18.625 20.910156 18.835938 21.171875 18.914062 21.511719 C 19.039062 22.03125 18.667969 22.476562 18.125 22.449219 C 17.777344 22.433594 17.453125 22.3125 17.175781 22.113281 C 16.804688 21.847656 16.441406 21.5625 16.097656 21.261719 C 15.753906 20.957031 15.445312 20.621094 15.113281 20.304688 C 14.84375 20.050781 14.582031 19.792969 14.292969 19.5625 C 14.078125 19.390625 13.828125 19.257812 13.59375 19.109375 C 13.535156 19.070312 13.480469 19.03125 13.421875 18.992188 C 13.429688 18.972656 13.433594 18.953125 13.441406 18.929688 Z M 12.953125 17.765625 C 13.3125 17.339844 13.726562 16.96875 14.183594 16.644531 C 14.519531 16.402344 14.859375 16.160156 15.195312 15.921875 C 15.546875 15.675781 15.835938 15.371094 16.035156 14.996094 C 16.113281 14.855469 16.175781 14.695312 16.199219 14.539062 C 16.289062 13.964844 15.890625 13.585938 15.308594 13.664062 C 15.066406 13.695312 14.859375 13.796875 14.660156 13.921875 C 14.597656 13.960938 14.539062 14.011719 14.472656 14.046875 C 14.375 14.097656 14.285156 14.042969 14.289062 13.933594 C 14.292969 13.871094 14.324219 13.808594 14.351562 13.75 C 14.5625 13.328125 14.640625 12.886719 14.53125 12.425781 C 14.429688 12 14.011719 11.839844 13.632812 12.074219 C 13.449219 12.1875 13.320312 12.351562 13.214844 12.535156 C 13.011719 12.878906 12.921875 13.253906 12.90625 13.644531 C 12.882812 14.074219 12.890625 14.507812 12.898438 14.941406 C 12.914062 15.84375 12.902344 16.742188 12.785156 17.640625 C 12.773438 17.71875 12.757812 17.789062 12.894531 17.863281 C 12.914062 17.832031 12.925781 17.792969 12.953125 17.765625 Z M 10.617188 13.542969 C 10.617188 13.507812 10.617188 13.472656 10.617188 13.4375 C 10.617188 12.34375 10.699219 11.253906 10.890625 10.171875 C 10.933594 9.945312 10.824219 9.804688 10.589844 9.777344 C 10.335938 9.75 10.132812 9.855469 9.976562 10.046875 C 9.746094 10.324219 9.710938 10.652344 9.738281 10.992188 C 9.800781 11.792969 10.039062 12.539062 10.414062 13.246094 C 10.46875 13.347656 10.523438 13.453125 10.578125 13.554688 C 10.589844 13.550781 10.601562 13.546875 10.617188 13.542969 Z M 10.617188 13.542969 " fill-opacity="1" fill-rule="nonzero"/><path fill="#c0e348" d="M 11.847656 7.984375 C 11.835938 8.117188 11.816406 8.246094 11.808594 8.378906 C 11.742188 9.519531 11.859375 10.636719 12.132812 11.746094 C 12.261719 12.28125 12.335938 12.832031 12.488281 13.359375 C 12.605469 13.777344 12.617188 14.195312 12.625 14.617188 C 12.644531 15.316406 12.667969 16.015625 12.613281 16.71875 C 12.582031 17.101562 12.535156 17.488281 12.492188 17.871094 C 12.484375 17.921875 12.453125 17.996094 12.414062 18.011719 C 12.371094 18.023438 12.292969 17.992188 12.257812 17.957031 C 12 17.691406 11.714844 17.460938 11.402344 17.257812 C 11.210938 17.128906 11.113281 16.910156 11.085938 16.683594 C 11.023438 16.1875 10.96875 15.691406 10.933594 15.195312 C 10.863281 14.289062 10.859375 13.378906 10.902344 12.472656 C 10.96875 11.015625 11.191406 9.585938 11.679688 8.203125 C 11.707031 8.121094 11.746094 8.046875 11.78125 7.96875 C 11.800781 7.972656 11.824219 7.980469 11.847656 7.984375 Z M 16.566406 13.902344 C 16.722656 13.472656 16.828125 13.035156 16.84375 12.578125 C 16.847656 12.359375 16.804688 12.171875 16.574219 12.0625 C 16.453125 12.007812 16.351562 11.910156 16.246094 11.824219 C 15.902344 11.546875 15.667969 11.195312 15.542969 10.777344 C 15.421875 10.359375 15.378906 9.933594 15.425781 9.496094 C 15.453125 9.269531 15.46875 9.039062 15.480469 8.808594 C 15.492188 8.6875 15.476562 8.570312 15.328125 8.5 C 15.183594 8.628906 15.03125 8.75 14.894531 8.886719 C 14.105469 9.683594 13.6875 10.675781 13.351562 11.710938 C 13.335938 11.765625 13.351562 11.832031 13.351562 11.925781 C 13.449219 11.871094 13.515625 11.835938 13.582031 11.804688 C 14.066406 11.5625 14.601562 11.777344 14.765625 12.289062 C 14.84375 12.535156 14.863281 12.785156 14.828125 13.039062 C 14.804688 13.191406 14.78125 13.339844 14.761719 13.484375 C 14.796875 13.5 14.8125 13.511719 14.824219 13.511719 C 14.917969 13.488281 15.011719 13.460938 15.105469 13.441406 C 15.6875 13.300781 16.183594 13.496094 16.394531 13.964844 C 16.402344 13.980469 16.421875 13.996094 16.457031 14.03125 C 16.496094 13.984375 16.550781 13.949219 16.566406 13.902344 Z M 18.765625 19.570312 C 18.542969 19.824219 18.234375 19.921875 17.917969 20.003906 C 17.921875 20.015625 17.921875 20.027344 17.925781 20.027344 C 17.984375 20.066406 18.039062 20.101562 18.097656 20.136719 C 18.445312 20.359375 18.746094 20.625 18.964844 20.976562 C 19.171875 21.3125 19.28125 21.664062 19.144531 22.058594 C 19.082031 22.230469 19.132812 22.28125 19.316406 22.230469 C 19.835938 22.078125 20.320312 21.863281 20.746094 21.523438 C 20.90625 21.394531 21.027344 21.238281 21.140625 21.0625 C 21.066406 20.984375 21.003906 20.910156 20.941406 20.839844 C 20.648438 20.5 20.390625 20.148438 20.296875 19.699219 C 20.285156 19.636719 20.238281 19.582031 20.199219 19.527344 C 19.898438 19.148438 19.503906 18.890625 19.078125 18.671875 C 19.054688 18.660156 19.023438 18.660156 18.917969 18.636719 C 19.007812 18.996094 19 19.304688 18.765625 19.570312 Z M 16.671875 16.140625 C 16.753906 16.132812 16.78125 16.132812 16.808594 16.125 C 17.199219 16.046875 17.589844 15.953125 17.980469 15.890625 C 18.140625 15.863281 18.269531 15.800781 18.378906 15.699219 C 18.570312 15.523438 18.703125 15.3125 18.761719 15.054688 C 18.921875 14.390625 18.703125 13.8125 18.339844 13.265625 C 18.332031 13.257812 18.3125 13.257812 18.289062 13.25 C 18.035156 14.347656 17.550781 15.328125 16.671875 16.140625 Z M 10.113281 9.597656 C 10.4375 9.472656 10.710938 9.476562 10.976562 9.65625 C 11.132812 9.113281 11.28125 8.589844 11.441406 8.039062 C 10.964844 7.957031 10.640625 7.617188 10.234375 7.378906 C 10.3125 8.125 10.335938 8.855469 10.113281 9.597656 Z M 10.113281 9.597656 " fill-opacity="1" fill-rule="nonzero"/><g clip-path="url(#682dd12dee)"><path fill="#551e00" d="M 10.09375 16.839844 C 9.730469 16.160156 9.371094 15.480469 9.101562 14.761719 C 8.5 13.167969 8.003906 11.546875 7.761719 9.859375 C 7.648438 9.082031 7.625 8.300781 7.671875 7.519531 C 7.707031 6.929688 7.832031 6.355469 8.082031 5.8125 C 8.242188 5.46875 8.453125 5.164062 8.761719 4.929688 C 9.195312 4.59375 9.699219 4.574219 10.144531 4.902344 C 10.316406 5.027344 10.46875 5.191406 10.617188 5.351562 C 10.800781 5.550781 10.96875 5.761719 11.140625 5.96875 C 11.390625 6.273438 11.730469 6.476562 12.050781 6.707031 C 12.179688 6.503906 12.296875 6.3125 12.425781 6.132812 C 12.789062 5.621094 13.222656 5.195312 13.8125 4.941406 C 14.691406 4.5625 15.542969 4.75 16.167969 5.464844 C 16.558594 5.910156 16.789062 6.4375 16.941406 6.992188 C 17.082031 7.511719 17.199219 8.035156 17.300781 8.558594 C 17.484375 9.503906 17.910156 10.3125 18.621094 10.976562 C 18.914062 11.246094 19.199219 11.527344 19.476562 11.8125 C 20.0625 12.40625 20.351562 13.132812 20.382812 13.949219 C 20.40625 14.527344 20.242188 15.070312 19.890625 15.542969 C 19.792969 15.671875 19.664062 15.773438 19.535156 15.902344 C 19.679688 15.933594 19.824219 15.957031 19.964844 16 C 20.3125 16.117188 20.667969 16.226562 21.007812 16.367188 C 21.824219 16.703125 22.339844 17.308594 22.578125 18.136719 C 22.691406 18.53125 22.769531 18.933594 22.847656 19.335938 C 22.921875 19.703125 23.042969 20.050781 23.191406 20.394531 C 23.34375 20.742188 23.488281 21.097656 23.601562 21.457031 C 23.707031 21.800781 23.636719 22.132812 23.421875 22.433594 C 23.21875 22.710938 22.960938 22.925781 22.675781 23.117188 C 22.074219 23.519531 21.398438 23.753906 20.695312 23.921875 C 20.203125 24.042969 19.707031 24.136719 19.195312 24.136719 C 18.472656 24.140625 17.78125 24 17.128906 23.691406 C 16.707031 23.492188 16.296875 23.269531 15.878906 23.058594 C 15.800781 23.023438 15.71875 22.996094 15.625 22.960938 C 15.597656 23.023438 15.582031 23.0625 15.566406 23.101562 C 15.425781 23.429688 15.160156 23.570312 14.800781 23.515625 C 14.519531 23.472656 14.289062 23.339844 14.074219 23.167969 C 13.679688 22.847656 13.355469 22.460938 13.058594 22.058594 C 12.714844 21.59375 12.367188 21.132812 12.03125 20.664062 C 11.664062 20.15625 11.222656 19.71875 10.730469 19.328125 C 10.53125 19.171875 10.34375 18.992188 10.167969 18.808594 C 9.996094 18.636719 9.875 18.433594 9.816406 18.191406 C 9.769531 17.984375 9.597656 17.878906 9.429688 17.78125 C 8.835938 17.445312 8.210938 17.183594 7.554688 17 C 7.195312 16.898438 6.839844 16.804688 6.464844 16.800781 C 6.371094 16.796875 6.289062 16.777344 6.292969 16.667969 C 6.300781 16.558594 6.386719 16.546875 6.476562 16.546875 C 6.8125 16.542969 7.136719 16.621094 7.457031 16.707031 C 8.171875 16.894531 8.847656 17.164062 9.492188 17.519531 C 9.550781 17.550781 9.613281 17.582031 9.675781 17.605469 C 9.703125 17.617188 9.734375 17.613281 9.761719 17.613281 C 9.777344 17.601562 9.792969 17.59375 9.796875 17.582031 C 9.996094 17.242188 9.996094 17.238281 9.707031 16.972656 C 8.882812 16.226562 7.96875 15.609375 6.929688 15.183594 C 6.902344 15.171875 6.871094 15.164062 6.847656 15.144531 C 6.789062 15.101562 6.746094 15.050781 6.785156 14.976562 C 6.824219 14.90625 6.878906 14.882812 6.957031 14.914062 C 7.183594 15.015625 7.417969 15.105469 7.636719 15.21875 C 8.476562 15.660156 9.253906 16.1875 9.941406 16.835938 C 9.972656 16.867188 10.011719 16.894531 10.046875 16.921875 C 10.070312 16.925781 10.09375 16.929688 10.117188 16.933594 C 10.109375 16.902344 10.101562 16.871094 10.09375 16.839844 Z M 10.019531 8.347656 C 10.019531 8.277344 10.027344 8.179688 10.019531 8.085938 C 9.992188 7.773438 9.964844 7.460938 9.820312 7.175781 C 9.757812 7.058594 9.671875 6.996094 9.542969 6.96875 C 9.1875 6.894531 8.871094 6.988281 8.558594 7.144531 C 8.121094 7.367188 7.894531 7.707031 7.898438 8.199219 C 7.90625 8.992188 8.003906 9.773438 8.140625 10.554688 C 8.328125 11.605469 8.644531 12.621094 8.972656 13.636719 C 9.324219 14.726562 9.785156 15.769531 10.359375 16.765625 C 10.394531 16.824219 10.429688 16.882812 10.472656 16.929688 C 10.546875 17.003906 10.683594 17.019531 10.769531 16.972656 C 10.867188 16.921875 10.847656 16.839844 10.832031 16.757812 C 10.6875 15.949219 10.660156 15.128906 10.625 14.3125 C 10.621094 14.207031 10.613281 14.113281 10.554688 14.015625 C 10.359375 13.679688 10.160156 13.34375 10 12.992188 C 9.683594 12.292969 9.472656 11.566406 9.472656 10.789062 C 9.472656 10.492188 9.539062 10.214844 9.699219 9.960938 C 9.757812 9.875 9.792969 9.773438 9.820312 9.671875 C 9.949219 9.25 10.039062 8.820312 10.019531 8.347656 Z M 12.699219 12.914062 C 12.734375 12.851562 12.75 12.835938 12.753906 12.816406 C 12.890625 12.171875 13.125 11.558594 13.347656 10.941406 C 13.636719 10.144531 14.039062 9.414062 14.628906 8.796875 C 14.828125 8.59375 15.042969 8.40625 15.257812 8.214844 C 15.425781 8.0625 15.5 7.875 15.480469 7.65625 C 15.445312 7.28125 15.347656 6.925781 15.148438 6.597656 C 14.921875 6.226562 14.597656 5.984375 14.160156 5.917969 C 13.730469 5.851562 13.3125 5.863281 12.960938 6.171875 C 12.730469 6.371094 12.546875 6.609375 12.433594 6.886719 C 12.222656 7.402344 12.078125 7.933594 12.070312 8.492188 C 12.0625 8.878906 12.054688 9.265625 12.074219 9.652344 C 12.097656 10.03125 12.136719 10.410156 12.207031 10.78125 C 12.328125 11.441406 12.476562 12.09375 12.617188 12.75 C 12.628906 12.792969 12.660156 12.835938 12.699219 12.914062 Z M 13.441406 18.929688 C 13.433594 18.953125 13.429688 18.972656 13.421875 18.992188 C 13.480469 19.03125 13.535156 19.070312 13.59375 19.109375 C 13.828125 19.257812 14.078125 19.390625 14.292969 19.5625 C 14.582031 19.792969 14.84375 20.050781 15.113281 20.304688 C 15.445312 20.621094 15.753906 20.957031 16.097656 21.261719 C 16.441406 21.5625 16.804688 21.847656 17.175781 22.113281 C 17.453125 22.3125 17.777344 22.433594 18.125 22.449219 C 18.667969 22.476562 19.039062 22.03125 18.914062 21.511719 C 18.835938 21.171875 18.625 20.910156 18.375 20.675781 C 18.097656 20.417969 17.785156 20.214844 17.40625 20.121094 C 17.320312 20.101562 17.246094 20.066406 17.253906 19.960938 C 17.261719 19.847656 17.339844 19.820312 17.441406 19.8125 C 17.554688 19.804688 17.671875 19.796875 17.777344 19.761719 C 17.992188 19.699219 18.222656 19.644531 18.410156 19.53125 C 18.785156 19.3125 18.816406 18.890625 18.511719 18.582031 C 18.332031 18.398438 18.097656 18.3125 17.855469 18.25 C 17.261719 18.097656 16.664062 18.148438 16.078125 18.273438 C 15.339844 18.433594 14.609375 18.628906 13.875 18.8125 C 13.730469 18.847656 13.585938 18.890625 13.441406 18.929688 Z M 12.984375 18.65625 C 13.082031 18.828125 13.183594 18.742188 13.265625 18.722656 C 14.21875 18.460938 15.164062 18.164062 16.144531 18 C 16.652344 17.914062 17.171875 17.867188 17.679688 17.960938 C 18.5625 18.121094 19.382812 18.433594 20.070312 19.023438 C 20.210938 19.144531 20.273438 19.121094 20.320312 18.949219 C 20.40625 18.632812 20.496094 18.320312 20.578125 18 C 20.644531 17.734375 20.6875 17.464844 20.632812 17.183594 C 20.539062 16.71875 20.105469 16.269531 19.664062 16.195312 C 18.984375 16.082031 18.304688 16.074219 17.632812 16.203125 C 16.121094 16.488281 14.773438 17.117188 13.59375 18.085938 C 13.378906 18.261719 13.1875 18.464844 12.984375 18.65625 Z M 11.847656 7.984375 C 11.824219 7.980469 11.800781 7.972656 11.78125 7.96875 C 11.746094 8.046875 11.707031 8.121094 11.679688 8.203125 C 11.191406 9.585938 10.96875 11.015625 10.902344 12.472656 C 10.859375 13.378906 10.863281 14.289062 10.933594 15.195312 C 10.96875 15.691406 11.023438 16.1875 11.085938 16.683594 C 11.113281 16.910156 11.210938 17.128906 11.402344 17.257812 C 11.714844 17.460938 11.996094 17.691406 12.257812 17.957031 C 12.292969 17.992188 12.371094 18.023438 12.414062 18.011719 C 12.453125 17.996094 12.484375 17.921875 12.492188 17.871094 C 12.535156 17.488281 12.582031 17.101562 12.613281 16.71875 C 12.667969 16.015625 12.644531 15.316406 12.625 14.617188 C 12.617188 14.195312 12.605469 13.777344 12.488281 13.359375 C 12.335938 12.832031 12.261719 12.28125 12.132812 11.746094 C 11.859375 10.636719 11.742188 9.519531 11.808594 8.378906 C 11.816406 8.246094 11.835938 8.117188 11.847656 7.984375 Z M 12.894531 17.863281 C 12.914062 17.832031 12.925781 17.792969 12.953125 17.765625 C 13.3125 17.339844 13.726562 16.96875 14.183594 16.644531 C 14.519531 16.402344 14.859375 16.160156 15.195312 15.921875 C 15.546875 15.675781 15.835938 15.371094 16.035156 14.996094 C 16.113281 14.855469 16.175781 14.695312 16.199219 14.539062 C 16.289062 13.964844 15.890625 13.585938 15.308594 13.664062 C 15.066406 13.695312 14.859375 13.796875 14.660156 13.921875 C 14.597656 13.960938 14.539062 14.011719 14.472656 14.046875 C 14.375 14.097656 14.285156 14.042969 14.289062 13.933594 C 14.292969 13.871094 14.324219 13.808594 14.351562 13.75 C 14.5625 13.328125 14.640625 12.886719 14.53125 12.425781 C 14.429688 12 14.011719 11.839844 13.632812 12.074219 C 13.449219 12.1875 13.320312 12.351562 13.214844 12.535156 C 13.011719 12.878906 12.921875 13.253906 12.90625 13.644531 C 12.882812 14.074219 12.890625 14.507812 12.898438 14.941406 C 12.914062 15.84375 12.902344 16.742188 12.785156 17.640625 C 12.773438 17.71875 12.757812 17.789062 12.894531 17.863281 Z M 13.292969 19.289062 C 13.28125 19.300781 13.265625 19.316406 13.253906 19.328125 C 13.296875 19.394531 13.335938 19.460938 13.382812 19.527344 C 13.855469 20.230469 14.386719 20.890625 14.960938 21.515625 C 15.21875 21.800781 15.453125 22.101562 15.601562 22.457031 C 15.648438 22.570312 15.738281 22.683594 15.839844 22.746094 C 16.390625 23.09375 16.976562 23.375 17.585938 23.605469 C 18.441406 23.933594 19.324219 23.960938 20.21875 23.769531 C 20.542969 23.699219 20.875 23.648438 21.175781 23.492188 C 21.332031 23.410156 21.472656 23.308594 21.546875 23.144531 C 21.800781 22.605469 21.796875 22.066406 21.492188 21.539062 C 21.386719 21.351562 21.300781 21.351562 21.144531 21.5 C 20.96875 21.660156 20.785156 21.824219 20.585938 21.953125 C 19.980469 22.34375 19.296875 22.53125 18.597656 22.675781 C 18.085938 22.78125 17.617188 22.667969 17.179688 22.417969 C 16.957031 22.292969 16.746094 22.148438 16.542969 21.988281 C 15.96875 21.539062 15.445312 21.03125 14.941406 20.503906 C 14.597656 20.144531 14.230469 19.8125 13.816406 19.53125 C 13.65625 19.421875 13.488281 19.324219 13.292969 19.289062 Z M 15.359375 22.714844 C 15.375 22.480469 15.25 22.28125 15.105469 22.101562 C 14.832031 21.765625 14.53125 21.449219 14.261719 21.105469 C 13.824219 20.542969 13.402344 19.972656 12.980469 19.398438 C 12.6875 19 12.414062 18.585938 12.109375 18.195312 C 11.851562 17.863281 11.523438 17.597656 11.128906 17.417969 C 10.949219 17.332031 10.757812 17.292969 10.554688 17.308594 C 10.210938 17.332031 9.980469 17.621094 10.035156 17.953125 C 10.078125 18.226562 10.1875 18.46875 10.386719 18.664062 C 10.519531 18.796875 10.65625 18.925781 10.796875 19.050781 C 11.136719 19.34375 11.519531 19.597656 11.796875 19.957031 C 12.242188 20.53125 12.6875 21.109375 13.117188 21.691406 C 13.40625 22.085938 13.703125 22.472656 14.058594 22.808594 C 14.238281 22.980469 14.4375 23.132812 14.679688 23.214844 C 15.105469 23.359375 15.359375 23.175781 15.359375 22.714844 Z M 16.457031 14.03125 C 16.496094 13.984375 16.550781 13.949219 16.566406 13.902344 C 16.722656 13.472656 16.828125 13.035156 16.84375 12.578125 C 16.847656 12.359375 16.804688 12.171875 16.574219 12.0625 C 16.453125 12.007812 16.351562 11.910156 16.246094 11.824219 C 15.902344 11.546875 15.667969 11.195312 15.542969 10.777344 C 15.421875 10.359375 15.378906 9.933594 15.425781 9.496094 C 15.453125 9.269531 15.46875 9.039062 15.480469 8.808594 C 15.492188 8.6875 15.476562 8.570312 15.328125 8.5 C 15.183594 8.628906 15.03125 8.75 14.894531 8.886719 C 14.105469 9.683594 13.6875 10.675781 13.351562 11.710938 C 13.335938 11.765625 13.351562 11.832031 13.351562 11.925781 C 13.449219 11.871094 13.515625 11.835938 13.582031 11.804688 C 14.066406 11.5625 14.601562 11.777344 14.765625 12.289062 C 14.84375 12.535156 14.863281 12.785156 14.828125 13.039062 C 14.804688 13.191406 14.78125 13.339844 14.761719 13.484375 C 14.796875 13.5 14.8125 13.511719 14.824219 13.511719 C 14.917969 13.488281 15.011719 13.460938 15.105469 13.441406 C 15.6875 13.300781 16.183594 13.496094 16.394531 13.964844 C 16.402344 13.980469 16.421875 13.996094 16.457031 14.03125 Z M 18.917969 18.636719 C 19.007812 18.996094 19 19.304688 18.765625 19.570312 C 18.542969 19.824219 18.234375 19.921875 17.917969 20.003906 C 17.921875 20.015625 17.921875 20.027344 17.925781 20.027344 C 17.984375 20.066406 18.039062 20.101562 18.097656 20.136719 C 18.445312 20.359375 18.746094 20.625 18.964844 20.976562 C 19.171875 21.3125 19.28125 21.664062 19.144531 22.058594 C 19.082031 22.230469 19.132812 22.28125 19.316406 22.230469 C 19.835938 22.078125 20.320312 21.863281 20.746094 21.523438 C 20.90625 21.394531 21.027344 21.238281 21.140625 21.0625 C 21.066406 20.984375 21.003906 20.910156 20.941406 20.839844 C 20.648438 20.5 20.390625 20.148438 20.296875 19.699219 C 20.285156 19.636719 20.238281 19.582031 20.199219 19.527344 C 19.898438 19.148438 19.503906 18.890625 19.078125 18.671875 C 19.054688 18.660156 19.023438 18.660156 18.917969 18.636719 Z M 17.105469 12.390625 C 17.085938 12.660156 17.085938 12.875 17.054688 13.085938 C 16.957031 13.6875 16.746094 14.253906 16.457031 14.789062 C 16.328125 15.023438 16.195312 15.261719 16.042969 15.480469 C 15.828125 15.792969 15.519531 16.011719 15.210938 16.234375 C 14.820312 16.515625 14.425781 16.789062 14.042969 17.082031 C 13.675781 17.359375 13.347656 17.679688 13.066406 18.042969 C 13.035156 18.085938 13.015625 18.136719 12.992188 18.183594 C 13.007812 18.191406 13.019531 18.203125 13.035156 18.214844 C 13.085938 18.175781 13.136719 18.140625 13.183594 18.097656 C 13.792969 17.554688 14.46875 17.105469 15.203125 16.738281 C 15.453125 16.613281 15.695312 16.480469 15.941406 16.355469 C 16.222656 16.210938 16.453125 16.007812 16.671875 15.789062 C 17.292969 15.167969 17.679688 14.417969 17.933594 13.59375 C 17.988281 13.417969 18.007812 13.230469 18.039062 13.046875 C 18.050781 12.96875 18.027344 12.902344 17.953125 12.859375 C 17.675781 12.707031 17.402344 12.554688 17.105469 12.390625 Z M 10.578125 13.554688 C 10.589844 13.550781 10.601562 13.546875 10.617188 13.542969 C 10.617188 13.507812 10.617188 13.472656 10.617188 13.4375 C 10.617188 12.34375 10.699219 11.253906 10.890625 10.171875 C 10.933594 9.945312 10.824219 9.804688 10.589844 9.777344 C 10.335938 9.75 10.132812 9.855469 9.976562 10.046875 C 9.746094 10.324219 9.710938 10.652344 9.738281 10.992188 C 9.800781 11.792969 10.039062 12.539062 10.414062 13.246094 C 10.46875 13.347656 10.523438 13.453125 10.578125 13.554688 Z M 18.289062 13.25 C 18.035156 14.347656 17.550781 15.328125 16.671875 16.140625 C 16.753906 16.132812 16.78125 16.132812 16.808594 16.125 C 17.199219 16.046875 17.589844 15.953125 17.980469 15.890625 C 18.140625 15.863281 18.269531 15.800781 18.378906 15.699219 C 18.570312 15.523438 18.703125 15.3125 18.761719 15.054688 C 18.921875 14.390625 18.703125 13.8125 18.339844 13.265625 C 18.332031 13.257812 18.3125 13.257812 18.289062 13.25 Z M 10.234375 7.378906 C 10.3125 8.125 10.335938 8.855469 10.113281 9.597656 C 10.4375 9.472656 10.710938 9.476562 10.976562 9.65625 C 11.132812 9.113281 11.28125 8.589844 11.441406 8.039062 C 10.964844 7.957031 10.640625 7.617188 10.234375 7.378906 Z M 10.234375 7.378906 " fill-opacity="1" fill-rule="nonzero"/></g></svg>