<svg xmlns="http://www.w3.org/2000/svg" xmlns:xlink="http://www.w3.org/1999/xlink" width="400" zoomAndPan="magnify" viewBox="0 0 300 299.999988" height="400" preserveAspectRatio="xMidYMid meet" version="1.0"><defs><clipPath id="id1"><path d="M 262 99 L 278.894531 99 L 278.894531 128 L 262 128 Z M 262 99 " clip-rule="nonzero"/></clipPath><clipPath id="id2"><path d="M 61.242188 229.007812 L 89.589844 229.007812 L 89.589844 278.46875 L 61.242188 278.46875 Z M 61.242188 229.007812 " clip-rule="nonzero"/></clipPath><clipPath id="id3"><path d="M 213.808594 229.007812 L 242 229.007812 L 242 278.46875 L 213.808594 278.46875 Z M 213.808594 229.007812 " clip-rule="nonzero"/></clipPath></defs><rect x="-30" width="360" fill="#ffffff" y="-29.999999" height="359.999986" fill-opacity="1"/><rect x="-30" width="360" fill="#d1dd82" y="-29.999999" height="359.999986" fill-opacity="1"/><path fill="#5f3b28" d="M 252.910156 127.015625 L 251.5 121.359375 L 265.011719 117.988281 L 266.425781 123.648438 L 252.910156 127.015625 " fill-opacity="1" fill-rule="nonzero"/><g clip-path="url(#id1)"><path fill="#5f3b28" d="M 274.15625 127.859375 L 266.601562 127.859375 C 264.0625 127.859375 262.007812 125.804688 262.007812 123.269531 L 262.007812 104.464844 C 262.007812 101.929688 264.0625 99.875 266.601562 99.875 L 274.15625 99.875 C 276.695312 99.875 278.753906 101.929688 278.753906 104.464844 L 278.753906 123.269531 C 278.753906 125.804688 276.695312 127.859375 274.15625 127.859375 " fill-opacity="1" fill-rule="nonzero"/></g><path fill="#5f3b28" d="M 46.878906 127.015625 L 33.367188 123.648438 L 34.777344 117.988281 L 48.289062 121.359375 L 46.878906 127.015625 " fill-opacity="1" fill-rule="nonzero"/><path fill="#5f3b28" d="M 25.632812 127.859375 L 33.1875 127.859375 C 35.726562 127.859375 37.785156 125.804688 37.785156 123.269531 L 37.785156 104.464844 C 37.785156 101.929688 35.726562 99.875 33.1875 99.875 L 25.632812 99.875 C 23.09375 99.875 21.039062 101.929688 21.039062 104.464844 L 21.039062 123.269531 C 21.039062 125.804688 23.09375 127.859375 25.632812 127.859375 " fill-opacity="1" fill-rule="nonzero"/><g clip-path="url(#id2)"><path fill="#5f3b28" d="M 81.042969 278.484375 L 69.863281 278.484375 C 65.261719 278.484375 61.527344 274.753906 61.527344 270.152344 L 61.527344 237.742188 C 61.527344 233.140625 65.261719 229.410156 69.863281 229.410156 L 81.042969 229.410156 C 85.648438 229.410156 89.378906 233.140625 89.378906 237.742188 L 89.378906 270.152344 C 89.378906 274.753906 85.648438 278.484375 81.042969 278.484375 " fill-opacity="1" fill-rule="nonzero"/></g><g clip-path="url(#id3)"><path fill="#5f3b28" d="M 233.394531 278.484375 L 222.214844 278.484375 C 217.609375 278.484375 213.878906 274.753906 213.878906 270.152344 L 213.878906 237.742188 C 213.878906 233.140625 217.609375 229.410156 222.214844 229.410156 L 233.394531 229.410156 C 238 229.410156 241.730469 233.140625 241.730469 237.742188 L 241.730469 270.152344 C 241.730469 274.753906 238 278.484375 233.394531 278.484375 " fill-opacity="1" fill-rule="nonzero"/></g><path fill="#f7d8af" d="M 218.96875 223.953125 C 176.8125 230.871094 131.742188 231.171875 83.070312 223.265625 C 68.941406 220.972656 57.4375 210.65625 53.667969 196.851562 C 47.933594 175.882812 45.835938 153.617188 46.578125 130.335938 C 47.394531 104.847656 51.621094 78.144531 58.21875 50.59375 C 60.160156 42.476562 66.183594 35.703125 74.238281 33.515625 C 119.410156 21.238281 191.433594 22.835938 229.371094 33.296875 C 237.824219 35.625 243.996094 42.941406 245.59375 51.5625 C 250.625 78.671875 253.726562 105.015625 254.222656 130.335938 C 254.667969 152.820312 253.070312 174.496094 248.96875 195.1875 C 246.011719 210.101562 233.976562 221.488281 218.96875 223.953125 " fill-opacity="1" fill-rule="nonzero"/><path fill="#5f3b28" d="M 151.898438 26.308594 C 122.421875 26.308594 95.0625 29.34375 74.613281 34.902344 C 67.25 36.902344 61.503906 43.042969 59.617188 50.925781 C 52.582031 80.304688 48.789062 106.292969 48.019531 130.378906 C 47.253906 154.351562 49.621094 176.589844 55.054688 196.472656 C 58.667969 209.6875 69.75 219.648438 83.300781 221.847656 C 129.867188 229.40625 175.433594 229.640625 218.734375 222.53125 L 218.96875 223.953125 L 218.734375 222.53125 C 233.167969 220.164062 244.746094 209.0625 247.554688 194.90625 C 251.484375 175.105469 253.242188 153.386719 252.785156 130.363281 C 252.308594 106.144531 249.492188 80.453125 244.179688 51.824219 C 242.640625 43.53125 236.675781 36.800781 228.988281 34.683594 C 210.339844 29.539062 183.191406 26.492188 154.507812 26.316406 C 153.636719 26.3125 152.765625 26.308594 151.898438 26.308594 Z M 154.363281 230.570312 C 130.898438 230.570312 107.007812 228.609375 82.839844 224.6875 C 68.179688 222.304688 56.183594 211.53125 52.277344 197.230469 C 46.769531 177.070312 44.367188 154.546875 45.140625 130.289062 C 45.917969 106.007812 49.738281 79.828125 56.820312 50.257812 C 58.953125 41.351562 65.480469 34.40625 73.859375 32.128906 C 95.15625 26.339844 123.804688 23.257812 154.527344 23.441406 C 183.453125 23.617188 210.871094 26.703125 229.753906 31.910156 C 238.496094 34.320312 245.269531 41.933594 247.007812 51.300781 C 252.351562 80.085938 255.183594 105.929688 255.664062 130.304688 C 256.125 153.539062 254.34375 175.460938 250.378906 195.46875 C 247.339844 210.792969 234.8125 222.8125 219.203125 225.371094 C 198.078125 228.839844 176.410156 230.570312 154.363281 230.570312 " fill-opacity="1" fill-rule="nonzero"/><path fill="#5f3b28" d="M 246.425781 107.480469 C 246.425781 114.535156 240.710938 120.253906 233.652344 120.253906 L 68.21875 118.808594 C 61.164062 118.808594 55.449219 113.089844 55.449219 106.035156 L 64.714844 53.882812 C 64.714844 46.828125 74.566406 42.382812 81.621094 42.382812 L 218.992188 42.382812 C 226.050781 42.382812 238.167969 46.828125 238.167969 53.882812 L 246.425781 107.480469 " fill-opacity="1" fill-rule="nonzero"/><path fill="#f7d8af" d="M 155.039062 37.492188 L 155.039062 123.699219 L 145.683594 123.699219 L 145.683594 37.492188 L 155.039062 37.492188 " fill-opacity="1" fill-rule="nonzero"/><path fill="#f7d8af" d="M 221.078125 246.210938 C 177.765625 253.566406 131.375 253.925781 81.152344 245.566406 C 68.328125 243.429688 54.179688 232.324219 50.601562 219.832031 C 44.425781 198.246094 45.8125 177.011719 46.578125 152.945312 L 254.222656 152.945312 C 254.683594 176.039062 256.554688 196.402344 252.207031 217.597656 C 249.386719 231.328125 234.90625 243.867188 221.078125 246.210938 " fill-opacity="1" fill-rule="nonzero"/><path fill="#5f3b28" d="M 47.972656 154.382812 C 47.921875 155.992188 47.867188 157.585938 47.8125 159.171875 C 47.058594 181.042969 46.40625 199.933594 51.988281 219.433594 C 55.269531 230.910156 68.460938 241.992188 81.390625 244.144531 C 129.382812 252.136719 176.300781 252.355469 220.839844 244.796875 L 221.078125 246.210938 L 220.839844 244.796875 C 234.492188 242.476562 248.210938 229.890625 250.796875 217.304688 C 254.269531 200.394531 253.726562 183.769531 253.15625 166.164062 C 253.03125 162.335938 252.902344 158.394531 252.816406 154.382812 Z M 154.359375 253.183594 C 130.277344 253.183594 105.742188 251.117188 80.917969 246.984375 C 66.996094 244.664062 52.777344 232.664062 49.21875 220.226562 C 43.511719 200.289062 44.203125 180.269531 44.933594 159.070312 C 45.003906 157.035156 45.074219 154.976562 45.140625 152.902344 L 45.1875 151.507812 L 255.632812 151.507812 L 255.664062 152.917969 C 255.75 157.394531 255.894531 161.804688 256.03125 166.070312 C 256.609375 183.847656 257.15625 200.640625 253.613281 217.886719 C 250.769531 231.75 236.28125 245.09375 221.320312 247.632812 C 199.515625 251.332031 177.140625 253.183594 154.359375 253.183594 " fill-opacity="1" fill-rule="nonzero"/><path fill="#ff9549" d="M 254.296875 202.359375 C 251.476562 216.097656 234.902344 221.257812 221.078125 223.601562 C 207.894531 225.832031 194.4375 227.425781 180.671875 228.316406 C 175.96875 228.628906 171.226562 228.847656 166.445312 228.988281 L 165.863281 229.003906 C 160.777344 229.152344 155.640625 229.199219 150.460938 229.144531 C 150.402344 229.152344 150.335938 229.152344 150.277344 229.144531 C 145.144531 229.09375 139.96875 228.953125 134.746094 228.703125 L 134.15625 228.667969 C 129.40625 228.449219 124.613281 228.136719 119.78125 227.746094 C 107.160156 226.726562 94.289062 225.132812 81.148438 222.949219 C 68.328125 220.816406 51.15625 212.085938 47.585938 199.589844 C 44.976562 190.496094 44.257812 181.046875 44.347656 171.351562 C 44.390625 167.085938 44.585938 162.777344 44.855469 158.433594 C 44.855469 158.261719 44.871094 158.085938 44.886719 157.917969 C 45.183594 153.085938 45.558594 148.207031 45.886719 143.296875 C 46.179688 138.996094 46.441406 134.671875 46.578125 130.335938 L 254.222656 130.335938 C 254.304688 134.527344 254.511719 138.867188 254.753906 143.304688 C 255.015625 148.109375 255.335938 153.023438 255.613281 157.941406 L 255.636719 158.457031 C 255.882812 162.769531 256.09375 167.101562 256.210938 171.378906 C 256.519531 182.335938 256.21875 192.984375 254.296875 202.359375 " fill-opacity="1" fill-rule="nonzero"/><path fill="#5f3b28" d="M 150.367188 227.707031 L 150.476562 227.707031 C 155.539062 227.761719 160.703125 227.714844 165.820312 227.566406 L 166.402344 227.550781 C 171.214844 227.410156 175.984375 227.1875 180.574219 226.882812 C 194 226.015625 207.546875 224.433594 220.835938 222.183594 C 240.300781 218.882812 250.785156 212.304688 252.886719 202.074219 C 254.539062 194.023438 255.136719 184.28125 254.773438 171.417969 C 254.671875 167.703125 254.496094 163.730469 254.199219 158.539062 L 254.175781 158.007812 C 254.050781 155.816406 253.917969 153.609375 253.789062 151.414062 C 253.625 148.714844 253.460938 146.03125 253.320312 143.382812 C 253.136719 140.121094 252.925781 135.945312 252.816406 131.769531 L 47.972656 131.769531 C 47.8125 135.957031 47.554688 139.964844 47.320312 143.394531 C 47.191406 145.339844 47.050781 147.285156 46.914062 149.222656 C 46.710938 152.109375 46.5 155.097656 46.324219 158.003906 L 46.320312 158.054688 C 46.308594 158.179688 46.292969 158.304688 46.292969 158.433594 L 46.292969 158.519531 C 45.984375 163.472656 45.824219 167.554688 45.785156 171.367188 C 45.683594 182.425781 46.695312 191.265625 48.96875 199.195312 C 52.152344 210.328125 67.953125 219.292969 81.386719 221.527344 C 94.367188 223.6875 107.324219 225.292969 119.898438 226.3125 C 124.78125 226.707031 129.597656 227.019531 134.222656 227.230469 L 134.824219 227.265625 C 139.792969 227.507812 145 227.65625 150.292969 227.707031 Z M 154.648438 230.605469 C 153.265625 230.605469 151.890625 230.597656 150.519531 230.582031 C 150.414062 230.589844 150.304688 230.589844 150.203125 230.582031 C 144.894531 230.527344 139.667969 230.378906 134.675781 230.136719 L 134.074219 230.105469 C 129.433594 229.890625 124.582031 229.578125 119.667969 229.179688 C 107.011719 228.15625 93.976562 226.535156 80.914062 224.367188 C 66.792969 222.019531 49.832031 212.675781 46.203125 199.984375 C 43.851562 191.785156 42.804688 182.683594 42.910156 171.339844 C 42.949219 167.488281 43.109375 163.367188 43.417969 158.382812 C 43.417969 158.171875 43.4375 157.980469 43.453125 157.804688 C 43.632812 154.890625 43.839844 151.90625 44.046875 149.019531 C 44.183594 147.085938 44.320312 145.144531 44.449219 143.199219 C 44.710938 139.414062 44.992188 134.925781 45.140625 130.289062 L 45.1875 128.894531 L 255.632812 128.894531 L 255.664062 130.304688 C 255.75 134.890625 255.992188 139.617188 256.191406 143.226562 C 256.335938 145.871094 256.496094 148.546875 256.660156 151.238281 C 256.792969 153.4375 256.925781 155.648438 257.050781 157.859375 L 257.074219 158.386719 C 257.371094 163.597656 257.550781 167.59375 257.648438 171.339844 C 258.019531 184.425781 257.402344 194.375 255.707031 202.652344 C 253.339844 214.179688 242.089844 221.496094 221.316406 225.019531 C 207.929688 227.285156 194.285156 228.878906 180.761719 229.75 C 176.136719 230.058594 171.335938 230.285156 166.484375 230.425781 L 165.90625 230.441406 C 162.15625 230.550781 158.386719 230.605469 154.648438 230.605469 " fill-opacity="1" fill-rule="nonzero"/><path fill="#f7d8af" d="M 88.175781 202.363281 C 88.175781 208.839844 82.921875 214.089844 76.445312 214.089844 C 69.96875 214.089844 64.714844 208.839844 64.714844 202.363281 C 64.714844 195.886719 69.96875 190.640625 76.445312 190.640625 C 82.921875 190.640625 88.175781 195.886719 88.175781 202.363281 " fill-opacity="1" fill-rule="nonzero"/><path fill="#5f3b28" d="M 76.445312 192.078125 C 70.769531 192.078125 66.152344 196.691406 66.152344 202.363281 C 66.152344 208.035156 70.769531 212.652344 76.445312 212.652344 C 82.117188 212.652344 86.734375 208.035156 86.734375 202.363281 C 86.734375 196.691406 82.117188 192.078125 76.445312 192.078125 Z M 76.445312 215.527344 C 69.183594 215.527344 63.277344 209.621094 63.277344 202.363281 C 63.277344 195.105469 69.183594 189.199219 76.445312 189.199219 C 83.707031 189.199219 89.613281 195.105469 89.613281 202.363281 C 89.613281 209.621094 83.707031 215.527344 76.445312 215.527344 " fill-opacity="1" fill-rule="nonzero"/><path fill="#f7d8af" d="M 233.652344 202.363281 C 233.652344 208.839844 228.402344 214.089844 221.921875 214.089844 C 215.445312 214.089844 210.195312 208.839844 210.195312 202.363281 C 210.195312 195.886719 215.445312 190.640625 221.921875 190.640625 C 228.402344 190.640625 233.652344 195.886719 233.652344 202.363281 " fill-opacity="1" fill-rule="nonzero"/><path fill="#5f3b28" d="M 221.921875 192.078125 C 216.25 192.078125 211.632812 196.691406 211.632812 202.363281 C 211.632812 208.035156 216.25 212.652344 221.921875 212.652344 C 227.597656 212.652344 232.214844 208.035156 232.214844 202.363281 C 232.214844 196.691406 227.597656 192.078125 221.921875 192.078125 Z M 221.921875 215.527344 C 214.664062 215.527344 208.753906 209.621094 208.753906 202.363281 C 208.753906 195.105469 214.664062 189.199219 221.921875 189.199219 C 229.1875 189.199219 235.089844 195.105469 235.089844 202.363281 C 235.089844 209.621094 229.1875 215.527344 221.921875 215.527344 " fill-opacity="1" fill-rule="nonzero"/><path fill="#f7d8af" d="M 44.886719 157.917969 C 45.183594 153.085938 45.558594 148.207031 45.886719 143.296875 C 94.792969 149.367188 135.136719 183.425781 150.367188 228.875 C 150.402344 228.964844 150.425781 229.054688 150.460938 229.144531 C 150.402344 229.152344 150.335938 229.152344 150.277344 229.144531 C 145.144531 229.09375 139.96875 228.953125 134.746094 228.703125 L 134.15625 228.667969 C 119.675781 191.433594 85.710938 163.832031 44.855469 158.433594 L 44.886719 157.917969 " fill-opacity="1" fill-rule="nonzero"/><path fill="#5f3b28" d="M 135.15625 227.28125 C 139.441406 227.484375 143.902344 227.621094 148.441406 227.683594 C 140.875 206.128906 127.558594 187.0625 109.839844 172.425781 C 91.832031 157.550781 70.210938 148.058594 47.21875 144.917969 C 47.117188 146.355469 47.019531 147.792969 46.914062 149.222656 C 46.730469 151.839844 46.539062 154.542969 46.375 157.191406 C 66.03125 160.03125 84.648438 168.066406 100.292969 180.484375 C 115.824219 192.8125 127.863281 208.980469 135.15625 227.28125 Z M 150.367188 230.585938 C 150.3125 230.585938 150.257812 230.585938 150.203125 230.582031 C 144.894531 230.527344 139.667969 230.378906 134.675781 230.136719 L 133.148438 230.054688 L 132.8125 229.191406 C 125.742188 211.007812 113.878906 194.945312 98.5 182.738281 C 82.910156 170.363281 64.296875 162.453125 44.667969 159.855469 L 43.332031 159.683594 L 43.453125 157.828125 C 43.628906 154.90625 43.839844 151.914062 44.046875 149.019531 C 44.183594 147.085938 44.320312 145.144531 44.449219 143.199219 L 44.550781 141.679688 L 46.0625 141.867188 C 70.164062 144.859375 92.851562 154.660156 111.671875 170.210938 C 130.265625 185.570312 144.121094 205.695312 151.734375 228.414062 C 151.742188 228.445312 151.765625 228.507812 151.785156 228.570312 L 151.8125 228.652344 L 152.417969 230.324219 L 150.65625 230.566406 C 150.5625 230.582031 150.464844 230.585938 150.367188 230.585938 " fill-opacity="1" fill-rule="nonzero"/><path fill="#f7d8af" d="M 255.613281 157.941406 C 255.335938 153.023438 255.015625 148.109375 254.753906 143.304688 C 205.886719 149.417969 165.578125 183.441406 150.367188 228.875 C 150.335938 228.964844 150.3125 229.054688 150.277344 229.144531 C 150.335938 229.152344 150.402344 229.152344 150.460938 229.144531 C 155.640625 229.199219 160.777344 229.152344 165.863281 229.003906 L 166.445312 228.988281 C 180.824219 191.652344 214.757812 163.949219 255.636719 158.457031 L 255.613281 157.941406 " fill-opacity="1" fill-rule="nonzero"/><path fill="#5f3b28" d="M 152.285156 227.722656 C 156.640625 227.746094 161.058594 227.699219 165.449219 227.578125 C 172.695312 209.238281 184.699219 193.03125 200.207031 180.65625 C 215.835938 168.1875 234.453125 160.097656 254.128906 157.214844 C 254.019531 155.277344 253.902344 153.339844 253.789062 151.414062 C 253.65625 149.242188 253.527344 147.078125 253.40625 144.929688 C 230.433594 148.09375 208.835938 157.589844 190.855469 172.453125 C 173.132812 187.101562 159.820312 206.183594 152.285156 227.722656 Z M 154.648438 230.605469 C 153.265625 230.605469 151.890625 230.597656 150.519531 230.582031 C 150.371094 230.589844 150.222656 230.585938 150.082031 230.566406 L 148.320312 230.320312 L 148.953125 228.574219 C 148.972656 228.511719 148.992188 228.445312 149.015625 228.382812 C 156.605469 205.710938 170.441406 185.59375 189.023438 170.234375 C 207.824219 154.695312 230.492188 144.890625 254.578125 141.875 L 256.105469 141.683594 L 256.191406 143.226562 C 256.335938 145.871094 256.496094 148.546875 256.660156 151.238281 C 256.792969 153.4375 256.925781 155.648438 257.050781 157.859375 L 257.050781 157.871094 L 257.136719 159.707031 L 255.828125 159.882812 C 236.1875 162.519531 217.574219 170.480469 202 182.90625 C 186.640625 195.160156 174.808594 211.277344 167.785156 229.503906 L 167.441406 230.398438 L 165.90625 230.441406 C 162.15625 230.550781 158.386719 230.605469 154.648438 230.605469 " fill-opacity="1" fill-rule="nonzero"/></svg>