<svg xmlns="http://www.w3.org/2000/svg" xmlns:xlink="http://www.w3.org/1999/xlink" width="40" zoomAndPan="magnify" viewBox="0 0 30 30.000001" height="40" preserveAspectRatio="xMidYMid meet" version="1.0"><defs><clipPath id="5db02ff269"><path d="M 0.484375 0 L 29.515625 0 L 29.515625 29.03125 L 0.484375 29.03125 Z M 0.484375 0 " clip-rule="nonzero"/></clipPath><clipPath id="38c5c0cdd0"><path d="M 5 4.246094 L 25.257812 4.246094 L 25.257812 24.566406 L 5 24.566406 Z M 5 4.246094 " clip-rule="nonzero"/></clipPath><clipPath id="d071de165f"><path d="M 5 4.246094 L 25.257812 4.246094 L 25.257812 24.566406 L 5 24.566406 Z M 5 4.246094 " clip-rule="nonzero"/></clipPath></defs><g clip-path="url(#5db02ff269)"><path fill="#ffffff" d="M 0.484375 0 L 29.515625 0 L 29.515625 29.03125 L 0.484375 29.03125 Z M 0.484375 0 " fill-opacity="1" fill-rule="nonzero"/><path fill="#e29e28" d="M 0.484375 0 L 29.515625 0 L 29.515625 29.03125 L 0.484375 29.03125 Z M 0.484375 0 " fill-opacity="1" fill-rule="nonzero"/></g><g clip-path="url(#38c5c0cdd0)"><path fill="#43241e" d="M 25.195312 16.367188 C 25.171875 16.582031 25.058594 16.699219 24.941406 16.820312 C 24.914062 16.847656 24.886719 16.875 24.859375 16.90625 C 24.695312 17.089844 24.507812 17.109375 24.296875 17.125 C 24.296875 17.148438 24.296875 17.171875 24.296875 17.199219 C 24.296875 17.257812 24.296875 17.320312 24.300781 17.34375 C 24.328125 17.46875 24.371094 17.953125 24.226562 18.121094 C 24.207031 18.144531 24.1875 18.160156 24.167969 18.167969 C 24.167969 18.171875 24.167969 18.171875 24.167969 18.171875 C 24.179688 18.195312 24.1875 18.210938 24.214844 18.226562 C 24.230469 18.234375 24.238281 18.25 24.234375 18.265625 C 24.167969 18.820312 23.851562 19.136719 23.320312 19.175781 C 23.246094 19.183594 23.171875 19.183594 23.097656 19.183594 C 22.820312 19.183594 22.539062 19.144531 22.238281 19.070312 C 22.390625 19.230469 22.589844 19.484375 22.59375 19.683594 C 22.601562 19.835938 22.546875 19.96875 22.433594 20.078125 C 22.34375 20.164062 22.226562 20.226562 22.109375 20.265625 C 22.203125 20.390625 22.289062 20.527344 22.371094 20.671875 C 22.386719 20.695312 22.398438 20.71875 22.414062 20.746094 C 22.582031 21.035156 22.894531 21.566406 22.761719 21.859375 C 22.667969 22.066406 22.382812 22.132812 22.09375 22.132812 C 21.835938 22.132812 21.566406 22.078125 21.425781 22.027344 C 21.207031 21.945312 20.972656 21.820312 20.71875 21.652344 C 20.691406 21.632812 20.660156 21.613281 20.632812 21.59375 C 20.738281 21.84375 20.84375 22.097656 20.957031 22.339844 C 21.058594 22.558594 21.058594 22.789062 20.960938 22.980469 C 20.863281 23.164062 20.679688 23.292969 20.449219 23.335938 C 20.367188 23.351562 20.289062 23.359375 20.214844 23.359375 C 19.828125 23.359375 19.570312 23.152344 19.300781 22.902344 C 18.839844 22.476562 18.316406 21.976562 17.90625 21.40625 C 17.921875 21.660156 17.914062 21.921875 17.886719 22.140625 C 17.851562 22.386719 17.792969 22.699219 17.640625 22.972656 C 17.546875 23.136719 17.332031 23.402344 17.109375 23.464844 C 17.039062 23.484375 16.96875 23.480469 16.910156 23.457031 C 16.886719 23.484375 16.867188 23.511719 16.851562 23.539062 C 16.707031 23.75 16.601562 23.902344 16.242188 23.925781 C 16.230469 23.925781 16.21875 23.925781 16.207031 23.925781 C 15.628906 23.925781 15.355469 23.035156 15.226562 22.601562 L 15.222656 22.585938 C 15.191406 22.492188 15.167969 22.390625 15.144531 22.289062 C 15.113281 22.476562 15.089844 22.636719 15.066406 22.792969 C 15.054688 22.882812 15.046875 22.972656 15.035156 23.070312 C 14.992188 23.453125 14.941406 23.890625 14.78125 24.226562 C 14.707031 24.378906 14.535156 24.480469 14.261719 24.53125 C 14.121094 24.554688 13.96875 24.566406 13.816406 24.566406 C 13.371094 24.566406 12.925781 24.476562 12.820312 24.378906 C 12.609375 24.1875 12.640625 23.960938 12.664062 23.761719 C 12.679688 23.660156 12.691406 23.5625 12.707031 23.460938 C 12.757812 23.078125 12.804688 22.714844 12.839844 22.335938 C 12.84375 22.265625 12.851562 22.195312 12.859375 22.125 C 12.59375 22.464844 12.199219 22.71875 11.914062 22.882812 C 11.65625 23.03125 11.425781 23.105469 11.222656 23.105469 C 11.152344 23.105469 11.082031 23.097656 11.015625 23.078125 C 10.8125 23.015625 10.648438 22.859375 10.53125 22.609375 C 10.496094 22.542969 10.476562 22.476562 10.460938 22.410156 C 10.292969 22.613281 10.09375 22.773438 9.765625 22.808594 C 9.722656 22.8125 9.683594 22.816406 9.644531 22.816406 C 9.429688 22.816406 9.269531 22.746094 9.167969 22.605469 C 8.9375 22.292969 9.074219 21.703125 9.210938 21.316406 C 8.929688 21.558594 8.625 21.777344 8.277344 21.945312 C 8.046875 22.058594 7.800781 22.125 7.574219 22.140625 C 7.546875 22.144531 7.519531 22.144531 7.496094 22.144531 C 7.28125 22.144531 7.222656 22.070312 7.128906 21.933594 C 7.109375 21.902344 7.082031 21.863281 7.054688 21.824219 C 7.003906 21.761719 6.949219 21.71875 6.890625 21.675781 C 6.777344 21.589844 6.664062 21.5 6.640625 21.289062 C 6.617188 21.085938 6.679688 20.839844 6.804688 20.632812 C 6.976562 20.347656 7.222656 20.113281 7.457031 19.886719 C 7.582031 19.769531 7.703125 19.648438 7.816406 19.523438 C 7.777344 19.527344 7.738281 19.527344 7.695312 19.527344 C 7.296875 19.527344 6.855469 19.378906 6.671875 19.074219 C 6.386719 18.609375 6.730469 18.015625 7.148438 17.617188 C 7.226562 17.542969 7.3125 17.476562 7.398438 17.417969 C 6.957031 17.414062 6.425781 17.1875 6.128906 16.863281 C 5.933594 16.652344 5.855469 16.421875 5.90625 16.199219 C 5.9375 16.054688 6.03125 15.984375 6.125 15.914062 C 6.1875 15.863281 6.25 15.8125 6.289062 15.742188 C 6.316406 15.683594 6.328125 15.621094 6.335938 15.554688 C 6.34375 15.511719 6.347656 15.460938 6.363281 15.414062 C 6.328125 15.40625 6.289062 15.394531 6.253906 15.386719 C 6.226562 15.378906 6.199219 15.371094 6.167969 15.363281 C 5.84375 15.28125 5.238281 15.128906 5.117188 14.832031 C 4.953125 14.429688 5.636719 13.90625 5.921875 13.777344 C 5.953125 13.761719 5.988281 13.75 6.019531 13.734375 L 5.988281 13.71875 C 5.773438 13.601562 5.554688 13.480469 5.402344 13.28125 C 5.273438 13.109375 5.273438 12.980469 5.277344 12.84375 C 5.28125 12.773438 5.28125 12.703125 5.265625 12.617188 C 5.25 12.539062 5.210938 12.480469 5.175781 12.421875 C 5.109375 12.304688 5.035156 12.183594 5.15625 11.976562 C 5.273438 11.769531 5.539062 11.601562 5.800781 11.570312 C 6.066406 11.539062 6.351562 11.589844 6.625 11.65625 C 6.46875 11.4375 6.402344 11.226562 6.386719 10.910156 C 6.367188 10.554688 6.382812 10.15625 6.796875 9.960938 C 7.378906 9.6875 8.234375 9.808594 8.824219 10.050781 C 8.917969 10.089844 9.011719 10.132812 9.113281 10.1875 C 9.035156 10.082031 8.960938 9.992188 8.886719 9.910156 L 8.777344 9.78125 C 8.386719 9.339844 7.988281 8.882812 7.71875 8.371094 C 7.605469 8.15625 7.59375 7.945312 7.683594 7.753906 C 7.804688 7.496094 8.109375 7.285156 8.476562 7.203125 C 8.800781 7.128906 9.125 7.152344 9.5 7.277344 C 9.40625 7.035156 9.339844 6.785156 9.296875 6.503906 C 9.292969 6.480469 9.289062 6.453125 9.285156 6.421875 C 9.230469 6.09375 9.128906 5.488281 9.359375 5.261719 C 9.667969 4.953125 10.429688 5.355469 10.667969 5.5625 C 10.824219 5.699219 10.976562 5.867188 11.136719 6.074219 C 11.144531 6.015625 11.152344 5.957031 11.164062 5.898438 C 11.238281 5.496094 11.398438 5.207031 11.640625 5.046875 C 11.871094 4.894531 12.179688 4.851562 12.558594 4.925781 C 13 5.011719 13.285156 5.210938 13.488281 5.582031 C 13.675781 5.3125 13.953125 5.148438 14.210938 5.160156 C 14.824219 5.191406 15.191406 5.5625 15.46875 5.941406 C 15.535156 5.738281 15.609375 5.546875 15.691406 5.363281 C 15.894531 4.921875 16.191406 4.390625 16.464844 4.34375 C 16.527344 4.335938 16.585938 4.351562 16.636719 4.390625 C 16.734375 4.285156 16.832031 4.242188 16.925781 4.269531 C 17.125 4.320312 17.277344 4.664062 17.390625 5.285156 C 17.792969 5.007812 18.085938 4.902344 18.289062 4.957031 C 18.378906 4.980469 18.453125 5.039062 18.5 5.128906 C 18.734375 5.035156 18.933594 5.054688 19.070312 5.179688 C 19.25 5.347656 19.28125 5.691406 19.152344 6.011719 L 19.066406 6.21875 C 18.996094 6.394531 18.921875 6.574219 18.847656 6.753906 C 18.964844 6.703125 19.070312 6.695312 19.160156 6.722656 C 19.386719 6.386719 19.609375 6.078125 20.09375 6.007812 C 20.402344 5.964844 20.628906 6.03125 20.765625 6.210938 C 21.113281 6.648438 20.800781 7.625 20.652344 7.964844 C 20.566406 8.164062 20.484375 8.34375 20.402344 8.515625 C 20.558594 8.394531 20.722656 8.289062 20.898438 8.199219 C 21.09375 8.101562 21.300781 8.058594 21.5 8.015625 C 21.777344 7.957031 22.039062 7.902344 22.261719 7.71875 C 22.289062 7.695312 22.316406 7.671875 22.34375 7.648438 C 22.492188 7.519531 22.640625 7.386719 22.875 7.429688 C 23.097656 7.46875 23.253906 7.660156 23.292969 7.941406 C 23.363281 8.453125 23.132812 8.910156 22.925781 9.203125 C 22.84375 9.316406 22.753906 9.433594 22.660156 9.546875 C 22.886719 9.546875 23.101562 9.632812 23.324219 9.800781 C 23.351562 9.820312 23.375 9.839844 23.394531 9.855469 C 23.519531 9.953125 23.542969 9.976562 23.730469 10.027344 C 23.921875 10.082031 24.050781 10.148438 24.179688 10.269531 C 24.425781 10.492188 24.578125 10.832031 24.582031 11.183594 C 24.589844 11.511719 24.472656 11.8125 24.253906 12.023438 C 24.117188 12.15625 23.933594 12.265625 23.738281 12.359375 C 24.027344 12.402344 24.316406 12.496094 24.519531 12.664062 C 24.691406 12.808594 24.785156 12.988281 24.800781 13.203125 C 24.828125 13.648438 24.539062 14.074219 24.414062 14.238281 C 24.273438 14.421875 24.113281 14.554688 23.902344 14.664062 C 23.808594 14.710938 23.691406 14.734375 23.582031 14.757812 C 23.539062 14.769531 23.503906 14.777344 23.464844 14.785156 C 23.773438 14.90625 24.046875 15.046875 24.285156 15.214844 L 24.324219 15.246094 C 24.667969 15.484375 25.246094 15.890625 25.195312 16.367188 Z M 25.195312 16.367188 " fill-opacity="1" fill-rule="nonzero"/><path fill="#f6e5cf" d="M 22.300781 20.710938 C 22.3125 20.734375 22.328125 20.757812 22.34375 20.789062 C 22.503906 21.0625 22.800781 21.570312 22.683594 21.828125 C 22.539062 22.152344 21.746094 22.058594 21.457031 21.949219 C 21.242188 21.871094 21.015625 21.75 20.765625 21.585938 C 20.699219 21.542969 20.636719 21.5 20.574219 21.453125 C 20.566406 21.433594 20.554688 21.410156 20.546875 21.386719 C 20.320312 20.847656 20.089844 20.285156 19.800781 19.769531 C 19.753906 19.683594 19.707031 19.605469 19.660156 19.527344 C 19.84375 19.613281 20.023438 19.707031 20.199219 19.804688 C 20.660156 20.050781 21.136719 20.308594 21.683594 20.328125 C 21.695312 20.328125 21.707031 20.328125 21.71875 20.328125 C 21.8125 20.328125 21.917969 20.316406 22.023438 20.289062 C 22.121094 20.421875 22.214844 20.558594 22.300781 20.710938 Z M 6.390625 15.335938 C 6.40625 15.300781 6.429688 15.265625 6.457031 15.230469 C 6.699219 14.929688 7.183594 14.695312 7.535156 14.527344 C 7.574219 14.507812 7.609375 14.492188 7.644531 14.472656 C 7.703125 14.445312 7.765625 14.417969 7.832031 14.394531 C 7.214844 14.269531 6.625 14.058594 6.113281 13.785156 C 6.058594 13.804688 6.007812 13.828125 5.957031 13.851562 C 5.675781 13.980469 5.058594 14.46875 5.191406 14.800781 C 5.296875 15.058594 5.878906 15.207031 6.191406 15.285156 C 6.222656 15.292969 6.25 15.300781 6.273438 15.308594 C 6.3125 15.316406 6.351562 15.328125 6.390625 15.335938 Z M 18.234375 8.554688 C 18.199219 8.699219 18.164062 8.847656 18.132812 8.996094 C 18.050781 9.351562 17.96875 9.71875 17.835938 10.054688 C 17.820312 10.09375 17.796875 10.160156 17.765625 10.242188 C 17.691406 10.449219 17.578125 10.765625 17.457031 11.039062 C 17.464844 11.042969 17.472656 11.046875 17.476562 11.050781 C 17.480469 11.050781 17.480469 11.050781 17.480469 11.050781 C 17.640625 11.144531 17.792969 11.238281 17.933594 11.339844 C 18.363281 10.632812 18.9375 9.929688 19.703125 9.15625 L 19.738281 9.121094 C 19.902344 8.957031 20.074219 8.789062 20.253906 8.636719 C 20.359375 8.421875 20.464844 8.191406 20.578125 7.933594 C 20.785156 7.460938 20.988281 6.625 20.703125 6.257812 C 20.582031 6.105469 20.382812 6.050781 20.105469 6.089844 C 19.644531 6.152344 19.445312 6.453125 19.210938 6.796875 C 19.199219 6.8125 19.175781 6.820312 19.15625 6.8125 C 19.0625 6.769531 18.945312 6.785156 18.804688 6.867188 C 18.605469 7.367188 18.390625 7.953125 18.234375 8.554688 Z M 19.796875 9.175781 L 19.761719 9.214844 C 18.996094 9.980469 18.425781 10.6875 18 11.390625 C 18.011719 11.398438 18.027344 11.410156 18.042969 11.421875 C 18.183594 11.527344 18.316406 11.640625 18.441406 11.761719 C 18.640625 11.957031 18.808594 12.160156 18.949219 12.371094 C 19.023438 12.308594 19.09375 12.242188 19.15625 12.171875 C 19.589844 11.660156 20.039062 11.242188 20.574219 10.855469 C 20.789062 10.699219 21.03125 10.558594 21.261719 10.425781 C 21.589844 10.234375 21.925781 10.035156 22.199219 9.789062 C 22.277344 9.71875 22.355469 9.648438 22.425781 9.578125 C 22.429688 9.570312 22.4375 9.566406 22.445312 9.566406 C 22.480469 9.558594 22.515625 9.554688 22.546875 9.550781 C 22.660156 9.421875 22.765625 9.289062 22.855469 9.15625 C 23.054688 8.875 23.28125 8.441406 23.210938 7.953125 C 23.195312 7.835938 23.128906 7.554688 22.859375 7.507812 C 22.667969 7.472656 22.542969 7.582031 22.398438 7.707031 C 22.371094 7.730469 22.34375 7.757812 22.316406 7.78125 C 22.078125 7.976562 21.792969 8.035156 21.519531 8.09375 C 21.324219 8.136719 21.121094 8.179688 20.933594 8.273438 C 20.503906 8.488281 20.136719 8.835938 19.796875 9.175781 Z M 22.476562 9.644531 C 22.40625 9.710938 22.332031 9.78125 22.253906 9.847656 C 21.976562 10.101562 21.632812 10.300781 21.304688 10.492188 C 21.074219 10.628906 20.835938 10.765625 20.625 10.921875 C 20.09375 11.304688 19.648438 11.71875 19.21875 12.222656 C 19.152344 12.300781 19.074219 12.375 18.992188 12.441406 C 19.035156 12.507812 19.074219 12.574219 19.109375 12.644531 C 19.136719 12.695312 19.160156 12.746094 19.179688 12.796875 C 19.253906 12.960938 19.308594 13.136719 19.347656 13.339844 C 19.742188 13.152344 20.214844 13.023438 20.597656 12.921875 C 20.65625 12.90625 20.714844 12.890625 20.765625 12.875 C 20.882812 12.84375 21.007812 12.816406 21.125 12.789062 C 21.335938 12.746094 21.550781 12.699219 21.742188 12.621094 L 21.800781 12.597656 C 21.929688 12.542969 22.039062 12.496094 22.152344 12.457031 C 22.152344 12.457031 22.15625 12.457031 22.15625 12.457031 C 22.15625 12.453125 22.160156 12.453125 22.160156 12.453125 C 22.269531 12.4375 22.375 12.421875 22.476562 12.402344 C 22.621094 12.378906 22.769531 12.351562 22.917969 12.335938 C 23.089844 12.320312 23.328125 12.3125 23.582031 12.339844 C 23.820312 12.238281 24.039062 12.117188 24.195312 11.964844 C 24.398438 11.769531 24.503906 11.492188 24.5 11.183594 C 24.496094 10.855469 24.355469 10.535156 24.125 10.328125 C 24.003906 10.21875 23.886719 10.15625 23.707031 10.105469 C 23.507812 10.046875 23.472656 10.019531 23.34375 9.917969 C 23.320312 9.902344 23.300781 9.886719 23.273438 9.863281 C 23.003906 9.660156 22.757812 9.589844 22.476562 9.644531 Z M 24.222656 17.359375 C 24.214844 17.328125 24.214844 17.269531 24.214844 17.199219 C 24.214844 17.179688 24.214844 17.15625 24.214844 17.132812 C 24.109375 17.140625 24 17.144531 23.886719 17.144531 C 23.851562 17.144531 23.816406 17.144531 23.777344 17.140625 C 23.132812 17.128906 22.484375 17 21.855469 16.875 C 21.769531 16.859375 21.683594 16.84375 21.601562 16.828125 C 21.078125 16.726562 20.570312 16.585938 20.144531 16.460938 C 19.960938 16.40625 19.769531 16.359375 19.585938 16.316406 C 19.480469 16.292969 19.378906 16.265625 19.273438 16.242188 C 19.210938 16.492188 19.121094 16.730469 19.015625 16.949219 C 19.003906 16.976562 18.992188 17 18.980469 17.023438 C 18.988281 17.03125 19 17.039062 19.007812 17.046875 C 19.027344 17.0625 19.042969 17.074219 19.058594 17.089844 C 19.085938 17.109375 19.113281 17.128906 19.136719 17.152344 C 19.152344 17.164062 19.171875 17.175781 19.1875 17.1875 C 19.214844 17.210938 19.242188 17.230469 19.273438 17.253906 C 19.285156 17.261719 19.300781 17.273438 19.3125 17.285156 C 19.347656 17.308594 19.382812 17.332031 19.417969 17.359375 C 19.425781 17.363281 19.433594 17.371094 19.441406 17.378906 C 19.484375 17.410156 19.527344 17.4375 19.570312 17.46875 C 19.707031 17.570312 19.847656 17.671875 19.984375 17.773438 C 20.054688 17.828125 20.125 17.886719 20.199219 17.941406 C 20.492188 18.171875 20.769531 18.390625 21.101562 18.546875 C 21.375 18.675781 21.738281 18.835938 22.117188 18.949219 C 22.546875 19.078125 22.9375 19.125 23.3125 19.09375 C 23.914062 19.046875 24.101562 18.632812 24.148438 18.28125 C 24.117188 18.253906 24.105469 18.230469 24.09375 18.207031 C 24.085938 18.195312 24.078125 18.183594 24.070312 18.171875 C 24.058594 18.160156 24.054688 18.140625 24.0625 18.128906 C 24.066406 18.113281 24.085938 18.101562 24.101562 18.101562 C 24.125 18.101562 24.144531 18.09375 24.164062 18.070312 C 24.269531 17.941406 24.253906 17.515625 24.222656 17.359375 Z M 10.445312 22.296875 C 10.425781 22.042969 10.515625 21.796875 10.601562 21.554688 C 10.640625 21.4375 10.6875 21.3125 10.714844 21.191406 C 10.757812 21.015625 10.792969 20.847656 10.824219 20.679688 C 10.878906 20.40625 10.925781 20.148438 11.015625 19.875 C 11.105469 19.605469 11.214844 19.359375 11.371094 19.097656 C 11.339844 19.128906 11.308594 19.160156 11.273438 19.195312 C 11.113281 19.355469 10.945312 19.519531 10.78125 19.683594 C 10.585938 19.886719 10.390625 20.097656 10.207031 20.300781 C 9.933594 20.605469 9.652344 20.914062 9.34375 21.195312 C 9.171875 21.609375 9.015625 22.257812 9.234375 22.558594 C 9.335938 22.699219 9.511719 22.753906 9.753906 22.730469 C 10.085938 22.695312 10.273438 22.519531 10.445312 22.296875 Z M 15.191406 21.5625 L 15.195312 21.550781 C 15.351562 20.726562 15.375 19.875 15.265625 19.015625 C 15.261719 19.015625 15.257812 19.015625 15.253906 19.015625 C 15.207031 19.015625 15.144531 19.019531 15.085938 19.019531 C 15.011719 19.019531 14.9375 19.015625 14.902344 19.011719 C 14.753906 18.988281 14.597656 18.980469 14.449219 18.972656 C 14.363281 18.96875 14.273438 18.960938 14.183594 18.957031 C 14.011719 18.941406 13.835938 18.90625 13.648438 18.855469 C 13.605469 18.992188 13.566406 19.140625 13.519531 19.304688 C 13.363281 19.898438 13.203125 20.523438 13.078125 21.171875 C 13.039062 21.378906 13.007812 21.589844 12.980469 21.800781 C 12.953125 21.980469 12.933594 22.164062 12.921875 22.339844 C 12.886719 22.722656 12.839844 23.085938 12.789062 23.472656 C 12.773438 23.570312 12.761719 23.671875 12.746094 23.773438 C 12.71875 23.996094 12.710938 24.167969 12.878906 24.320312 C 12.988281 24.421875 13.71875 24.550781 14.246094 24.449219 C 14.414062 24.417969 14.632812 24.347656 14.707031 24.195312 C 14.863281 23.867188 14.910156 23.441406 14.953125 23.0625 C 14.964844 22.964844 14.972656 22.871094 14.984375 22.78125 C 15.015625 22.570312 15.050781 22.339844 15.101562 22.0625 C 15.101562 22.058594 15.101562 22.058594 15.101562 22.054688 C 15.128906 21.890625 15.160156 21.726562 15.191406 21.5625 Z M 15.222656 8.835938 C 15.226562 9.1875 15.226562 9.546875 15.210938 9.902344 C 15.207031 9.992188 15.199219 10.082031 15.191406 10.167969 C 15.1875 10.214844 15.1875 10.257812 15.183594 10.304688 C 15.203125 10.304688 15.226562 10.304688 15.246094 10.304688 C 15.453125 10.308594 15.644531 10.308594 15.855469 10.375 C 16.085938 10.449219 16.289062 10.519531 16.476562 10.589844 C 16.484375 10.59375 16.492188 10.597656 16.503906 10.597656 C 16.515625 10.570312 16.527344 10.539062 16.535156 10.507812 C 16.601562 10.292969 16.65625 10.066406 16.707031 9.847656 L 16.765625 9.605469 C 16.863281 9.199219 16.960938 8.777344 17.046875 8.363281 C 17.078125 8.207031 17.109375 8.050781 17.144531 7.898438 C 17.308594 7.125 17.464844 6.394531 17.351562 5.570312 C 17.351562 5.558594 17.347656 5.542969 17.34375 5.53125 C 17.339844 5.484375 17.332031 5.425781 17.320312 5.359375 C 17.21875 4.757812 17.066406 4.390625 16.90625 4.347656 C 16.835938 4.328125 16.757812 4.371094 16.671875 4.472656 C 16.664062 4.480469 16.652344 4.488281 16.640625 4.488281 C 16.628906 4.488281 16.617188 4.484375 16.609375 4.476562 C 16.570312 4.433594 16.527344 4.417969 16.480469 4.425781 C 16.296875 4.453125 16.039062 4.808594 15.769531 5.394531 C 15.675781 5.597656 15.59375 5.8125 15.523438 6.042969 C 15.523438 6.042969 15.523438 6.042969 15.523438 6.046875 C 15.484375 6.183594 15.445312 6.328125 15.410156 6.488281 C 15.386719 6.585938 15.367188 6.683594 15.347656 6.789062 C 15.21875 7.464844 15.222656 8.164062 15.222656 8.835938 Z M 8.003906 14.347656 C 8.316406 14.402344 8.632812 14.4375 8.9375 14.449219 C 9.089844 14.453125 9.238281 14.453125 9.382812 14.453125 C 9.421875 14.453125 9.460938 14.453125 9.5 14.453125 C 9.507812 14.453125 9.515625 14.453125 9.523438 14.453125 C 9.554688 14.453125 9.582031 14.453125 9.613281 14.453125 C 9.625 14.453125 9.640625 14.453125 9.652344 14.453125 C 9.675781 14.453125 9.703125 14.453125 9.726562 14.453125 C 9.742188 14.453125 9.757812 14.457031 9.769531 14.457031 C 9.792969 14.457031 9.816406 14.457031 9.839844 14.457031 C 9.855469 14.460938 9.871094 14.460938 9.886719 14.460938 C 9.910156 14.460938 9.929688 14.464844 9.953125 14.464844 C 9.96875 14.464844 9.984375 14.46875 10 14.46875 C 10.023438 14.46875 10.046875 14.472656 10.070312 14.472656 C 10.085938 14.476562 10.101562 14.476562 10.117188 14.480469 C 10.144531 14.480469 10.167969 14.484375 10.195312 14.488281 C 10.207031 14.492188 10.222656 14.492188 10.234375 14.492188 C 10.273438 14.5 10.3125 14.507812 10.355469 14.511719 C 10.429688 14.527344 10.515625 14.535156 10.601562 14.539062 C 10.640625 13.953125 10.773438 13.367188 10.992188 12.84375 C 10.96875 12.835938 10.945312 12.828125 10.921875 12.820312 C 10.90625 12.8125 10.890625 12.808594 10.875 12.800781 C 10.851562 12.792969 10.824219 12.785156 10.800781 12.777344 C 10.785156 12.773438 10.769531 12.769531 10.757812 12.765625 C 10.726562 12.753906 10.699219 12.746094 10.671875 12.738281 C 10.660156 12.734375 10.648438 12.730469 10.640625 12.726562 C 10.601562 12.714844 10.5625 12.703125 10.523438 12.691406 C 10.421875 12.660156 10.320312 12.628906 10.230469 12.597656 C 10.03125 12.535156 9.832031 12.472656 9.632812 12.417969 C 9.304688 12.328125 8.976562 12.25 8.65625 12.191406 C 8.519531 12.167969 8.386719 12.140625 8.257812 12.113281 C 8.125 12.082031 7.996094 12.054688 7.867188 12.023438 C 7.648438 11.972656 7.421875 11.921875 7.195312 11.875 C 7.066406 11.851562 6.9375 11.820312 6.800781 11.785156 L 6.714844 11.761719 C 6.414062 11.6875 6.101562 11.617188 5.808594 11.652344 C 5.578125 11.679688 5.332031 11.832031 5.226562 12.015625 C 5.132812 12.183594 5.179688 12.265625 5.25 12.378906 C 5.285156 12.441406 5.328125 12.511719 5.34375 12.601562 C 5.363281 12.695312 5.363281 12.773438 5.359375 12.847656 C 5.359375 12.980469 5.355469 13.085938 5.46875 13.230469 C 5.609375 13.417969 5.824219 13.535156 6.027344 13.644531 L 6.085938 13.679688 C 6.648438 13.992188 7.3125 14.222656 8.003906 14.347656 Z M 24.277344 15.308594 L 24.238281 15.28125 C 23.914062 15.054688 23.519531 14.871094 23.066406 14.734375 C 22.898438 14.683594 22.71875 14.640625 22.53125 14.601562 C 22.25 14.554688 21.949219 14.515625 21.621094 14.488281 C 20.855469 14.425781 20.144531 14.371094 19.4375 14.367188 C 19.464844 15.082031 19.417969 15.65625 19.292969 16.164062 C 19.398438 16.1875 19.5 16.214844 19.605469 16.238281 C 19.789062 16.28125 19.984375 16.328125 20.167969 16.382812 C 20.59375 16.507812 21.097656 16.648438 21.617188 16.746094 C 21.699219 16.761719 21.785156 16.78125 21.871094 16.796875 C 22.496094 16.921875 23.144531 17.046875 23.78125 17.0625 C 23.9375 17.066406 24.09375 17.0625 24.238281 17.050781 L 24.269531 17.046875 C 24.492188 17.03125 24.648438 17.019531 24.800781 16.851562 C 24.828125 16.820312 24.855469 16.792969 24.882812 16.765625 C 25 16.644531 25.089844 16.546875 25.113281 16.359375 C 25.15625 15.925781 24.605469 15.539062 24.277344 15.308594 Z M 20.46875 21.417969 C 20.246094 20.878906 20.011719 20.320312 19.726562 19.808594 C 19.65625 19.683594 19.589844 19.566406 19.523438 19.457031 C 19.355469 19.1875 19.179688 18.941406 18.988281 18.714844 C 18.925781 18.636719 18.859375 18.5625 18.792969 18.492188 C 18.777344 18.472656 18.761719 18.457031 18.746094 18.4375 C 18.738281 18.433594 18.734375 18.429688 18.730469 18.425781 C 18.71875 18.414062 18.707031 18.398438 18.695312 18.386719 C 18.6875 18.382812 18.679688 18.375 18.675781 18.371094 C 18.664062 18.359375 18.652344 18.347656 18.640625 18.335938 C 18.632812 18.328125 18.625 18.320312 18.617188 18.316406 C 18.609375 18.304688 18.597656 18.292969 18.585938 18.28125 C 18.578125 18.277344 18.570312 18.269531 18.5625 18.261719 C 18.550781 18.25 18.539062 18.242188 18.527344 18.230469 C 18.519531 18.222656 18.511719 18.214844 18.503906 18.207031 C 18.492188 18.199219 18.480469 18.1875 18.46875 18.179688 C 18.460938 18.171875 18.449219 18.164062 18.441406 18.15625 C 18.429688 18.144531 18.417969 18.136719 18.40625 18.125 C 18.398438 18.117188 18.390625 18.109375 18.378906 18.101562 C 18.367188 18.09375 18.359375 18.085938 18.347656 18.074219 C 18.335938 18.066406 18.328125 18.058594 18.316406 18.050781 C 18.304688 18.042969 18.292969 18.03125 18.28125 18.023438 C 18.277344 18.019531 18.269531 18.011719 18.261719 18.007812 C 18.242188 18.023438 18.226562 18.039062 18.210938 18.054688 C 17.859375 18.394531 17.457031 18.644531 17.023438 18.800781 C 16.988281 18.8125 16.953125 18.824219 16.914062 18.835938 C 16.941406 19 16.976562 19.160156 17.027344 19.3125 C 17.171875 19.746094 17.308594 20.105469 17.449219 20.433594 C 17.46875 20.480469 17.488281 20.523438 17.511719 20.570312 C 17.609375 20.789062 17.726562 21 17.878906 21.222656 C 18.300781 21.84375 18.863281 22.386719 19.355469 22.84375 C 19.722656 23.183594 19.992188 23.34375 20.433594 23.257812 C 20.640625 23.21875 20.800781 23.105469 20.886719 22.941406 C 20.972656 22.773438 20.972656 22.566406 20.882812 22.375 C 20.738281 22.0625 20.601562 21.734375 20.46875 21.417969 Z M 9.859375 7.839844 C 9.945312 7.988281 10.027344 8.144531 10.109375 8.296875 C 10.175781 8.421875 10.246094 8.550781 10.316406 8.679688 C 10.4375 8.890625 10.5625 9.101562 10.707031 9.304688 C 10.78125 9.40625 10.855469 9.507812 10.925781 9.601562 C 11.164062 9.925781 11.390625 10.230469 11.574219 10.609375 C 11.695312 10.859375 11.867188 11.085938 12.039062 11.304688 C 12.304688 11.058594 12.605469 10.851562 12.925781 10.699219 C 13.058594 10.632812 13.195312 10.578125 13.332031 10.527344 C 13.363281 10.515625 13.398438 10.507812 13.433594 10.496094 C 13.429688 10.480469 13.429688 10.464844 13.425781 10.453125 C 13.421875 10.417969 13.417969 10.382812 13.410156 10.347656 C 13.40625 10.3125 13.398438 10.277344 13.394531 10.242188 C 13.386719 10.210938 13.382812 10.175781 13.375 10.140625 C 13.367188 10.109375 13.363281 10.074219 13.355469 10.042969 C 13.347656 10.007812 13.339844 9.972656 13.335938 9.941406 C 13.328125 9.910156 13.320312 9.875 13.3125 9.84375 C 13.304688 9.8125 13.296875 9.777344 13.289062 9.746094 C 13.28125 9.714844 13.273438 9.683594 13.265625 9.652344 C 13.253906 9.621094 13.246094 9.585938 13.238281 9.554688 C 13.230469 9.523438 13.21875 9.496094 13.210938 9.464844 C 13.203125 9.433594 13.191406 9.402344 13.183594 9.371094 C 13.171875 9.339844 13.164062 9.3125 13.152344 9.285156 C 13.140625 9.253906 13.132812 9.222656 13.121094 9.191406 C 13.109375 9.164062 13.101562 9.136719 13.089844 9.109375 C 13.078125 9.078125 13.066406 9.050781 13.054688 9.019531 C 13.042969 8.992188 13.03125 8.964844 13.023438 8.9375 C 13.007812 8.910156 12.996094 8.882812 12.984375 8.851562 C 12.972656 8.824219 12.960938 8.800781 12.949219 8.773438 C 12.933594 8.746094 12.921875 8.71875 12.910156 8.691406 C 12.898438 8.664062 12.882812 8.640625 12.867188 8.613281 C 12.855469 8.585938 12.84375 8.5625 12.828125 8.539062 C 12.816406 8.507812 12.800781 8.484375 12.785156 8.457031 C 12.769531 8.433594 12.757812 8.410156 12.746094 8.386719 C 12.726562 8.359375 12.707031 8.332031 12.691406 8.300781 C 12.679688 8.28125 12.667969 8.261719 12.65625 8.246094 C 12.625 8.199219 12.59375 8.152344 12.558594 8.109375 C 12.429688 7.929688 12.285156 7.769531 12.140625 7.609375 C 11.949219 7.398438 11.75 7.175781 11.589844 6.914062 C 11.449219 6.683594 11.300781 6.4375 11.128906 6.203125 C 10.953125 5.960938 10.785156 5.773438 10.613281 5.621094 C 10.4375 5.46875 9.992188 5.230469 9.671875 5.230469 C 9.570312 5.230469 9.480469 5.253906 9.417969 5.316406 C 9.21875 5.515625 9.3125 6.097656 9.367188 6.40625 C 9.371094 6.4375 9.375 6.46875 9.378906 6.492188 C 9.425781 6.796875 9.5 7.066406 9.609375 7.332031 C 9.675781 7.496094 9.757812 7.660156 9.859375 7.839844 Z M 8.242188 21.871094 C 9.015625 21.496094 9.589844 20.859375 10.144531 20.246094 C 10.332031 20.042969 10.523438 19.832031 10.722656 19.628906 C 10.886719 19.460938 11.054688 19.296875 11.214844 19.136719 C 11.339844 19.015625 11.460938 18.894531 11.582031 18.773438 C 11.632812 18.722656 11.683594 18.671875 11.734375 18.617188 C 11.886719 18.464844 12.03125 18.316406 12.148438 18.148438 C 12.128906 18.132812 12.105469 18.117188 12.082031 18.097656 L 12.074219 18.09375 C 12.066406 18.085938 12.058594 18.078125 12.050781 18.074219 C 11.675781 17.78125 11.371094 17.441406 11.136719 17.0625 C 11.128906 17.050781 11.121094 17.039062 11.113281 17.027344 C 10.933594 17.128906 10.738281 17.253906 10.519531 17.402344 C 10.109375 17.679688 9.710938 17.988281 9.324219 18.289062 C 9.261719 18.335938 9.199219 18.386719 9.132812 18.4375 C 9.027344 18.519531 8.921875 18.601562 8.820312 18.683594 C 8.507812 18.933594 8.210938 19.195312 7.949219 19.496094 L 7.9375 19.511719 C 7.808594 19.664062 7.660156 19.804688 7.515625 19.941406 C 7.28125 20.164062 7.042969 20.398438 6.875 20.675781 C 6.757812 20.867188 6.703125 21.09375 6.722656 21.277344 C 6.742188 21.457031 6.835938 21.53125 6.941406 21.609375 C 7.003906 21.65625 7.066406 21.707031 7.121094 21.777344 C 7.152344 21.816406 7.175781 21.855469 7.199219 21.890625 C 7.285156 22.023438 7.324219 22.078125 7.570312 22.058594 C 7.78125 22.046875 8.019531 21.980469 8.242188 21.871094 Z M 17.804688 21.261719 C 17.65625 21.039062 17.53125 20.824219 17.433594 20.605469 C 17.269531 20.238281 17.113281 19.832031 16.949219 19.335938 C 16.898438 19.183594 16.863281 19.023438 16.835938 18.859375 C 16.820312 18.863281 16.804688 18.871094 16.789062 18.875 C 16.488281 18.957031 15.800781 19 15.351562 19.015625 C 15.457031 19.878906 15.433594 20.734375 15.277344 21.566406 L 15.273438 21.578125 C 15.242188 21.738281 15.210938 21.898438 15.183594 22.0625 C 15.210938 22.238281 15.253906 22.40625 15.300781 22.5625 L 15.304688 22.578125 C 15.433594 23 15.699219 23.878906 16.238281 23.84375 C 16.558594 23.824219 16.640625 23.703125 16.78125 23.496094 C 16.804688 23.460938 16.832031 23.421875 16.859375 23.382812 C 16.875 23.363281 16.898438 23.359375 16.914062 23.371094 C 16.96875 23.398438 17.023438 23.402344 17.089844 23.386719 C 17.28125 23.332031 17.484375 23.082031 17.570312 22.933594 C 17.714844 22.671875 17.769531 22.367188 17.804688 22.128906 C 17.832031 21.910156 17.839844 21.636719 17.820312 21.378906 C 17.820312 21.339844 17.8125 21.300781 17.804688 21.261719 Z M 13.441406 19.285156 C 13.484375 19.121094 13.527344 18.972656 13.570312 18.832031 C 13.496094 18.8125 13.421875 18.789062 13.34375 18.761719 C 12.917969 18.609375 12.542969 18.421875 12.214844 18.195312 C 12.09375 18.371094 11.941406 18.523438 11.796875 18.671875 C 11.746094 18.726562 11.695312 18.777344 11.644531 18.828125 C 11.378906 19.214844 11.214844 19.535156 11.09375 19.898438 C 11.007812 20.167969 10.957031 20.425781 10.90625 20.695312 C 10.871094 20.863281 10.839844 21.035156 10.796875 21.210938 C 10.765625 21.335938 10.722656 21.460938 10.679688 21.582031 C 10.558594 21.917969 10.445312 22.238281 10.605469 22.574219 C 10.714844 22.800781 10.859375 22.945312 11.039062 23 C 11.261719 23.066406 11.542969 23.003906 11.871094 22.8125 C 12.175781 22.636719 12.609375 22.355469 12.859375 21.980469 C 12.988281 21.035156 13.214844 20.125 13.441406 19.285156 Z M 9.082031 18.371094 C 9.148438 18.324219 9.210938 18.273438 9.273438 18.222656 C 9.324219 18.1875 9.371094 18.148438 9.421875 18.113281 C 9.761719 17.847656 10.113281 17.578125 10.472656 17.335938 C 10.691406 17.1875 10.890625 17.058594 11.074219 16.957031 C 10.867188 16.585938 10.722656 16.1875 10.65625 15.761719 C 10.652344 15.738281 10.648438 15.714844 10.644531 15.691406 C 10.496094 15.726562 10.34375 15.765625 10.203125 15.8125 C 10.140625 15.835938 10.078125 15.855469 10.015625 15.878906 C 9.542969 16.039062 9.050781 16.207031 8.652344 16.511719 C 8.460938 16.65625 8.277344 16.820312 8.105469 16.980469 C 8.050781 17.027344 7.996094 17.078125 7.945312 17.125 C 7.859375 17.203125 7.765625 17.269531 7.671875 17.332031 C 7.640625 17.351562 7.609375 17.375 7.578125 17.394531 L 7.5625 17.402344 C 7.5625 17.40625 7.5625 17.40625 7.558594 17.40625 C 7.445312 17.484375 7.3125 17.570312 7.203125 17.675781 C 6.808594 18.054688 6.480469 18.609375 6.742188 19.03125 C 6.945312 19.363281 7.484375 19.496094 7.898438 19.433594 C 8.25 19.03125 8.660156 18.703125 9.082031 18.371094 Z M 7.527344 17.332031 L 7.53125 17.328125 C 7.652344 17.246094 7.777344 17.164062 7.886719 17.066406 C 7.941406 17.019531 7.996094 16.96875 8.046875 16.921875 C 8.222656 16.761719 8.40625 16.59375 8.601562 16.445312 C 9.011719 16.132812 9.507812 15.964844 9.988281 15.800781 C 10.050781 15.78125 10.113281 15.757812 10.175781 15.738281 C 10.324219 15.6875 10.480469 15.648438 10.632812 15.613281 C 10.589844 15.289062 10.578125 14.957031 10.597656 14.621094 C 10.507812 14.617188 10.421875 14.609375 10.339844 14.59375 C 10.003906 14.53125 9.703125 14.53125 9.382812 14.535156 C 9.238281 14.535156 9.089844 14.535156 8.933594 14.527344 C 8.628906 14.519531 8.3125 14.484375 8 14.425781 C 7.878906 14.460938 7.773438 14.5 7.679688 14.546875 C 7.644531 14.5625 7.609375 14.582031 7.570312 14.597656 C 7.226562 14.765625 6.753906 14.992188 6.523438 15.277344 C 6.445312 15.375 6.429688 15.46875 6.417969 15.566406 C 6.40625 15.636719 6.398438 15.707031 6.359375 15.777344 C 6.316406 15.867188 6.242188 15.921875 6.175781 15.976562 C 6.089844 16.039062 6.011719 16.101562 5.984375 16.214844 C 5.929688 16.464844 6.066406 16.675781 6.1875 16.808594 C 6.503906 17.152344 7.089844 17.378906 7.527344 17.332031 Z M 9.296875 10.296875 C 9.363281 10.386719 9.425781 10.476562 9.488281 10.566406 C 9.726562 10.902344 9.976562 11.253906 10.285156 11.542969 C 10.570312 11.808594 10.8125 12.019531 11.042969 12.203125 C 11.101562 12.25 11.167969 12.296875 11.234375 12.339844 C 11.4375 11.972656 11.683594 11.648438 11.964844 11.375 C 11.96875 11.371094 11.972656 11.367188 11.980469 11.359375 C 11.804688 11.136719 11.625 10.902344 11.5 10.644531 C 11.320312 10.273438 11.097656 9.96875 10.859375 9.648438 C 10.789062 9.554688 10.714844 9.453125 10.640625 9.351562 C 10.40625 9.023438 10.21875 8.671875 10.035156 8.332031 C 9.953125 8.183594 9.871094 8.027344 9.785156 7.878906 C 9.6875 7.703125 9.605469 7.539062 9.539062 7.378906 C 9.285156 7.285156 9.0625 7.242188 8.847656 7.242188 C 8.726562 7.242188 8.613281 7.253906 8.496094 7.28125 C 8.152344 7.359375 7.867188 7.550781 7.757812 7.785156 C 7.679688 7.957031 7.6875 8.140625 7.789062 8.332031 C 8.054688 8.835938 8.453125 9.289062 8.839844 9.730469 L 8.949219 9.855469 C 9.058594 9.980469 9.167969 10.121094 9.296875 10.296875 Z M 6.824219 11.707031 C 6.957031 11.738281 7.085938 11.773438 7.210938 11.796875 C 7.4375 11.839844 7.667969 11.894531 7.886719 11.945312 C 8.140625 12.003906 8.40625 12.066406 8.667969 12.113281 C 9.1875 12.207031 9.722656 12.347656 10.253906 12.523438 C 10.347656 12.554688 10.445312 12.582031 10.550781 12.613281 C 10.703125 12.660156 10.863281 12.710938 11.023438 12.765625 C 11.078125 12.644531 11.132812 12.523438 11.195312 12.410156 C 11.125 12.367188 11.054688 12.316406 10.988281 12.265625 C 10.757812 12.082031 10.515625 11.871094 10.230469 11.601562 C 9.914062 11.304688 9.664062 10.953125 9.421875 10.613281 C 9.359375 10.523438 9.296875 10.4375 9.234375 10.351562 C 9.074219 10.253906 8.929688 10.183594 8.789062 10.125 C 8.21875 9.890625 7.394531 9.769531 6.835938 10.035156 C 6.464844 10.207031 6.453125 10.574219 6.46875 10.90625 C 6.488281 11.246094 6.5625 11.453125 6.75 11.6875 Z M 13.523438 5.683594 C 13.425781 5.84375 13.378906 6.015625 13.386719 6.164062 C 13.402344 6.445312 13.425781 6.730469 13.453125 7.007812 C 13.476562 7.234375 13.496094 7.46875 13.511719 7.703125 L 13.527344 7.910156 C 13.53125 7.972656 13.535156 8.03125 13.539062 8.09375 C 13.539062 8.117188 13.542969 8.140625 13.542969 8.164062 C 13.546875 8.203125 13.546875 8.242188 13.550781 8.28125 C 13.554688 8.304688 13.554688 8.328125 13.554688 8.351562 C 13.558594 8.390625 13.5625 8.429688 13.566406 8.46875 C 13.566406 8.492188 13.570312 8.519531 13.570312 8.542969 C 13.574219 8.582031 13.578125 8.617188 13.582031 8.65625 C 13.582031 8.679688 13.585938 8.707031 13.585938 8.734375 C 13.589844 8.769531 13.59375 8.804688 13.597656 8.84375 C 13.601562 8.871094 13.605469 8.894531 13.605469 8.921875 C 13.609375 8.957031 13.613281 8.996094 13.617188 9.03125 C 13.621094 9.058594 13.625 9.082031 13.628906 9.109375 C 13.632812 9.144531 13.636719 9.179688 13.644531 9.214844 C 13.648438 9.242188 13.652344 9.269531 13.65625 9.296875 C 13.660156 9.332031 13.664062 9.367188 13.671875 9.402344 C 13.675781 9.429688 13.679688 9.457031 13.6875 9.484375 C 13.691406 9.519531 13.699219 9.550781 13.703125 9.585938 C 13.710938 9.613281 13.714844 9.640625 13.71875 9.667969 C 13.726562 9.703125 13.734375 9.738281 13.742188 9.769531 C 13.746094 9.796875 13.753906 9.824219 13.761719 9.851562 C 13.769531 9.886719 13.777344 9.917969 13.785156 9.953125 C 13.792969 9.980469 13.800781 10.007812 13.808594 10.035156 C 13.816406 10.066406 13.824219 10.101562 13.835938 10.132812 C 13.84375 10.160156 13.851562 10.1875 13.859375 10.214844 C 13.871094 10.246094 13.878906 10.28125 13.890625 10.3125 C 13.898438 10.332031 13.902344 10.351562 13.910156 10.367188 C 13.921875 10.367188 13.9375 10.363281 13.949219 10.359375 C 14.078125 10.335938 14.207031 10.316406 14.339844 10.304688 C 14.574219 10.28125 14.800781 10.289062 15.011719 10.300781 C 15.042969 10.300781 15.070312 10.300781 15.101562 10.300781 C 15.101562 10.253906 15.105469 10.207031 15.109375 10.160156 C 15.117188 10.074219 15.125 9.988281 15.128906 9.898438 C 15.144531 9.546875 15.144531 9.1875 15.140625 8.835938 C 15.136719 8.160156 15.136719 7.457031 15.265625 6.773438 C 15.316406 6.5 15.375 6.257812 15.441406 6.039062 C 15.15625 5.640625 14.808594 5.269531 14.207031 5.242188 C 13.960938 5.226562 13.691406 5.402344 13.523438 5.683594 Z M 11.660156 6.875 C 11.816406 7.128906 12.011719 7.347656 12.203125 7.558594 C 12.347656 7.714844 12.496094 7.878906 12.625 8.0625 C 13.078125 8.679688 13.375 9.488281 13.511719 10.46875 C 13.617188 10.4375 13.722656 10.410156 13.828125 10.386719 C 13.554688 9.589844 13.496094 8.742188 13.445312 7.914062 L 13.429688 7.707031 C 13.414062 7.476562 13.394531 7.242188 13.371094 7.015625 C 13.34375 6.738281 13.316406 6.449219 13.304688 6.171875 C 13.296875 6.011719 13.34375 5.832031 13.441406 5.664062 C 13.246094 5.285156 12.976562 5.089844 12.542969 5.003906 C 12.1875 4.9375 11.898438 4.972656 11.6875 5.113281 C 11.464844 5.261719 11.316406 5.53125 11.246094 5.914062 C 11.230469 5.996094 11.214844 6.082031 11.207031 6.167969 C 11.375 6.398438 11.523438 6.644531 11.660156 6.875 Z M 17.433594 5.558594 C 17.550781 6.398438 17.390625 7.136719 17.222656 7.914062 C 17.191406 8.066406 17.15625 8.222656 17.125 8.378906 C 17.042969 8.792969 16.941406 9.214844 16.847656 9.621094 L 16.789062 9.863281 C 16.734375 10.085938 16.683594 10.3125 16.613281 10.53125 C 16.605469 10.5625 16.59375 10.597656 16.578125 10.628906 C 16.875 10.746094 17.140625 10.867188 17.386719 11 C 17.5 10.730469 17.613281 10.421875 17.6875 10.214844 C 17.71875 10.128906 17.742188 10.0625 17.757812 10.023438 C 17.890625 9.695312 17.972656 9.332031 18.050781 8.976562 C 18.085938 8.832031 18.121094 8.679688 18.15625 8.535156 C 18.316406 7.898438 18.550781 7.285156 18.757812 6.765625 C 18.757812 6.765625 18.757812 6.761719 18.757812 6.761719 C 18.835938 6.566406 18.914062 6.375 18.988281 6.1875 L 19.074219 5.980469 C 19.195312 5.6875 19.167969 5.382812 19.011719 5.238281 C 18.894531 5.128906 18.71875 5.121094 18.496094 5.21875 C 18.488281 5.222656 18.476562 5.222656 18.464844 5.21875 C 18.457031 5.214844 18.445312 5.207031 18.441406 5.199219 C 18.402344 5.109375 18.347656 5.054688 18.265625 5.035156 C 18.085938 4.984375 17.796875 5.097656 17.40625 5.371094 C 17.417969 5.453125 17.425781 5.515625 17.433594 5.558594 Z M 22.929688 12.417969 C 22.78125 12.433594 22.636719 12.457031 22.492188 12.484375 C 22.390625 12.5 22.285156 12.519531 22.175781 12.535156 C 22.066406 12.574219 21.957031 12.617188 21.832031 12.671875 L 21.773438 12.695312 C 21.574219 12.777344 21.355469 12.824219 21.144531 12.871094 C 21.027344 12.894531 20.902344 12.921875 20.789062 12.953125 C 20.734375 12.96875 20.679688 12.980469 20.617188 13 C 20.234375 13.101562 19.753906 13.230469 19.363281 13.421875 C 19.371094 13.472656 19.378906 13.519531 19.382812 13.570312 C 19.382812 13.574219 19.386719 13.574219 19.386719 13.574219 C 19.410156 13.773438 19.421875 13.972656 19.433594 14.191406 L 19.4375 14.289062 C 20.148438 14.289062 20.859375 14.34375 21.628906 14.410156 C 22.320312 14.46875 22.902344 14.566406 23.414062 14.714844 C 23.460938 14.703125 23.511719 14.691406 23.5625 14.679688 C 23.667969 14.65625 23.78125 14.632812 23.863281 14.589844 C 24.066406 14.488281 24.214844 14.363281 24.347656 14.1875 C 24.46875 14.035156 24.742188 13.625 24.71875 13.207031 C 24.707031 13.015625 24.621094 12.855469 24.46875 12.726562 C 24.066406 12.394531 23.3125 12.375 22.929688 12.417969 Z M 22.375 20.019531 C 22.472656 19.925781 22.515625 19.816406 22.511719 19.6875 C 22.507812 19.535156 22.34375 19.28125 22.085938 19.023438 C 21.703125 18.910156 21.339844 18.75 21.066406 18.621094 C 20.722656 18.457031 20.429688 18.226562 20.144531 18.003906 C 20.074219 17.949219 20.003906 17.890625 19.933594 17.835938 C 19.800781 17.734375 19.660156 17.632812 19.523438 17.535156 C 19.328125 17.394531 19.128906 17.25 18.941406 17.097656 C 18.933594 17.109375 18.925781 17.121094 18.921875 17.132812 C 18.753906 17.433594 18.550781 17.707031 18.316406 17.949219 C 18.519531 18.105469 18.707031 18.277344 18.855469 18.4375 C 19.121094 18.726562 19.363281 19.046875 19.585938 19.40625 C 19.597656 19.410156 19.609375 19.414062 19.621094 19.421875 C 19.832031 19.511719 20.039062 19.625 20.238281 19.734375 C 20.714844 19.988281 21.160156 20.230469 21.6875 20.246094 C 21.90625 20.253906 22.203125 20.1875 22.375 20.019531 Z M 22.375 20.019531 " fill-opacity="1" fill-rule="nonzero"/></g><path fill="#e1bf4b" d="M 19.355469 14.296875 L 19.347656 14.195312 C 19.339844 13.976562 19.328125 13.78125 19.300781 13.582031 C 19.300781 13.582031 19.300781 13.582031 19.300781 13.578125 C 19.265625 13.285156 19.203125 13.046875 19.105469 12.828125 C 19.085938 12.78125 19.0625 12.730469 19.035156 12.679688 C 18.878906 12.378906 18.660156 12.089844 18.382812 11.820312 C 18.261719 11.703125 18.128906 11.589844 17.992188 11.484375 C 17.824219 11.359375 17.640625 11.234375 17.441406 11.125 C 17.441406 11.125 17.441406 11.121094 17.4375 11.121094 C 17.144531 10.957031 16.820312 10.804688 16.449219 10.664062 C 16.261719 10.59375 16.058594 10.523438 15.832031 10.453125 C 15.632812 10.390625 15.445312 10.386719 15.246094 10.386719 C 15.21875 10.386719 15.1875 10.386719 15.15625 10.386719 C 15.109375 10.382812 15.058594 10.382812 15.007812 10.378906 C 14.898438 10.375 14.78125 10.371094 14.664062 10.371094 C 14.5625 10.371094 14.453125 10.375 14.347656 10.386719 C 14.21875 10.398438 14.089844 10.414062 13.964844 10.441406 C 13.761719 10.480469 13.554688 10.535156 13.359375 10.605469 C 13.226562 10.652344 13.09375 10.707031 12.964844 10.769531 C 12.617188 10.9375 12.300781 11.160156 12.023438 11.433594 C 11.738281 11.710938 11.488281 12.039062 11.285156 12.414062 C 11.214844 12.542969 11.148438 12.679688 11.089844 12.820312 C 10.859375 13.363281 10.71875 13.976562 10.679688 14.585938 C 10.660156 14.941406 10.671875 15.296875 10.71875 15.636719 C 10.726562 15.675781 10.730469 15.710938 10.734375 15.746094 C 10.808594 16.203125 10.96875 16.632812 11.207031 17.019531 C 11.433594 17.390625 11.734375 17.726562 12.101562 18.007812 C 12.109375 18.015625 12.117188 18.023438 12.125 18.027344 L 12.132812 18.035156 C 12.480469 18.296875 12.898438 18.515625 13.371094 18.683594 C 13.460938 18.714844 13.546875 18.742188 13.628906 18.765625 C 13.828125 18.824219 14.011719 18.859375 14.191406 18.875 C 14.28125 18.882812 14.367188 18.886719 14.453125 18.890625 C 14.605469 18.898438 14.761719 18.90625 14.914062 18.929688 C 14.957031 18.9375 15.082031 18.9375 15.253906 18.933594 C 15.671875 18.925781 16.453125 18.878906 16.769531 18.796875 C 16.847656 18.773438 16.925781 18.75 16.996094 18.722656 C 17.417969 18.574219 17.808594 18.328125 18.152344 17.996094 C 18.425781 17.738281 18.660156 17.433594 18.847656 17.09375 C 18.878906 17.039062 18.910156 16.976562 18.941406 16.914062 C 19.046875 16.695312 19.132812 16.457031 19.199219 16.210938 C 19.335938 15.675781 19.386719 15.070312 19.355469 14.296875 Z M 12.570312 15.171875 C 12.402344 15.160156 12.25 15.085938 12.183594 14.972656 C 12.171875 14.953125 12.179688 14.929688 12.199219 14.917969 C 12.21875 14.90625 12.246094 14.914062 12.253906 14.933594 C 12.3125 15.027344 12.453125 15.089844 12.605469 15.089844 C 12.757812 15.089844 12.898438 15.027344 12.953125 14.933594 C 12.964844 14.914062 12.992188 14.90625 13.011719 14.917969 C 13.03125 14.929688 13.035156 14.953125 13.023438 14.972656 C 12.960938 15.082031 12.820312 15.15625 12.660156 15.167969 C 13.035156 16.121094 13.972656 16.757812 15.015625 16.757812 C 16.058594 16.757812 17 16.121094 17.375 15.167969 C 17.210938 15.15625 17.074219 15.082031 17.007812 14.972656 C 16.996094 14.953125 17.003906 14.929688 17.023438 14.917969 C 17.042969 14.90625 17.070312 14.914062 17.082031 14.933594 C 17.136719 15.027344 17.277344 15.089844 17.429688 15.089844 C 17.582031 15.089844 17.722656 15.027344 17.777344 14.933594 C 17.789062 14.914062 17.816406 14.90625 17.835938 14.917969 C 17.855469 14.929688 17.859375 14.953125 17.847656 14.972656 C 17.78125 15.085938 17.632812 15.160156 17.460938 15.171875 C 17.082031 16.167969 16.105469 16.835938 15.015625 16.835938 C 13.929688 16.835938 12.949219 16.167969 12.570312 15.171875 Z M 16.402344 13.542969 C 16.355469 13.875 16.210938 14.117188 16.039062 14.117188 C 15.828125 14.117188 15.65625 13.757812 15.65625 13.3125 C 15.65625 12.871094 15.828125 12.511719 16.039062 12.511719 C 16.210938 12.511719 16.355469 12.75 16.402344 13.082031 C 16.296875 13.132812 16.226562 13.214844 16.226562 13.3125 C 16.226562 13.410156 16.296875 13.496094 16.402344 13.542969 Z M 14.378906 13.082031 C 14.269531 13.132812 14.199219 13.214844 14.199219 13.3125 C 14.199219 13.410156 14.269531 13.496094 14.378906 13.542969 C 14.332031 13.875 14.183594 14.117188 14.011719 14.117188 C 13.800781 14.117188 13.628906 13.757812 13.628906 13.3125 C 13.628906 12.871094 13.800781 12.511719 14.011719 12.511719 C 14.183594 12.511719 14.332031 12.75 14.378906 13.082031 Z M 14.378906 13.082031 " fill-opacity="1" fill-rule="nonzero"/><g clip-path="url(#d071de165f)"><path fill="#43241e" d="M 24.324219 15.242188 L 24.285156 15.214844 C 24.046875 15.046875 23.773438 14.90625 23.464844 14.785156 C 23.503906 14.777344 23.539062 14.765625 23.582031 14.757812 C 23.691406 14.734375 23.808594 14.710938 23.902344 14.660156 C 24.113281 14.554688 24.273438 14.421875 24.414062 14.238281 C 24.539062 14.074219 24.828125 13.648438 24.800781 13.203125 C 24.785156 12.988281 24.691406 12.808594 24.523438 12.664062 C 24.316406 12.496094 24.027344 12.402344 23.738281 12.359375 C 23.933594 12.265625 24.117188 12.15625 24.253906 12.023438 C 24.472656 11.8125 24.589844 11.511719 24.582031 11.183594 C 24.578125 10.832031 24.425781 10.492188 24.179688 10.269531 C 24.050781 10.148438 23.921875 10.082031 23.730469 10.027344 C 23.546875 9.976562 23.519531 9.953125 23.394531 9.855469 C 23.375 9.839844 23.351562 9.820312 23.324219 9.800781 C 23.101562 9.632812 22.886719 9.546875 22.660156 9.546875 C 22.753906 9.433594 22.84375 9.316406 22.925781 9.203125 C 23.132812 8.910156 23.363281 8.453125 23.292969 7.941406 C 23.253906 7.660156 23.097656 7.46875 22.875 7.429688 C 22.640625 7.386719 22.492188 7.519531 22.34375 7.648438 C 22.316406 7.671875 22.292969 7.695312 22.261719 7.71875 C 22.039062 7.902344 21.777344 7.957031 21.5 8.015625 C 21.300781 8.058594 21.09375 8.101562 20.898438 8.199219 C 20.722656 8.289062 20.558594 8.394531 20.402344 8.515625 C 20.484375 8.34375 20.566406 8.164062 20.652344 7.964844 C 20.800781 7.625 21.113281 6.648438 20.765625 6.210938 C 20.628906 6.03125 20.402344 5.964844 20.09375 6.007812 C 19.609375 6.078125 19.386719 6.386719 19.160156 6.722656 C 19.070312 6.695312 18.964844 6.703125 18.851562 6.753906 C 18.921875 6.574219 18.996094 6.394531 19.066406 6.21875 L 19.152344 6.011719 C 19.28125 5.6875 19.25 5.347656 19.070312 5.179688 C 18.933594 5.054688 18.734375 5.035156 18.5 5.128906 C 18.453125 5.039062 18.382812 4.980469 18.289062 4.957031 C 18.085938 4.898438 17.792969 5.007812 17.390625 5.285156 C 17.277344 4.664062 17.125 4.320312 16.925781 4.269531 C 16.832031 4.242188 16.734375 4.285156 16.636719 4.390625 C 16.585938 4.347656 16.527344 4.335938 16.464844 4.34375 C 16.191406 4.390625 15.894531 4.921875 15.691406 5.363281 C 15.609375 5.546875 15.535156 5.738281 15.46875 5.941406 C 15.191406 5.5625 14.824219 5.191406 14.210938 5.160156 C 13.953125 5.148438 13.675781 5.3125 13.488281 5.582031 C 13.285156 5.210938 13.003906 5.011719 12.558594 4.925781 C 12.179688 4.851562 11.871094 4.894531 11.640625 5.046875 C 11.398438 5.207031 11.238281 5.496094 11.164062 5.898438 C 11.152344 5.957031 11.144531 6.015625 11.136719 6.074219 C 10.980469 5.867188 10.824219 5.699219 10.667969 5.5625 C 10.429688 5.355469 9.667969 4.953125 9.359375 5.261719 C 9.128906 5.488281 9.230469 6.09375 9.285156 6.421875 C 9.289062 6.453125 9.292969 6.480469 9.296875 6.503906 C 9.339844 6.785156 9.40625 7.035156 9.5 7.277344 C 9.128906 7.152344 8.800781 7.128906 8.476562 7.203125 C 8.109375 7.285156 7.804688 7.496094 7.683594 7.75 C 7.59375 7.945312 7.605469 8.15625 7.71875 8.371094 C 7.988281 8.882812 8.386719 9.339844 8.777344 9.78125 L 8.886719 9.910156 C 8.960938 9.992188 9.035156 10.082031 9.113281 10.1875 C 9.011719 10.132812 8.917969 10.089844 8.824219 10.050781 C 8.234375 9.808594 7.378906 9.6875 6.796875 9.960938 C 6.382812 10.15625 6.367188 10.554688 6.386719 10.910156 C 6.402344 11.226562 6.46875 11.4375 6.625 11.65625 C 6.351562 11.589844 6.066406 11.539062 5.800781 11.570312 C 5.539062 11.601562 5.273438 11.769531 5.15625 11.976562 C 5.035156 12.183594 5.109375 12.304688 5.175781 12.421875 C 5.214844 12.480469 5.25 12.539062 5.265625 12.617188 C 5.28125 12.699219 5.28125 12.773438 5.277344 12.84375 C 5.273438 12.980469 5.273438 13.109375 5.402344 13.28125 C 5.554688 13.480469 5.773438 13.601562 5.988281 13.71875 L 6.023438 13.734375 C 5.988281 13.75 5.957031 13.761719 5.921875 13.777344 C 5.636719 13.90625 4.953125 14.429688 5.117188 14.828125 C 5.238281 15.128906 5.84375 15.28125 6.167969 15.363281 C 6.199219 15.371094 6.226562 15.378906 6.253906 15.386719 C 6.289062 15.394531 6.328125 15.40625 6.363281 15.414062 C 6.347656 15.460938 6.34375 15.511719 6.335938 15.554688 C 6.328125 15.621094 6.316406 15.683594 6.289062 15.742188 C 6.25 15.8125 6.1875 15.859375 6.125 15.910156 C 6.03125 15.984375 5.9375 16.054688 5.90625 16.199219 C 5.855469 16.421875 5.933594 16.652344 6.128906 16.863281 C 6.425781 17.1875 6.957031 17.414062 7.398438 17.417969 C 7.3125 17.476562 7.226562 17.542969 7.148438 17.617188 C 6.730469 18.015625 6.386719 18.609375 6.671875 19.074219 C 6.855469 19.378906 7.296875 19.527344 7.695312 19.527344 C 7.738281 19.527344 7.777344 19.527344 7.816406 19.523438 C 7.703125 19.648438 7.582031 19.769531 7.460938 19.886719 C 7.222656 20.113281 6.976562 20.347656 6.804688 20.632812 C 6.679688 20.839844 6.617188 21.085938 6.640625 21.289062 C 6.664062 21.5 6.777344 21.589844 6.890625 21.675781 C 6.949219 21.71875 7.007812 21.761719 7.054688 21.824219 C 7.082031 21.863281 7.109375 21.902344 7.128906 21.933594 C 7.222656 22.070312 7.28125 22.144531 7.496094 22.144531 C 7.519531 22.144531 7.546875 22.144531 7.574219 22.140625 C 7.800781 22.125 8.046875 22.058594 8.277344 21.945312 C 8.625 21.777344 8.929688 21.558594 9.210938 21.3125 C 9.074219 21.703125 8.9375 22.292969 9.167969 22.605469 C 9.269531 22.746094 9.429688 22.816406 9.644531 22.816406 C 9.683594 22.816406 9.722656 22.8125 9.765625 22.808594 C 10.09375 22.773438 10.292969 22.613281 10.460938 22.410156 C 10.476562 22.472656 10.5 22.542969 10.53125 22.609375 C 10.648438 22.859375 10.8125 23.015625 11.015625 23.078125 C 11.082031 23.097656 11.152344 23.105469 11.222656 23.105469 C 11.425781 23.105469 11.65625 23.03125 11.914062 22.882812 C 12.199219 22.714844 12.59375 22.464844 12.859375 22.125 C 12.851562 22.195312 12.84375 22.265625 12.839844 22.335938 C 12.804688 22.714844 12.757812 23.078125 12.707031 23.460938 C 12.691406 23.5625 12.679688 23.660156 12.664062 23.761719 C 12.640625 23.960938 12.609375 24.1875 12.820312 24.378906 C 12.925781 24.476562 13.371094 24.566406 13.816406 24.566406 C 13.96875 24.566406 14.121094 24.554688 14.261719 24.53125 C 14.535156 24.480469 14.710938 24.378906 14.78125 24.226562 C 14.941406 23.890625 14.992188 23.453125 15.035156 23.070312 C 15.046875 22.972656 15.054688 22.882812 15.066406 22.792969 C 15.089844 22.636719 15.113281 22.472656 15.144531 22.289062 C 15.167969 22.390625 15.191406 22.492188 15.222656 22.585938 L 15.226562 22.601562 C 15.359375 23.035156 15.628906 23.925781 16.207031 23.925781 C 16.21875 23.925781 16.230469 23.925781 16.242188 23.925781 C 16.605469 23.902344 16.707031 23.75 16.851562 23.539062 C 16.867188 23.511719 16.886719 23.484375 16.910156 23.457031 C 16.96875 23.480469 17.039062 23.484375 17.109375 23.464844 C 17.332031 23.402344 17.546875 23.136719 17.640625 22.972656 C 17.792969 22.699219 17.851562 22.386719 17.886719 22.140625 C 17.914062 21.921875 17.921875 21.660156 17.90625 21.402344 C 18.320312 21.976562 18.839844 22.476562 19.300781 22.902344 C 19.570312 23.152344 19.828125 23.359375 20.214844 23.359375 C 20.289062 23.359375 20.367188 23.351562 20.449219 23.335938 C 20.679688 23.292969 20.863281 23.164062 20.960938 22.980469 C 21.058594 22.789062 21.058594 22.558594 20.957031 22.339844 C 20.84375 22.097656 20.738281 21.84375 20.632812 21.59375 C 20.660156 21.613281 20.691406 21.632812 20.71875 21.652344 C 20.976562 21.820312 21.207031 21.945312 21.425781 22.027344 C 21.566406 22.078125 21.835938 22.132812 22.09375 22.132812 C 22.382812 22.132812 22.667969 22.066406 22.761719 21.859375 C 22.894531 21.566406 22.582031 21.03125 22.417969 20.746094 C 22.398438 20.71875 22.386719 20.695312 22.371094 20.671875 C 22.289062 20.523438 22.203125 20.390625 22.109375 20.265625 C 22.230469 20.226562 22.34375 20.164062 22.433594 20.078125 C 22.546875 19.96875 22.601562 19.835938 22.59375 19.683594 C 22.589844 19.484375 22.390625 19.230469 22.238281 19.066406 C 22.539062 19.144531 22.824219 19.183594 23.097656 19.183594 C 23.171875 19.183594 23.246094 19.183594 23.320312 19.175781 C 23.851562 19.132812 24.167969 18.820312 24.234375 18.265625 C 24.238281 18.25 24.230469 18.234375 24.214844 18.226562 C 24.1875 18.210938 24.179688 18.191406 24.167969 18.171875 C 24.167969 18.171875 24.167969 18.167969 24.167969 18.167969 C 24.1875 18.160156 24.207031 18.144531 24.226562 18.121094 C 24.371094 17.953125 24.328125 17.464844 24.300781 17.34375 C 24.296875 17.320312 24.296875 17.257812 24.296875 17.199219 C 24.296875 17.171875 24.296875 17.148438 24.296875 17.125 C 24.507812 17.109375 24.695312 17.089844 24.859375 16.90625 C 24.886719 16.875 24.914062 16.847656 24.941406 16.820312 C 25.058594 16.699219 25.171875 16.582031 25.195312 16.367188 C 25.246094 15.890625 24.667969 15.484375 24.324219 15.242188 Z M 25.113281 16.359375 C 25.089844 16.546875 25 16.644531 24.882812 16.765625 C 24.855469 16.792969 24.828125 16.820312 24.800781 16.851562 C 24.648438 17.019531 24.492188 17.03125 24.269531 17.046875 L 24.238281 17.050781 C 24.09375 17.0625 23.9375 17.066406 23.78125 17.0625 C 23.144531 17.046875 22.496094 16.921875 21.871094 16.796875 C 21.785156 16.78125 21.699219 16.761719 21.617188 16.746094 C 21.097656 16.648438 20.59375 16.507812 20.167969 16.382812 C 19.984375 16.328125 19.789062 16.28125 19.605469 16.238281 C 19.5 16.214844 19.398438 16.1875 19.292969 16.164062 C 19.417969 15.65625 19.464844 15.082031 19.4375 14.367188 C 20.144531 14.371094 20.855469 14.425781 21.621094 14.488281 C 21.949219 14.519531 22.25 14.554688 22.53125 14.601562 C 22.71875 14.640625 22.898438 14.683594 23.066406 14.734375 C 23.519531 14.871094 23.914062 15.054688 24.238281 15.28125 L 24.277344 15.308594 C 24.605469 15.539062 25.15625 15.925781 25.113281 16.359375 Z M 24.101562 18.101562 C 24.085938 18.101562 24.066406 18.113281 24.0625 18.128906 C 24.054688 18.140625 24.058594 18.160156 24.070312 18.171875 C 24.078125 18.183594 24.085938 18.195312 24.09375 18.207031 C 24.105469 18.230469 24.117188 18.253906 24.148438 18.28125 C 24.101562 18.632812 23.914062 19.046875 23.3125 19.09375 C 22.9375 19.125 22.546875 19.078125 22.117188 18.949219 C 21.738281 18.835938 21.375 18.675781 21.101562 18.546875 C 20.769531 18.390625 20.492188 18.171875 20.199219 17.941406 C 20.125 17.882812 20.054688 17.828125 19.984375 17.773438 C 19.847656 17.671875 19.707031 17.570312 19.570312 17.46875 C 19.527344 17.4375 19.484375 17.410156 19.441406 17.378906 C 19.433594 17.371094 19.425781 17.363281 19.417969 17.359375 C 19.382812 17.332031 19.347656 17.308594 19.3125 17.285156 C 19.300781 17.273438 19.285156 17.261719 19.273438 17.253906 C 19.242188 17.230469 19.214844 17.210938 19.1875 17.1875 C 19.171875 17.175781 19.152344 17.164062 19.136719 17.152344 C 19.113281 17.128906 19.085938 17.109375 19.058594 17.089844 C 19.042969 17.074219 19.027344 17.0625 19.007812 17.046875 C 19 17.039062 18.988281 17.03125 18.980469 17.023438 C 18.992188 17 19.003906 16.976562 19.015625 16.949219 C 19.121094 16.730469 19.210938 16.492188 19.273438 16.242188 C 19.378906 16.265625 19.480469 16.292969 19.585938 16.316406 C 19.769531 16.359375 19.960938 16.40625 20.144531 16.460938 C 20.570312 16.585938 21.078125 16.726562 21.601562 16.828125 C 21.683594 16.84375 21.769531 16.859375 21.855469 16.875 C 22.484375 17 23.132812 17.128906 23.777344 17.140625 C 23.816406 17.144531 23.851562 17.144531 23.886719 17.144531 C 24 17.144531 24.109375 17.140625 24.214844 17.132812 C 24.214844 17.15625 24.214844 17.179688 24.214844 17.199219 C 24.214844 17.269531 24.214844 17.328125 24.222656 17.359375 C 24.253906 17.515625 24.269531 17.941406 24.164062 18.070312 C 24.144531 18.09375 24.125 18.101562 24.101562 18.101562 Z M 22.683594 21.828125 C 22.539062 22.152344 21.746094 22.058594 21.457031 21.949219 C 21.242188 21.871094 21.015625 21.75 20.765625 21.585938 C 20.699219 21.542969 20.636719 21.5 20.574219 21.453125 C 20.566406 21.433594 20.554688 21.410156 20.546875 21.386719 C 20.320312 20.847656 20.089844 20.285156 19.800781 19.769531 C 19.753906 19.683594 19.707031 19.605469 19.660156 19.527344 C 19.84375 19.613281 20.023438 19.707031 20.199219 19.804688 C 20.660156 20.050781 21.136719 20.308594 21.683594 20.328125 C 21.695312 20.328125 21.707031 20.328125 21.71875 20.328125 C 21.8125 20.328125 21.917969 20.316406 22.023438 20.289062 C 22.121094 20.421875 22.214844 20.558594 22.300781 20.710938 C 22.3125 20.734375 22.328125 20.757812 22.34375 20.789062 C 22.503906 21.0625 22.800781 21.570312 22.683594 21.828125 Z M 20.886719 22.941406 C 20.800781 23.105469 20.640625 23.21875 20.433594 23.257812 C 19.992188 23.34375 19.722656 23.183594 19.355469 22.84375 C 18.863281 22.386719 18.300781 21.84375 17.878906 21.222656 C 17.726562 21 17.609375 20.789062 17.511719 20.570312 C 17.488281 20.523438 17.46875 20.480469 17.449219 20.433594 C 17.308594 20.105469 17.171875 19.742188 17.027344 19.3125 C 16.976562 19.160156 16.941406 19 16.914062 18.835938 C 16.953125 18.824219 16.988281 18.8125 17.023438 18.800781 C 17.457031 18.644531 17.859375 18.394531 18.210938 18.054688 C 18.226562 18.039062 18.242188 18.023438 18.261719 18.007812 C 18.269531 18.011719 18.273438 18.019531 18.28125 18.023438 C 18.292969 18.03125 18.304688 18.042969 18.316406 18.050781 C 18.328125 18.058594 18.335938 18.066406 18.347656 18.074219 C 18.359375 18.085938 18.367188 18.09375 18.378906 18.101562 C 18.390625 18.109375 18.398438 18.117188 18.40625 18.125 C 18.417969 18.136719 18.429688 18.144531 18.441406 18.15625 C 18.449219 18.164062 18.460938 18.171875 18.46875 18.179688 C 18.480469 18.1875 18.492188 18.199219 18.503906 18.207031 C 18.511719 18.214844 18.519531 18.222656 18.527344 18.230469 C 18.539062 18.242188 18.550781 18.25 18.5625 18.261719 C 18.570312 18.269531 18.578125 18.277344 18.585938 18.28125 C 18.597656 18.292969 18.609375 18.304688 18.617188 18.316406 C 18.625 18.320312 18.632812 18.328125 18.640625 18.335938 C 18.652344 18.347656 18.664062 18.359375 18.675781 18.371094 C 18.679688 18.375 18.6875 18.382812 18.691406 18.386719 C 18.707031 18.398438 18.71875 18.414062 18.730469 18.425781 C 18.734375 18.429688 18.738281 18.433594 18.746094 18.4375 C 18.761719 18.457031 18.777344 18.472656 18.792969 18.492188 C 18.859375 18.5625 18.925781 18.636719 18.988281 18.714844 C 19.179688 18.941406 19.355469 19.1875 19.523438 19.457031 C 19.589844 19.566406 19.65625 19.683594 19.726562 19.808594 C 20.011719 20.320312 20.246094 20.878906 20.46875 21.417969 C 20.601562 21.734375 20.738281 22.0625 20.882812 22.375 C 20.972656 22.566406 20.972656 22.773438 20.886719 22.941406 Z M 17.804688 22.128906 C 17.769531 22.367188 17.714844 22.671875 17.570312 22.933594 C 17.484375 23.082031 17.28125 23.332031 17.089844 23.386719 C 17.023438 23.402344 16.96875 23.398438 16.914062 23.371094 C 16.898438 23.359375 16.875 23.363281 16.859375 23.382812 C 16.832031 23.421875 16.804688 23.460938 16.78125 23.496094 C 16.640625 23.703125 16.558594 23.824219 16.238281 23.84375 C 15.699219 23.878906 15.433594 23 15.304688 22.578125 L 15.300781 22.5625 C 15.253906 22.40625 15.214844 22.238281 15.183594 22.0625 C 15.210938 21.898438 15.242188 21.738281 15.273438 21.578125 L 15.277344 21.566406 C 15.433594 20.734375 15.457031 19.878906 15.351562 19.015625 C 15.800781 19 16.488281 18.957031 16.789062 18.875 C 16.804688 18.871094 16.820312 18.863281 16.835938 18.859375 C 16.863281 19.023438 16.898438 19.183594 16.949219 19.335938 C 17.113281 19.832031 17.269531 20.238281 17.433594 20.605469 C 17.535156 20.824219 17.65625 21.039062 17.804688 21.261719 C 17.8125 21.300781 17.820312 21.339844 17.820312 21.378906 C 17.839844 21.636719 17.832031 21.910156 17.804688 22.128906 Z M 14.984375 22.78125 C 14.972656 22.871094 14.964844 22.964844 14.953125 23.0625 C 14.910156 23.441406 14.863281 23.867188 14.707031 24.195312 C 14.632812 24.347656 14.414062 24.417969 14.246094 24.449219 C 13.71875 24.550781 12.988281 24.421875 12.878906 24.320312 C 12.710938 24.167969 12.71875 23.996094 12.746094 23.773438 C 12.761719 23.671875 12.773438 23.570312 12.789062 23.472656 C 12.839844 23.085938 12.886719 22.722656 12.921875 22.339844 C 12.933594 22.164062 12.953125 21.980469 12.980469 21.800781 C 13.007812 21.589844 13.039062 21.378906 13.078125 21.171875 C 13.203125 20.523438 13.363281 19.898438 13.519531 19.304688 C 13.566406 19.140625 13.605469 18.992188 13.648438 18.855469 C 13.835938 18.90625 14.011719 18.941406 14.183594 18.957031 C 14.273438 18.964844 14.363281 18.96875 14.449219 18.972656 C 14.597656 18.980469 14.753906 18.988281 14.902344 19.011719 C 14.9375 19.015625 15.011719 19.019531 15.085938 19.019531 C 15.144531 19.019531 15.207031 19.015625 15.253906 19.015625 C 15.257812 19.015625 15.261719 19.015625 15.265625 19.015625 C 15.375 19.875 15.351562 20.726562 15.195312 21.550781 L 15.191406 21.5625 C 15.160156 21.726562 15.128906 21.890625 15.101562 22.054688 C 15.101562 22.058594 15.101562 22.058594 15.101562 22.0625 C 15.050781 22.339844 15.015625 22.570312 14.984375 22.78125 Z M 11.871094 22.8125 C 11.542969 23.003906 11.261719 23.066406 11.039062 23 C 10.859375 22.945312 10.714844 22.800781 10.605469 22.574219 C 10.445312 22.238281 10.558594 21.917969 10.679688 21.582031 C 10.722656 21.460938 10.765625 21.335938 10.796875 21.210938 C 10.839844 21.035156 10.871094 20.863281 10.90625 20.695312 C 10.957031 20.425781 11.007812 20.167969 11.09375 19.898438 C 11.214844 19.535156 11.378906 19.214844 11.644531 18.828125 C 11.695312 18.777344 11.746094 18.726562 11.796875 18.671875 C 11.941406 18.523438 12.09375 18.371094 12.214844 18.195312 C 12.542969 18.421875 12.917969 18.609375 13.34375 18.761719 C 13.421875 18.789062 13.496094 18.8125 13.570312 18.832031 C 13.527344 18.972656 13.484375 19.121094 13.441406 19.285156 C 13.214844 20.125 12.988281 21.035156 12.859375 21.980469 C 12.609375 22.355469 12.175781 22.636719 11.871094 22.8125 Z M 9.234375 22.558594 C 9.015625 22.257812 9.171875 21.609375 9.34375 21.195312 C 9.652344 20.914062 9.933594 20.605469 10.207031 20.300781 C 10.390625 20.097656 10.585938 19.886719 10.78125 19.683594 C 10.945312 19.519531 11.113281 19.355469 11.273438 19.195312 C 11.308594 19.160156 11.339844 19.128906 11.371094 19.097656 C 11.214844 19.359375 11.105469 19.605469 11.015625 19.875 C 10.925781 20.148438 10.878906 20.40625 10.824219 20.679688 C 10.792969 20.847656 10.757812 21.015625 10.714844 21.191406 C 10.6875 21.3125 10.640625 21.4375 10.601562 21.554688 C 10.515625 21.796875 10.425781 22.042969 10.445312 22.296875 C 10.273438 22.519531 10.085938 22.695312 9.753906 22.730469 C 9.511719 22.753906 9.335938 22.699219 9.234375 22.558594 Z M 7.199219 21.890625 C 7.175781 21.855469 7.152344 21.820312 7.121094 21.777344 C 7.066406 21.707031 7.003906 21.65625 6.941406 21.613281 C 6.835938 21.53125 6.742188 21.457031 6.722656 21.277344 C 6.703125 21.09375 6.761719 20.867188 6.875 20.675781 C 7.042969 20.398438 7.28125 20.164062 7.515625 19.941406 C 7.660156 19.804688 7.808594 19.664062 7.9375 19.511719 L 7.953125 19.496094 C 8.210938 19.195312 8.507812 18.933594 8.820312 18.683594 C 8.921875 18.601562 9.027344 18.519531 9.132812 18.4375 C 9.199219 18.386719 9.261719 18.335938 9.324219 18.289062 C 9.710938 17.988281 10.109375 17.679688 10.519531 17.402344 C 10.738281 17.253906 10.933594 17.128906 11.113281 17.027344 C 11.121094 17.039062 11.128906 17.050781 11.136719 17.0625 C 11.371094 17.441406 11.675781 17.78125 12.050781 18.074219 C 12.058594 18.078125 12.066406 18.085938 12.074219 18.09375 L 12.082031 18.097656 C 12.105469 18.117188 12.128906 18.132812 12.148438 18.148438 C 12.03125 18.316406 11.886719 18.464844 11.734375 18.617188 C 11.683594 18.671875 11.632812 18.722656 11.582031 18.773438 C 11.460938 18.894531 11.339844 19.015625 11.214844 19.136719 C 11.054688 19.296875 10.886719 19.460938 10.722656 19.628906 C 10.523438 19.832031 10.332031 20.042969 10.144531 20.25 C 9.589844 20.859375 9.015625 21.496094 8.242188 21.871094 C 8.019531 21.980469 7.78125 22.046875 7.570312 22.058594 C 7.324219 22.078125 7.285156 22.023438 7.199219 21.890625 Z M 6.742188 19.03125 C 6.480469 18.609375 6.808594 18.054688 7.203125 17.675781 C 7.3125 17.570312 7.445312 17.484375 7.558594 17.40625 C 7.5625 17.40625 7.5625 17.40625 7.5625 17.402344 L 7.578125 17.394531 C 7.609375 17.375 7.640625 17.351562 7.671875 17.332031 C 7.765625 17.269531 7.859375 17.203125 7.945312 17.125 C 7.996094 17.078125 8.050781 17.027344 8.105469 16.980469 C 8.277344 16.820312 8.460938 16.65625 8.652344 16.511719 C 9.050781 16.207031 9.542969 16.039062 10.015625 15.878906 C 10.078125 15.855469 10.140625 15.835938 10.203125 15.8125 C 10.34375 15.765625 10.496094 15.726562 10.644531 15.691406 C 10.648438 15.714844 10.652344 15.738281 10.65625 15.761719 C 10.722656 16.1875 10.867188 16.585938 11.074219 16.957031 C 10.890625 17.058594 10.691406 17.1875 10.472656 17.335938 C 10.113281 17.578125 9.761719 17.847656 9.421875 18.113281 C 9.371094 18.148438 9.324219 18.1875 9.273438 18.222656 C 9.210938 18.273438 9.148438 18.324219 9.082031 18.371094 C 8.660156 18.703125 8.25 19.03125 7.898438 19.433594 C 7.484375 19.496094 6.945312 19.363281 6.742188 19.03125 Z M 6.1875 16.808594 C 6.066406 16.675781 5.929688 16.464844 5.984375 16.214844 C 6.011719 16.101562 6.089844 16.039062 6.175781 15.976562 C 6.242188 15.921875 6.316406 15.867188 6.359375 15.777344 C 6.398438 15.707031 6.40625 15.636719 6.417969 15.566406 C 6.429688 15.46875 6.445312 15.375 6.523438 15.277344 C 6.753906 14.992188 7.226562 14.765625 7.570312 14.597656 C 7.609375 14.582031 7.644531 14.5625 7.679688 14.546875 C 7.773438 14.5 7.878906 14.460938 8 14.425781 C 8.3125 14.484375 8.628906 14.519531 8.933594 14.527344 C 9.089844 14.535156 9.238281 14.535156 9.382812 14.535156 C 9.703125 14.53125 10.003906 14.53125 10.339844 14.59375 C 10.417969 14.609375 10.507812 14.617188 10.597656 14.621094 C 10.578125 14.957031 10.589844 15.289062 10.632812 15.613281 C 10.480469 15.648438 10.324219 15.6875 10.175781 15.738281 C 10.113281 15.757812 10.050781 15.78125 9.988281 15.800781 C 9.507812 15.964844 9.011719 16.132812 8.601562 16.445312 C 8.40625 16.59375 8.222656 16.761719 8.046875 16.921875 C 7.996094 16.96875 7.941406 17.019531 7.886719 17.066406 C 7.777344 17.164062 7.652344 17.246094 7.53125 17.328125 L 7.527344 17.332031 C 7.089844 17.378906 6.503906 17.152344 6.1875 16.808594 Z M 5.191406 14.800781 C 5.058594 14.46875 5.675781 13.980469 5.957031 13.851562 C 6.007812 13.828125 6.058594 13.804688 6.113281 13.785156 C 6.625 14.058594 7.214844 14.269531 7.832031 14.394531 C 7.765625 14.417969 7.703125 14.445312 7.644531 14.472656 C 7.609375 14.492188 7.574219 14.507812 7.535156 14.527344 C 7.183594 14.695312 6.699219 14.929688 6.457031 15.230469 C 6.429688 15.265625 6.40625 15.300781 6.390625 15.335938 C 6.351562 15.328125 6.3125 15.316406 6.273438 15.308594 C 6.25 15.300781 6.222656 15.292969 6.191406 15.285156 C 5.878906 15.207031 5.296875 15.058594 5.191406 14.800781 Z M 6.085938 13.679688 L 6.027344 13.644531 C 5.824219 13.535156 5.609375 13.417969 5.46875 13.230469 C 5.355469 13.085938 5.359375 12.980469 5.359375 12.847656 C 5.363281 12.773438 5.363281 12.695312 5.347656 12.601562 C 5.328125 12.511719 5.285156 12.441406 5.25 12.378906 C 5.179688 12.265625 5.132812 12.183594 5.226562 12.015625 C 5.332031 11.832031 5.578125 11.679688 5.808594 11.652344 C 6.101562 11.617188 6.417969 11.6875 6.714844 11.761719 L 6.800781 11.785156 C 6.9375 11.820312 7.066406 11.851562 7.195312 11.875 C 7.421875 11.921875 7.648438 11.972656 7.867188 12.023438 C 7.996094 12.054688 8.125 12.082031 8.257812 12.113281 C 8.386719 12.140625 8.519531 12.167969 8.65625 12.191406 C 8.976562 12.253906 9.304688 12.328125 9.632812 12.417969 C 9.832031 12.472656 10.03125 12.535156 10.230469 12.601562 C 10.320312 12.628906 10.421875 12.660156 10.523438 12.691406 C 10.5625 12.703125 10.601562 12.714844 10.640625 12.726562 C 10.648438 12.730469 10.660156 12.734375 10.671875 12.738281 C 10.699219 12.746094 10.726562 12.753906 10.757812 12.765625 C 10.769531 12.769531 10.785156 12.773438 10.800781 12.777344 C 10.824219 12.785156 10.851562 12.792969 10.875 12.800781 C 10.890625 12.808594 10.90625 12.8125 10.921875 12.820312 C 10.945312 12.828125 10.96875 12.835938 10.992188 12.84375 C 10.773438 13.367188 10.640625 13.953125 10.601562 14.539062 C 10.515625 14.535156 10.429688 14.527344 10.355469 14.511719 C 10.3125 14.507812 10.273438 14.5 10.234375 14.492188 C 10.222656 14.492188 10.207031 14.492188 10.195312 14.488281 C 10.167969 14.484375 10.144531 14.480469 10.117188 14.480469 C 10.101562 14.476562 10.085938 14.476562 10.070312 14.472656 C 10.046875 14.472656 10.023438 14.46875 10 14.46875 C 9.984375 14.46875 9.96875 14.464844 9.953125 14.464844 C 9.929688 14.464844 9.910156 14.460938 9.886719 14.460938 C 9.871094 14.460938 9.855469 14.460938 9.839844 14.457031 C 9.816406 14.457031 9.792969 14.457031 9.769531 14.457031 C 9.757812 14.457031 9.742188 14.457031 9.726562 14.453125 C 9.703125 14.453125 9.679688 14.453125 9.652344 14.453125 C 9.640625 14.453125 9.625 14.453125 9.613281 14.453125 C 9.582031 14.453125 9.554688 14.453125 9.523438 14.453125 C 9.515625 14.453125 9.507812 14.453125 9.5 14.453125 C 9.460938 14.453125 9.421875 14.453125 9.382812 14.453125 C 9.238281 14.453125 9.089844 14.453125 8.9375 14.449219 C 8.632812 14.4375 8.316406 14.402344 8.003906 14.347656 C 7.3125 14.222656 6.648438 13.992188 6.085938 13.679688 Z M 6.835938 10.035156 C 7.394531 9.769531 8.21875 9.890625 8.789062 10.125 C 8.929688 10.183594 9.074219 10.253906 9.234375 10.351562 C 9.296875 10.4375 9.359375 10.523438 9.421875 10.613281 C 9.664062 10.953125 9.914062 11.304688 10.230469 11.601562 C 10.515625 11.871094 10.757812 12.082031 10.988281 12.265625 C 11.054688 12.316406 11.125 12.367188 11.195312 12.410156 C 11.132812 12.523438 11.078125 12.644531 11.023438 12.765625 C 10.863281 12.710938 10.703125 12.660156 10.550781 12.613281 C 10.445312 12.582031 10.347656 12.554688 10.253906 12.523438 C 9.722656 12.347656 9.1875 12.207031 8.667969 12.113281 C 8.40625 12.066406 8.140625 12.003906 7.886719 11.945312 C 7.667969 11.894531 7.4375 11.839844 7.210938 11.796875 C 7.085938 11.773438 6.957031 11.738281 6.824219 11.707031 L 6.75 11.6875 C 6.5625 11.453125 6.488281 11.246094 6.46875 10.90625 C 6.453125 10.574219 6.464844 10.207031 6.835938 10.035156 Z M 7.789062 8.332031 C 7.6875 8.140625 7.675781 7.957031 7.757812 7.785156 C 7.867188 7.550781 8.152344 7.359375 8.496094 7.28125 C 8.613281 7.253906 8.726562 7.242188 8.847656 7.242188 C 9.0625 7.242188 9.285156 7.285156 9.539062 7.378906 C 9.605469 7.539062 9.6875 7.703125 9.785156 7.878906 C 9.871094 8.027344 9.953125 8.183594 10.035156 8.332031 C 10.21875 8.671875 10.40625 9.023438 10.640625 9.351562 C 10.714844 9.453125 10.789062 9.554688 10.859375 9.648438 C 11.097656 9.96875 11.320312 10.273438 11.5 10.644531 C 11.625 10.902344 11.804688 11.136719 11.980469 11.359375 C 11.972656 11.367188 11.96875 11.371094 11.964844 11.375 C 11.683594 11.648438 11.4375 11.972656 11.234375 12.339844 C 11.167969 12.296875 11.101562 12.25 11.042969 12.203125 C 10.8125 12.019531 10.570312 11.808594 10.285156 11.542969 C 9.976562 11.253906 9.726562 10.902344 9.488281 10.566406 C 9.425781 10.476562 9.363281 10.386719 9.296875 10.296875 C 9.167969 10.121094 9.058594 9.980469 8.949219 9.855469 L 8.839844 9.730469 C 8.453125 9.289062 8.054688 8.835938 7.789062 8.332031 Z M 9.367188 6.40625 C 9.3125 6.097656 9.21875 5.515625 9.417969 5.316406 C 9.480469 5.253906 9.570312 5.230469 9.671875 5.230469 C 9.992188 5.230469 10.4375 5.46875 10.613281 5.621094 C 10.785156 5.773438 10.953125 5.960938 11.128906 6.203125 C 11.300781 6.4375 11.449219 6.683594 11.589844 6.914062 C 11.75 7.175781 11.949219 7.398438 12.140625 7.609375 C 12.285156 7.769531 12.429688 7.929688 12.558594 8.109375 C 12.59375 8.152344 12.625 8.199219 12.652344 8.246094 C 12.667969 8.261719 12.679688 8.28125 12.691406 8.300781 C 12.707031 8.332031 12.726562 8.359375 12.746094 8.386719 C 12.757812 8.410156 12.769531 8.433594 12.785156 8.457031 C 12.796875 8.484375 12.816406 8.507812 12.828125 8.539062 C 12.84375 8.5625 12.855469 8.585938 12.867188 8.613281 C 12.882812 8.640625 12.894531 8.664062 12.910156 8.691406 C 12.921875 8.71875 12.933594 8.746094 12.949219 8.773438 C 12.960938 8.800781 12.972656 8.824219 12.984375 8.851562 C 12.996094 8.882812 13.007812 8.910156 13.023438 8.9375 C 13.03125 8.964844 13.042969 8.992188 13.054688 9.019531 C 13.066406 9.050781 13.078125 9.078125 13.089844 9.109375 C 13.101562 9.136719 13.109375 9.164062 13.121094 9.191406 C 13.132812 9.222656 13.140625 9.253906 13.152344 9.285156 C 13.164062 9.3125 13.171875 9.339844 13.183594 9.371094 C 13.191406 9.402344 13.199219 9.433594 13.210938 9.464844 C 13.21875 9.496094 13.230469 9.523438 13.238281 9.554688 C 13.246094 9.585938 13.253906 9.621094 13.261719 9.652344 C 13.273438 9.683594 13.28125 9.714844 13.289062 9.746094 C 13.296875 9.777344 13.304688 9.8125 13.3125 9.84375 C 13.320312 9.875 13.328125 9.910156 13.335938 9.941406 C 13.339844 9.972656 13.347656 10.007812 13.355469 10.042969 C 13.363281 10.074219 13.367188 10.109375 13.375 10.140625 C 13.382812 10.175781 13.386719 10.210938 13.394531 10.242188 C 13.398438 10.277344 13.40625 10.3125 13.410156 10.347656 C 13.417969 10.382812 13.421875 10.417969 13.425781 10.453125 C 13.429688 10.464844 13.429688 10.480469 13.433594 10.496094 C 13.398438 10.507812 13.363281 10.515625 13.332031 10.527344 C 13.195312 10.578125 13.058594 10.632812 12.925781 10.699219 C 12.605469 10.855469 12.304688 11.058594 12.039062 11.304688 C 11.867188 11.085938 11.695312 10.859375 11.574219 10.609375 C 11.390625 10.230469 11.164062 9.925781 10.925781 9.601562 C 10.855469 9.507812 10.78125 9.40625 10.707031 9.304688 C 10.5625 9.101562 10.4375 8.890625 10.316406 8.679688 C 10.246094 8.550781 10.175781 8.421875 10.109375 8.296875 C 10.027344 8.144531 9.945312 7.988281 9.859375 7.839844 C 9.757812 7.660156 9.675781 7.496094 9.609375 7.332031 C 9.5 7.066406 9.425781 6.796875 9.378906 6.492188 C 9.375 6.46875 9.371094 6.4375 9.367188 6.40625 Z M 11.207031 6.167969 C 11.214844 6.082031 11.230469 5.996094 11.246094 5.914062 C 11.316406 5.53125 11.464844 5.261719 11.6875 5.113281 C 11.898438 4.972656 12.1875 4.9375 12.542969 5.003906 C 12.976562 5.089844 13.246094 5.285156 13.441406 5.664062 C 13.34375 5.832031 13.296875 6.011719 13.304688 6.171875 C 13.316406 6.449219 13.34375 6.738281 13.371094 7.015625 C 13.394531 7.242188 13.414062 7.476562 13.429688 7.707031 L 13.445312 7.914062 C 13.496094 8.742188 13.554688 9.589844 13.828125 10.386719 C 13.722656 10.410156 13.617188 10.4375 13.511719 10.46875 C 13.375 9.488281 13.078125 8.679688 12.625 8.0625 C 12.496094 7.878906 12.347656 7.714844 12.203125 7.558594 C 12.011719 7.347656 11.816406 7.128906 11.660156 6.875 C 11.523438 6.644531 11.375 6.398438 11.207031 6.167969 Z M 14.207031 5.242188 C 14.808594 5.269531 15.15625 5.640625 15.441406 6.039062 C 15.375 6.257812 15.316406 6.5 15.265625 6.773438 C 15.136719 7.457031 15.136719 8.160156 15.140625 8.835938 C 15.144531 9.1875 15.144531 9.546875 15.128906 9.898438 C 15.125 9.988281 15.117188 10.074219 15.109375 10.160156 C 15.105469 10.207031 15.101562 10.253906 15.101562 10.300781 C 15.070312 10.300781 15.042969 10.300781 15.011719 10.300781 C 14.800781 10.289062 14.574219 10.28125 14.339844 10.304688 C 14.207031 10.316406 14.078125 10.335938 13.949219 10.359375 C 13.9375 10.363281 13.921875 10.367188 13.910156 10.367188 C 13.902344 10.351562 13.898438 10.332031 13.890625 10.3125 C 13.878906 10.28125 13.871094 10.246094 13.859375 10.214844 C 13.851562 10.1875 13.84375 10.160156 13.835938 10.132812 C 13.824219 10.101562 13.816406 10.066406 13.808594 10.035156 C 13.800781 10.007812 13.792969 9.980469 13.785156 9.953125 C 13.777344 9.917969 13.769531 9.886719 13.761719 9.851562 C 13.753906 9.824219 13.746094 9.796875 13.742188 9.769531 C 13.734375 9.738281 13.726562 9.703125 13.71875 9.667969 C 13.714844 9.640625 13.710938 9.613281 13.703125 9.585938 C 13.699219 9.550781 13.691406 9.519531 13.6875 9.484375 C 13.679688 9.457031 13.675781 9.429688 13.671875 9.402344 C 13.664062 9.367188 13.660156 9.332031 13.65625 9.296875 C 13.652344 9.269531 13.648438 9.242188 13.644531 9.214844 C 13.636719 9.179688 13.632812 9.144531 13.628906 9.109375 C 13.625 9.082031 13.621094 9.054688 13.617188 9.03125 C 13.613281 8.992188 13.609375 8.957031 13.605469 8.921875 C 13.605469 8.894531 13.601562 8.871094 13.597656 8.84375 C 13.59375 8.804688 13.589844 8.769531 13.589844 8.730469 C 13.585938 8.707031 13.582031 8.679688 13.582031 8.65625 C 13.578125 8.617188 13.574219 8.578125 13.570312 8.542969 C 13.570312 8.515625 13.566406 8.492188 13.566406 8.46875 C 13.5625 8.429688 13.558594 8.390625 13.554688 8.351562 C 13.554688 8.328125 13.554688 8.304688 13.550781 8.28125 C 13.546875 8.242188 13.546875 8.203125 13.542969 8.164062 C 13.542969 8.140625 13.539062 8.117188 13.539062 8.09375 C 13.535156 8.03125 13.53125 7.972656 13.527344 7.910156 L 13.511719 7.703125 C 13.496094 7.46875 13.476562 7.234375 13.453125 7.007812 C 13.429688 6.730469 13.402344 6.445312 13.386719 6.164062 C 13.378906 6.015625 13.425781 5.84375 13.523438 5.683594 C 13.691406 5.402344 13.960938 5.226562 14.207031 5.242188 Z M 15.523438 6.046875 C 15.59375 5.8125 15.675781 5.597656 15.769531 5.394531 C 16.039062 4.808594 16.296875 4.453125 16.480469 4.425781 C 16.527344 4.417969 16.570312 4.433594 16.609375 4.476562 C 16.617188 4.484375 16.628906 4.488281 16.640625 4.488281 C 16.652344 4.488281 16.664062 4.480469 16.671875 4.472656 C 16.757812 4.371094 16.835938 4.328125 16.90625 4.347656 C 17.066406 4.390625 17.21875 4.757812 17.320312 5.359375 C 17.332031 5.425781 17.339844 5.484375 17.34375 5.53125 C 17.347656 5.542969 17.347656 5.558594 17.351562 5.570312 C 17.464844 6.394531 17.308594 7.125 17.144531 7.898438 C 17.109375 8.050781 17.078125 8.207031 17.046875 8.363281 C 16.960938 8.777344 16.863281 9.199219 16.765625 9.605469 L 16.707031 9.847656 C 16.65625 10.066406 16.601562 10.292969 16.535156 10.507812 C 16.527344 10.539062 16.515625 10.570312 16.503906 10.601562 C 16.492188 10.597656 16.484375 10.59375 16.476562 10.589844 C 16.289062 10.519531 16.085938 10.449219 15.855469 10.375 C 15.644531 10.308594 15.453125 10.308594 15.246094 10.304688 C 15.226562 10.304688 15.203125 10.304688 15.183594 10.304688 C 15.1875 10.257812 15.1875 10.214844 15.191406 10.167969 C 15.199219 10.082031 15.207031 9.992188 15.210938 9.902344 C 15.226562 9.546875 15.226562 9.1875 15.222656 8.835938 C 15.222656 8.164062 15.21875 7.464844 15.347656 6.789062 C 15.367188 6.683594 15.386719 6.585938 15.410156 6.488281 C 15.445312 6.328125 15.484375 6.183594 15.523438 6.046875 Z M 18.265625 5.035156 C 18.347656 5.054688 18.402344 5.109375 18.441406 5.199219 C 18.445312 5.207031 18.457031 5.214844 18.464844 5.21875 C 18.476562 5.222656 18.488281 5.222656 18.496094 5.21875 C 18.71875 5.121094 18.894531 5.128906 19.011719 5.238281 C 19.167969 5.382812 19.195312 5.6875 19.074219 5.980469 L 18.992188 6.1875 C 18.914062 6.375 18.835938 6.566406 18.757812 6.761719 C 18.757812 6.761719 18.757812 6.765625 18.757812 6.765625 C 18.550781 7.285156 18.316406 7.898438 18.15625 8.535156 C 18.121094 8.679688 18.085938 8.832031 18.050781 8.976562 C 17.972656 9.332031 17.890625 9.695312 17.757812 10.023438 C 17.742188 10.0625 17.71875 10.128906 17.6875 10.214844 C 17.613281 10.421875 17.5 10.730469 17.386719 11 C 17.140625 10.867188 16.875 10.746094 16.578125 10.628906 C 16.59375 10.597656 16.605469 10.5625 16.613281 10.53125 C 16.683594 10.3125 16.734375 10.085938 16.789062 9.863281 L 16.847656 9.621094 C 16.941406 9.214844 17.042969 8.792969 17.125 8.378906 C 17.15625 8.222656 17.191406 8.066406 17.222656 7.917969 C 17.390625 7.136719 17.550781 6.398438 17.433594 5.558594 C 17.425781 5.515625 17.417969 5.453125 17.40625 5.371094 C 17.796875 5.097656 18.085938 4.984375 18.265625 5.035156 Z M 19.15625 6.808594 C 19.175781 6.820312 19.199219 6.8125 19.210938 6.796875 C 19.445312 6.453125 19.644531 6.152344 20.105469 6.089844 C 20.382812 6.046875 20.582031 6.105469 20.703125 6.257812 C 20.988281 6.625 20.785156 7.460938 20.578125 7.933594 C 20.464844 8.191406 20.359375 8.421875 20.253906 8.636719 C 20.074219 8.789062 19.902344 8.957031 19.738281 9.121094 L 19.703125 9.15625 C 18.9375 9.929688 18.363281 10.632812 17.933594 11.339844 C 17.792969 11.238281 17.640625 11.144531 17.480469 11.050781 C 17.480469 11.050781 17.480469 11.050781 17.476562 11.050781 C 17.472656 11.046875 17.464844 11.042969 17.457031 11.039062 C 17.574219 10.765625 17.691406 10.449219 17.765625 10.242188 C 17.796875 10.160156 17.820312 10.089844 17.835938 10.054688 C 17.96875 9.71875 18.050781 9.351562 18.132812 8.996094 C 18.164062 8.847656 18.199219 8.699219 18.234375 8.554688 C 18.390625 7.953125 18.605469 7.367188 18.804688 6.867188 C 18.945312 6.785156 19.0625 6.765625 19.15625 6.808594 Z M 21.519531 8.09375 C 21.792969 8.035156 22.078125 7.976562 22.316406 7.78125 C 22.34375 7.757812 22.371094 7.730469 22.398438 7.707031 C 22.542969 7.582031 22.667969 7.472656 22.859375 7.507812 C 23.128906 7.554688 23.195312 7.835938 23.210938 7.953125 C 23.28125 8.441406 23.054688 8.875 22.855469 9.15625 C 22.765625 9.289062 22.660156 9.421875 22.546875 9.550781 C 22.515625 9.554688 22.480469 9.558594 22.445312 9.566406 C 22.4375 9.566406 22.429688 9.570312 22.425781 9.578125 C 22.355469 9.648438 22.277344 9.71875 22.199219 9.789062 C 21.925781 10.035156 21.589844 10.234375 21.261719 10.425781 C 21.03125 10.558594 20.789062 10.699219 20.574219 10.855469 C 20.039062 11.242188 19.589844 11.660156 19.15625 12.171875 C 19.09375 12.242188 19.023438 12.308594 18.949219 12.371094 C 18.808594 12.160156 18.640625 11.957031 18.441406 11.761719 C 18.316406 11.640625 18.183594 11.527344 18.042969 11.421875 C 18.027344 11.410156 18.011719 11.398438 18 11.390625 C 18.425781 10.6875 18.996094 9.980469 19.761719 9.214844 L 19.800781 9.175781 C 20.136719 8.835938 20.503906 8.488281 20.933594 8.273438 C 21.121094 8.179688 21.324219 8.136719 21.519531 8.09375 Z M 23.707031 10.105469 C 23.886719 10.15625 24.003906 10.21875 24.125 10.328125 C 24.355469 10.535156 24.496094 10.855469 24.5 11.183594 C 24.503906 11.492188 24.398438 11.769531 24.195312 11.964844 C 24.039062 12.117188 23.820312 12.238281 23.582031 12.339844 C 23.328125 12.3125 23.089844 12.320312 22.917969 12.335938 C 22.769531 12.351562 22.621094 12.378906 22.476562 12.402344 C 22.375 12.421875 22.269531 12.4375 22.160156 12.453125 C 22.160156 12.453125 22.15625 12.453125 22.15625 12.457031 C 22.15625 12.457031 22.152344 12.457031 22.152344 12.457031 C 22.039062 12.496094 21.929688 12.542969 21.800781 12.597656 L 21.742188 12.621094 C 21.550781 12.699219 21.335938 12.746094 21.125 12.789062 C 21.007812 12.816406 20.882812 12.84375 20.765625 12.875 C 20.714844 12.890625 20.65625 12.90625 20.597656 12.921875 C 20.214844 13.023438 19.742188 13.152344 19.347656 13.339844 C 19.308594 13.136719 19.253906 12.960938 19.179688 12.796875 C 19.160156 12.746094 19.136719 12.695312 19.109375 12.644531 C 19.074219 12.574219 19.035156 12.507812 18.992188 12.441406 C 19.074219 12.375 19.152344 12.300781 19.21875 12.222656 C 19.648438 11.71875 20.09375 11.304688 20.621094 10.921875 C 20.835938 10.765625 21.074219 10.628906 21.304688 10.492188 C 21.632812 10.300781 21.976562 10.101562 22.253906 9.847656 C 22.332031 9.78125 22.40625 9.710938 22.476562 9.644531 C 22.757812 9.589844 23.003906 9.660156 23.273438 9.863281 C 23.300781 9.886719 23.320312 9.902344 23.34375 9.917969 C 23.472656 10.019531 23.507812 10.046875 23.707031 10.105469 Z M 24.71875 13.207031 C 24.742188 13.625 24.46875 14.03125 24.347656 14.1875 C 24.214844 14.363281 24.066406 14.488281 23.863281 14.589844 C 23.777344 14.632812 23.667969 14.65625 23.5625 14.679688 C 23.511719 14.691406 23.460938 14.703125 23.414062 14.714844 C 22.902344 14.566406 22.320312 14.46875 21.628906 14.410156 C 20.859375 14.34375 20.148438 14.289062 19.4375 14.289062 L 19.433594 14.191406 C 19.421875 13.972656 19.410156 13.773438 19.386719 13.574219 C 19.386719 13.574219 19.382812 13.574219 19.382812 13.570312 C 19.378906 13.519531 19.371094 13.472656 19.363281 13.421875 C 19.753906 13.230469 20.234375 13.101562 20.617188 13 C 20.679688 12.980469 20.734375 12.96875 20.789062 12.953125 C 20.902344 12.921875 21.027344 12.894531 21.144531 12.871094 C 21.355469 12.824219 21.574219 12.777344 21.773438 12.695312 L 21.832031 12.671875 C 21.957031 12.617188 22.066406 12.574219 22.175781 12.535156 C 22.285156 12.519531 22.390625 12.5 22.492188 12.484375 C 22.636719 12.457031 22.78125 12.433594 22.929688 12.417969 C 23.3125 12.375 24.066406 12.394531 24.46875 12.726562 C 24.621094 12.855469 24.707031 13.015625 24.71875 13.207031 Z M 19.199219 16.210938 C 19.132812 16.457031 19.046875 16.695312 18.941406 16.914062 C 18.910156 16.976562 18.878906 17.039062 18.847656 17.09375 C 18.660156 17.433594 18.425781 17.738281 18.152344 17.996094 C 17.808594 18.328125 17.417969 18.574219 16.996094 18.722656 C 16.925781 18.75 16.847656 18.773438 16.765625 18.796875 C 16.453125 18.878906 15.671875 18.925781 15.253906 18.933594 C 15.082031 18.9375 14.957031 18.9375 14.914062 18.929688 C 14.761719 18.90625 14.605469 18.898438 14.453125 18.890625 C 14.367188 18.886719 14.28125 18.882812 14.191406 18.875 C 14.011719 18.859375 13.828125 18.824219 13.628906 18.765625 C 13.546875 18.742188 13.460938 18.714844 13.371094 18.683594 C 12.898438 18.515625 12.480469 18.296875 12.132812 18.035156 L 12.125 18.027344 C 12.117188 18.023438 12.109375 18.015625 12.101562 18.007812 C 11.734375 17.726562 11.433594 17.390625 11.207031 17.019531 C 10.96875 16.632812 10.808594 16.203125 10.734375 15.75 C 10.730469 15.710938 10.726562 15.675781 10.71875 15.636719 C 10.671875 15.296875 10.660156 14.941406 10.679688 14.585938 C 10.71875 13.976562 10.859375 13.363281 11.089844 12.824219 C 11.148438 12.679688 11.214844 12.542969 11.285156 12.414062 C 11.488281 12.039062 11.738281 11.710938 12.023438 11.433594 C 12.300781 11.160156 12.617188 10.9375 12.964844 10.769531 C 13.09375 10.707031 13.226562 10.652344 13.359375 10.605469 C 13.554688 10.535156 13.757812 10.480469 13.964844 10.441406 C 14.089844 10.414062 14.21875 10.398438 14.347656 10.386719 C 14.453125 10.375 14.558594 10.371094 14.664062 10.371094 C 14.78125 10.371094 14.898438 10.375 15.007812 10.382812 C 15.058594 10.382812 15.109375 10.382812 15.15625 10.386719 C 15.1875 10.386719 15.21875 10.386719 15.246094 10.386719 C 15.445312 10.386719 15.632812 10.390625 15.832031 10.453125 C 16.058594 10.523438 16.261719 10.59375 16.449219 10.664062 C 16.820312 10.804688 17.144531 10.957031 17.4375 11.121094 C 17.441406 11.121094 17.441406 11.125 17.441406 11.125 C 17.640625 11.238281 17.824219 11.359375 17.992188 11.484375 C 18.128906 11.589844 18.261719 11.703125 18.382812 11.820312 C 18.660156 12.089844 18.878906 12.378906 19.035156 12.679688 C 19.0625 12.730469 19.082031 12.78125 19.105469 12.828125 C 19.203125 13.046875 19.265625 13.285156 19.300781 13.578125 C 19.300781 13.582031 19.300781 13.582031 19.300781 13.582031 C 19.328125 13.78125 19.339844 13.976562 19.347656 14.195312 L 19.355469 14.296875 C 19.386719 15.070312 19.335938 15.675781 19.199219 16.210938 Z M 21.6875 20.246094 C 21.160156 20.230469 20.714844 19.988281 20.238281 19.734375 C 20.039062 19.625 19.832031 19.511719 19.621094 19.421875 C 19.609375 19.414062 19.597656 19.410156 19.585938 19.40625 C 19.363281 19.046875 19.121094 18.726562 18.855469 18.4375 C 18.707031 18.277344 18.519531 18.105469 18.316406 17.949219 C 18.550781 17.707031 18.753906 17.433594 18.921875 17.132812 C 18.925781 17.121094 18.933594 17.109375 18.941406 17.097656 C 19.128906 17.25 19.328125 17.394531 19.523438 17.535156 C 19.660156 17.632812 19.800781 17.734375 19.933594 17.835938 C 20.003906 17.890625 20.074219 17.949219 20.144531 18.003906 C 20.429688 18.226562 20.722656 18.457031 21.066406 18.621094 C 21.339844 18.75 21.703125 18.910156 22.085938 19.023438 C 22.34375 19.28125 22.507812 19.535156 22.511719 19.6875 C 22.515625 19.816406 22.472656 19.925781 22.375 20.019531 C 22.203125 20.1875 21.90625 20.253906 21.6875 20.246094 Z M 15.015625 16.835938 C 13.929688 16.835938 12.949219 16.167969 12.570312 15.171875 C 12.402344 15.160156 12.25 15.085938 12.183594 14.972656 C 12.171875 14.953125 12.179688 14.929688 12.199219 14.917969 C 12.21875 14.90625 12.246094 14.914062 12.253906 14.933594 C 12.3125 15.027344 12.453125 15.089844 12.605469 15.089844 C 12.757812 15.089844 12.898438 15.027344 12.953125 14.933594 C 12.964844 14.914062 12.992188 14.90625 13.011719 14.917969 C 13.03125 14.929688 13.035156 14.953125 13.023438 14.972656 C 12.960938 15.082031 12.820312 15.15625 12.660156 15.167969 C 13.035156 16.121094 13.972656 16.757812 15.015625 16.757812 C 16.058594 16.757812 17 16.121094 17.375 15.167969 C 17.210938 15.15625 17.074219 15.082031 17.007812 14.972656 C 16.996094 14.953125 17.003906 14.929688 17.023438 14.917969 C 17.042969 14.90625 17.070312 14.914062 17.082031 14.933594 C 17.136719 15.027344 17.277344 15.089844 17.429688 15.089844 C 17.582031 15.089844 17.722656 15.027344 17.777344 14.933594 C 17.789062 14.914062 17.816406 14.90625 17.835938 14.917969 C 17.855469 14.929688 17.859375 14.953125 17.847656 14.972656 C 17.78125 15.085938 17.632812 15.160156 17.460938 15.171875 C 17.082031 16.167969 16.105469 16.835938 15.015625 16.835938 Z M 16.226562 13.3125 C 16.226562 13.410156 16.296875 13.496094 16.402344 13.542969 C 16.355469 13.875 16.210938 14.117188 16.039062 14.117188 C 15.828125 14.117188 15.65625 13.757812 15.65625 13.3125 C 15.65625 12.871094 15.828125 12.511719 16.039062 12.511719 C 16.210938 12.511719 16.355469 12.75 16.402344 13.082031 C 16.296875 13.132812 16.226562 13.214844 16.226562 13.3125 Z M 14.011719 12.511719 C 14.183594 12.511719 14.332031 12.75 14.378906 13.082031 C 14.269531 13.132812 14.199219 13.214844 14.199219 13.3125 C 14.199219 13.410156 14.269531 13.496094 14.378906 13.542969 C 14.332031 13.875 14.183594 14.117188 14.011719 14.117188 C 13.800781 14.117188 13.628906 13.757812 13.628906 13.3125 C 13.628906 12.871094 13.800781 12.511719 14.011719 12.511719 Z M 14.011719 12.511719 " fill-opacity="1" fill-rule="nonzero"/></g></svg>