<svg xmlns="http://www.w3.org/2000/svg" xmlns:xlink="http://www.w3.org/1999/xlink" width="40" zoomAndPan="magnify" viewBox="0 0 30 30.000001" height="40" preserveAspectRatio="xMidYMid meet" version="1.0"><defs><clipPath id="c490830845"><path d="M 0.484375 0 L 29.515625 0 L 29.515625 29.03125 L 0.484375 29.03125 Z M 0.484375 0 " clip-rule="nonzero"/></clipPath><clipPath id="991f1ada6c"><path d="M 4.433594 3.949219 L 25.484375 3.949219 L 25.484375 25 L 4.433594 25 Z M 4.433594 3.949219 " clip-rule="nonzero"/></clipPath><clipPath id="fdb38fcde6"><path d="M 4.433594 4 L 25.484375 4 L 25.484375 25 L 4.433594 25 Z M 4.433594 4 " clip-rule="nonzero"/></clipPath><clipPath id="1f44b082d4"><path d="M 4.433594 3.949219 L 25.484375 3.949219 L 25.484375 25 L 4.433594 25 Z M 4.433594 3.949219 " clip-rule="nonzero"/></clipPath></defs><g clip-path="url(#c490830845)"><path fill="#ffffff" d="M 0.484375 0 L 29.515625 0 L 29.515625 29.03125 L 0.484375 29.03125 Z M 0.484375 0 " fill-opacity="1" fill-rule="nonzero"/><path fill="#d7573b" d="M 0.484375 0 L 29.515625 0 L 29.515625 29.03125 L 0.484375 29.03125 Z M 0.484375 0 " fill-opacity="1" fill-rule="nonzero"/></g><g clip-path="url(#991f1ada6c)"><path fill="#43241e" d="M 22.402344 7.035156 C 20.414062 5.046875 17.769531 3.949219 14.957031 3.949219 C 12.148438 3.949219 9.503906 5.046875 7.515625 7.035156 C 5.53125 9.019531 4.433594 11.664062 4.433594 14.476562 C 4.433594 17.285156 5.53125 19.929688 7.515625 21.917969 C 9.503906 23.90625 12.148438 25 14.957031 25 C 17.769531 25 20.414062 23.90625 22.402344 21.917969 C 24.386719 19.929688 25.484375 17.285156 25.484375 14.476562 C 25.484375 11.664062 24.386719 9.019531 22.402344 7.035156 Z M 19.039062 21.25 C 18.183594 21.769531 17.25 22.117188 16.265625 22.28125 L 16.265625 18.007812 Z M 21.023438 19.550781 L 16.265625 13.992188 L 16.265625 6.671875 C 20.097656 7.308594 22.871094 10.582031 22.871094 14.476562 C 22.871094 16.328125 22.214844 18.128906 21.023438 19.550781 Z M 13.652344 18.007812 L 13.652344 22.28125 C 12.667969 22.113281 11.734375 21.769531 10.878906 21.25 Z M 13.652344 13.992188 L 8.894531 19.550781 C 7.703125 18.128906 7.046875 16.328125 7.046875 14.476562 C 7.046875 10.582031 9.820312 7.308594 13.652344 6.671875 Z M 13.652344 13.992188 " fill-opacity="1" fill-rule="nonzero"/></g><g clip-path="url(#fdb38fcde6)"><path fill="#e5c2bd" d="M 22.339844 7.09375 C 20.371094 5.121094 17.746094 4.035156 14.957031 4.035156 C 12.171875 4.035156 9.546875 5.121094 7.578125 7.09375 C 5.605469 9.066406 4.519531 11.6875 4.519531 14.476562 C 4.519531 17.261719 5.605469 19.886719 7.578125 21.855469 C 9.546875 23.828125 12.171875 24.914062 14.957031 24.914062 C 17.746094 24.914062 20.371094 23.828125 22.339844 21.855469 C 24.3125 19.886719 25.398438 17.261719 25.398438 14.476562 C 25.398438 11.6875 24.3125 9.066406 22.339844 7.09375 Z M 6.863281 8.628906 C 5.660156 10.335938 5.027344 12.34375 5.027344 14.4375 C 5.027344 15.8125 5.296875 17.144531 5.832031 18.394531 C 5.839844 18.417969 5.832031 18.441406 5.808594 18.449219 C 5.804688 18.453125 5.796875 18.453125 5.792969 18.453125 C 5.777344 18.453125 5.761719 18.445312 5.753906 18.429688 C 5.214844 17.164062 4.941406 15.820312 4.941406 14.4375 C 4.941406 12.324219 5.582031 10.300781 6.792969 8.582031 C 6.808594 8.5625 6.832031 8.558594 6.851562 8.570312 C 6.871094 8.585938 6.875 8.609375 6.863281 8.628906 Z M 10.917969 23.664062 C 10.910156 23.679688 10.894531 23.6875 10.878906 23.6875 C 10.875 23.6875 10.867188 23.6875 10.863281 23.683594 C 9.757812 23.175781 8.761719 22.476562 7.902344 21.613281 C 7.886719 21.597656 7.886719 21.570312 7.902344 21.554688 C 7.917969 21.539062 7.945312 21.539062 7.960938 21.554688 C 8.816406 22.414062 9.800781 23.101562 10.898438 23.609375 C 10.917969 23.617188 10.925781 23.644531 10.917969 23.664062 Z M 13.738281 22.328125 C 13.738281 22.339844 13.730469 22.351562 13.722656 22.359375 C 13.714844 22.367188 13.703125 22.371094 13.695312 22.371094 C 13.691406 22.371094 13.691406 22.371094 13.6875 22.371094 C 12.65625 22.203125 11.683594 21.84375 10.792969 21.296875 C 10.78125 21.289062 10.773438 21.28125 10.773438 21.269531 C 10.769531 21.253906 10.773438 21.242188 10.78125 21.234375 L 13.664062 17.867188 C 13.675781 17.855469 13.691406 17.847656 13.710938 17.855469 C 13.726562 17.863281 13.738281 17.878906 13.738281 17.894531 Z M 13.738281 14.007812 C 13.738281 14.019531 13.734375 14.027344 13.726562 14.035156 L 8.925781 19.644531 C 8.917969 19.652344 8.90625 19.65625 8.894531 19.65625 C 8.882812 19.65625 8.871094 19.652344 8.863281 19.644531 C 7.636719 18.199219 6.960938 16.363281 6.960938 14.476562 C 6.960938 12.566406 7.648438 10.714844 8.898438 9.265625 C 10.132812 7.832031 11.832031 6.878906 13.6875 6.578125 C 13.699219 6.578125 13.710938 6.582031 13.722656 6.589844 C 13.730469 6.597656 13.738281 6.609375 13.738281 6.621094 Z M 19.125 21.296875 C 18.234375 21.84375 17.261719 22.203125 16.230469 22.371094 C 16.226562 22.371094 16.226562 22.371094 16.222656 22.371094 C 16.210938 22.371094 16.203125 22.367188 16.195312 22.359375 C 16.1875 22.351562 16.179688 22.339844 16.179688 22.328125 L 16.179688 17.894531 C 16.179688 17.878906 16.191406 17.863281 16.207031 17.855469 C 16.222656 17.847656 16.242188 17.855469 16.253906 17.867188 L 19.136719 21.234375 C 19.144531 21.242188 19.148438 21.253906 19.144531 21.269531 C 19.144531 21.28125 19.136719 21.289062 19.125 21.296875 Z M 21.054688 19.644531 C 21.046875 19.652344 21.035156 19.65625 21.023438 19.65625 C 21.011719 19.65625 21 19.652344 20.992188 19.644531 L 16.191406 14.035156 C 16.183594 14.027344 16.179688 14.019531 16.179688 14.007812 L 16.179688 6.621094 C 16.179688 6.609375 16.1875 6.597656 16.195312 6.589844 C 16.203125 6.582031 16.21875 6.578125 16.230469 6.578125 C 18.085938 6.878906 19.785156 7.832031 21.019531 9.265625 C 22.269531 10.714844 22.957031 12.566406 22.957031 14.476562 C 22.957031 16.363281 22.28125 18.199219 21.054688 19.644531 Z M 21.054688 19.644531 " fill-opacity="1" fill-rule="nonzero"/></g><g clip-path="url(#1f44b082d4)"><path fill="#43241e" d="M 22.402344 7.035156 C 20.414062 5.046875 17.769531 3.949219 14.957031 3.949219 C 12.148438 3.949219 9.503906 5.046875 7.515625 7.035156 C 5.53125 9.019531 4.433594 11.664062 4.433594 14.476562 C 4.433594 17.285156 5.53125 19.929688 7.515625 21.917969 C 9.503906 23.90625 12.148438 25 14.957031 25 C 17.769531 25 20.414062 23.90625 22.402344 21.917969 C 24.386719 19.929688 25.484375 17.285156 25.484375 14.476562 C 25.484375 11.664062 24.386719 9.019531 22.402344 7.035156 Z M 14.957031 24.914062 C 12.171875 24.914062 9.546875 23.828125 7.578125 21.855469 C 5.605469 19.886719 4.519531 17.261719 4.519531 14.476562 C 4.519531 11.6875 5.605469 9.066406 7.578125 7.09375 C 9.546875 5.121094 12.171875 4.035156 14.957031 4.035156 C 17.746094 4.035156 20.371094 5.121094 22.339844 7.09375 C 24.3125 9.066406 25.398438 11.6875 25.398438 14.476562 C 25.398438 17.261719 24.3125 19.886719 22.339844 21.855469 C 20.371094 23.828125 17.746094 24.914062 14.957031 24.914062 Z M 16.253906 17.867188 C 16.242188 17.855469 16.222656 17.847656 16.207031 17.855469 C 16.191406 17.863281 16.179688 17.878906 16.179688 17.894531 L 16.179688 22.328125 C 16.179688 22.339844 16.1875 22.351562 16.195312 22.359375 C 16.203125 22.367188 16.210938 22.371094 16.222656 22.371094 C 16.226562 22.371094 16.226562 22.371094 16.230469 22.371094 C 17.257812 22.203125 18.234375 21.84375 19.125 21.296875 C 19.136719 21.289062 19.144531 21.28125 19.144531 21.269531 C 19.148438 21.253906 19.144531 21.242188 19.136719 21.234375 Z M 16.265625 22.28125 L 16.265625 18.007812 L 19.039062 21.25 C 18.183594 21.769531 17.25 22.117188 16.265625 22.28125 Z M 21.019531 9.265625 C 19.785156 7.832031 18.085938 6.878906 16.230469 6.578125 C 16.21875 6.578125 16.203125 6.582031 16.195312 6.589844 C 16.1875 6.597656 16.179688 6.609375 16.179688 6.621094 L 16.179688 14.007812 C 16.179688 14.019531 16.183594 14.027344 16.191406 14.035156 L 20.992188 19.644531 C 21 19.652344 21.011719 19.65625 21.023438 19.65625 C 21.035156 19.65625 21.046875 19.652344 21.054688 19.644531 C 22.28125 18.199219 22.957031 16.363281 22.957031 14.476562 C 22.957031 12.566406 22.269531 10.714844 21.019531 9.265625 Z M 16.265625 13.992188 L 16.265625 6.671875 C 20.097656 7.308594 22.871094 10.582031 22.871094 14.476562 C 22.871094 16.328125 22.214844 18.128906 21.023438 19.550781 Z M 13.6875 6.578125 C 11.832031 6.878906 10.132812 7.832031 8.898438 9.265625 C 7.648438 10.714844 6.960938 12.566406 6.960938 14.476562 C 6.960938 16.363281 7.636719 18.199219 8.863281 19.644531 C 8.871094 19.652344 8.882812 19.65625 8.894531 19.65625 C 8.90625 19.65625 8.917969 19.652344 8.925781 19.644531 L 13.726562 14.035156 C 13.734375 14.027344 13.738281 14.019531 13.738281 14.007812 L 13.738281 6.621094 C 13.738281 6.609375 13.730469 6.597656 13.722656 6.589844 C 13.710938 6.582031 13.699219 6.578125 13.6875 6.578125 Z M 13.652344 13.992188 L 8.894531 19.550781 C 7.703125 18.128906 7.046875 16.328125 7.046875 14.476562 C 7.046875 10.582031 9.820312 7.308594 13.652344 6.671875 Z M 13.710938 17.855469 C 13.691406 17.847656 13.675781 17.855469 13.664062 17.867188 L 10.78125 21.234375 C 10.773438 21.242188 10.769531 21.253906 10.773438 21.269531 C 10.773438 21.28125 10.78125 21.289062 10.792969 21.296875 C 11.683594 21.84375 12.65625 22.203125 13.6875 22.371094 C 13.691406 22.371094 13.691406 22.371094 13.695312 22.371094 C 13.703125 22.371094 13.714844 22.367188 13.722656 22.359375 C 13.730469 22.351562 13.738281 22.339844 13.738281 22.328125 L 13.738281 17.894531 C 13.738281 17.878906 13.726562 17.863281 13.710938 17.855469 Z M 13.652344 22.28125 C 12.667969 22.117188 11.734375 21.769531 10.878906 21.25 L 13.652344 18.007812 Z M 6.851562 8.570312 C 6.871094 8.585938 6.875 8.609375 6.863281 8.628906 C 5.660156 10.335938 5.027344 12.34375 5.027344 14.4375 C 5.027344 15.8125 5.296875 17.144531 5.832031 18.394531 C 5.839844 18.417969 5.832031 18.441406 5.808594 18.449219 C 5.804688 18.453125 5.796875 18.453125 5.792969 18.453125 C 5.777344 18.453125 5.761719 18.445312 5.753906 18.429688 C 5.214844 17.164062 4.941406 15.820312 4.941406 14.4375 C 4.941406 12.324219 5.582031 10.300781 6.792969 8.582031 C 6.808594 8.5625 6.832031 8.558594 6.851562 8.570312 Z M 10.917969 23.664062 C 10.910156 23.679688 10.894531 23.6875 10.878906 23.6875 C 10.875 23.6875 10.867188 23.6875 10.863281 23.683594 C 9.757812 23.175781 8.761719 22.476562 7.902344 21.613281 C 7.886719 21.597656 7.886719 21.570312 7.902344 21.554688 C 7.917969 21.539062 7.945312 21.539062 7.960938 21.554688 C 8.816406 22.414062 9.800781 23.101562 10.898438 23.609375 C 10.917969 23.617188 10.925781 23.644531 10.917969 23.664062 Z M 10.917969 23.664062 " fill-opacity="1" fill-rule="nonzero"/></g></svg>