<svg xmlns="http://www.w3.org/2000/svg" xmlns:xlink="http://www.w3.org/1999/xlink" width="40" zoomAndPan="magnify" viewBox="0 0 30 30.000001" height="40" preserveAspectRatio="xMidYMid meet" version="1.0"><defs><clipPath id="743bb7222b"><path d="M 0.484375 0 L 29.515625 0 L 29.515625 29.03125 L 0.484375 29.03125 Z M 0.484375 0 " clip-rule="nonzero"/></clipPath><clipPath id="f7be2135e7"><path d="M 4.367188 3.941406 L 25.414062 3.941406 L 25.414062 24.988281 L 4.367188 24.988281 Z M 4.367188 3.941406 " clip-rule="nonzero"/></clipPath><clipPath id="b03fb1cb21"><path d="M 4.367188 4 L 25.414062 4 L 25.414062 24.988281 L 4.367188 24.988281 Z M 4.367188 4 " clip-rule="nonzero"/></clipPath><clipPath id="a9c6a6bba0"><path d="M 4.367188 3.941406 L 25.414062 3.941406 L 25.414062 24.988281 L 4.367188 24.988281 Z M 4.367188 3.941406 " clip-rule="nonzero"/></clipPath></defs><g clip-path="url(#743bb7222b)"><path fill="#ffffff" d="M 0.484375 0 L 29.515625 0 L 29.515625 174.195312 L 0.484375 174.195312 Z M 0.484375 0 " fill-opacity="1" fill-rule="nonzero"/><path fill="#ffffff" d="M 0.484375 0 L 29.515625 0 L 29.515625 29.03125 L 0.484375 29.03125 Z M 0.484375 0 " fill-opacity="1" fill-rule="nonzero"/><path fill="#f8807f" d="M 0.484375 0 L 29.515625 0 L 29.515625 29.03125 L 0.484375 29.03125 Z M 0.484375 0 " fill-opacity="1" fill-rule="nonzero"/></g><g clip-path="url(#f7be2135e7)"><path fill="#43241e" d="M 25.078125 13.578125 C 24.640625 14.574219 23.433594 15.257812 21.15625 15.804688 C 20.925781 15.863281 20.6875 15.890625 20.449219 15.898438 C 20.828125 16.046875 21.195312 16.136719 21.617188 16.179688 C 22.34375 16.253906 22.929688 16.675781 23.277344 17.371094 C 23.8125 18.449219 23.6875 19.996094 22.957031 21.210938 C 22.257812 22.382812 21.523438 22.992188 20.714844 23.082031 C 20.648438 23.089844 20.582031 23.09375 20.511719 23.09375 C 19.324219 23.09375 18.117188 21.988281 17.082031 20.886719 C 17.011719 20.8125 16.933594 20.746094 16.859375 20.679688 C 16.75 20.585938 16.640625 20.488281 16.550781 20.371094 C 16.550781 20.398438 16.554688 20.429688 16.554688 20.457031 C 16.574219 20.714844 16.585938 20.902344 16.761719 21.300781 C 17.0625 21.96875 16.992188 22.691406 16.566406 23.339844 C 15.917969 24.328125 14.5625 24.984375 13.175781 24.984375 C 13.148438 24.984375 13.121094 24.984375 13.097656 24.984375 C 11.796875 24.960938 10.925781 24.621094 10.433594 23.945312 C 9.804688 23.082031 9.808594 21.71875 10.445312 19.523438 C 10.335938 19.597656 10.21875 19.679688 10.109375 19.761719 C 9.296875 20.371094 8.269531 20.605469 7.292969 20.402344 C 6.378906 20.214844 5.621094 19.675781 5.15625 18.878906 C 4.480469 17.707031 4.367188 16.5625 4.832031 15.566406 C 5.367188 14.414062 6.671875 13.527344 8.261719 13.226562 C 8.15625 13.175781 8.039062 13.121094 7.921875 13.070312 C 6.992188 12.667969 6.277344 11.890625 5.960938 10.941406 C 5.667969 10.050781 5.753906 9.117188 6.207031 8.316406 C 6.875 7.140625 7.804688 6.472656 8.898438 6.378906 C 10.15625 6.269531 11.574219 6.960938 12.625 8.195312 C 12.617188 8.078125 12.609375 7.949219 12.59375 7.820312 C 12.476562 6.808594 12.785156 5.800781 13.445312 5.050781 C 14.066406 4.347656 14.914062 3.957031 15.832031 3.953125 C 17.65625 3.945312 18.546875 4.796875 18.96875 5.515625 C 19.714844 6.773438 19.648438 8.621094 18.8125 10.265625 C 19.125 10.011719 19.390625 9.730469 19.632812 9.390625 C 20.058594 8.796875 20.71875 8.496094 21.488281 8.542969 C 22.6875 8.617188 23.953125 9.5 24.640625 10.742188 C 25.269531 11.886719 25.414062 12.8125 25.078125 13.578125 Z M 25.078125 13.578125 " fill-opacity="1" fill-rule="nonzero"/></g><g clip-path="url(#b03fb1cb21)"><path fill="#c16d02" d="M 25 13.546875 C 25.324219 12.804688 25.183594 11.902344 24.566406 10.78125 C 23.894531 9.5625 22.65625 8.695312 21.484375 8.625 C 20.742188 8.582031 20.109375 8.871094 19.703125 9.441406 C 19.414062 9.839844 19.097656 10.160156 18.707031 10.449219 C 18.691406 10.460938 18.671875 10.460938 18.65625 10.449219 C 18.640625 10.4375 18.636719 10.414062 18.648438 10.398438 C 19.554688 8.734375 19.65625 6.835938 18.898438 5.558594 C 18.304688 4.554688 17.242188 4.03125 15.832031 4.035156 C 14.9375 4.042969 14.113281 4.421875 13.507812 5.105469 C 12.863281 5.835938 12.5625 6.824219 12.675781 7.8125 C 12.695312 7.988281 12.710938 8.167969 12.71875 8.316406 C 12.71875 8.332031 12.710938 8.351562 12.691406 8.355469 C 12.675781 8.363281 12.65625 8.359375 12.644531 8.34375 C 11.601562 7.074219 10.171875 6.351562 8.90625 6.460938 C 7.84375 6.550781 6.933594 7.207031 6.28125 8.359375 C 5.839844 9.140625 5.753906 10.046875 6.042969 10.914062 C 6.351562 11.84375 7.046875 12.601562 7.957031 12.992188 C 8.117188 13.0625 8.277344 13.140625 8.410156 13.207031 C 8.425781 13.21875 8.4375 13.234375 8.433594 13.253906 C 8.429688 13.269531 8.417969 13.285156 8.398438 13.289062 C 6.785156 13.558594 5.445312 14.445312 4.90625 15.601562 C 4.453125 16.574219 4.566406 17.691406 5.230469 18.835938 C 5.679688 19.609375 6.417969 20.140625 7.3125 20.320312 C 8.265625 20.515625 9.265625 20.289062 10.058594 19.695312 C 10.207031 19.585938 10.363281 19.480469 10.496094 19.390625 C 10.503906 19.386719 10.511719 19.382812 10.519531 19.382812 C 10.527344 19.382812 10.535156 19.386719 10.542969 19.390625 C 10.558594 19.402344 10.5625 19.421875 10.558594 19.4375 C 10.558594 19.4375 10.558594 19.441406 10.558594 19.441406 C 9.898438 21.671875 9.882812 23.042969 10.5 23.894531 C 10.976562 24.546875 11.828125 24.875 13.097656 24.898438 C 14.484375 24.921875 15.851562 24.277344 16.496094 23.292969 C 16.90625 22.671875 16.972656 21.972656 16.6875 21.332031 C 16.503906 20.925781 16.492188 20.730469 16.472656 20.460938 C 16.46875 20.382812 16.460938 20.304688 16.453125 20.210938 C 16.449219 20.191406 16.460938 20.171875 16.480469 20.164062 C 16.5 20.160156 16.523438 20.167969 16.53125 20.1875 C 16.621094 20.359375 16.761719 20.484375 16.914062 20.617188 C 16.988281 20.683594 17.070312 20.753906 17.140625 20.832031 C 18.164062 21.917969 19.355469 23.007812 20.511719 23.007812 C 20.578125 23.007812 20.644531 23.003906 20.707031 23 C 21.488281 22.914062 22.203125 22.316406 22.886719 21.167969 C 23.601562 19.976562 23.726562 18.464844 23.203125 17.40625 C 22.871094 16.742188 22.304688 16.332031 21.609375 16.261719 C 21.105469 16.210938 20.675781 16.097656 20.21875 15.890625 C 20.199219 15.882812 20.191406 15.863281 20.195312 15.84375 C 20.199219 15.824219 20.214844 15.8125 20.238281 15.8125 C 20.542969 15.824219 20.84375 15.796875 21.136719 15.726562 C 23.386719 15.183594 24.578125 14.511719 25 13.546875 Z M 20.980469 14.535156 C 20.734375 15.046875 20.203125 15.425781 19.355469 15.695312 C 19.585938 15.863281 19.773438 16.105469 19.894531 16.390625 C 20.210938 17.136719 20.089844 18.121094 19.585938 18.898438 C 19.007812 19.785156 18.335938 20.164062 17.582031 20.023438 C 17.132812 19.9375 16.6875 19.679688 16.179688 19.210938 C 16.152344 19.484375 16.050781 19.746094 15.875 19.992188 C 15.425781 20.625 14.585938 21.015625 13.699219 21.015625 C 13.644531 21.015625 13.589844 21.015625 13.535156 21.011719 C 13.355469 21 13.183594 20.980469 13.027344 20.953125 C 12.398438 20.832031 11.953125 20.550781 11.695312 20.113281 C 11.425781 19.648438 11.382812 19.019531 11.566406 18.199219 C 11.175781 18.328125 10.761719 18.359375 10.367188 18.285156 C 9.699219 18.15625 9.132812 17.746094 8.820312 17.152344 C 8.285156 16.148438 8.457031 15.378906 8.699219 14.90625 C 8.972656 14.375 9.476562 13.941406 10.128906 13.679688 C 9.789062 13.378906 9.542969 12.992188 9.417969 12.5625 C 9.238281 11.941406 9.320312 11.304688 9.65625 10.765625 C 10.242188 9.816406 11.09375 9.394531 12.054688 9.574219 C 12.480469 9.65625 12.910156 9.859375 13.304688 10.167969 C 13.390625 9.722656 13.601562 9.316406 13.910156 8.992188 C 14.351562 8.523438 14.945312 8.277344 15.578125 8.300781 C 15.75 8.304688 15.917969 8.324219 16.074219 8.351562 C 16.855469 8.5 17.425781 8.933594 17.726562 9.609375 C 17.929688 10.0625 17.996094 10.605469 17.917969 11.171875 C 18.214844 11.039062 18.558594 11.003906 18.914062 11.070312 C 19.675781 11.214844 20.394531 11.792969 20.789062 12.574219 C 21.175781 13.339844 21.242188 14 20.980469 14.535156 Z M 20.980469 14.535156 " fill-opacity="1" fill-rule="nonzero"/></g><path fill="#dca7a0" d="M 20.714844 12.613281 C 20.332031 11.851562 19.636719 11.292969 18.898438 11.15625 C 18.53125 11.085938 18.179688 11.128906 17.882812 11.28125 C 17.871094 11.289062 17.851562 11.289062 17.839844 11.277344 C 17.828125 11.269531 17.820312 11.253906 17.824219 11.238281 C 17.917969 10.65625 17.859375 10.105469 17.652344 9.640625 C 17.359375 8.992188 16.808594 8.578125 16.058594 8.433594 C 15.90625 8.40625 15.742188 8.386719 15.574219 8.382812 C 14.964844 8.363281 14.398438 8.597656 13.972656 9.046875 C 13.65625 9.378906 13.449219 9.796875 13.371094 10.253906 C 13.371094 10.265625 13.359375 10.277344 13.347656 10.285156 C 13.332031 10.289062 13.316406 10.289062 13.304688 10.277344 C 12.910156 9.953125 12.472656 9.738281 12.039062 9.65625 C 11.113281 9.484375 10.292969 9.890625 9.726562 10.808594 C 9.40625 11.328125 9.324219 11.941406 9.496094 12.539062 C 9.625 12.976562 9.878906 13.363281 10.234375 13.660156 C 10.246094 13.667969 10.25 13.683594 10.25 13.699219 C 10.246094 13.714844 10.234375 13.726562 10.222656 13.730469 C 9.558594 13.984375 9.046875 14.414062 8.773438 14.945312 C 8.542969 15.398438 8.375 16.140625 8.890625 17.113281 C 9.195312 17.683594 9.738281 18.082031 10.378906 18.203125 C 10.789062 18.277344 11.210938 18.242188 11.609375 18.09375 C 11.621094 18.089844 11.636719 18.089844 11.648438 18.101562 C 11.660156 18.113281 11.667969 18.128906 11.664062 18.140625 C 11.464844 18.980469 11.5 19.613281 11.769531 20.070312 C 12.011719 20.488281 12.441406 20.753906 13.042969 20.871094 C 13.195312 20.898438 13.363281 20.917969 13.539062 20.929688 C 14.457031 20.980469 15.347656 20.589844 15.808594 19.941406 C 15.992188 19.683594 16.089844 19.40625 16.105469 19.117188 C 16.105469 19.101562 16.113281 19.089844 16.128906 19.082031 C 16.144531 19.074219 16.164062 19.078125 16.175781 19.089844 C 16.695312 19.585938 17.148438 19.855469 17.597656 19.9375 C 18.3125 20.074219 18.960938 19.707031 19.515625 18.851562 C 20.003906 18.097656 20.125 17.144531 19.816406 16.425781 C 19.6875 16.121094 19.488281 15.878906 19.238281 15.714844 C 19.226562 15.707031 19.21875 15.691406 19.21875 15.675781 C 19.222656 15.660156 19.234375 15.644531 19.25 15.640625 C 20.121094 15.378906 20.664062 15.003906 20.90625 14.5 C 21.152344 13.988281 21.089844 13.355469 20.714844 12.613281 Z M 20.667969 14.382812 C 20.394531 14.945312 19.683594 15.316406 18.367188 15.582031 C 18.257812 15.601562 18.148438 15.613281 18.042969 15.617188 C 18.226562 15.691406 18.410156 15.738281 18.621094 15.769531 C 19.039062 15.828125 19.371094 16.085938 19.558594 16.496094 C 19.84375 17.132812 19.738281 18.019531 19.292969 18.707031 C 18.882812 19.335938 18.449219 19.660156 17.96875 19.695312 C 17.34375 19.738281 16.671875 19.308594 15.78125 18.289062 C 15.710938 18.207031 15.644531 18.121094 15.589844 18.027344 C 15.617188 18.226562 15.667969 18.410156 15.75 18.605469 C 15.90625 19 15.851562 19.417969 15.589844 19.785156 C 15.210938 20.320312 14.460938 20.664062 13.695312 20.664062 C 13.648438 20.664062 13.601562 20.664062 13.554688 20.660156 C 12.808594 20.617188 12.3125 20.402344 12.039062 20 C 11.699219 19.496094 11.726562 18.722656 12.121094 17.503906 C 12.070312 17.535156 12.019531 17.570312 11.96875 17.605469 C 11.484375 17.9375 10.890625 18.050781 10.328125 17.914062 C 9.804688 17.789062 9.378906 17.457031 9.128906 16.988281 C 8.761719 16.300781 8.71875 15.636719 9.011719 15.070312 C 9.335938 14.429688 10.085938 13.953125 10.980469 13.804688 C 10.9375 13.78125 10.886719 13.753906 10.839844 13.734375 C 10.3125 13.480469 9.917969 13.015625 9.753906 12.460938 C 9.601562 11.941406 9.671875 11.40625 9.953125 10.949219 C 10.363281 10.289062 10.914062 9.921875 11.546875 9.890625 C 12.261719 9.855469 13.046875 10.269531 13.621094 10.972656 C 13.621094 10.921875 13.617188 10.867188 13.613281 10.816406 C 13.566406 10.226562 13.769531 9.652344 14.164062 9.234375 C 14.539062 8.839844 15.035156 8.632812 15.566406 8.652344 C 16.617188 8.683594 17.113281 9.199219 17.34375 9.621094 C 17.734375 10.34375 17.671875 11.367188 17.191406 12.277344 C 17.347656 12.152344 17.484375 12.015625 17.609375 11.851562 C 17.871094 11.515625 18.261719 11.355469 18.707031 11.398438 C 19.398438 11.464844 20.109375 12 20.476562 12.734375 C 20.816406 13.40625 20.878906 13.945312 20.667969 14.382812 Z M 20.667969 14.382812 " fill-opacity="1" fill-rule="nonzero"/><path fill="#e1bf4b" d="M 18.699219 11.480469 C 18.402344 11.453125 17.988281 11.503906 17.675781 11.902344 C 17.503906 12.125 17.316406 12.304688 17.082031 12.460938 C 17.066406 12.472656 17.046875 12.472656 17.03125 12.457031 C 17.015625 12.445312 17.015625 12.421875 17.023438 12.40625 C 17.574219 11.480469 17.671875 10.402344 17.269531 9.664062 C 16.953125 9.082031 16.363281 8.761719 15.5625 8.734375 C 15.054688 8.71875 14.582031 8.917969 14.226562 9.292969 C 13.84375 9.691406 13.652344 10.246094 13.695312 10.808594 C 13.703125 10.910156 13.707031 11.011719 13.710938 11.097656 C 13.710938 11.117188 13.699219 11.132812 13.683594 11.140625 C 13.664062 11.144531 13.644531 11.140625 13.636719 11.125 C 13.070312 10.378906 12.269531 9.9375 11.550781 9.972656 C 10.945312 10.003906 10.417969 10.355469 10.023438 10.996094 C 9.757812 11.429688 9.6875 11.941406 9.835938 12.4375 C 9.988281 12.96875 10.371094 13.414062 10.875 13.65625 C 10.96875 13.699219 11.058594 13.75 11.132812 13.789062 C 11.148438 13.800781 11.15625 13.816406 11.152344 13.835938 C 11.152344 13.851562 11.136719 13.867188 11.117188 13.867188 C 10.195312 13.988281 9.414062 14.464844 9.085938 15.109375 C 8.808594 15.648438 8.847656 16.285156 9.199219 16.949219 C 9.441406 17.398438 9.847656 17.710938 10.347656 17.835938 C 10.886719 17.964844 11.457031 17.855469 11.921875 17.535156 C 12.007812 17.476562 12.097656 17.417969 12.175781 17.371094 C 12.183594 17.367188 12.191406 17.367188 12.199219 17.367188 C 12.207031 17.367188 12.21875 17.367188 12.226562 17.375 C 12.238281 17.386719 12.242188 17.40625 12.238281 17.421875 C 11.816406 18.679688 11.777344 19.457031 12.109375 19.953125 C 12.363281 20.332031 12.839844 20.535156 13.558594 20.574219 C 14.347656 20.621094 15.136719 20.28125 15.523438 19.738281 C 15.695312 19.496094 15.859375 19.109375 15.671875 18.636719 C 15.5625 18.367188 15.503906 18.117188 15.484375 17.824219 C 15.480469 17.804688 15.496094 17.785156 15.515625 17.78125 C 15.535156 17.777344 15.554688 17.785156 15.5625 17.804688 C 15.636719 17.960938 15.734375 18.105469 15.84375 18.234375 C 16.714844 19.230469 17.367188 19.652344 17.960938 19.613281 C 18.414062 19.578125 18.828125 19.265625 19.222656 18.660156 C 19.652344 17.996094 19.757812 17.140625 19.480469 16.53125 C 19.359375 16.261719 19.109375 15.921875 18.609375 15.851562 C 18.320312 15.8125 18.074219 15.738281 17.8125 15.609375 C 17.796875 15.601562 17.789062 15.578125 17.792969 15.558594 C 17.796875 15.539062 17.816406 15.527344 17.835938 15.53125 C 18.007812 15.542969 18.179688 15.53125 18.347656 15.5 C 19.640625 15.238281 20.332031 14.882812 20.59375 14.34375 C 20.789062 13.933594 20.730469 13.417969 20.402344 12.769531 C 20.046875 12.0625 19.363281 11.546875 18.699219 11.480469 Z M 17.199219 15.152344 C 17.070312 15.84375 16.679688 16.445312 16.101562 16.84375 C 15.660156 17.148438 15.148438 17.304688 14.625 17.304688 C 14.464844 17.304688 14.300781 17.289062 14.136719 17.257812 C 12.714844 16.988281 11.773438 15.609375 12.039062 14.179688 C 12.171875 13.484375 12.558594 12.882812 13.140625 12.488281 C 13.71875 12.089844 14.417969 11.941406 15.105469 12.070312 C 16.527344 12.339844 17.46875 13.722656 17.199219 15.152344 Z M 17.199219 15.152344 " fill-opacity="1" fill-rule="nonzero"/><path fill="#f6e5cf" d="M 17.117188 15.136719 C 16.992188 15.808594 16.617188 16.390625 16.054688 16.773438 C 15.496094 17.160156 14.820312 17.300781 14.152344 17.175781 C 12.773438 16.917969 11.863281 15.578125 12.121094 14.191406 C 12.25 13.523438 12.625 12.941406 13.1875 12.554688 C 13.613281 12.261719 14.109375 12.109375 14.617188 12.109375 C 14.773438 12.109375 14.933594 12.125 15.089844 12.152344 C 16.46875 12.414062 17.378906 13.753906 17.117188 15.136719 Z M 17.117188 15.136719 " fill-opacity="1" fill-rule="nonzero"/><g clip-path="url(#a9c6a6bba0)"><path fill="#43241e" d="M 24.640625 10.742188 C 23.953125 9.5 22.6875 8.613281 21.488281 8.542969 C 20.71875 8.496094 20.058594 8.796875 19.632812 9.390625 C 19.390625 9.730469 19.125 10.011719 18.8125 10.265625 C 19.648438 8.621094 19.714844 6.773438 18.96875 5.515625 C 18.546875 4.796875 17.65625 3.945312 15.832031 3.953125 C 14.914062 3.957031 14.066406 4.347656 13.445312 5.050781 C 12.785156 5.800781 12.476562 6.808594 12.59375 7.820312 C 12.609375 7.949219 12.617188 8.078125 12.625 8.195312 C 11.574219 6.960938 10.15625 6.269531 8.898438 6.378906 C 7.804688 6.472656 6.875 7.140625 6.207031 8.316406 C 5.753906 9.117188 5.667969 10.050781 5.960938 10.941406 C 6.277344 11.890625 6.992188 12.667969 7.921875 13.070312 C 8.039062 13.121094 8.15625 13.175781 8.261719 13.226562 C 6.671875 13.527344 5.367188 14.414062 4.832031 15.566406 C 4.367188 16.5625 4.480469 17.707031 5.15625 18.875 C 5.621094 19.675781 6.378906 20.214844 7.292969 20.402344 C 8.269531 20.605469 9.296875 20.371094 10.109375 19.761719 C 10.21875 19.679688 10.335938 19.597656 10.445312 19.523438 C 9.808594 21.71875 9.804688 23.082031 10.433594 23.945312 C 10.925781 24.621094 11.796875 24.960938 13.097656 24.984375 C 13.121094 24.984375 13.148438 24.984375 13.175781 24.984375 C 14.5625 24.984375 15.917969 24.328125 16.566406 23.339844 C 16.992188 22.691406 17.0625 21.96875 16.761719 21.300781 C 16.585938 20.902344 16.574219 20.714844 16.554688 20.457031 C 16.554688 20.425781 16.550781 20.398438 16.550781 20.371094 C 16.640625 20.488281 16.75 20.585938 16.859375 20.679688 C 16.933594 20.746094 17.011719 20.8125 17.082031 20.886719 C 18.117188 21.988281 19.324219 23.09375 20.511719 23.09375 C 20.582031 23.09375 20.648438 23.089844 20.714844 23.082031 C 21.523438 22.992188 22.257812 22.382812 22.957031 21.210938 C 23.6875 19.996094 23.8125 18.449219 23.277344 17.371094 C 22.929688 16.675781 22.34375 16.253906 21.617188 16.179688 C 21.195312 16.136719 20.828125 16.046875 20.449219 15.898438 C 20.6875 15.890625 20.925781 15.863281 21.15625 15.804688 C 23.433594 15.257812 24.640625 14.574219 25.078125 13.578125 C 25.414062 12.8125 25.269531 11.886719 24.640625 10.742188 Z M 20.234375 15.8125 C 20.214844 15.8125 20.199219 15.824219 20.195312 15.84375 C 20.1875 15.863281 20.199219 15.882812 20.21875 15.890625 C 20.675781 16.097656 21.105469 16.210938 21.609375 16.261719 C 22.304688 16.332031 22.871094 16.738281 23.203125 17.40625 C 23.726562 18.464844 23.601562 19.976562 22.886719 21.167969 C 22.203125 22.316406 21.488281 22.914062 20.707031 23 C 20.644531 23.003906 20.578125 23.007812 20.511719 23.007812 C 19.355469 23.007812 18.164062 21.917969 17.140625 20.832031 C 17.070312 20.753906 16.988281 20.683594 16.914062 20.617188 C 16.761719 20.484375 16.621094 20.359375 16.53125 20.1875 C 16.523438 20.167969 16.5 20.160156 16.480469 20.164062 C 16.460938 20.171875 16.449219 20.191406 16.453125 20.210938 C 16.460938 20.304688 16.46875 20.382812 16.472656 20.460938 C 16.492188 20.730469 16.503906 20.925781 16.6875 21.332031 C 16.972656 21.972656 16.90625 22.671875 16.496094 23.292969 C 15.851562 24.277344 14.484375 24.921875 13.097656 24.898438 C 11.828125 24.875 10.976562 24.546875 10.5 23.894531 C 9.882812 23.042969 9.898438 21.667969 10.554688 19.441406 C 10.558594 19.441406 10.558594 19.4375 10.558594 19.4375 C 10.5625 19.421875 10.558594 19.402344 10.542969 19.390625 C 10.535156 19.386719 10.527344 19.382812 10.519531 19.382812 C 10.511719 19.382812 10.503906 19.386719 10.496094 19.390625 C 10.363281 19.480469 10.207031 19.582031 10.058594 19.695312 C 9.265625 20.289062 8.265625 20.515625 7.3125 20.320312 C 6.417969 20.140625 5.679688 19.609375 5.230469 18.835938 C 4.566406 17.691406 4.453125 16.574219 4.90625 15.601562 C 5.445312 14.445312 6.78125 13.558594 8.398438 13.289062 C 8.417969 13.285156 8.429688 13.269531 8.433594 13.253906 C 8.4375 13.234375 8.425781 13.214844 8.410156 13.207031 C 8.277344 13.140625 8.117188 13.0625 7.957031 12.992188 C 7.046875 12.601562 6.351562 11.84375 6.042969 10.914062 C 5.753906 10.046875 5.839844 9.140625 6.28125 8.359375 C 6.933594 7.207031 7.839844 6.550781 8.90625 6.460938 C 10.167969 6.351562 11.601562 7.074219 12.644531 8.34375 C 12.65625 8.359375 12.675781 8.363281 12.691406 8.355469 C 12.707031 8.351562 12.71875 8.332031 12.71875 8.316406 C 12.710938 8.167969 12.695312 7.988281 12.675781 7.8125 C 12.5625 6.824219 12.863281 5.835938 13.507812 5.105469 C 14.113281 4.421875 14.9375 4.039062 15.832031 4.035156 C 17.242188 4.03125 18.304688 4.554688 18.898438 5.558594 C 19.652344 6.835938 19.554688 8.734375 18.648438 10.398438 C 18.636719 10.414062 18.640625 10.4375 18.65625 10.449219 C 18.671875 10.460938 18.691406 10.460938 18.707031 10.449219 C 19.097656 10.160156 19.414062 9.839844 19.703125 9.441406 C 20.109375 8.871094 20.742188 8.582031 21.484375 8.625 C 22.65625 8.695312 23.894531 9.5625 24.566406 10.78125 C 25.183594 11.902344 25.324219 12.804688 25 13.546875 C 24.578125 14.511719 23.386719 15.183594 21.136719 15.722656 C 20.84375 15.796875 20.542969 15.824219 20.234375 15.8125 Z M 18.914062 11.070312 C 18.558594 11.003906 18.214844 11.039062 17.917969 11.171875 C 17.996094 10.605469 17.929688 10.0625 17.726562 9.609375 C 17.425781 8.933594 16.855469 8.5 16.074219 8.351562 C 15.917969 8.324219 15.75 8.304688 15.578125 8.300781 C 14.945312 8.277344 14.351562 8.523438 13.910156 8.992188 C 13.601562 9.316406 13.390625 9.722656 13.304688 10.167969 C 12.910156 9.859375 12.480469 9.65625 12.054688 9.574219 C 11.09375 9.394531 10.242188 9.816406 9.65625 10.765625 C 9.320312 11.304688 9.238281 11.941406 9.417969 12.5625 C 9.542969 12.992188 9.789062 13.378906 10.128906 13.679688 C 9.476562 13.941406 8.972656 14.375 8.699219 14.90625 C 8.457031 15.378906 8.285156 16.148438 8.820312 17.152344 C 9.132812 17.746094 9.699219 18.15625 10.367188 18.285156 C 10.761719 18.359375 11.175781 18.328125 11.566406 18.199219 C 11.382812 19.019531 11.425781 19.648438 11.695312 20.113281 C 11.953125 20.550781 12.398438 20.832031 13.027344 20.953125 C 13.183594 20.980469 13.355469 21 13.535156 21.011719 C 13.589844 21.015625 13.644531 21.015625 13.699219 21.015625 C 14.585938 21.015625 15.425781 20.625 15.875 19.992188 C 16.050781 19.746094 16.152344 19.484375 16.179688 19.210938 C 16.6875 19.679688 17.132812 19.9375 17.582031 20.023438 C 18.335938 20.164062 19.007812 19.785156 19.585938 18.898438 C 20.089844 18.121094 20.210938 17.136719 19.894531 16.390625 C 19.773438 16.105469 19.585938 15.863281 19.355469 15.695312 C 20.203125 15.425781 20.734375 15.046875 20.980469 14.535156 C 21.242188 14 21.175781 13.339844 20.789062 12.574219 C 20.394531 11.792969 19.675781 11.214844 18.914062 11.070312 Z M 19.25 15.640625 C 19.234375 15.644531 19.222656 15.660156 19.222656 15.675781 C 19.21875 15.691406 19.226562 15.707031 19.238281 15.714844 C 19.488281 15.878906 19.6875 16.121094 19.816406 16.425781 C 20.125 17.144531 20.003906 18.097656 19.515625 18.851562 C 18.960938 19.707031 18.3125 20.074219 17.597656 19.9375 C 17.148438 19.855469 16.695312 19.585938 16.175781 19.089844 C 16.164062 19.078125 16.144531 19.074219 16.128906 19.082031 C 16.113281 19.089844 16.105469 19.101562 16.105469 19.117188 C 16.089844 19.40625 15.992188 19.683594 15.808594 19.941406 C 15.347656 20.589844 14.457031 20.980469 13.539062 20.929688 C 13.363281 20.917969 13.195312 20.898438 13.042969 20.871094 C 12.441406 20.753906 12.011719 20.488281 11.769531 20.070312 C 11.5 19.613281 11.464844 18.980469 11.664062 18.140625 C 11.667969 18.128906 11.660156 18.113281 11.648438 18.101562 C 11.636719 18.089844 11.621094 18.089844 11.609375 18.09375 C 11.210938 18.242188 10.789062 18.277344 10.378906 18.203125 C 9.738281 18.082031 9.195312 17.683594 8.890625 17.113281 C 8.375 16.140625 8.542969 15.398438 8.773438 14.945312 C 9.046875 14.414062 9.558594 13.984375 10.222656 13.730469 C 10.234375 13.726562 10.246094 13.714844 10.25 13.699219 C 10.25 13.683594 10.246094 13.667969 10.234375 13.660156 C 9.878906 13.363281 9.625 12.976562 9.496094 12.539062 C 9.324219 11.941406 9.40625 11.328125 9.726562 10.808594 C 10.292969 9.890625 11.113281 9.484375 12.039062 9.65625 C 12.472656 9.738281 12.910156 9.953125 13.304688 10.277344 C 13.316406 10.289062 13.332031 10.289062 13.347656 10.285156 C 13.359375 10.28125 13.371094 10.265625 13.371094 10.253906 C 13.449219 9.796875 13.65625 9.378906 13.972656 9.046875 C 14.398438 8.597656 14.964844 8.363281 15.574219 8.382812 C 15.742188 8.386719 15.90625 8.40625 16.058594 8.433594 C 16.8125 8.578125 17.359375 8.992188 17.652344 9.640625 C 17.859375 10.105469 17.917969 10.65625 17.824219 11.238281 C 17.820312 11.253906 17.828125 11.269531 17.839844 11.277344 C 17.851562 11.289062 17.871094 11.289062 17.882812 11.28125 C 18.179688 11.128906 18.53125 11.085938 18.898438 11.15625 C 19.636719 11.292969 20.332031 11.851562 20.714844 12.613281 C 21.089844 13.355469 21.152344 13.988281 20.90625 14.5 C 20.664062 15.003906 20.121094 15.378906 19.25 15.640625 Z M 18.707031 11.398438 C 18.261719 11.355469 17.871094 11.515625 17.609375 11.851562 C 17.484375 12.015625 17.347656 12.152344 17.191406 12.277344 C 17.671875 11.367188 17.734375 10.34375 17.34375 9.621094 C 17.113281 9.199219 16.617188 8.683594 15.566406 8.652344 C 15.035156 8.632812 14.539062 8.839844 14.164062 9.234375 C 13.769531 9.652344 13.566406 10.226562 13.613281 10.816406 C 13.617188 10.867188 13.621094 10.921875 13.621094 10.972656 C 13.046875 10.269531 12.261719 9.855469 11.546875 9.890625 C 10.914062 9.921875 10.363281 10.289062 9.953125 10.949219 C 9.671875 11.40625 9.601562 11.941406 9.753906 12.460938 C 9.917969 13.015625 10.3125 13.480469 10.839844 13.734375 C 10.886719 13.753906 10.9375 13.78125 10.980469 13.804688 C 10.085938 13.953125 9.335938 14.429688 9.011719 15.070312 C 8.71875 15.636719 8.761719 16.300781 9.128906 16.988281 C 9.378906 17.457031 9.804688 17.789062 10.328125 17.914062 C 10.890625 18.050781 11.484375 17.9375 11.96875 17.605469 C 12.019531 17.570312 12.070312 17.535156 12.121094 17.503906 C 11.726562 18.722656 11.699219 19.496094 12.039062 20 C 12.3125 20.402344 12.804688 20.617188 13.554688 20.660156 C 13.601562 20.664062 13.648438 20.664062 13.695312 20.664062 C 14.460938 20.664062 15.210938 20.320312 15.589844 19.785156 C 15.851562 19.417969 15.90625 19 15.75 18.605469 C 15.667969 18.410156 15.617188 18.226562 15.589844 18.027344 C 15.644531 18.121094 15.710938 18.210938 15.78125 18.289062 C 16.671875 19.308594 17.34375 19.738281 17.96875 19.695312 C 18.449219 19.660156 18.882812 19.335938 19.292969 18.707031 C 19.738281 18.019531 19.84375 17.132812 19.558594 16.496094 C 19.371094 16.085938 19.039062 15.828125 18.621094 15.769531 C 18.410156 15.738281 18.226562 15.691406 18.042969 15.617188 C 18.152344 15.617188 18.257812 15.601562 18.367188 15.582031 C 19.683594 15.316406 20.394531 14.945312 20.667969 14.382812 C 20.878906 13.945312 20.816406 13.40625 20.476562 12.734375 C 20.109375 12.003906 19.398438 11.464844 18.707031 11.398438 Z M 20.59375 14.34375 C 20.332031 14.882812 19.640625 15.238281 18.347656 15.5 C 18.179688 15.53125 18.007812 15.542969 17.835938 15.53125 C 17.816406 15.527344 17.796875 15.539062 17.792969 15.558594 C 17.789062 15.578125 17.796875 15.601562 17.8125 15.609375 C 18.074219 15.738281 18.320312 15.8125 18.609375 15.851562 C 19.109375 15.921875 19.359375 16.261719 19.480469 16.53125 C 19.757812 17.140625 19.652344 17.996094 19.222656 18.660156 C 18.828125 19.265625 18.414062 19.578125 17.960938 19.613281 C 17.367188 19.652344 16.714844 19.230469 15.84375 18.234375 C 15.734375 18.105469 15.636719 17.960938 15.5625 17.804688 C 15.554688 17.785156 15.535156 17.777344 15.515625 17.78125 C 15.496094 17.785156 15.480469 17.804688 15.484375 17.824219 C 15.503906 18.117188 15.5625 18.367188 15.671875 18.636719 C 15.859375 19.109375 15.695312 19.496094 15.523438 19.738281 C 15.136719 20.28125 14.347656 20.621094 13.558594 20.574219 C 12.839844 20.535156 12.363281 20.332031 12.109375 19.953125 C 11.777344 19.457031 11.816406 18.679688 12.238281 17.421875 C 12.242188 17.40625 12.238281 17.386719 12.226562 17.375 C 12.21875 17.367188 12.207031 17.367188 12.199219 17.367188 C 12.191406 17.367188 12.183594 17.367188 12.175781 17.371094 C 12.097656 17.417969 12.007812 17.476562 11.921875 17.535156 C 11.457031 17.855469 10.886719 17.964844 10.347656 17.835938 C 9.847656 17.710938 9.441406 17.398438 9.199219 16.949219 C 8.847656 16.285156 8.808594 15.648438 9.085938 15.109375 C 9.414062 14.464844 10.195312 13.988281 11.117188 13.867188 C 11.136719 13.867188 11.152344 13.851562 11.152344 13.835938 C 11.15625 13.816406 11.148438 13.800781 11.132812 13.789062 C 11.058594 13.75 10.96875 13.699219 10.875 13.65625 C 10.371094 13.414062 9.988281 12.96875 9.835938 12.4375 C 9.6875 11.941406 9.757812 11.429688 10.023438 10.996094 C 10.417969 10.355469 10.945312 10.003906 11.550781 9.972656 C 12.269531 9.9375 13.070312 10.378906 13.636719 11.125 C 13.644531 11.140625 13.664062 11.144531 13.683594 11.140625 C 13.699219 11.132812 13.710938 11.117188 13.710938 11.097656 C 13.707031 11.011719 13.703125 10.910156 13.695312 10.808594 C 13.652344 10.246094 13.84375 9.691406 14.226562 9.292969 C 14.582031 8.917969 15.054688 8.71875 15.5625 8.734375 C 16.363281 8.761719 16.953125 9.082031 17.269531 9.664062 C 17.671875 10.402344 17.574219 11.480469 17.023438 12.40625 C 17.015625 12.421875 17.015625 12.445312 17.03125 12.457031 C 17.046875 12.472656 17.066406 12.472656 17.082031 12.460938 C 17.316406 12.304688 17.503906 12.125 17.675781 11.902344 C 17.988281 11.503906 18.402344 11.453125 18.699219 11.480469 C 19.363281 11.546875 20.046875 12.0625 20.402344 12.769531 C 20.730469 13.417969 20.789062 13.933594 20.59375 14.34375 Z M 15.105469 12.070312 C 14.417969 11.941406 13.71875 12.089844 13.140625 12.488281 C 12.558594 12.882812 12.171875 13.484375 12.039062 14.179688 C 11.773438 15.609375 12.714844 16.988281 14.136719 17.257812 C 14.300781 17.289062 14.464844 17.304688 14.625 17.304688 C 15.148438 17.304688 15.660156 17.148438 16.101562 16.84375 C 16.679688 16.445312 17.070312 15.84375 17.199219 15.152344 C 17.46875 13.722656 16.527344 12.339844 15.105469 12.070312 Z M 16.054688 16.773438 C 15.496094 17.160156 14.820312 17.300781 14.152344 17.175781 C 12.773438 16.917969 11.863281 15.578125 12.121094 14.191406 C 12.25 13.523438 12.625 12.941406 13.1875 12.554688 C 13.613281 12.261719 14.109375 12.109375 14.617188 12.109375 C 14.773438 12.109375 14.933594 12.125 15.089844 12.152344 C 16.46875 12.414062 17.378906 13.753906 17.117188 15.136719 C 16.992188 15.808594 16.617188 16.390625 16.054688 16.773438 Z M 16.054688 16.773438 " fill-opacity="1" fill-rule="nonzero"/></g></svg>