<svg xmlns="http://www.w3.org/2000/svg" xmlns:xlink="http://www.w3.org/1999/xlink" width="40" zoomAndPan="magnify" viewBox="0 0 30 30.000001" height="40" preserveAspectRatio="xMidYMid meet" version="1.0"><defs><clipPath id="efd329b77c"><path d="M 0.484375 0 L 29.515625 0 L 29.515625 29.03125 L 0.484375 29.03125 Z M 0.484375 0 " clip-rule="nonzero"/></clipPath><clipPath id="d67d3815df"><path d="M 4.195312 5.285156 L 25.96875 5.285156 L 25.96875 23.429688 L 4.195312 23.429688 Z M 4.195312 5.285156 " clip-rule="nonzero"/></clipPath><clipPath id="e98a1873fc"><path d="M 8 10 L 21 10 L 21 23.429688 L 8 23.429688 Z M 8 10 " clip-rule="nonzero"/></clipPath><clipPath id="ee767abe52"><path d="M 4.195312 5.285156 L 25.96875 5.285156 L 25.96875 18 L 4.195312 18 Z M 4.195312 5.285156 " clip-rule="nonzero"/></clipPath><clipPath id="c5182d749e"><path d="M 4.195312 5.285156 L 25.96875 5.285156 L 25.96875 23.429688 L 4.195312 23.429688 Z M 4.195312 5.285156 " clip-rule="nonzero"/></clipPath></defs><g clip-path="url(#efd329b77c)"><path fill="#ffffff" d="M 0.484375 0 L 29.515625 0 L 29.515625 29.03125 L 0.484375 29.03125 Z M 0.484375 0 " fill-opacity="1" fill-rule="nonzero"/><path fill="#ec996d" d="M 0.484375 0 L 29.515625 0 L 29.515625 29.03125 L 0.484375 29.03125 Z M 0.484375 0 " fill-opacity="1" fill-rule="nonzero"/></g><g clip-path="url(#d67d3815df)"><path fill="#43241e" d="M 25.472656 12.578125 C 25.472656 12.574219 25.472656 12.574219 25.472656 12.570312 C 24.820312 11.757812 23.523438 10.988281 22.085938 10.5625 C 20.539062 10.105469 19.144531 10.125 18.261719 10.621094 C 18.257812 10.621094 18.257812 10.625 18.253906 10.625 C 17.816406 10.976562 17.183594 11.25 16.574219 11.519531 C 16.25 11.660156 15.929688 11.800781 15.628906 11.953125 C 15.644531 11.804688 15.664062 11.667969 15.679688 11.550781 C 15.699219 11.429688 15.71875 11.308594 15.738281 11.1875 C 15.78125 10.945312 15.820312 10.699219 15.847656 10.453125 C 15.859375 10.34375 15.867188 10.230469 15.859375 10.121094 C 16.253906 9.964844 16.667969 9.855469 17.109375 9.839844 C 17.679688 9.839844 18.742188 9.839844 19.15625 9.332031 C 19.316406 9.128906 19.363281 8.867188 19.289062 8.550781 C 19.289062 8.550781 19.285156 8.546875 19.285156 8.546875 C 19.097656 8.089844 18.714844 7.816406 18.34375 7.550781 C 18.195312 7.445312 18.039062 7.335938 17.898438 7.214844 C 17.335938 6.730469 16.648438 6.195312 15.824219 5.875 C 14.855469 5.460938 13.769531 5.285156 12.839844 5.390625 C 11.71875 5.515625 10.871094 6.039062 10.394531 6.898438 C 10.214844 7.199219 9.917969 7.515625 9.605469 7.847656 C 8.898438 8.597656 8.101562 9.449219 8.578125 10.339844 C 8.582031 10.34375 8.585938 10.347656 8.589844 10.351562 C 8.921875 10.640625 9.535156 10.648438 9.980469 10.652344 C 10.046875 10.652344 10.109375 10.652344 10.164062 10.65625 C 10.699219 10.671875 11.1875 10.816406 11.660156 10.953125 C 12.007812 11.058594 12.363281 11.164062 12.742188 11.214844 C 12.738281 11.246094 12.738281 11.273438 12.738281 11.308594 C 12.734375 11.359375 12.734375 11.414062 12.730469 11.46875 L 12.726562 11.566406 C 12.71875 11.691406 12.710938 11.816406 12.707031 11.941406 C 12.683594 12.28125 12.664062 12.632812 12.679688 12.980469 C 12.695312 13.414062 12.753906 13.847656 12.835938 14.28125 C 11.761719 13.378906 10.578125 12.652344 8.960938 12.882812 C 7.933594 12.9375 7.066406 13.539062 6.230469 14.121094 C 5.972656 14.300781 5.730469 14.46875 5.488281 14.621094 C 4.832031 15.023438 4.199219 15.769531 4.316406 16.273438 C 4.382812 16.5625 4.671875 16.738281 5.171875 16.796875 C 5.957031 17.015625 6.507812 17.261719 6.992188 17.472656 C 7.484375 17.691406 7.886719 17.871094 8.351562 17.933594 C 8.371094 17.988281 8.390625 18.042969 8.410156 18.101562 C 8.503906 18.371094 8.605469 18.65625 8.75 18.917969 L 8.753906 18.929688 C 8.960938 19.296875 9.222656 19.617188 9.535156 19.875 C 9.722656 20.03125 9.933594 20.148438 10.136719 20.261719 C 10.273438 20.335938 10.414062 20.410156 10.542969 20.5 C 10.882812 20.726562 11.160156 21.050781 11.4375 21.394531 C 11.554688 21.539062 11.671875 21.691406 11.785156 21.835938 C 11.921875 22.011719 12.058594 22.191406 12.203125 22.367188 C 12.230469 22.398438 12.253906 22.425781 12.28125 22.457031 C 12.492188 22.714844 12.710938 22.980469 13.015625 23.140625 C 13.359375 23.316406 13.746094 23.414062 14.125 23.421875 L 14.257812 23.425781 C 14.386719 23.429688 14.515625 23.429688 14.644531 23.429688 C 14.863281 23.429688 15.085938 23.421875 15.304688 23.394531 C 15.527344 23.363281 15.699219 23.308594 15.835938 23.230469 C 16.160156 23.203125 16.460938 23.117188 16.65625 23.046875 C 16.867188 22.972656 17.085938 22.910156 17.296875 22.847656 C 17.898438 22.679688 18.515625 22.503906 18.976562 22.03125 C 19.59375 21.394531 19.898438 20.5625 20.113281 19.832031 C 20.25 19.359375 20.375 18.933594 20.476562 18.5 C 20.558594 18.167969 20.597656 17.828125 20.632812 17.5 C 20.644531 17.390625 20.65625 17.277344 20.671875 17.167969 C 20.683594 17.074219 20.695312 16.980469 20.703125 16.886719 C 20.734375 16.621094 20.765625 16.34375 20.832031 16.082031 C 20.871094 15.917969 20.925781 15.769531 20.988281 15.632812 C 21.023438 15.5625 21.058594 15.492188 21.09375 15.421875 C 21.101562 15.410156 21.109375 15.394531 21.113281 15.382812 C 21.296875 15.292969 21.476562 15.199219 21.652344 15.105469 C 22.1875 14.816406 22.742188 14.515625 23.382812 14.5 C 24.253906 14.671875 25.320312 14.667969 25.710938 14.128906 C 25.96875 13.773438 25.890625 13.25 25.472656 12.578125 Z M 11 17.386719 C 11.050781 17.367188 11.105469 17.34375 11.160156 17.320312 C 11.609375 17.210938 12.113281 17.316406 12.597656 17.421875 C 12.980469 17.5 13.367188 17.582031 13.734375 17.5625 C 13.949219 18.289062 14.125 19.003906 14.140625 19.773438 C 14.144531 19.882812 14.128906 20.027344 14.113281 20.199219 C 14.097656 20.382812 14.078125 20.585938 14.078125 20.785156 C 14.074219 20.785156 14.074219 20.78125 14.070312 20.78125 C 13.800781 20.578125 13.496094 20.410156 13.199219 20.25 C 13.09375 20.191406 12.980469 20.132812 12.875 20.070312 C 12.429688 19.820312 12.082031 19.464844 11.824219 19.179688 C 11.578125 18.90625 11.402344 18.585938 11.25 18.136719 C 11.226562 18.0625 11.199219 17.984375 11.171875 17.894531 C 11.148438 17.816406 11.117188 17.734375 11.089844 17.660156 C 11.058594 17.570312 11.023438 17.480469 11 17.386719 Z M 18.828125 15.980469 L 18.824219 16.019531 C 18.8125 16.089844 18.800781 16.164062 18.792969 16.234375 C 18.734375 16.742188 18.585938 17.21875 18.449219 17.621094 C 18.171875 18.433594 17.875 19.210938 17.300781 19.820312 C 17.160156 19.964844 17.015625 20.101562 16.875 20.226562 C 16.851562 20.15625 16.824219 20.089844 16.796875 20.023438 C 16.746094 19.886719 16.691406 19.746094 16.652344 19.601562 C 16.578125 19.34375 16.550781 19.070312 16.527344 18.804688 L 16.519531 18.71875 C 16.46875 18.195312 16.351562 17.714844 16.15625 17.207031 L 16.121094 17.117188 C 15.953125 16.683594 15.78125 16.238281 15.765625 15.765625 C 15.757812 15.546875 15.757812 15.328125 15.753906 15.113281 C 15.753906 15.097656 15.753906 15.085938 15.753906 15.070312 C 15.945312 15.0625 16.140625 15.039062 16.335938 15.019531 C 16.863281 14.957031 17.402344 14.890625 17.847656 15.128906 C 18.1875 15.316406 18.535156 15.453125 18.882812 15.542969 C 18.875 15.6875 18.851562 15.835938 18.828125 15.980469 Z M 18.828125 15.980469 " fill-opacity="1" fill-rule="nonzero"/></g><g clip-path="url(#e98a1873fc)"><path fill="#e1bf4b" d="M 13.664062 15.011719 C 14.027344 15.34375 14.402344 15.683594 14.785156 15.984375 C 14.785156 15.988281 14.789062 15.988281 14.789062 15.992188 C 15.03125 16.289062 15.015625 16.71875 14.757812 17.0625 C 14.484375 17.382812 14.164062 17.519531 13.820312 17.554688 C 14.035156 18.28125 14.210938 18.996094 14.226562 19.769531 C 14.230469 19.886719 14.214844 20.035156 14.199219 20.207031 C 14.183594 20.40625 14.160156 20.636719 14.164062 20.855469 C 14.210938 20.894531 14.261719 20.933594 14.308594 20.972656 C 14.472656 21.113281 14.632812 21.246094 14.820312 21.332031 C 14.589844 21.011719 14.542969 20.652344 14.523438 20.34375 C 14.519531 20.214844 14.527344 20.089844 14.535156 19.964844 C 14.539062 19.921875 14.539062 19.878906 14.542969 19.832031 C 14.554688 19.582031 14.507812 19.378906 14.453125 19.140625 L 14.441406 19.09375 C 14.4375 19.070312 14.453125 19.050781 14.476562 19.042969 C 14.5 19.039062 14.519531 19.054688 14.527344 19.078125 L 14.535156 19.121094 C 14.59375 19.363281 14.640625 19.578125 14.628906 19.839844 C 14.625 19.882812 14.625 19.925781 14.621094 19.96875 C 14.613281 20.089844 14.605469 20.21875 14.609375 20.339844 C 14.628906 20.644531 14.675781 20.996094 14.90625 21.304688 C 14.917969 21.324219 14.914062 21.351562 14.898438 21.363281 C 14.894531 21.363281 14.894531 21.363281 14.894531 21.363281 C 14.914062 21.371094 14.933594 21.378906 14.953125 21.386719 C 15.035156 21.296875 15.125 21.21875 15.222656 21.15625 C 15.402344 21.035156 15.601562 20.960938 15.796875 20.886719 C 15.980469 20.820312 16.175781 20.746094 16.34375 20.636719 C 16.5 20.53125 16.65625 20.414062 16.804688 20.285156 L 16.800781 20.269531 C 16.773438 20.199219 16.746094 20.125 16.71875 20.050781 C 16.664062 19.914062 16.609375 19.769531 16.566406 19.625 C 16.492188 19.359375 16.46875 19.082031 16.441406 18.8125 L 16.433594 18.726562 C 16.382812 18.210938 16.269531 17.738281 16.074219 17.234375 L 16.042969 17.148438 C 15.871094 16.707031 15.695312 16.253906 15.679688 15.769531 C 15.671875 15.550781 15.671875 15.328125 15.667969 15.113281 C 15.667969 15.101562 15.667969 15.085938 15.667969 15.074219 C 15.164062 15.078125 14.703125 14.953125 14.402344 14.398438 C 13.871094 13.179688 14.5625 12.519531 15.535156 12 C 15.554688 11.832031 15.574219 11.671875 15.59375 11.539062 C 15.613281 11.417969 15.632812 11.296875 15.65625 11.171875 C 15.695312 10.933594 15.734375 10.6875 15.761719 10.445312 C 15.773438 10.347656 15.78125 10.25 15.777344 10.152344 C 15.375 10.320312 14.992188 10.53125 14.613281 10.742188 C 14.332031 10.898438 14.042969 11.058594 13.753906 11.195312 C 13.75 11.195312 13.746094 11.199219 13.742188 11.199219 C 13.558594 11.234375 13.378906 11.246094 13.207031 11.246094 C 13.078125 11.246094 12.949219 11.238281 12.828125 11.226562 C 12.824219 11.253906 12.824219 11.28125 12.824219 11.308594 C 12.820312 11.363281 12.820312 11.417969 12.816406 11.472656 L 12.8125 11.570312 C 12.804688 11.695312 12.796875 11.820312 12.789062 11.945312 C 12.769531 12.285156 12.75 12.632812 12.765625 12.976562 C 12.78125 13.441406 12.847656 13.902344 12.941406 14.367188 C 13.183594 14.578125 13.425781 14.796875 13.664062 15.011719 Z M 13.273438 13.234375 C 13.292969 13.222656 13.320312 13.226562 13.335938 13.246094 C 13.390625 13.328125 13.40625 13.445312 13.425781 13.558594 C 13.433594 13.613281 13.441406 13.664062 13.449219 13.703125 C 13.480469 13.828125 13.527344 13.957031 13.570312 14.078125 C 13.613281 14.1875 13.652344 14.300781 13.683594 14.417969 C 13.691406 14.4375 13.675781 14.460938 13.652344 14.46875 C 13.648438 14.46875 13.644531 14.46875 13.644531 14.46875 C 13.625 14.46875 13.605469 14.457031 13.601562 14.4375 C 13.570312 14.328125 13.53125 14.214844 13.492188 14.105469 C 13.445312 13.980469 13.398438 13.855469 13.367188 13.722656 C 13.355469 13.679688 13.347656 13.625 13.339844 13.570312 C 13.324219 13.464844 13.308594 13.359375 13.265625 13.292969 C 13.25 13.273438 13.253906 13.25 13.273438 13.234375 Z M 13.117188 11.644531 C 13.125 11.621094 13.152344 11.609375 13.171875 11.617188 C 13.195312 11.625 13.207031 11.648438 13.199219 11.671875 C 13.039062 12.109375 13.066406 12.625 13.089844 13.082031 L 13.09375 13.183594 C 13.113281 13.613281 13.210938 14.082031 13.371094 14.503906 C 13.378906 14.527344 13.367188 14.550781 13.34375 14.558594 C 13.339844 14.558594 13.335938 14.5625 13.332031 14.5625 C 13.3125 14.5625 13.296875 14.550781 13.289062 14.53125 C 13.128906 14.101562 13.027344 13.625 13.007812 13.1875 L 13.003906 13.085938 C 12.980469 12.621094 12.953125 12.097656 13.117188 11.644531 Z M 20.910156 15.597656 C 20.9375 15.542969 20.964844 15.488281 20.992188 15.4375 C 20.609375 15.585938 20.203125 15.660156 19.789062 15.660156 C 19.519531 15.660156 19.242188 15.625 18.964844 15.5625 C 18.957031 15.707031 18.9375 15.851562 18.914062 15.996094 L 18.910156 16.03125 C 18.898438 16.105469 18.886719 16.175781 18.878906 16.246094 C 18.820312 16.757812 18.671875 17.242188 18.53125 17.648438 C 18.25 18.46875 17.949219 19.257812 17.363281 19.875 C 17.203125 20.042969 17.042969 20.195312 16.882812 20.332031 C 16.726562 20.46875 16.558594 20.59375 16.390625 20.707031 C 16.214844 20.824219 16.019531 20.894531 15.828125 20.96875 C 15.636719 21.039062 15.441406 21.109375 15.273438 21.222656 C 15.195312 21.277344 15.117188 21.339844 15.046875 21.410156 C 15.050781 21.414062 15.050781 21.414062 15.054688 21.414062 C 15.101562 21.421875 15.144531 21.429688 15.1875 21.4375 C 15.339844 21.464844 15.484375 21.492188 15.628906 21.582031 C 15.632812 21.585938 15.640625 21.589844 15.644531 21.59375 C 15.789062 21.691406 15.921875 21.820312 16.03125 21.964844 C 16.222656 22.226562 16.269531 22.566406 16.15625 22.855469 C 16.273438 22.785156 16.398438 22.726562 16.519531 22.671875 C 16.585938 22.644531 16.652344 22.617188 16.71875 22.582031 C 17.039062 22.425781 17.316406 22.179688 17.546875 21.957031 C 17.5625 21.941406 17.589844 21.941406 17.605469 21.957031 C 17.625 21.972656 17.625 22 17.605469 22.015625 C 17.375 22.242188 17.089844 22.496094 16.757812 22.660156 C 16.6875 22.691406 16.621094 22.722656 16.554688 22.75 C 16.414062 22.8125 16.285156 22.871094 16.15625 22.953125 C 16.148438 22.960938 16.140625 22.960938 16.132812 22.960938 C 16.125 22.960938 16.117188 22.960938 16.109375 22.953125 C 16.070312 23.019531 16.023438 23.078125 15.96875 23.128906 C 16.230469 23.097656 16.464844 23.027344 16.628906 22.96875 C 16.839844 22.890625 17.0625 22.828125 17.273438 22.769531 C 17.890625 22.59375 18.46875 22.429688 18.914062 21.972656 C 19.519531 21.347656 19.816406 20.527344 20.027344 19.808594 C 20.167969 19.335938 20.292969 18.910156 20.394531 18.484375 C 20.472656 18.15625 20.511719 17.816406 20.546875 17.492188 C 20.558594 17.378906 20.574219 17.269531 20.585938 17.160156 C 20.597656 17.066406 20.609375 16.972656 20.617188 16.878906 C 20.648438 16.609375 20.679688 16.332031 20.746094 16.0625 C 20.789062 15.890625 20.84375 15.738281 20.910156 15.597656 Z M 19.722656 18.777344 C 19.820312 18.578125 19.851562 18.214844 19.84375 17.960938 C 19.84375 17.9375 19.863281 17.917969 19.886719 17.917969 C 19.910156 17.917969 19.929688 17.933594 19.929688 17.957031 C 19.9375 18.21875 19.902344 18.597656 19.800781 18.8125 C 19.792969 18.828125 19.777344 18.839844 19.761719 18.839844 C 19.757812 18.839844 19.75 18.835938 19.742188 18.835938 C 19.722656 18.824219 19.714844 18.800781 19.722656 18.777344 Z M 19.425781 20.398438 C 19.289062 20.652344 19.15625 20.878906 18.960938 21.113281 C 18.90625 21.179688 18.84375 21.242188 18.777344 21.3125 C 18.65625 21.433594 18.53125 21.5625 18.457031 21.691406 C 18.449219 21.707031 18.433594 21.714844 18.417969 21.714844 C 18.414062 21.714844 18.40625 21.714844 18.398438 21.710938 C 18.378906 21.699219 18.371094 21.671875 18.382812 21.652344 C 18.460938 21.511719 18.589844 21.378906 18.714844 21.253906 C 18.777344 21.1875 18.839844 21.125 18.894531 21.0625 C 19.085938 20.832031 19.214844 20.609375 19.347656 20.359375 C 19.359375 20.339844 19.386719 20.332031 19.40625 20.34375 C 19.429688 20.351562 19.4375 20.378906 19.425781 20.398438 Z M 20.519531 16.042969 C 20.332031 16.457031 20.3125 16.929688 20.292969 17.390625 C 20.292969 17.4375 20.289062 17.484375 20.289062 17.53125 C 20.269531 18.015625 20.164062 18.484375 20.070312 18.898438 C 19.996094 19.21875 19.886719 19.523438 19.738281 19.804688 C 19.730469 19.820312 19.714844 19.828125 19.699219 19.828125 C 19.691406 19.828125 19.6875 19.824219 19.679688 19.824219 C 19.660156 19.8125 19.652344 19.785156 19.660156 19.765625 C 19.804688 19.492188 19.914062 19.195312 19.984375 18.878906 C 20.078125 18.46875 20.183594 18.003906 20.203125 17.527344 C 20.207031 17.480469 20.207031 17.433594 20.207031 17.386719 C 20.226562 16.917969 20.246094 16.4375 20.441406 16.007812 C 20.449219 15.988281 20.476562 15.976562 20.496094 15.988281 C 20.519531 15.996094 20.527344 16.023438 20.519531 16.042969 Z M 15.800781 23.152344 C 15.914062 23.082031 15.996094 22.996094 16.050781 22.882812 C 16.183594 22.609375 16.148438 22.269531 15.960938 22.015625 C 15.859375 21.878906 15.730469 21.753906 15.59375 21.660156 C 15.589844 21.660156 15.585938 21.65625 15.582031 21.652344 C 15.453125 21.570312 15.316406 21.546875 15.171875 21.519531 C 15.128906 21.511719 15.082031 21.503906 15.039062 21.496094 C 15.007812 21.488281 14.980469 21.480469 14.953125 21.472656 C 14.671875 21.390625 14.457031 21.210938 14.25 21.035156 C 14.199219 20.992188 14.148438 20.949219 14.09375 20.90625 C 14.070312 20.886719 14.042969 20.867188 14.019531 20.847656 C 13.75 20.644531 13.449219 20.484375 13.15625 20.324219 C 13.050781 20.265625 12.9375 20.207031 12.832031 20.144531 C 12.375 19.886719 12.019531 19.523438 11.761719 19.234375 C 11.507812 18.953125 11.324219 18.625 11.167969 18.164062 C 11.144531 18.089844 11.117188 18.007812 11.089844 17.917969 C 11.066406 17.839844 11.039062 17.761719 11.011719 17.6875 C 10.976562 17.601562 10.945312 17.511719 10.917969 17.417969 C 9.945312 17.808594 9.277344 17.960938 8.734375 17.960938 C 8.632812 17.960938 8.539062 17.957031 8.445312 17.945312 C 8.460938 17.988281 8.476562 18.03125 8.488281 18.074219 C 8.585938 18.34375 8.683594 18.621094 8.824219 18.878906 L 8.832031 18.890625 C 9.03125 19.25 9.285156 19.558594 9.589844 19.8125 C 9.773438 19.960938 9.980469 20.078125 10.179688 20.1875 C 10.316406 20.261719 10.457031 20.339844 10.59375 20.429688 C 10.941406 20.664062 11.222656 20.992188 11.503906 21.339844 C 11.625 21.488281 11.742188 21.640625 11.855469 21.785156 C 11.988281 21.960938 12.128906 22.140625 12.269531 22.3125 C 12.296875 22.34375 12.320312 22.375 12.347656 22.40625 C 12.550781 22.65625 12.765625 22.914062 13.054688 23.066406 C 13.390625 23.238281 13.757812 23.332031 14.128906 23.339844 L 14.261719 23.34375 C 14.601562 23.351562 14.949219 23.355469 15.292969 23.3125 C 15.507812 23.28125 15.671875 23.230469 15.800781 23.152344 Z M 11.054688 20.34375 C 11.046875 20.355469 11.03125 20.359375 11.019531 20.359375 C 11.011719 20.359375 11 20.355469 10.992188 20.351562 C 10.792969 20.199219 10.5625 20.085938 10.34375 19.976562 C 10.089844 19.855469 9.828125 19.726562 9.609375 19.535156 C 9.292969 19.261719 9.132812 18.949219 8.960938 18.617188 C 8.929688 18.550781 8.894531 18.484375 8.859375 18.417969 C 8.847656 18.398438 8.855469 18.375 8.878906 18.363281 C 8.898438 18.351562 8.925781 18.359375 8.933594 18.382812 C 8.972656 18.449219 9.003906 18.515625 9.039062 18.578125 C 9.210938 18.917969 9.363281 19.210938 9.664062 19.472656 C 9.878906 19.65625 10.125 19.777344 10.382812 19.902344 C 10.605469 20.011719 10.839844 20.128906 11.046875 20.285156 C 11.066406 20.300781 11.070312 20.324219 11.054688 20.34375 Z M 11.316406 20.378906 C 11.308594 20.386719 11.296875 20.390625 11.285156 20.390625 C 11.273438 20.390625 11.261719 20.386719 11.253906 20.378906 C 11.1875 20.3125 11.121094 20.242188 11.058594 20.175781 C 10.878906 19.980469 10.707031 19.796875 10.46875 19.671875 C 10.449219 19.660156 10.441406 19.632812 10.453125 19.613281 C 10.464844 19.59375 10.488281 19.585938 10.511719 19.597656 C 10.761719 19.730469 10.945312 19.929688 11.125 20.121094 C 11.1875 20.183594 11.25 20.253906 11.316406 20.320312 C 11.332031 20.335938 11.332031 20.363281 11.316406 20.378906 Z M 13.085938 22.652344 C 13.078125 22.667969 13.0625 22.675781 13.050781 22.675781 C 13.042969 22.675781 13.035156 22.671875 13.027344 22.667969 C 12.515625 22.359375 12.195312 21.96875 11.824219 21.519531 L 11.796875 21.484375 C 11.785156 21.46875 11.785156 21.441406 11.804688 21.425781 C 11.824219 21.414062 11.851562 21.414062 11.867188 21.433594 L 11.890625 21.464844 C 12.257812 21.910156 12.574219 22.292969 13.070312 22.597656 C 13.09375 22.609375 13.097656 22.632812 13.085938 22.652344 Z M 14.808594 23.207031 C 14.714844 23.214844 14.628906 23.21875 14.546875 23.21875 C 14.328125 23.21875 14.148438 23.1875 14.011719 23.121094 C 13.992188 23.109375 13.980469 23.085938 13.992188 23.066406 C 14.003906 23.042969 14.027344 23.035156 14.050781 23.046875 C 14.222656 23.128906 14.476562 23.15625 14.800781 23.125 C 14.867188 23.117188 14.9375 23.113281 15.007812 23.109375 C 15.175781 23.105469 15.351562 23.097656 15.492188 23.03125 C 15.511719 23.019531 15.539062 23.027344 15.546875 23.046875 C 15.558594 23.070312 15.550781 23.09375 15.527344 23.105469 C 15.375 23.179688 15.1875 23.1875 15.011719 23.195312 C 14.945312 23.199219 14.875 23.199219 14.808594 23.207031 Z M 14.808594 23.207031 " fill-opacity="1" fill-rule="nonzero"/></g><g clip-path="url(#ee767abe52)"><path fill="#dca7a0" d="M 13.722656 11.117188 C 14.007812 10.980469 14.292969 10.824219 14.570312 10.667969 C 15.351562 10.238281 16.160156 9.789062 17.109375 9.757812 C 17.664062 9.757812 18.699219 9.753906 19.085938 9.28125 C 19.234375 9.101562 19.273438 8.863281 19.203125 8.574219 C 19.027344 8.140625 18.667969 7.886719 18.292969 7.617188 C 18.140625 7.511719 17.984375 7.402344 17.84375 7.277344 C 17.285156 6.800781 16.605469 6.269531 15.792969 5.949219 C 14.835938 5.542969 13.765625 5.371094 12.851562 5.472656 C 11.757812 5.59375 10.933594 6.101562 10.46875 6.9375 C 10.285156 7.25 9.984375 7.566406 9.667969 7.90625 C 8.949219 8.667969 8.210938 9.457031 8.652344 10.292969 C 8.964844 10.554688 9.550781 10.5625 9.980469 10.570312 C 10.046875 10.570312 10.109375 10.570312 10.167969 10.570312 C 10.714844 10.585938 11.207031 10.734375 11.683594 10.875 C 12.34375 11.070312 12.96875 11.253906 13.722656 11.117188 Z M 18.832031 8.980469 L 18.84375 8.941406 C 18.871094 8.859375 18.894531 8.773438 18.890625 8.691406 C 18.890625 8.667969 18.910156 8.648438 18.933594 8.648438 C 18.957031 8.644531 18.976562 8.664062 18.976562 8.6875 C 18.984375 8.78125 18.953125 8.878906 18.925781 8.964844 L 18.914062 9.003906 C 18.90625 9.023438 18.890625 9.035156 18.871094 9.035156 C 18.867188 9.035156 18.863281 9.035156 18.859375 9.035156 C 18.835938 9.027344 18.824219 9.003906 18.832031 8.980469 Z M 18.398438 9.335938 C 18.484375 9.191406 18.652344 8.738281 18.582031 8.515625 C 18.5625 8.460938 18.535156 8.425781 18.496094 8.40625 C 18.472656 8.398438 18.464844 8.371094 18.472656 8.351562 C 18.484375 8.332031 18.511719 8.320312 18.53125 8.332031 C 18.59375 8.359375 18.640625 8.414062 18.664062 8.488281 C 18.746094 8.753906 18.558594 9.234375 18.472656 9.378906 C 18.464844 9.394531 18.449219 9.398438 18.433594 9.398438 C 18.425781 9.398438 18.421875 9.398438 18.414062 9.394531 C 18.394531 9.382812 18.386719 9.355469 18.398438 9.335938 Z M 18.191406 8.273438 C 18.210938 8.261719 18.238281 8.265625 18.253906 8.285156 C 18.425781 8.539062 18.253906 9.164062 18.0625 9.371094 C 18.050781 9.378906 18.039062 9.386719 18.03125 9.386719 C 18.019531 9.386719 18.007812 9.382812 18 9.375 C 17.984375 9.359375 17.980469 9.332031 17.996094 9.316406 C 18.167969 9.132812 18.328125 8.546875 18.179688 8.332031 C 18.167969 8.3125 18.171875 8.285156 18.191406 8.273438 Z M 17.554688 7.742188 C 17.5625 7.71875 17.589844 7.710938 17.609375 7.722656 C 17.867188 7.847656 18.027344 8.351562 18.027344 8.582031 C 18.027344 8.804688 17.953125 9.019531 17.882812 9.222656 C 17.855469 9.300781 17.828125 9.382812 17.804688 9.460938 C 17.800781 9.480469 17.78125 9.492188 17.765625 9.492188 C 17.761719 9.492188 17.757812 9.492188 17.753906 9.488281 C 17.730469 9.484375 17.714844 9.460938 17.722656 9.4375 C 17.746094 9.359375 17.773438 9.277344 17.800781 9.195312 C 17.867188 8.996094 17.941406 8.792969 17.941406 8.582031 C 17.941406 8.34375 17.777344 7.894531 17.574219 7.796875 C 17.550781 7.789062 17.542969 7.761719 17.554688 7.742188 Z M 8.96875 10.167969 C 8.960938 10.175781 8.953125 10.175781 8.945312 10.175781 C 8.929688 10.175781 8.917969 10.171875 8.910156 10.160156 C 8.832031 10.058594 8.675781 9.851562 8.75 9.691406 C 8.757812 9.671875 8.785156 9.660156 8.804688 9.671875 C 8.828125 9.679688 8.835938 9.703125 8.828125 9.726562 C 8.773438 9.839844 8.917969 10.03125 8.976562 10.109375 C 8.992188 10.128906 8.988281 10.15625 8.96875 10.167969 Z M 9.425781 10.183594 C 9.414062 10.1875 9.40625 10.191406 9.398438 10.191406 C 9.382812 10.191406 9.371094 10.1875 9.363281 10.175781 C 9.179688 9.957031 9.042969 9.511719 9.136719 9.238281 C 9.144531 9.214844 9.167969 9.203125 9.191406 9.210938 C 9.214844 9.21875 9.226562 9.242188 9.21875 9.265625 C 9.132812 9.507812 9.261719 9.925781 9.429688 10.125 C 9.445312 10.140625 9.441406 10.167969 9.425781 10.183594 Z M 9.921875 10.136719 C 9.914062 10.144531 9.90625 10.144531 9.894531 10.144531 C 9.882812 10.144531 9.871094 10.140625 9.863281 10.128906 C 9.625 9.8125 9.464844 9.519531 9.449219 9.121094 C 9.433594 8.8125 9.523438 8.539062 9.621094 8.25 L 9.636719 8.203125 C 9.644531 8.183594 9.667969 8.167969 9.691406 8.175781 C 9.714844 8.183594 9.726562 8.207031 9.71875 8.230469 L 9.703125 8.277344 C 9.609375 8.558594 9.519531 8.824219 9.535156 9.117188 C 9.550781 9.496094 9.699219 9.765625 9.929688 10.078125 C 9.945312 10.097656 9.941406 10.125 9.921875 10.136719 Z M 10.273438 9.902344 C 10.265625 9.910156 10.253906 9.917969 10.238281 9.917969 C 10.230469 9.917969 10.222656 9.914062 10.214844 9.910156 C 9.792969 9.609375 9.710938 8.855469 9.917969 8.382812 C 9.929688 8.363281 9.953125 8.351562 9.976562 8.359375 C 9.996094 8.371094 10.007812 8.394531 10 8.414062 C 9.800781 8.859375 9.875 9.566406 10.265625 9.84375 C 10.285156 9.855469 10.289062 9.882812 10.273438 9.902344 Z M 11.625 6.125 C 11.703125 6.085938 11.769531 6.039062 11.835938 5.992188 C 11.945312 5.917969 12.058594 5.84375 12.207031 5.796875 C 12.394531 5.738281 12.609375 5.714844 12.8125 5.691406 C 13.089844 5.664062 13.613281 5.628906 14.042969 5.710938 C 14.066406 5.714844 14.078125 5.734375 14.074219 5.757812 C 14.070312 5.78125 14.046875 5.796875 14.023438 5.792969 C 13.605469 5.714844 13.09375 5.75 12.824219 5.777344 C 12.625 5.796875 12.414062 5.820312 12.230469 5.878906 C 12.097656 5.917969 11.996094 5.988281 11.886719 6.0625 C 11.816406 6.109375 11.746094 6.15625 11.664062 6.199219 C 11.65625 6.203125 11.652344 6.203125 11.644531 6.203125 C 11.628906 6.203125 11.613281 6.195312 11.605469 6.179688 C 11.59375 6.160156 11.605469 6.136719 11.625 6.125 Z M 10.832031 6.835938 C 10.847656 6.816406 10.859375 6.796875 10.875 6.777344 C 10.9375 6.703125 11 6.625 11.074219 6.570312 C 11.089844 6.554688 11.117188 6.558594 11.132812 6.578125 C 11.148438 6.597656 11.144531 6.621094 11.125 6.636719 C 11.058594 6.683594 11 6.757812 10.945312 6.828125 C 10.929688 6.847656 10.914062 6.871094 10.898438 6.886719 C 10.890625 6.898438 10.875 6.902344 10.863281 6.902344 C 10.855469 6.902344 10.84375 6.902344 10.835938 6.894531 C 10.820312 6.878906 10.816406 6.855469 10.832031 6.835938 Z M 12.023438 10.613281 C 11.894531 10.585938 11.765625 10.542969 11.644531 10.5 C 11.402344 10.417969 11.152344 10.335938 10.898438 10.34375 C 10.871094 10.34375 10.851562 10.328125 10.851562 10.304688 C 10.851562 10.28125 10.871094 10.261719 10.894531 10.261719 C 11.164062 10.25 11.421875 10.335938 11.671875 10.421875 C 11.792969 10.460938 11.921875 10.503906 12.042969 10.535156 C 12.152344 10.558594 12.265625 10.597656 12.386719 10.640625 C 12.617188 10.71875 12.855469 10.800781 13.0625 10.785156 C 13.242188 10.769531 13.378906 10.667969 13.519531 10.558594 C 13.617188 10.484375 13.722656 10.402344 13.84375 10.355469 C 13.867188 10.347656 13.890625 10.355469 13.902344 10.378906 C 13.910156 10.398438 13.898438 10.421875 13.878906 10.433594 C 13.765625 10.476562 13.671875 10.546875 13.570312 10.625 C 13.425781 10.738281 13.277344 10.851562 13.070312 10.867188 C 13.046875 10.871094 13.027344 10.871094 13.007812 10.871094 C 12.800781 10.871094 12.574219 10.792969 12.359375 10.71875 C 12.238281 10.679688 12.128906 10.640625 12.023438 10.613281 Z M 25.640625 14.082031 C 25.878906 13.753906 25.796875 13.261719 25.402344 12.621094 C 24.054688 10.9375 20.160156 9.65625 18.304688 10.691406 C 17.859375 11.046875 17.222656 11.328125 16.609375 11.59375 C 15.167969 12.222656 13.804688 12.816406 14.480469 14.363281 C 14.882812 15.105469 15.582031 15.023438 16.328125 14.933594 C 16.570312 14.90625 16.820312 14.875 17.0625 14.875 C 17.351562 14.875 17.632812 14.917969 17.886719 15.054688 C 18.929688 15.628906 20.035156 15.730469 21 15.34375 C 21.207031 15.25 21.410156 15.136719 21.609375 15.03125 C 22.15625 14.734375 22.722656 14.429688 23.386719 14.417969 C 23.386719 14.417969 23.390625 14.417969 23.394531 14.417969 C 24.242188 14.585938 25.273438 14.585938 25.640625 14.082031 Z M 14.871094 14.351562 C 14.863281 14.359375 14.855469 14.363281 14.84375 14.363281 C 14.832031 14.363281 14.820312 14.359375 14.8125 14.347656 C 14.703125 14.21875 14.621094 14 14.613281 13.820312 C 14.613281 13.796875 14.632812 13.777344 14.65625 13.777344 C 14.679688 13.773438 14.699219 13.792969 14.699219 13.816406 C 14.707031 13.980469 14.78125 14.179688 14.878906 14.292969 C 14.894531 14.3125 14.890625 14.339844 14.871094 14.351562 Z M 15.527344 14.65625 C 15.519531 14.664062 15.511719 14.667969 15.5 14.667969 C 15.488281 14.667969 15.476562 14.664062 15.46875 14.652344 C 15.078125 14.230469 14.746094 13.570312 14.992188 12.980469 C 15 12.960938 15.027344 12.949219 15.046875 12.957031 C 15.070312 12.964844 15.082031 12.992188 15.070312 13.011719 C 14.839844 13.566406 15.15625 14.195312 15.53125 14.597656 C 15.546875 14.613281 15.546875 14.640625 15.527344 14.65625 Z M 16.246094 14.6875 C 16.238281 14.695312 16.230469 14.699219 16.21875 14.699219 C 16.207031 14.699219 16.195312 14.691406 16.1875 14.683594 C 16.109375 14.601562 16.027344 14.527344 15.949219 14.457031 C 15.761719 14.289062 15.570312 14.113281 15.46875 13.851562 C 15.390625 13.648438 15.335938 13.339844 15.414062 13.078125 C 15.417969 13.054688 15.441406 13.042969 15.464844 13.046875 C 15.488281 13.054688 15.5 13.078125 15.496094 13.097656 C 15.4375 13.300781 15.457031 13.582031 15.550781 13.820312 C 15.644531 14.066406 15.820312 14.226562 16.007812 14.394531 C 16.089844 14.46875 16.171875 14.542969 16.25 14.628906 C 16.265625 14.644531 16.265625 14.671875 16.246094 14.6875 Z M 16.621094 14.484375 C 16.613281 14.5 16.597656 14.515625 16.578125 14.515625 C 16.574219 14.515625 16.570312 14.515625 16.566406 14.515625 C 16.347656 14.464844 16.132812 14.101562 16.070312 13.992188 C 15.980469 13.828125 15.917969 13.664062 15.878906 13.507812 C 15.832031 13.3125 15.699219 12.660156 16.011719 12.515625 C 16.035156 12.507812 16.058594 12.515625 16.070312 12.539062 C 16.078125 12.558594 16.070312 12.582031 16.050781 12.59375 C 15.847656 12.683594 15.875 13.132812 15.960938 13.488281 C 16 13.640625 16.058594 13.792969 16.148438 13.949219 C 16.257812 14.152344 16.441406 14.398438 16.585938 14.433594 C 16.609375 14.4375 16.625 14.460938 16.621094 14.484375 Z M 16.988281 11.96875 C 16.941406 11.992188 16.898438 12.011719 16.855469 12.027344 C 16.777344 12.0625 16.703125 12.09375 16.636719 12.144531 C 16.628906 12.152344 16.617188 12.15625 16.609375 12.15625 C 16.597656 12.15625 16.585938 12.148438 16.574219 12.140625 C 16.5625 12.121094 16.5625 12.097656 16.582031 12.082031 C 16.65625 12.019531 16.742188 11.984375 16.820312 11.953125 C 16.863281 11.933594 16.90625 11.914062 16.949219 11.894531 C 16.96875 11.882812 16.996094 11.890625 17.003906 11.910156 C 17.015625 11.929688 17.007812 11.957031 16.988281 11.96875 Z M 18.101562 11.410156 C 18.035156 11.476562 17.964844 11.542969 17.886719 11.597656 C 17.769531 11.679688 17.644531 11.738281 17.523438 11.792969 C 17.476562 11.816406 17.425781 11.835938 17.378906 11.863281 C 17.371094 11.863281 17.363281 11.867188 17.359375 11.867188 C 17.34375 11.867188 17.328125 11.859375 17.320312 11.84375 C 17.308594 11.824219 17.316406 11.796875 17.339844 11.785156 C 17.386719 11.761719 17.4375 11.738281 17.488281 11.71875 C 17.609375 11.660156 17.726562 11.609375 17.835938 11.53125 C 17.910156 11.480469 17.972656 11.417969 18.039062 11.351562 C 18.085938 11.308594 18.128906 11.265625 18.179688 11.222656 C 18.371094 11.0625 18.585938 10.921875 18.796875 10.785156 C 18.867188 10.738281 18.9375 10.695312 19.003906 10.648438 C 19.023438 10.636719 19.050781 10.640625 19.0625 10.660156 C 19.078125 10.679688 19.070312 10.703125 19.054688 10.71875 C 18.984375 10.761719 18.914062 10.808594 18.84375 10.855469 C 18.636719 10.988281 18.421875 11.128906 18.238281 11.285156 C 18.1875 11.324219 18.144531 11.371094 18.101562 11.410156 Z M 20.960938 14.910156 C 20.816406 14.949219 20.667969 15.011719 20.523438 15.070312 C 20.253906 15.183594 19.972656 15.300781 19.679688 15.300781 C 19.625 15.300781 19.570312 15.296875 19.515625 15.285156 C 19.359375 15.261719 19.21875 15.1875 19.078125 15.117188 C 19.039062 15.097656 19 15.078125 18.960938 15.058594 C 18.894531 15.027344 18.816406 15.011719 18.734375 14.992188 C 18.617188 14.96875 18.496094 14.945312 18.40625 14.871094 C 18.390625 14.855469 18.386719 14.828125 18.402344 14.8125 C 18.417969 14.792969 18.445312 14.792969 18.464844 14.804688 C 18.535156 14.867188 18.640625 14.886719 18.753906 14.910156 C 18.835938 14.929688 18.925781 14.945312 19 14.984375 C 19.039062 15.003906 19.078125 15.023438 19.117188 15.042969 C 19.25 15.113281 19.386719 15.183594 19.53125 15.203125 C 19.859375 15.253906 20.183594 15.121094 20.492188 14.992188 C 20.636719 14.933594 20.785156 14.871094 20.9375 14.828125 C 20.960938 14.820312 20.984375 14.835938 20.988281 14.855469 C 20.996094 14.878906 20.984375 14.902344 20.960938 14.910156 Z M 21.792969 14.601562 C 21.675781 14.648438 21.585938 14.691406 21.488281 14.765625 C 21.480469 14.769531 21.472656 14.773438 21.464844 14.773438 C 21.449219 14.773438 21.4375 14.769531 21.429688 14.757812 C 21.414062 14.738281 21.417969 14.714844 21.4375 14.699219 C 21.542969 14.621094 21.640625 14.574219 21.761719 14.527344 C 21.78125 14.515625 21.808594 14.527344 21.816406 14.546875 C 21.824219 14.570312 21.8125 14.59375 21.792969 14.601562 Z M 24.105469 13.300781 C 24 13.648438 23.785156 13.894531 23.554688 14.15625 C 23.53125 14.183594 23.503906 14.210938 23.480469 14.242188 C 23.46875 14.25 23.457031 14.257812 23.445312 14.257812 C 23.4375 14.257812 23.425781 14.253906 23.417969 14.246094 C 23.398438 14.230469 23.398438 14.203125 23.414062 14.1875 C 23.4375 14.15625 23.464844 14.128906 23.488281 14.101562 C 23.710938 13.847656 23.921875 13.605469 24.023438 13.277344 L 24.035156 13.242188 C 24.132812 12.933594 24.3125 12.351562 24.128906 12.074219 C 24.117188 12.054688 24.121094 12.03125 24.140625 12.019531 C 24.160156 12.003906 24.1875 12.011719 24.199219 12.03125 C 24.40625 12.339844 24.226562 12.921875 24.117188 13.269531 Z M 24.226562 14.027344 C 24.21875 14.039062 24.207031 14.042969 24.195312 14.042969 C 24.1875 14.042969 24.175781 14.039062 24.167969 14.03125 C 24.148438 14.019531 24.148438 13.992188 24.164062 13.972656 C 24.457031 13.640625 24.636719 12.953125 24.542969 12.535156 C 24.539062 12.511719 24.554688 12.488281 24.578125 12.484375 C 24.601562 12.480469 24.621094 12.492188 24.628906 12.515625 C 24.726562 12.957031 24.535156 13.675781 24.226562 14.027344 Z M 24.5625 14.09375 C 24.554688 14.109375 24.539062 14.121094 24.523438 14.121094 C 24.515625 14.121094 24.511719 14.117188 24.507812 14.117188 C 24.484375 14.105469 24.472656 14.082031 24.484375 14.058594 C 24.523438 13.972656 24.570312 13.886719 24.621094 13.800781 C 24.761719 13.546875 24.910156 13.285156 24.824219 12.992188 C 24.820312 12.96875 24.832031 12.945312 24.855469 12.941406 C 24.878906 12.933594 24.902344 12.949219 24.90625 12.96875 C 25.003906 13.292969 24.847656 13.570312 24.695312 13.839844 C 24.644531 13.929688 24.601562 14.011719 24.5625 14.09375 Z M 24.867188 14.226562 C 24.859375 14.234375 24.847656 14.242188 24.835938 14.242188 C 24.824219 14.242188 24.816406 14.238281 24.808594 14.230469 C 24.789062 14.214844 24.789062 14.191406 24.800781 14.171875 L 24.84375 14.125 C 25.011719 13.929688 25.246094 13.664062 25.277344 13.433594 C 25.28125 13.410156 25.300781 13.394531 25.324219 13.394531 C 25.347656 13.398438 25.363281 13.421875 25.363281 13.441406 C 25.328125 13.699219 25.085938 13.976562 24.910156 14.179688 Z M 25.222656 14.242188 C 25.207031 14.253906 25.1875 14.265625 25.171875 14.277344 C 25.164062 14.285156 25.15625 14.285156 25.148438 14.285156 C 25.132812 14.285156 25.121094 14.28125 25.113281 14.269531 C 25.097656 14.25 25.101562 14.226562 25.121094 14.210938 C 25.136719 14.199219 25.15625 14.1875 25.171875 14.175781 C 25.289062 14.09375 25.453125 13.980469 25.449219 13.851562 C 25.449219 13.828125 25.464844 13.808594 25.488281 13.808594 C 25.515625 13.804688 25.535156 13.824219 25.535156 13.847656 C 25.539062 14.023438 25.355469 14.148438 25.222656 14.242188 Z M 11.132812 17.242188 C 11.132812 17.242188 11.136719 17.238281 11.136719 17.238281 C 11.605469 17.125 12.117188 17.234375 12.617188 17.339844 C 13.398438 17.503906 14.136719 17.660156 14.691406 17.011719 C 14.882812 16.753906 14.972656 16.355469 14.726562 16.046875 C 14.34375 15.746094 13.96875 15.40625 13.605469 15.074219 C 12.441406 14.015625 11.238281 12.921875 9.546875 12.921875 C 9.363281 12.921875 9.167969 12.9375 8.96875 12.964844 C 7.960938 13.019531 7.105469 13.617188 6.277344 14.191406 C 6.019531 14.371094 5.777344 14.539062 5.53125 14.691406 C 4.902344 15.082031 4.296875 15.800781 4.398438 16.253906 C 4.457031 16.503906 4.722656 16.660156 5.1875 16.714844 C 5.1875 16.714844 5.191406 16.71875 5.191406 16.71875 C 5.988281 16.9375 6.539062 17.183594 7.027344 17.398438 C 8.195312 17.917969 8.839844 18.203125 11.132812 17.242188 Z M 14.105469 16.992188 C 14.230469 16.828125 14.414062 16.382812 14.351562 16.207031 C 14.34375 16.183594 14.355469 16.160156 14.378906 16.152344 C 14.398438 16.144531 14.425781 16.15625 14.433594 16.179688 C 14.515625 16.402344 14.289062 16.890625 14.175781 17.039062 C 14.167969 17.050781 14.15625 17.058594 14.140625 17.058594 C 14.132812 17.058594 14.125 17.054688 14.117188 17.050781 C 14.097656 17.035156 14.09375 17.007812 14.105469 16.992188 Z M 13.699219 16.859375 C 13.792969 16.675781 13.859375 16.328125 13.804688 16.128906 C 13.796875 16.105469 13.8125 16.082031 13.835938 16.078125 C 13.855469 16.070312 13.882812 16.082031 13.886719 16.105469 C 13.949219 16.328125 13.878906 16.703125 13.773438 16.898438 C 13.765625 16.910156 13.753906 16.921875 13.738281 16.921875 C 13.730469 16.921875 13.722656 16.917969 13.71875 16.914062 C 13.695312 16.90625 13.6875 16.878906 13.699219 16.859375 Z M 13.386719 15.578125 C 13.40625 15.566406 13.429688 15.574219 13.445312 15.589844 C 13.734375 16.019531 13.558594 16.476562 13.355469 16.910156 C 13.347656 16.925781 13.332031 16.933594 13.316406 16.933594 C 13.308594 16.933594 13.300781 16.933594 13.296875 16.929688 C 13.273438 16.921875 13.265625 16.898438 13.277344 16.875 C 13.480469 16.449219 13.640625 16.03125 13.371094 15.636719 C 13.359375 15.617188 13.363281 15.59375 13.386719 15.578125 Z M 13.136719 15.515625 C 13.230469 15.917969 13.140625 16.234375 13.011719 16.601562 C 13.007812 16.621094 12.988281 16.628906 12.972656 16.628906 C 12.96875 16.628906 12.960938 16.628906 12.957031 16.628906 C 12.933594 16.621094 12.921875 16.597656 12.929688 16.574219 C 13.054688 16.21875 13.140625 15.917969 13.054688 15.53125 C 13.050781 15.507812 13.0625 15.488281 13.085938 15.480469 C 13.109375 15.476562 13.132812 15.492188 13.136719 15.515625 Z M 12.132812 16.921875 C 12.460938 16.644531 12.796875 16.125 12.773438 15.707031 C 12.75 15.324219 12.539062 14.820312 12.300781 14.5625 C 12.285156 14.542969 12.285156 14.519531 12.300781 14.503906 C 12.320312 14.488281 12.347656 14.488281 12.363281 14.507812 C 12.617188 14.777344 12.832031 15.304688 12.859375 15.703125 C 12.886719 16.144531 12.535156 16.695312 12.1875 16.984375 C 12.179688 16.992188 12.167969 16.996094 12.160156 16.996094 C 12.148438 16.996094 12.136719 16.992188 12.128906 16.980469 C 12.113281 16.964844 12.113281 16.9375 12.132812 16.921875 Z M 5.027344 16.3125 C 5.019531 16.320312 5.007812 16.328125 4.996094 16.328125 C 4.984375 16.328125 4.976562 16.324219 4.964844 16.316406 C 4.824219 16.195312 4.730469 15.941406 4.75 15.734375 C 4.765625 15.597656 4.824219 15.496094 4.925781 15.441406 C 4.949219 15.429688 4.972656 15.4375 4.984375 15.457031 C 4.996094 15.476562 4.988281 15.503906 4.96875 15.515625 C 4.871094 15.566406 4.84375 15.667969 4.835938 15.742188 C 4.816406 15.921875 4.902344 16.152344 5.023438 16.253906 C 5.039062 16.269531 5.042969 16.292969 5.027344 16.3125 Z M 7.367188 13.898438 C 7.601562 13.625 8.003906 13.453125 8.167969 13.394531 C 8.269531 13.355469 8.375 13.328125 8.476562 13.300781 C 8.503906 13.292969 8.53125 13.285156 8.5625 13.277344 C 8.617188 13.265625 8.671875 13.238281 8.734375 13.207031 C 8.808594 13.171875 8.890625 13.136719 8.96875 13.121094 C 8.992188 13.117188 9.011719 13.132812 9.015625 13.15625 C 9.023438 13.179688 9.007812 13.203125 8.984375 13.207031 C 8.914062 13.214844 8.84375 13.25 8.769531 13.285156 C 8.710938 13.3125 8.648438 13.34375 8.585938 13.359375 C 8.554688 13.367188 8.527344 13.375 8.5 13.382812 C 8.398438 13.410156 8.296875 13.4375 8.199219 13.472656 C 8.042969 13.53125 7.652344 13.691406 7.429688 13.953125 C 7.421875 13.960938 7.410156 13.96875 7.398438 13.96875 C 7.390625 13.96875 7.378906 13.964844 7.371094 13.957031 C 7.351562 13.941406 7.351562 13.917969 7.367188 13.898438 Z M 6.890625 14.316406 C 6.898438 14.300781 6.90625 14.289062 6.914062 14.273438 C 6.964844 14.179688 7.019531 14.085938 7.105469 14.015625 C 7.125 14 7.152344 14.003906 7.167969 14.019531 C 7.179688 14.039062 7.179688 14.0625 7.160156 14.078125 C 7.085938 14.136719 7.039062 14.226562 6.992188 14.3125 C 6.984375 14.328125 6.976562 14.34375 6.96875 14.355469 C 6.960938 14.371094 6.945312 14.378906 6.929688 14.378906 C 6.921875 14.378906 6.917969 14.375 6.910156 14.371094 C 6.890625 14.363281 6.882812 14.335938 6.890625 14.316406 Z M 5.53125 16.414062 C 5.523438 16.417969 5.515625 16.417969 5.507812 16.417969 C 5.496094 16.417969 5.480469 16.410156 5.472656 16.394531 C 5.367188 16.203125 5.046875 15.554688 5.394531 15.351562 C 5.414062 15.339844 5.441406 15.34375 5.453125 15.363281 C 5.464844 15.382812 5.457031 15.410156 5.4375 15.421875 C 5.148438 15.59375 5.480469 16.230469 5.546875 16.355469 C 5.558594 16.375 5.550781 16.402344 5.53125 16.414062 Z M 6.046875 16.335938 C 6.039062 16.339844 6.03125 16.339844 6.023438 16.339844 C 6.011719 16.339844 5.996094 16.335938 5.988281 16.324219 C 5.796875 16.03125 5.566406 15.597656 5.832031 15.210938 C 5.847656 15.191406 5.871094 15.1875 5.894531 15.199219 C 5.914062 15.210938 5.917969 15.238281 5.90625 15.257812 C 5.667969 15.601562 5.878906 16.003906 6.0625 16.277344 C 6.074219 16.296875 6.066406 16.324219 6.046875 16.335938 Z M 6.449219 16.339844 C 6.441406 16.351562 6.425781 16.355469 6.414062 16.355469 C 6.40625 16.355469 6.394531 16.355469 6.386719 16.347656 C 6.136719 16.144531 5.996094 15.8125 6.011719 15.464844 C 6.03125 15.125 6.222656 14.910156 6.429688 14.703125 C 6.449219 14.6875 6.476562 14.6875 6.492188 14.703125 C 6.507812 14.71875 6.507812 14.746094 6.492188 14.761719 C 6.285156 14.964844 6.113281 15.15625 6.097656 15.46875 C 6.082031 15.792969 6.210938 16.097656 6.441406 16.28125 C 6.460938 16.296875 6.464844 16.324219 6.449219 16.339844 Z M 7.976562 17.542969 C 7.976562 17.542969 7.972656 17.542969 7.972656 17.542969 C 7.492188 17.5 6.820312 17.261719 6.476562 16.84375 C 6.460938 16.824219 6.464844 16.800781 6.480469 16.785156 C 6.5 16.769531 6.527344 16.773438 6.542969 16.792969 C 6.871094 17.191406 7.519531 17.417969 7.980469 17.460938 C 8.003906 17.460938 8.019531 17.484375 8.019531 17.507812 C 8.015625 17.527344 7.996094 17.542969 7.976562 17.542969 Z M 7.976562 17.542969 " fill-opacity="1" fill-rule="nonzero"/></g><g clip-path="url(#c5182d749e)"><path fill="#43241e" d="M 25.472656 12.578125 C 25.472656 12.574219 25.472656 12.574219 25.472656 12.570312 C 24.820312 11.757812 23.523438 10.988281 22.085938 10.5625 C 20.539062 10.105469 19.144531 10.125 18.261719 10.621094 C 18.257812 10.621094 18.257812 10.625 18.253906 10.625 C 17.816406 10.976562 17.183594 11.25 16.574219 11.519531 C 16.25 11.660156 15.929688 11.800781 15.628906 11.953125 C 15.644531 11.804688 15.664062 11.667969 15.679688 11.550781 C 15.699219 11.429688 15.71875 11.308594 15.738281 11.1875 C 15.78125 10.945312 15.820312 10.699219 15.847656 10.453125 C 15.859375 10.34375 15.867188 10.230469 15.859375 10.121094 C 16.253906 9.964844 16.667969 9.855469 17.109375 9.839844 C 17.679688 9.839844 18.742188 9.839844 19.15625 9.332031 C 19.316406 9.128906 19.363281 8.867188 19.289062 8.550781 C 19.289062 8.550781 19.285156 8.546875 19.285156 8.546875 C 19.097656 8.089844 18.714844 7.816406 18.34375 7.550781 C 18.195312 7.445312 18.039062 7.335938 17.898438 7.214844 C 17.335938 6.730469 16.648438 6.195312 15.824219 5.875 C 14.855469 5.460938 13.769531 5.285156 12.839844 5.390625 C 11.71875 5.515625 10.871094 6.039062 10.394531 6.898438 C 10.214844 7.199219 9.917969 7.515625 9.605469 7.847656 C 8.898438 8.597656 8.101562 9.449219 8.578125 10.339844 C 8.582031 10.34375 8.585938 10.347656 8.589844 10.351562 C 8.921875 10.640625 9.535156 10.648438 9.980469 10.652344 C 10.046875 10.652344 10.109375 10.652344 10.164062 10.65625 C 10.699219 10.671875 11.1875 10.816406 11.660156 10.953125 C 12.007812 11.058594 12.363281 11.164062 12.742188 11.214844 C 12.738281 11.246094 12.738281 11.273438 12.738281 11.308594 C 12.734375 11.359375 12.734375 11.414062 12.730469 11.46875 L 12.726562 11.566406 C 12.71875 11.691406 12.710938 11.816406 12.707031 11.941406 C 12.683594 12.28125 12.664062 12.632812 12.679688 12.980469 C 12.695312 13.414062 12.753906 13.847656 12.835938 14.28125 C 11.761719 13.378906 10.578125 12.652344 8.960938 12.882812 C 7.933594 12.9375 7.066406 13.539062 6.230469 14.121094 C 5.972656 14.300781 5.730469 14.46875 5.488281 14.621094 C 4.832031 15.023438 4.199219 15.769531 4.316406 16.273438 C 4.382812 16.5625 4.671875 16.738281 5.171875 16.796875 C 5.957031 17.015625 6.507812 17.261719 6.992188 17.472656 C 7.484375 17.691406 7.886719 17.871094 8.351562 17.933594 C 8.371094 17.988281 8.390625 18.042969 8.410156 18.101562 C 8.503906 18.371094 8.605469 18.65625 8.75 18.917969 L 8.753906 18.929688 C 8.960938 19.296875 9.222656 19.617188 9.535156 19.875 C 9.722656 20.03125 9.933594 20.148438 10.136719 20.261719 C 10.273438 20.335938 10.414062 20.410156 10.542969 20.5 C 10.882812 20.726562 11.160156 21.050781 11.4375 21.394531 C 11.554688 21.539062 11.671875 21.691406 11.785156 21.835938 C 11.921875 22.011719 12.058594 22.191406 12.203125 22.367188 C 12.230469 22.398438 12.253906 22.425781 12.28125 22.457031 C 12.492188 22.714844 12.710938 22.980469 13.015625 23.140625 C 13.359375 23.316406 13.746094 23.414062 14.125 23.421875 L 14.257812 23.425781 C 14.386719 23.429688 14.515625 23.429688 14.644531 23.429688 C 14.863281 23.429688 15.085938 23.421875 15.304688 23.394531 C 15.527344 23.363281 15.699219 23.308594 15.835938 23.230469 C 16.160156 23.203125 16.460938 23.117188 16.65625 23.046875 C 16.867188 22.972656 17.085938 22.910156 17.296875 22.847656 C 17.898438 22.679688 18.515625 22.503906 18.976562 22.03125 C 19.59375 21.394531 19.898438 20.5625 20.113281 19.832031 C 20.25 19.359375 20.375 18.933594 20.476562 18.5 C 20.558594 18.167969 20.597656 17.828125 20.632812 17.5 C 20.644531 17.390625 20.65625 17.277344 20.671875 17.167969 C 20.683594 17.074219 20.695312 16.980469 20.703125 16.886719 C 20.734375 16.621094 20.765625 16.34375 20.832031 16.082031 C 20.871094 15.917969 20.925781 15.769531 20.988281 15.632812 C 21.023438 15.5625 21.058594 15.492188 21.09375 15.421875 C 21.101562 15.410156 21.109375 15.394531 21.113281 15.382812 C 21.296875 15.292969 21.476562 15.199219 21.652344 15.105469 C 22.1875 14.816406 22.742188 14.515625 23.382812 14.5 C 24.253906 14.671875 25.320312 14.667969 25.710938 14.128906 C 25.96875 13.773438 25.890625 13.25 25.472656 12.578125 Z M 23.394531 14.417969 C 23.390625 14.417969 23.386719 14.417969 23.386719 14.417969 C 22.722656 14.429688 22.15625 14.734375 21.609375 15.03125 C 21.410156 15.136719 21.207031 15.25 21 15.34375 C 20.035156 15.730469 18.929688 15.628906 17.886719 15.054688 C 17.632812 14.917969 17.351562 14.875 17.0625 14.875 C 16.820312 14.875 16.570312 14.90625 16.328125 14.933594 C 15.582031 15.023438 14.882812 15.105469 14.480469 14.363281 C 13.804688 12.816406 15.167969 12.222656 16.609375 11.59375 C 17.222656 11.328125 17.859375 11.046875 18.304688 10.691406 C 20.160156 9.65625 24.054688 10.9375 25.402344 12.621094 C 25.796875 13.261719 25.878906 13.753906 25.640625 14.082031 C 25.273438 14.585938 24.242188 14.585938 23.394531 14.417969 Z M 20.585938 17.160156 C 20.574219 17.269531 20.558594 17.378906 20.546875 17.492188 C 20.511719 17.816406 20.472656 18.15625 20.394531 18.480469 C 20.292969 18.910156 20.167969 19.335938 20.027344 19.808594 C 19.816406 20.527344 19.519531 21.347656 18.914062 21.972656 C 18.46875 22.429688 17.890625 22.59375 17.273438 22.769531 C 17.0625 22.828125 16.839844 22.890625 16.628906 22.96875 C 16.464844 23.027344 16.230469 23.097656 15.96875 23.128906 C 16.023438 23.078125 16.070312 23.019531 16.109375 22.953125 C 16.117188 22.960938 16.125 22.960938 16.132812 22.960938 C 16.140625 22.960938 16.148438 22.960938 16.15625 22.953125 C 16.28125 22.871094 16.414062 22.8125 16.554688 22.75 C 16.621094 22.722656 16.6875 22.691406 16.757812 22.65625 C 17.089844 22.496094 17.375 22.242188 17.605469 22.015625 C 17.625 22 17.625 21.972656 17.605469 21.957031 C 17.589844 21.941406 17.5625 21.941406 17.546875 21.957031 C 17.316406 22.179688 17.039062 22.425781 16.71875 22.582031 C 16.652344 22.617188 16.585938 22.644531 16.519531 22.671875 C 16.398438 22.726562 16.273438 22.78125 16.15625 22.855469 C 16.269531 22.566406 16.222656 22.222656 16.03125 21.964844 C 15.921875 21.820312 15.789062 21.691406 15.644531 21.59375 C 15.640625 21.589844 15.632812 21.585938 15.628906 21.582031 C 15.484375 21.492188 15.339844 21.464844 15.1875 21.4375 C 15.144531 21.429688 15.101562 21.421875 15.054688 21.414062 C 15.050781 21.414062 15.050781 21.414062 15.046875 21.410156 C 15.117188 21.339844 15.195312 21.277344 15.273438 21.222656 C 15.441406 21.109375 15.636719 21.035156 15.828125 20.964844 C 16.019531 20.894531 16.214844 20.824219 16.390625 20.707031 C 16.558594 20.59375 16.726562 20.46875 16.882812 20.332031 C 17.042969 20.195312 17.203125 20.042969 17.363281 19.875 C 17.949219 19.257812 18.25 18.46875 18.53125 17.648438 C 18.671875 17.242188 18.820312 16.757812 18.878906 16.246094 C 18.886719 16.175781 18.898438 16.105469 18.910156 16.03125 L 18.914062 15.992188 C 18.9375 15.851562 18.957031 15.707031 18.964844 15.5625 C 19.242188 15.625 19.519531 15.660156 19.789062 15.660156 C 20.203125 15.660156 20.609375 15.585938 20.992188 15.433594 C 20.964844 15.488281 20.9375 15.542969 20.910156 15.597656 C 20.84375 15.738281 20.789062 15.890625 20.746094 16.0625 C 20.679688 16.332031 20.648438 16.609375 20.617188 16.878906 C 20.609375 16.972656 20.597656 17.066406 20.585938 17.160156 Z M 14.261719 23.34375 L 14.128906 23.339844 C 13.757812 23.332031 13.390625 23.238281 13.054688 23.066406 C 12.765625 22.914062 12.550781 22.65625 12.347656 22.40625 C 12.320312 22.375 12.296875 22.34375 12.269531 22.3125 C 12.128906 22.140625 11.988281 21.960938 11.855469 21.785156 C 11.742188 21.640625 11.625 21.488281 11.503906 21.339844 C 11.222656 20.992188 10.941406 20.664062 10.59375 20.429688 C 10.457031 20.339844 10.316406 20.261719 10.179688 20.1875 C 9.980469 20.078125 9.773438 19.960938 9.589844 19.8125 C 9.285156 19.558594 9.03125 19.25 8.832031 18.890625 L 8.824219 18.878906 C 8.683594 18.621094 8.585938 18.34375 8.488281 18.074219 C 8.476562 18.03125 8.460938 17.988281 8.445312 17.945312 C 8.539062 17.957031 8.632812 17.960938 8.734375 17.960938 C 9.277344 17.960938 9.945312 17.808594 10.917969 17.417969 C 10.945312 17.511719 10.976562 17.601562 11.011719 17.6875 C 11.039062 17.761719 11.066406 17.839844 11.089844 17.917969 C 11.117188 18.007812 11.144531 18.089844 11.167969 18.164062 C 11.324219 18.625 11.507812 18.953125 11.761719 19.234375 C 12.019531 19.523438 12.375 19.886719 12.832031 20.144531 C 12.9375 20.207031 13.050781 20.265625 13.15625 20.324219 C 13.449219 20.484375 13.75 20.644531 14.019531 20.847656 C 14.042969 20.867188 14.070312 20.886719 14.09375 20.90625 C 14.148438 20.949219 14.199219 20.992188 14.25 21.035156 C 14.457031 21.210938 14.671875 21.390625 14.953125 21.472656 C 14.980469 21.480469 15.007812 21.488281 15.039062 21.496094 C 15.082031 21.503906 15.128906 21.511719 15.171875 21.519531 C 15.316406 21.546875 15.453125 21.570312 15.582031 21.652344 C 15.585938 21.65625 15.589844 21.660156 15.59375 21.660156 C 15.730469 21.753906 15.859375 21.878906 15.960938 22.015625 C 16.148438 22.269531 16.183594 22.609375 16.050781 22.882812 C 15.996094 22.996094 15.914062 23.082031 15.800781 23.152344 C 15.671875 23.230469 15.507812 23.28125 15.292969 23.308594 C 14.949219 23.355469 14.601562 23.351562 14.261719 23.34375 Z M 7.027344 17.398438 C 6.539062 17.183594 5.988281 16.9375 5.191406 16.71875 C 5.191406 16.71875 5.1875 16.714844 5.1875 16.714844 C 4.722656 16.660156 4.457031 16.503906 4.398438 16.253906 C 4.296875 15.800781 4.902344 15.082031 5.53125 14.691406 C 5.777344 14.539062 6.019531 14.371094 6.277344 14.191406 C 7.105469 13.617188 7.960938 13.019531 8.96875 12.964844 C 9.167969 12.9375 9.363281 12.921875 9.546875 12.921875 C 11.238281 12.921875 12.441406 14.015625 13.605469 15.074219 C 13.96875 15.40625 14.34375 15.746094 14.726562 16.046875 C 14.972656 16.355469 14.882812 16.753906 14.691406 17.011719 C 14.136719 17.660156 13.398438 17.503906 12.617188 17.339844 C 12.121094 17.234375 11.605469 17.125 11.136719 17.238281 C 11.136719 17.238281 11.132812 17.242188 11.132812 17.242188 C 8.839844 18.203125 8.195312 17.917969 7.027344 17.398438 Z M 12.789062 11.945312 C 12.796875 11.820312 12.804688 11.695312 12.8125 11.570312 L 12.816406 11.472656 C 12.820312 11.417969 12.820312 11.363281 12.824219 11.308594 C 12.824219 11.28125 12.824219 11.253906 12.828125 11.226562 C 12.949219 11.238281 13.078125 11.246094 13.207031 11.246094 C 13.378906 11.246094 13.558594 11.234375 13.742188 11.199219 C 13.746094 11.199219 13.75 11.195312 13.753906 11.195312 C 14.042969 11.058594 14.332031 10.898438 14.613281 10.742188 C 14.992188 10.53125 15.375 10.320312 15.777344 10.152344 C 15.78125 10.25 15.773438 10.347656 15.761719 10.445312 C 15.734375 10.6875 15.695312 10.933594 15.65625 11.171875 C 15.632812 11.292969 15.613281 11.417969 15.59375 11.539062 C 15.574219 11.671875 15.554688 11.832031 15.535156 12 C 14.5625 12.515625 13.871094 13.179688 14.402344 14.398438 C 14.703125 14.953125 15.164062 15.078125 15.667969 15.074219 C 15.667969 15.085938 15.667969 15.101562 15.667969 15.113281 C 15.671875 15.328125 15.671875 15.550781 15.679688 15.769531 C 15.695312 16.253906 15.871094 16.707031 16.042969 17.148438 L 16.074219 17.234375 C 16.269531 17.738281 16.382812 18.210938 16.433594 18.726562 L 16.441406 18.8125 C 16.46875 19.082031 16.492188 19.359375 16.566406 19.625 C 16.609375 19.769531 16.664062 19.914062 16.71875 20.050781 C 16.746094 20.125 16.773438 20.195312 16.800781 20.269531 L 16.804688 20.285156 C 16.65625 20.414062 16.5 20.53125 16.34375 20.636719 C 16.175781 20.746094 15.980469 20.820312 15.796875 20.886719 C 15.601562 20.960938 15.402344 21.035156 15.222656 21.15625 C 15.128906 21.21875 15.035156 21.296875 14.953125 21.386719 C 14.933594 21.378906 14.914062 21.371094 14.894531 21.363281 C 14.894531 21.363281 14.894531 21.363281 14.898438 21.363281 C 14.914062 21.351562 14.917969 21.324219 14.90625 21.304688 C 14.675781 20.996094 14.628906 20.644531 14.609375 20.339844 C 14.605469 20.21875 14.613281 20.089844 14.621094 19.96875 C 14.625 19.925781 14.625 19.882812 14.628906 19.835938 C 14.640625 19.574219 14.59375 19.363281 14.535156 19.121094 L 14.527344 19.074219 C 14.519531 19.054688 14.5 19.039062 14.476562 19.042969 C 14.453125 19.050781 14.4375 19.070312 14.441406 19.09375 L 14.453125 19.136719 C 14.507812 19.378906 14.554688 19.582031 14.542969 19.832031 C 14.539062 19.875 14.539062 19.921875 14.535156 19.964844 C 14.527344 20.089844 14.519531 20.214844 14.523438 20.34375 C 14.542969 20.652344 14.589844 21.011719 14.820312 21.332031 C 14.632812 21.246094 14.472656 21.113281 14.308594 20.972656 C 14.261719 20.933594 14.210938 20.894531 14.164062 20.855469 C 14.160156 20.636719 14.183594 20.40625 14.199219 20.207031 C 14.214844 20.035156 14.230469 19.886719 14.226562 19.769531 C 14.210938 18.996094 14.035156 18.28125 13.820312 17.554688 C 14.164062 17.519531 14.484375 17.382812 14.757812 17.0625 C 15.015625 16.71875 15.03125 16.289062 14.789062 15.992188 C 14.789062 15.988281 14.785156 15.988281 14.785156 15.984375 C 14.402344 15.683594 14.027344 15.34375 13.664062 15.011719 C 13.425781 14.796875 13.183594 14.578125 12.941406 14.367188 C 12.847656 13.902344 12.78125 13.441406 12.765625 12.976562 C 12.75 12.632812 12.769531 12.285156 12.789062 11.945312 Z M 10.167969 10.570312 C 10.109375 10.570312 10.046875 10.570312 9.980469 10.570312 C 9.550781 10.5625 8.964844 10.554688 8.652344 10.292969 C 8.210938 9.457031 8.949219 8.667969 9.667969 7.90625 C 9.984375 7.566406 10.285156 7.25 10.46875 6.9375 C 10.933594 6.101562 11.757812 5.59375 12.851562 5.472656 C 13.765625 5.371094 14.835938 5.542969 15.792969 5.949219 C 16.605469 6.269531 17.285156 6.800781 17.84375 7.277344 C 17.984375 7.402344 18.140625 7.511719 18.292969 7.617188 C 18.667969 7.886719 19.027344 8.140625 19.203125 8.574219 C 19.273438 8.863281 19.234375 9.101562 19.085938 9.28125 C 18.699219 9.753906 17.664062 9.757812 17.109375 9.757812 C 16.160156 9.789062 15.351562 10.238281 14.570312 10.667969 C 14.292969 10.824219 14.007812 10.980469 13.722656 11.117188 C 12.96875 11.253906 12.34375 11.070312 11.683594 10.875 C 11.207031 10.734375 10.714844 10.585938 10.167969 10.570312 Z M 14.070312 20.78125 C 13.800781 20.574219 13.496094 20.410156 13.199219 20.25 C 13.09375 20.191406 12.980469 20.132812 12.875 20.070312 C 12.429688 19.820312 12.082031 19.464844 11.824219 19.179688 C 11.578125 18.90625 11.402344 18.585938 11.25 18.136719 C 11.226562 18.0625 11.199219 17.984375 11.171875 17.894531 C 11.148438 17.816406 11.117188 17.734375 11.089844 17.660156 C 11.058594 17.570312 11.023438 17.480469 11 17.386719 C 11.050781 17.367188 11.105469 17.34375 11.160156 17.320312 C 11.609375 17.210938 12.113281 17.316406 12.597656 17.421875 C 12.980469 17.5 13.367188 17.582031 13.734375 17.5625 C 13.949219 18.289062 14.125 19.003906 14.140625 19.773438 C 14.144531 19.882812 14.128906 20.027344 14.113281 20.199219 C 14.097656 20.382812 14.078125 20.585938 14.078125 20.785156 C 14.074219 20.785156 14.074219 20.78125 14.070312 20.78125 Z M 16.875 20.226562 C 16.851562 20.15625 16.824219 20.089844 16.796875 20.023438 C 16.746094 19.886719 16.691406 19.746094 16.652344 19.601562 C 16.578125 19.34375 16.550781 19.070312 16.527344 18.804688 L 16.519531 18.71875 C 16.46875 18.195312 16.351562 17.714844 16.15625 17.207031 L 16.121094 17.117188 C 15.953125 16.683594 15.78125 16.238281 15.765625 15.765625 C 15.757812 15.546875 15.757812 15.328125 15.753906 15.113281 C 15.753906 15.097656 15.753906 15.085938 15.753906 15.070312 C 15.945312 15.0625 16.140625 15.039062 16.335938 15.019531 C 16.863281 14.957031 17.402344 14.890625 17.847656 15.128906 C 18.1875 15.316406 18.535156 15.453125 18.882812 15.542969 C 18.875 15.6875 18.851562 15.835938 18.828125 15.980469 L 18.824219 16.019531 C 18.8125 16.089844 18.800781 16.164062 18.792969 16.234375 C 18.734375 16.742188 18.585938 17.21875 18.449219 17.621094 C 18.171875 18.433594 17.875 19.210938 17.300781 19.820312 C 17.160156 19.964844 17.015625 20.101562 16.875 20.226562 Z M 6.441406 16.28125 C 6.460938 16.296875 6.464844 16.324219 6.449219 16.339844 C 6.441406 16.351562 6.425781 16.355469 6.414062 16.355469 C 6.40625 16.355469 6.394531 16.355469 6.386719 16.347656 C 6.136719 16.144531 5.996094 15.8125 6.011719 15.464844 C 6.03125 15.125 6.222656 14.910156 6.429688 14.703125 C 6.449219 14.6875 6.476562 14.6875 6.492188 14.703125 C 6.507812 14.71875 6.507812 14.746094 6.492188 14.761719 C 6.285156 14.964844 6.113281 15.15625 6.097656 15.46875 C 6.082031 15.792969 6.210938 16.097656 6.441406 16.28125 Z M 6.0625 16.277344 C 6.074219 16.296875 6.066406 16.324219 6.046875 16.335938 C 6.039062 16.339844 6.03125 16.339844 6.023438 16.339844 C 6.011719 16.339844 5.996094 16.335938 5.988281 16.324219 C 5.792969 16.03125 5.566406 15.597656 5.832031 15.210938 C 5.847656 15.191406 5.871094 15.1875 5.890625 15.199219 C 5.914062 15.210938 5.917969 15.238281 5.90625 15.257812 C 5.667969 15.601562 5.878906 16.003906 6.0625 16.277344 Z M 5.546875 16.355469 C 5.558594 16.375 5.550781 16.402344 5.53125 16.414062 C 5.523438 16.417969 5.515625 16.417969 5.507812 16.417969 C 5.496094 16.417969 5.480469 16.410156 5.472656 16.394531 C 5.367188 16.203125 5.046875 15.554688 5.394531 15.351562 C 5.414062 15.339844 5.441406 15.34375 5.453125 15.363281 C 5.464844 15.382812 5.457031 15.410156 5.4375 15.421875 C 5.148438 15.59375 5.480469 16.230469 5.546875 16.355469 Z M 5.023438 16.253906 C 5.039062 16.269531 5.042969 16.292969 5.027344 16.3125 C 5.019531 16.320312 5.007812 16.328125 4.996094 16.328125 C 4.984375 16.328125 4.976562 16.324219 4.964844 16.316406 C 4.824219 16.195312 4.730469 15.941406 4.75 15.734375 C 4.765625 15.597656 4.824219 15.496094 4.925781 15.441406 C 4.949219 15.429688 4.972656 15.4375 4.984375 15.457031 C 4.996094 15.476562 4.988281 15.503906 4.96875 15.515625 C 4.871094 15.566406 4.84375 15.667969 4.835938 15.742188 C 4.816406 15.921875 4.902344 16.152344 5.023438 16.253906 Z M 12.128906 16.980469 C 12.113281 16.964844 12.113281 16.9375 12.132812 16.921875 C 12.460938 16.644531 12.796875 16.125 12.773438 15.707031 C 12.75 15.324219 12.539062 14.820312 12.300781 14.5625 C 12.285156 14.542969 12.285156 14.519531 12.300781 14.503906 C 12.320312 14.488281 12.347656 14.488281 12.363281 14.507812 C 12.617188 14.777344 12.832031 15.304688 12.859375 15.703125 C 12.886719 16.144531 12.535156 16.695312 12.1875 16.984375 C 12.179688 16.992188 12.167969 16.996094 12.160156 16.996094 C 12.148438 16.996094 12.136719 16.992188 12.128906 16.980469 Z M 13.136719 15.515625 C 13.230469 15.917969 13.140625 16.234375 13.011719 16.601562 C 13.007812 16.621094 12.988281 16.628906 12.972656 16.628906 C 12.96875 16.628906 12.960938 16.628906 12.957031 16.628906 C 12.933594 16.621094 12.921875 16.597656 12.929688 16.574219 C 13.054688 16.21875 13.140625 15.917969 13.054688 15.53125 C 13.050781 15.507812 13.0625 15.488281 13.085938 15.480469 C 13.109375 15.476562 13.132812 15.492188 13.136719 15.515625 Z M 13.371094 15.636719 C 13.359375 15.617188 13.363281 15.59375 13.386719 15.578125 C 13.40625 15.566406 13.429688 15.574219 13.445312 15.589844 C 13.734375 16.019531 13.558594 16.476562 13.355469 16.910156 C 13.347656 16.925781 13.332031 16.933594 13.316406 16.933594 C 13.308594 16.933594 13.300781 16.933594 13.296875 16.929688 C 13.273438 16.921875 13.265625 16.898438 13.277344 16.875 C 13.480469 16.449219 13.640625 16.03125 13.371094 15.636719 Z M 13.699219 16.859375 C 13.792969 16.675781 13.859375 16.328125 13.804688 16.128906 C 13.796875 16.105469 13.8125 16.082031 13.835938 16.078125 C 13.855469 16.070312 13.882812 16.082031 13.886719 16.105469 C 13.949219 16.328125 13.878906 16.703125 13.773438 16.898438 C 13.765625 16.910156 13.753906 16.921875 13.738281 16.921875 C 13.730469 16.921875 13.722656 16.917969 13.71875 16.914062 C 13.695312 16.90625 13.6875 16.878906 13.699219 16.859375 Z M 14.117188 17.050781 C 14.097656 17.035156 14.09375 17.007812 14.105469 16.992188 C 14.230469 16.828125 14.414062 16.382812 14.351562 16.207031 C 14.34375 16.183594 14.355469 16.160156 14.378906 16.152344 C 14.398438 16.144531 14.425781 16.15625 14.433594 16.179688 C 14.515625 16.402344 14.289062 16.890625 14.175781 17.039062 C 14.167969 17.050781 14.15625 17.058594 14.140625 17.058594 C 14.132812 17.058594 14.125 17.054688 14.117188 17.050781 Z M 8.019531 17.507812 C 8.015625 17.527344 7.996094 17.542969 7.976562 17.542969 C 7.976562 17.542969 7.972656 17.542969 7.972656 17.542969 C 7.492188 17.5 6.820312 17.261719 6.476562 16.84375 C 6.460938 16.824219 6.464844 16.800781 6.480469 16.785156 C 6.5 16.769531 6.527344 16.773438 6.542969 16.792969 C 6.871094 17.191406 7.519531 17.417969 7.980469 17.460938 C 8.003906 17.460938 8.019531 17.484375 8.019531 17.507812 Z M 7.371094 13.957031 C 7.351562 13.941406 7.351562 13.917969 7.367188 13.898438 C 7.601562 13.625 8.003906 13.453125 8.167969 13.394531 C 8.269531 13.355469 8.375 13.328125 8.476562 13.300781 C 8.503906 13.292969 8.53125 13.285156 8.5625 13.277344 C 8.617188 13.265625 8.671875 13.238281 8.734375 13.207031 C 8.808594 13.171875 8.890625 13.136719 8.96875 13.121094 C 8.992188 13.117188 9.011719 13.132812 9.015625 13.15625 C 9.023438 13.179688 9.007812 13.203125 8.984375 13.207031 C 8.914062 13.214844 8.84375 13.25 8.769531 13.285156 C 8.710938 13.3125 8.648438 13.34375 8.585938 13.359375 C 8.554688 13.367188 8.527344 13.375 8.5 13.382812 C 8.398438 13.410156 8.296875 13.4375 8.199219 13.472656 C 8.042969 13.53125 7.652344 13.691406 7.429688 13.953125 C 7.421875 13.960938 7.410156 13.96875 7.398438 13.96875 C 7.390625 13.96875 7.378906 13.964844 7.371094 13.957031 Z M 6.890625 14.316406 C 6.898438 14.300781 6.90625 14.289062 6.914062 14.273438 C 6.964844 14.179688 7.019531 14.085938 7.105469 14.015625 C 7.125 14 7.152344 14.003906 7.167969 14.019531 C 7.179688 14.039062 7.179688 14.0625 7.160156 14.078125 C 7.085938 14.136719 7.039062 14.226562 6.992188 14.3125 C 6.984375 14.328125 6.976562 14.34375 6.96875 14.355469 C 6.960938 14.371094 6.945312 14.378906 6.929688 14.378906 C 6.921875 14.378906 6.917969 14.375 6.910156 14.371094 C 6.890625 14.363281 6.882812 14.335938 6.890625 14.316406 Z M 10.265625 9.84375 C 10.285156 9.855469 10.289062 9.882812 10.273438 9.902344 C 10.265625 9.910156 10.253906 9.917969 10.238281 9.917969 C 10.230469 9.917969 10.222656 9.914062 10.214844 9.910156 C 9.792969 9.609375 9.710938 8.855469 9.917969 8.382812 C 9.929688 8.363281 9.953125 8.351562 9.976562 8.359375 C 9.996094 8.371094 10.007812 8.394531 10 8.414062 C 9.800781 8.859375 9.875 9.566406 10.265625 9.84375 Z M 9.929688 10.078125 C 9.945312 10.097656 9.941406 10.125 9.921875 10.136719 C 9.914062 10.144531 9.90625 10.144531 9.894531 10.144531 C 9.882812 10.144531 9.871094 10.140625 9.863281 10.128906 C 9.625 9.8125 9.464844 9.519531 9.449219 9.121094 C 9.433594 8.8125 9.523438 8.539062 9.621094 8.25 L 9.636719 8.203125 C 9.644531 8.183594 9.667969 8.167969 9.691406 8.175781 C 9.714844 8.183594 9.726562 8.207031 9.71875 8.230469 L 9.703125 8.277344 C 9.609375 8.558594 9.519531 8.824219 9.535156 9.117188 C 9.550781 9.496094 9.699219 9.765625 9.929688 10.078125 Z M 9.429688 10.125 C 9.445312 10.140625 9.441406 10.167969 9.425781 10.183594 C 9.414062 10.1875 9.40625 10.191406 9.398438 10.191406 C 9.382812 10.191406 9.371094 10.1875 9.363281 10.175781 C 9.179688 9.957031 9.042969 9.511719 9.136719 9.238281 C 9.144531 9.214844 9.167969 9.203125 9.191406 9.210938 C 9.214844 9.21875 9.226562 9.242188 9.21875 9.265625 C 9.132812 9.507812 9.261719 9.925781 9.429688 10.125 Z M 8.976562 10.109375 C 8.992188 10.128906 8.988281 10.15625 8.96875 10.167969 C 8.960938 10.175781 8.953125 10.175781 8.945312 10.175781 C 8.929688 10.175781 8.917969 10.171875 8.910156 10.160156 C 8.832031 10.058594 8.675781 9.851562 8.75 9.691406 C 8.757812 9.671875 8.785156 9.660156 8.804688 9.671875 C 8.828125 9.679688 8.835938 9.703125 8.828125 9.726562 C 8.773438 9.839844 8.917969 10.03125 8.976562 10.109375 Z M 12.359375 10.71875 C 12.238281 10.679688 12.128906 10.640625 12.023438 10.613281 C 11.894531 10.585938 11.765625 10.542969 11.644531 10.5 C 11.402344 10.417969 11.152344 10.335938 10.898438 10.34375 C 10.871094 10.34375 10.851562 10.328125 10.851562 10.304688 C 10.851562 10.28125 10.871094 10.261719 10.894531 10.261719 C 11.164062 10.25 11.421875 10.335938 11.671875 10.421875 C 11.792969 10.460938 11.921875 10.503906 12.042969 10.535156 C 12.152344 10.558594 12.265625 10.597656 12.386719 10.640625 C 12.617188 10.71875 12.855469 10.800781 13.0625 10.785156 C 13.242188 10.769531 13.378906 10.667969 13.519531 10.558594 C 13.617188 10.484375 13.722656 10.402344 13.84375 10.355469 C 13.867188 10.347656 13.890625 10.355469 13.902344 10.378906 C 13.910156 10.398438 13.898438 10.421875 13.878906 10.433594 C 13.765625 10.476562 13.671875 10.546875 13.570312 10.625 C 13.425781 10.738281 13.277344 10.851562 13.070312 10.867188 C 13.046875 10.871094 13.027344 10.871094 13.007812 10.871094 C 12.800781 10.871094 12.574219 10.792969 12.359375 10.71875 Z M 17.554688 7.742188 C 17.5625 7.71875 17.589844 7.710938 17.609375 7.722656 C 17.867188 7.847656 18.027344 8.351562 18.027344 8.582031 C 18.027344 8.804688 17.953125 9.019531 17.882812 9.222656 C 17.855469 9.300781 17.828125 9.382812 17.804688 9.460938 C 17.800781 9.480469 17.78125 9.492188 17.765625 9.492188 C 17.761719 9.492188 17.757812 9.492188 17.753906 9.488281 C 17.730469 9.484375 17.714844 9.460938 17.722656 9.4375 C 17.746094 9.359375 17.773438 9.277344 17.800781 9.195312 C 17.867188 8.996094 17.941406 8.792969 17.941406 8.582031 C 17.941406 8.34375 17.777344 7.894531 17.574219 7.796875 C 17.550781 7.789062 17.542969 7.761719 17.554688 7.742188 Z M 18.179688 8.332031 C 18.167969 8.3125 18.171875 8.285156 18.191406 8.273438 C 18.210938 8.261719 18.238281 8.265625 18.253906 8.285156 C 18.425781 8.539062 18.253906 9.164062 18.0625 9.371094 C 18.050781 9.378906 18.039062 9.386719 18.027344 9.386719 C 18.019531 9.386719 18.007812 9.382812 18 9.375 C 17.984375 9.359375 17.980469 9.332031 17.996094 9.316406 C 18.167969 9.132812 18.328125 8.546875 18.179688 8.332031 Z M 18.398438 9.335938 C 18.484375 9.191406 18.652344 8.738281 18.582031 8.515625 C 18.5625 8.460938 18.535156 8.425781 18.496094 8.40625 C 18.472656 8.398438 18.464844 8.371094 18.472656 8.351562 C 18.484375 8.332031 18.511719 8.320312 18.53125 8.332031 C 18.59375 8.359375 18.640625 8.414062 18.664062 8.488281 C 18.746094 8.753906 18.558594 9.234375 18.472656 9.378906 C 18.464844 9.394531 18.449219 9.398438 18.433594 9.398438 C 18.425781 9.398438 18.421875 9.398438 18.414062 9.394531 C 18.394531 9.382812 18.386719 9.355469 18.398438 9.335938 Z M 18.832031 8.980469 L 18.84375 8.941406 C 18.871094 8.859375 18.894531 8.773438 18.890625 8.691406 C 18.890625 8.667969 18.910156 8.648438 18.933594 8.648438 C 18.957031 8.644531 18.976562 8.664062 18.976562 8.6875 C 18.984375 8.78125 18.953125 8.878906 18.925781 8.964844 L 18.914062 9.003906 C 18.90625 9.023438 18.890625 9.035156 18.871094 9.035156 C 18.867188 9.035156 18.863281 9.035156 18.859375 9.035156 C 18.835938 9.027344 18.824219 9.003906 18.832031 8.980469 Z M 11.605469 6.179688 C 11.59375 6.160156 11.605469 6.136719 11.625 6.125 C 11.703125 6.085938 11.769531 6.039062 11.835938 5.992188 C 11.945312 5.917969 12.058594 5.84375 12.207031 5.796875 C 12.394531 5.738281 12.609375 5.714844 12.8125 5.691406 C 13.089844 5.664062 13.613281 5.628906 14.042969 5.710938 C 14.066406 5.714844 14.078125 5.734375 14.074219 5.757812 C 14.070312 5.78125 14.046875 5.796875 14.023438 5.792969 C 13.605469 5.714844 13.09375 5.75 12.824219 5.777344 C 12.625 5.796875 12.414062 5.820312 12.230469 5.878906 C 12.097656 5.917969 11.996094 5.988281 11.886719 6.0625 C 11.816406 6.109375 11.746094 6.15625 11.664062 6.199219 C 11.65625 6.203125 11.652344 6.203125 11.644531 6.203125 C 11.628906 6.203125 11.613281 6.195312 11.605469 6.179688 Z M 10.863281 6.902344 C 10.855469 6.902344 10.84375 6.902344 10.835938 6.894531 C 10.820312 6.878906 10.816406 6.855469 10.832031 6.835938 C 10.847656 6.816406 10.859375 6.796875 10.875 6.777344 C 10.9375 6.703125 10.996094 6.625 11.074219 6.570312 C 11.089844 6.554688 11.117188 6.558594 11.132812 6.578125 C 11.148438 6.597656 11.144531 6.621094 11.125 6.636719 C 11.058594 6.683594 11 6.757812 10.945312 6.828125 C 10.929688 6.847656 10.914062 6.871094 10.898438 6.886719 C 10.890625 6.898438 10.875 6.902344 10.863281 6.902344 Z M 16.621094 14.484375 C 16.613281 14.5 16.597656 14.515625 16.578125 14.515625 C 16.574219 14.515625 16.570312 14.515625 16.566406 14.515625 C 16.347656 14.464844 16.132812 14.101562 16.070312 13.992188 C 15.980469 13.828125 15.917969 13.664062 15.878906 13.507812 C 15.832031 13.3125 15.699219 12.660156 16.011719 12.515625 C 16.035156 12.507812 16.058594 12.515625 16.070312 12.539062 C 16.078125 12.558594 16.070312 12.582031 16.050781 12.59375 C 15.847656 12.683594 15.875 13.132812 15.960938 13.488281 C 16 13.640625 16.058594 13.792969 16.148438 13.949219 C 16.257812 14.152344 16.441406 14.398438 16.585938 14.433594 C 16.609375 14.4375 16.625 14.460938 16.621094 14.484375 Z M 16.25 14.628906 C 16.265625 14.644531 16.265625 14.671875 16.246094 14.6875 C 16.238281 14.695312 16.230469 14.699219 16.21875 14.699219 C 16.207031 14.699219 16.195312 14.691406 16.1875 14.683594 C 16.109375 14.601562 16.03125 14.527344 15.949219 14.457031 C 15.761719 14.289062 15.570312 14.113281 15.46875 13.851562 C 15.390625 13.648438 15.335938 13.339844 15.414062 13.078125 C 15.417969 13.054688 15.441406 13.042969 15.464844 13.046875 C 15.488281 13.054688 15.5 13.078125 15.496094 13.097656 C 15.4375 13.300781 15.457031 13.582031 15.550781 13.820312 C 15.644531 14.066406 15.820312 14.226562 16.007812 14.394531 C 16.089844 14.46875 16.171875 14.542969 16.25 14.628906 Z M 15.53125 14.597656 C 15.546875 14.613281 15.546875 14.640625 15.527344 14.65625 C 15.519531 14.664062 15.511719 14.667969 15.5 14.667969 C 15.488281 14.667969 15.476562 14.664062 15.46875 14.652344 C 15.078125 14.230469 14.746094 13.570312 14.992188 12.980469 C 15 12.960938 15.027344 12.949219 15.046875 12.957031 C 15.070312 12.964844 15.082031 12.992188 15.070312 13.011719 C 14.839844 13.566406 15.15625 14.195312 15.53125 14.597656 Z M 14.878906 14.292969 C 14.894531 14.3125 14.890625 14.339844 14.871094 14.351562 C 14.863281 14.359375 14.855469 14.363281 14.84375 14.363281 C 14.832031 14.363281 14.820312 14.359375 14.8125 14.347656 C 14.703125 14.21875 14.621094 14 14.613281 13.820312 C 14.613281 13.796875 14.632812 13.777344 14.65625 13.777344 C 14.679688 13.773438 14.699219 13.792969 14.699219 13.816406 C 14.707031 13.980469 14.78125 14.179688 14.878906 14.292969 Z M 24.117188 13.269531 L 24.105469 13.300781 C 24 13.648438 23.785156 13.894531 23.554688 14.15625 C 23.53125 14.183594 23.503906 14.210938 23.480469 14.242188 C 23.46875 14.25 23.457031 14.257812 23.445312 14.257812 C 23.4375 14.257812 23.425781 14.253906 23.417969 14.246094 C 23.398438 14.230469 23.398438 14.203125 23.414062 14.1875 C 23.4375 14.15625 23.464844 14.128906 23.488281 14.101562 C 23.710938 13.847656 23.921875 13.605469 24.023438 13.277344 L 24.035156 13.242188 C 24.132812 12.933594 24.3125 12.351562 24.128906 12.074219 C 24.117188 12.054688 24.121094 12.03125 24.140625 12.019531 C 24.160156 12.003906 24.1875 12.011719 24.199219 12.03125 C 24.40625 12.339844 24.226562 12.921875 24.117188 13.269531 Z M 24.226562 14.027344 C 24.21875 14.039062 24.207031 14.042969 24.195312 14.042969 C 24.1875 14.042969 24.175781 14.039062 24.167969 14.03125 C 24.148438 14.019531 24.148438 13.992188 24.164062 13.972656 C 24.457031 13.640625 24.636719 12.953125 24.542969 12.535156 C 24.539062 12.511719 24.554688 12.488281 24.578125 12.484375 C 24.601562 12.480469 24.621094 12.492188 24.628906 12.515625 C 24.726562 12.957031 24.535156 13.675781 24.226562 14.027344 Z M 24.695312 13.839844 C 24.644531 13.929688 24.601562 14.011719 24.5625 14.09375 C 24.554688 14.109375 24.539062 14.121094 24.523438 14.121094 C 24.515625 14.121094 24.511719 14.117188 24.507812 14.117188 C 24.484375 14.105469 24.472656 14.082031 24.484375 14.058594 C 24.523438 13.972656 24.570312 13.886719 24.621094 13.800781 C 24.761719 13.546875 24.910156 13.285156 24.824219 12.992188 C 24.820312 12.96875 24.832031 12.945312 24.855469 12.941406 C 24.878906 12.933594 24.902344 12.949219 24.90625 12.96875 C 25.003906 13.292969 24.847656 13.570312 24.695312 13.839844 Z M 25.363281 13.441406 C 25.328125 13.699219 25.085938 13.976562 24.910156 14.179688 L 24.867188 14.226562 C 24.859375 14.234375 24.847656 14.242188 24.835938 14.242188 C 24.824219 14.242188 24.816406 14.238281 24.808594 14.230469 C 24.789062 14.214844 24.789062 14.191406 24.800781 14.171875 L 24.84375 14.125 C 25.011719 13.929688 25.246094 13.664062 25.277344 13.433594 C 25.28125 13.410156 25.300781 13.394531 25.324219 13.394531 C 25.347656 13.398438 25.363281 13.421875 25.363281 13.441406 Z M 25.535156 13.847656 C 25.539062 14.023438 25.355469 14.148438 25.222656 14.242188 C 25.207031 14.253906 25.1875 14.265625 25.171875 14.277344 C 25.164062 14.285156 25.15625 14.285156 25.148438 14.285156 C 25.132812 14.285156 25.121094 14.28125 25.113281 14.269531 C 25.097656 14.25 25.101562 14.226562 25.121094 14.210938 C 25.136719 14.199219 25.15625 14.1875 25.171875 14.175781 C 25.289062 14.09375 25.453125 13.980469 25.449219 13.851562 C 25.449219 13.828125 25.464844 13.808594 25.488281 13.808594 C 25.515625 13.804688 25.535156 13.824219 25.535156 13.847656 Z M 20.988281 14.855469 C 20.996094 14.878906 20.984375 14.902344 20.960938 14.910156 C 20.816406 14.949219 20.667969 15.011719 20.523438 15.070312 C 20.253906 15.183594 19.972656 15.300781 19.679688 15.300781 C 19.625 15.300781 19.570312 15.296875 19.515625 15.285156 C 19.359375 15.261719 19.21875 15.1875 19.078125 15.117188 C 19.039062 15.097656 19 15.078125 18.960938 15.058594 C 18.894531 15.027344 18.816406 15.011719 18.734375 14.992188 C 18.617188 14.96875 18.496094 14.945312 18.40625 14.871094 C 18.390625 14.855469 18.386719 14.828125 18.402344 14.8125 C 18.417969 14.792969 18.445312 14.792969 18.464844 14.804688 C 18.535156 14.867188 18.640625 14.886719 18.753906 14.910156 C 18.835938 14.929688 18.925781 14.945312 19 14.984375 C 19.039062 15.003906 19.078125 15.023438 19.117188 15.042969 C 19.25 15.113281 19.386719 15.183594 19.53125 15.203125 C 19.859375 15.253906 20.183594 15.121094 20.492188 14.992188 C 20.636719 14.933594 20.785156 14.871094 20.9375 14.828125 C 20.960938 14.820312 20.984375 14.835938 20.988281 14.855469 Z M 21.816406 14.546875 C 21.824219 14.570312 21.8125 14.59375 21.792969 14.601562 C 21.675781 14.648438 21.585938 14.691406 21.488281 14.765625 C 21.480469 14.769531 21.472656 14.773438 21.464844 14.773438 C 21.449219 14.773438 21.4375 14.769531 21.429688 14.757812 C 21.414062 14.738281 21.417969 14.714844 21.4375 14.699219 C 21.542969 14.621094 21.640625 14.574219 21.761719 14.527344 C 21.78125 14.515625 21.808594 14.527344 21.816406 14.546875 Z M 18.84375 10.855469 C 18.636719 10.988281 18.421875 11.128906 18.238281 11.285156 C 18.1875 11.324219 18.144531 11.371094 18.101562 11.410156 C 18.035156 11.476562 17.964844 11.542969 17.886719 11.597656 C 17.769531 11.679688 17.644531 11.738281 17.523438 11.792969 C 17.476562 11.816406 17.425781 11.835938 17.378906 11.863281 C 17.371094 11.863281 17.363281 11.867188 17.359375 11.867188 C 17.34375 11.867188 17.328125 11.859375 17.320312 11.84375 C 17.308594 11.824219 17.316406 11.796875 17.339844 11.785156 C 17.386719 11.761719 17.4375 11.738281 17.488281 11.71875 C 17.609375 11.660156 17.726562 11.609375 17.835938 11.53125 C 17.910156 11.480469 17.972656 11.417969 18.039062 11.351562 C 18.085938 11.308594 18.128906 11.265625 18.179688 11.222656 C 18.371094 11.0625 18.585938 10.921875 18.796875 10.785156 C 18.867188 10.738281 18.9375 10.695312 19.003906 10.648438 C 19.023438 10.636719 19.050781 10.640625 19.0625 10.660156 C 19.078125 10.679688 19.070312 10.703125 19.050781 10.71875 C 18.984375 10.761719 18.914062 10.808594 18.84375 10.855469 Z M 17.003906 11.910156 C 17.015625 11.929688 17.007812 11.957031 16.988281 11.96875 C 16.941406 11.992188 16.898438 12.011719 16.855469 12.027344 C 16.777344 12.0625 16.703125 12.09375 16.636719 12.144531 C 16.628906 12.152344 16.617188 12.15625 16.609375 12.15625 C 16.597656 12.15625 16.585938 12.148438 16.574219 12.140625 C 16.5625 12.121094 16.5625 12.097656 16.582031 12.082031 C 16.65625 12.019531 16.742188 11.984375 16.820312 11.953125 C 16.863281 11.933594 16.90625 11.914062 16.949219 11.894531 C 16.96875 11.882812 16.996094 11.890625 17.003906 11.910156 Z M 13.003906 13.085938 C 12.980469 12.621094 12.953125 12.097656 13.117188 11.644531 C 13.125 11.621094 13.152344 11.609375 13.171875 11.617188 C 13.195312 11.625 13.207031 11.648438 13.199219 11.671875 C 13.039062 12.109375 13.066406 12.625 13.089844 13.082031 L 13.09375 13.183594 C 13.113281 13.613281 13.210938 14.082031 13.371094 14.503906 C 13.378906 14.527344 13.367188 14.550781 13.34375 14.558594 C 13.339844 14.558594 13.335938 14.5625 13.332031 14.5625 C 13.3125 14.5625 13.296875 14.550781 13.289062 14.53125 C 13.128906 14.101562 13.027344 13.625 13.007812 13.1875 Z M 13.265625 13.292969 C 13.25 13.273438 13.253906 13.25 13.273438 13.234375 C 13.292969 13.222656 13.320312 13.226562 13.335938 13.246094 C 13.390625 13.328125 13.40625 13.445312 13.425781 13.558594 C 13.433594 13.613281 13.441406 13.664062 13.449219 13.703125 C 13.480469 13.828125 13.527344 13.957031 13.570312 14.078125 C 13.613281 14.1875 13.652344 14.300781 13.683594 14.417969 C 13.691406 14.4375 13.675781 14.460938 13.652344 14.46875 C 13.648438 14.46875 13.644531 14.46875 13.644531 14.46875 C 13.625 14.46875 13.605469 14.457031 13.601562 14.4375 C 13.570312 14.328125 13.53125 14.214844 13.492188 14.105469 C 13.445312 13.980469 13.398438 13.855469 13.367188 13.722656 C 13.355469 13.679688 13.347656 13.625 13.339844 13.570312 C 13.324219 13.464844 13.308594 13.359375 13.265625 13.292969 Z M 20.519531 16.042969 C 20.332031 16.457031 20.3125 16.929688 20.292969 17.390625 C 20.292969 17.4375 20.289062 17.484375 20.289062 17.53125 C 20.269531 18.015625 20.164062 18.484375 20.070312 18.898438 C 19.996094 19.21875 19.886719 19.523438 19.738281 19.804688 C 19.730469 19.820312 19.714844 19.828125 19.699219 19.828125 C 19.691406 19.828125 19.6875 19.824219 19.679688 19.824219 C 19.660156 19.8125 19.652344 19.785156 19.660156 19.765625 C 19.804688 19.492188 19.914062 19.195312 19.984375 18.878906 C 20.078125 18.46875 20.183594 18.003906 20.203125 17.527344 C 20.207031 17.480469 20.207031 17.433594 20.207031 17.386719 C 20.226562 16.917969 20.246094 16.4375 20.441406 16.007812 C 20.449219 15.988281 20.476562 15.976562 20.496094 15.988281 C 20.519531 15.996094 20.527344 16.023438 20.519531 16.042969 Z M 19.425781 20.398438 C 19.289062 20.652344 19.15625 20.878906 18.960938 21.113281 C 18.90625 21.179688 18.84375 21.242188 18.777344 21.3125 C 18.65625 21.433594 18.53125 21.5625 18.457031 21.691406 C 18.449219 21.707031 18.433594 21.714844 18.417969 21.714844 C 18.414062 21.714844 18.40625 21.714844 18.398438 21.710938 C 18.378906 21.699219 18.371094 21.671875 18.382812 21.652344 C 18.460938 21.511719 18.589844 21.378906 18.714844 21.253906 C 18.777344 21.1875 18.839844 21.125 18.894531 21.0625 C 19.085938 20.832031 19.214844 20.609375 19.347656 20.359375 C 19.359375 20.339844 19.386719 20.332031 19.40625 20.34375 C 19.429688 20.351562 19.4375 20.378906 19.425781 20.398438 Z M 19.722656 18.777344 C 19.820312 18.578125 19.851562 18.214844 19.84375 17.960938 C 19.84375 17.9375 19.863281 17.917969 19.886719 17.917969 C 19.910156 17.917969 19.929688 17.933594 19.929688 17.957031 C 19.9375 18.21875 19.902344 18.597656 19.800781 18.8125 C 19.792969 18.828125 19.777344 18.839844 19.761719 18.839844 C 19.757812 18.839844 19.75 18.835938 19.742188 18.835938 C 19.722656 18.824219 19.714844 18.800781 19.722656 18.777344 Z M 11.046875 20.285156 C 11.066406 20.300781 11.070312 20.324219 11.054688 20.34375 C 11.046875 20.355469 11.03125 20.359375 11.019531 20.359375 C 11.011719 20.359375 11 20.355469 10.992188 20.351562 C 10.792969 20.199219 10.5625 20.085938 10.34375 19.976562 C 10.089844 19.855469 9.828125 19.726562 9.609375 19.535156 C 9.292969 19.261719 9.132812 18.949219 8.960938 18.617188 C 8.929688 18.550781 8.894531 18.484375 8.859375 18.417969 C 8.847656 18.398438 8.855469 18.375 8.878906 18.363281 C 8.898438 18.351562 8.925781 18.359375 8.933594 18.382812 C 8.96875 18.449219 9.003906 18.515625 9.039062 18.578125 C 9.210938 18.917969 9.363281 19.210938 9.664062 19.472656 C 9.878906 19.65625 10.125 19.777344 10.382812 19.902344 C 10.605469 20.011719 10.839844 20.128906 11.046875 20.285156 Z M 11.316406 20.320312 C 11.332031 20.335938 11.332031 20.363281 11.316406 20.378906 C 11.308594 20.386719 11.296875 20.390625 11.285156 20.390625 C 11.273438 20.390625 11.261719 20.386719 11.253906 20.378906 C 11.1875 20.3125 11.121094 20.242188 11.058594 20.175781 C 10.878906 19.980469 10.707031 19.796875 10.46875 19.671875 C 10.449219 19.660156 10.441406 19.632812 10.453125 19.613281 C 10.464844 19.59375 10.488281 19.585938 10.511719 19.597656 C 10.761719 19.730469 10.945312 19.929688 11.125 20.121094 C 11.1875 20.183594 11.25 20.253906 11.316406 20.320312 Z M 13.085938 22.652344 C 13.078125 22.667969 13.0625 22.675781 13.050781 22.675781 C 13.042969 22.675781 13.035156 22.671875 13.027344 22.667969 C 12.515625 22.359375 12.195312 21.96875 11.824219 21.519531 L 11.796875 21.484375 C 11.785156 21.46875 11.785156 21.441406 11.804688 21.425781 C 11.824219 21.414062 11.851562 21.414062 11.867188 21.433594 L 11.890625 21.464844 C 12.257812 21.910156 12.574219 22.292969 13.070312 22.597656 C 13.09375 22.609375 13.097656 22.632812 13.085938 22.652344 Z M 15.011719 23.195312 C 14.945312 23.199219 14.875 23.199219 14.808594 23.207031 C 14.714844 23.214844 14.628906 23.21875 14.546875 23.21875 C 14.328125 23.21875 14.148438 23.1875 14.011719 23.121094 C 13.992188 23.109375 13.980469 23.085938 13.992188 23.066406 C 14.003906 23.042969 14.027344 23.035156 14.050781 23.046875 C 14.222656 23.128906 14.476562 23.15625 14.800781 23.125 C 14.867188 23.117188 14.9375 23.113281 15.007812 23.109375 C 15.175781 23.105469 15.351562 23.097656 15.492188 23.03125 C 15.511719 23.019531 15.539062 23.027344 15.546875 23.046875 C 15.558594 23.070312 15.550781 23.09375 15.527344 23.105469 C 15.375 23.179688 15.1875 23.1875 15.011719 23.195312 Z M 15.011719 23.195312 " fill-opacity="1" fill-rule="nonzero"/></g></svg>