<svg xmlns="http://www.w3.org/2000/svg" xmlns:xlink="http://www.w3.org/1999/xlink" width="400" zoomAndPan="magnify" viewBox="0 0 300 299.999988" height="400" preserveAspectRatio="xMidYMid meet" version="1.0"><defs><clipPath id="id1"><path d="M 39 40 L 260 40 L 260 260.761719 L 39 260.761719 Z M 39 40 " clip-rule="nonzero"/></clipPath><clipPath id="id2"><path d="M 39 40 L 260 40 L 260 260.761719 L 39 260.761719 Z M 39 40 " clip-rule="nonzero"/></clipPath></defs><rect x="-30" width="360" fill="#ffffff" y="-29.999999" height="359.999986" fill-opacity="1"/><rect x="-30" width="360" fill="#b3efcd" y="-29.999999" height="359.999986" fill-opacity="1"/><g clip-path="url(#id1)"><path fill="#000000" d="M 243.828125 94.28125 C 243.792969 94.21875 243.753906 94.15625 243.71875 94.09375 C 243.34375 93.46875 242.960938 92.847656 242.570312 92.226562 C 242.554688 92.195312 242.535156 92.167969 242.515625 92.140625 C 242.222656 91.671875 241.933594 91.203125 241.632812 90.742188 C 227.835938 69.476562 207.613281 53.96875 183.886719 46.203125 C 183.871094 46.195312 183.855469 46.191406 183.839844 46.183594 C 183.375 46.035156 182.914062 45.882812 182.449219 45.738281 C 174.359375 43.1875 165.992188 41.578125 157.542969 40.972656 C 157.335938 40.957031 157.128906 40.949219 156.921875 40.933594 C 136.792969 39.542969 116.820312 43.726562 98.859375 53.144531 C 92.429688 56.492188 86.332031 60.472656 80.683594 65.03125 C 80.65625 65.050781 80.644531 65.082031 80.625 65.105469 C 60.984375 80.933594 47.488281 102.859375 42.191406 127.894531 C 37.03125 152.296875 40.1875 177.167969 51.039062 199.199219 C 55.726562 208.785156 61.765625 217.613281 68.988281 225.421875 C 80.128906 237.535156 93.765625 246.90625 109.054688 252.957031 C 109.695312 253.210938 110.335938 253.453125 110.976562 253.699219 C 111.039062 253.71875 111.097656 253.746094 111.160156 253.765625 C 116.804688 255.886719 122.617188 257.539062 128.570312 258.699219 C 133.5625 259.671875 138.585938 260.289062 143.628906 260.5625 C 143.816406 260.570312 144 260.585938 144.1875 260.59375 C 144.296875 260.601562 144.40625 260.601562 144.515625 260.605469 C 146.28125 260.691406 148.050781 260.742188 149.8125 260.742188 C 167.003906 260.742188 183.90625 256.675781 199.363281 248.761719 C 206.148438 245.316406 212.570312 241.167969 218.503906 236.375 C 218.535156 236.351562 218.550781 236.320312 218.570312 236.292969 C 238.203125 220.46875 251.699219 198.542969 256.992188 173.511719 C 262.785156 146.132812 258.101562 118.164062 243.828125 94.28125 Z M 164.132812 157.863281 C 164.121094 157.882812 164.113281 157.90625 164.101562 157.929688 C 164.007812 158.117188 163.910156 158.296875 163.808594 158.480469 C 163.777344 158.542969 163.746094 158.605469 163.710938 158.664062 C 163.621094 158.820312 163.527344 158.976562 163.433594 159.132812 C 163.382812 159.210938 163.339844 159.292969 163.289062 159.371094 C 162.980469 159.863281 162.644531 160.332031 162.289062 160.785156 C 160.847656 162.613281 159.054688 164.089844 157.007812 165.140625 C 155.804688 165.757812 154.515625 166.230469 153.164062 166.535156 C 151.816406 166.84375 150.457031 166.972656 149.113281 166.933594 C 147.296875 166.882812 145.503906 166.527344 143.800781 165.871094 C 142.816406 165.488281 141.859375 165.007812 140.945312 164.429688 C 140.222656 163.972656 139.554688 163.472656 138.933594 162.929688 C 133.535156 158.207031 131.867188 150.390625 134.910156 143.855469 C 134.953125 143.757812 134.996094 143.664062 135.042969 143.566406 C 135.058594 143.535156 135.070312 143.503906 135.085938 143.476562 C 135.171875 143.304688 135.265625 143.132812 135.359375 142.960938 C 135.398438 142.886719 135.433594 142.8125 135.476562 142.742188 C 135.546875 142.613281 135.625 142.484375 135.703125 142.359375 C 135.765625 142.25 135.828125 142.144531 135.894531 142.039062 C 138.207031 138.371094 141.800781 135.824219 146.023438 134.871094 C 146.308594 134.804688 146.59375 134.75 146.878906 134.699219 C 146.960938 134.6875 147.046875 134.675781 147.132812 134.664062 C 147.332031 134.632812 147.53125 134.601562 147.730469 134.578125 C 147.835938 134.566406 147.941406 134.558594 148.046875 134.546875 C 148.226562 134.527344 148.40625 134.511719 148.585938 134.5 C 148.699219 134.492188 148.8125 134.488281 148.925781 134.484375 C 149.097656 134.476562 149.269531 134.472656 149.441406 134.46875 C 149.546875 134.46875 149.652344 134.46875 149.753906 134.46875 C 150.074219 134.472656 150.394531 134.480469 150.710938 134.503906 C 150.730469 134.503906 150.75 134.503906 150.765625 134.503906 C 151.097656 134.53125 151.429688 134.566406 151.761719 134.613281 C 151.851562 134.625 151.941406 134.636719 152.035156 134.652344 C 152.203125 134.675781 152.367188 134.710938 152.535156 134.742188 C 152.636719 134.761719 152.742188 134.777344 152.84375 134.796875 C 152.910156 134.808594 152.976562 134.820312 153.042969 134.835938 C 153.363281 134.90625 153.683594 134.988281 154.003906 135.078125 C 154.082031 135.101562 154.160156 135.125 154.242188 135.152344 C 154.496094 135.226562 154.753906 135.3125 155.003906 135.402344 C 155.085938 135.429688 155.167969 135.457031 155.246094 135.488281 C 155.558594 135.605469 155.867188 135.730469 156.175781 135.867188 C 156.230469 135.894531 156.285156 135.921875 156.339844 135.945312 C 156.597656 136.066406 156.851562 136.191406 157.105469 136.324219 C 157.1875 136.371094 157.269531 136.414062 157.355469 136.457031 C 157.652344 136.621094 157.945312 136.789062 158.234375 136.972656 C 158.238281 136.976562 158.238281 136.976562 158.242188 136.976562 C 158.460938 137.113281 158.671875 137.257812 158.878906 137.402344 C 158.890625 137.410156 158.90625 137.417969 158.917969 137.425781 C 159.027344 137.503906 159.128906 137.585938 159.238281 137.664062 C 159.351562 137.75 159.46875 137.835938 159.582031 137.921875 C 159.636719 137.964844 159.6875 138.011719 159.742188 138.054688 C 159.90625 138.183594 160.066406 138.316406 160.222656 138.453125 C 160.230469 138.457031 160.238281 138.464844 160.246094 138.472656 C 165.738281 143.269531 167.375 151.261719 164.132812 157.863281 Z M 164.132812 157.863281 " fill-opacity="1" fill-rule="nonzero"/></g><path fill="#ca5038" d="M 113.183594 162.601562 L 46.265625 185.320312 C 45.5625 183.21875 44.921875 181.101562 44.347656 178.964844 L 112.675781 160.910156 C 112.832031 161.476562 113.003906 162.039062 113.183594 162.601562 Z M 43.046875 128.078125 C 41.335938 136.179688 40.546875 144.332031 40.65625 152.414062 L 111.296875 151.019531 C 111.28125 149.402344 111.363281 147.78125 111.550781 146.179688 C 112.089844 141.609375 113.4375 137.210938 115.558594 133.105469 C 116.058594 132.132812 116.617188 131.160156 117.210938 130.21875 C 119.394531 126.75 122.089844 123.6875 125.21875 121.101562 L 80.90625 66.007812 C 61.570312 81.691406 48.277344 103.355469 43.046875 128.078125 Z M 186.003906 138.808594 C 186.183594 139.367188 186.355469 139.929688 186.511719 140.496094 L 254.792969 122.453125 C 254.222656 120.324219 253.597656 118.203125 252.894531 116.097656 Z M 258.457031 148.996094 L 187.886719 150.386719 C 187.902344 152.007812 187.820312 153.625 187.632812 155.230469 C 187.09375 159.800781 185.746094 164.199219 183.628906 168.300781 C 183.125 169.277344 182.570312 170.25 181.976562 171.191406 C 179.792969 174.65625 177.097656 177.71875 173.96875 180.308594 L 218.273438 235.394531 C 244.800781 213.835938 258.914062 181.621094 258.457031 148.996094 Z M 258.457031 148.996094 " fill-opacity="1" fill-rule="nonzero"/><path fill="#eac255" d="M 156.207031 44.570312 C 155.347656 46.644531 154.628906 48.800781 154.84375 51.078125 C 155.058594 53.390625 156.160156 55.585938 157.21875 57.621094 C 159.929688 62.84375 162.699219 68.042969 165.429688 73.261719 C 167.671875 77.554688 169.816406 81.941406 170.554688 86.777344 C 170.910156 89.121094 170.828125 91.574219 170.234375 93.878906 C 169.589844 96.371094 168.425781 98.691406 167.917969 101.222656 C 166.992188 105.808594 167.886719 110.558594 168.84375 115.054688 C 169.035156 115.941406 169.25 116.894531 169.421875 117.875 C 169.535156 117.9375 169.644531 118.007812 169.761719 118.078125 C 169.851562 118.136719 169.949219 118.199219 170.042969 118.257812 C 170.964844 118.84375 171.859375 119.464844 172.722656 120.121094 C 172.800781 120.179688 172.871094 120.242188 172.945312 120.296875 C 173.296875 120.570312 173.644531 120.84375 173.984375 121.125 C 174.148438 121.261719 174.304688 121.402344 174.464844 121.539062 C 174.710938 121.75 174.960938 121.960938 175.203125 122.179688 C 175.390625 122.351562 175.574219 122.527344 175.757812 122.699219 C 175.964844 122.894531 176.175781 123.085938 176.375 123.285156 C 176.570312 123.472656 176.757812 123.671875 176.945312 123.863281 C 177.132812 124.054688 177.320312 124.242188 177.503906 124.4375 C 177.691406 124.636719 177.871094 124.84375 178.054688 125.046875 C 178.230469 125.242188 178.410156 125.4375 178.582031 125.636719 C 178.757812 125.84375 178.925781 126.054688 179.097656 126.261719 C 179.269531 126.46875 179.441406 126.671875 179.609375 126.882812 C 179.773438 127.089844 179.925781 127.300781 180.085938 127.507812 C 180.253906 127.730469 180.421875 127.949219 180.585938 128.171875 C 180.734375 128.375 180.875 128.585938 181.015625 128.789062 C 181.183594 129.027344 181.347656 129.261719 181.507812 129.503906 C 181.640625 129.703125 181.765625 129.90625 181.894531 130.109375 C 182.054688 130.363281 182.21875 130.617188 182.375 130.875 C 182.492188 131.070312 182.601562 131.265625 182.714844 131.457031 C 182.875 131.734375 183.035156 132.007812 183.1875 132.285156 C 183.289062 132.46875 183.382812 132.65625 183.480469 132.84375 C 183.636719 133.136719 183.792969 133.433594 183.941406 133.730469 C 184.027344 133.90625 184.105469 134.082031 184.191406 134.257812 C 184.339844 134.574219 184.488281 134.890625 184.632812 135.210938 C 184.703125 135.375 184.769531 135.542969 184.839844 135.707031 C 184.984375 136.046875 185.125 136.382812 185.257812 136.726562 C 185.320312 136.878906 185.375 137.03125 185.429688 137.183594 C 185.53125 137.449219 185.632812 137.707031 185.726562 137.972656 L 252.605469 115.269531 C 244.597656 91.851562 228.679688 71.679688 207.742188 58.433594 C 192.605469 48.855469 175.222656 43.121094 157.480469 41.84375 C 157.433594 41.839844 157.386719 41.835938 157.335938 41.835938 C 156.96875 42.753906 156.585938 43.664062 156.207031 44.570312 Z M 187.425781 63.761719 C 188.433594 61.703125 190.929688 60.847656 192.988281 61.859375 C 199.019531 64.824219 204.792969 68.4375 210.144531 72.601562 C 217.972656 78.695312 224.800781 85.871094 230.441406 93.929688 C 231.078125 94.839844 231.324219 95.945312 231.132812 97.039062 C 230.941406 98.136719 230.335938 99.089844 229.425781 99.730469 C 228.703125 100.238281 227.867188 100.488281 227.035156 100.488281 C 226.136719 100.488281 225.242188 100.195312 224.488281 99.609375 C 224.164062 99.355469 223.875 99.054688 223.636719 98.710938 C 218.472656 91.335938 212.21875 84.765625 205.042969 79.179688 C 200.140625 75.363281 194.851562 72.050781 189.328125 69.335938 C 187.269531 68.324219 186.417969 65.824219 187.425781 63.761719 Z M 184.628906 59.480469 C 185.109375 60.480469 185.171875 61.613281 184.804688 62.664062 C 184.4375 63.710938 183.683594 64.554688 182.683594 65.039062 C 182.113281 65.3125 181.5 65.449219 180.886719 65.449219 C 180.421875 65.449219 179.957031 65.371094 179.507812 65.214844 C 176.308594 64.089844 173.003906 63.136719 169.6875 62.378906 C 169.089844 62.246094 168.542969 61.984375 168.058594 61.609375 C 166.789062 60.621094 166.199219 58.96875 166.554688 57.398438 C 166.800781 56.3125 167.453125 55.386719 168.394531 54.796875 C 169.332031 54.203125 170.445312 54.011719 171.527344 54.257812 C 175.148438 55.082031 178.761719 56.125 182.257812 57.355469 C 183.304688 57.722656 184.148438 58.476562 184.628906 59.480469 Z M 81.574219 65.4375 C 95.5625 54.242188 112.292969 46.609375 129.988281 43.367188 C 130.058594 43.351562 130.128906 43.339844 130.199219 43.328125 C 131.40625 44.980469 132.410156 46.789062 133.160156 48.792969 C 133.949219 50.914062 134.386719 53.105469 134.347656 55.375 C 134.308594 57.691406 133.613281 59.945312 133.042969 62.167969 C 132.425781 64.558594 131.890625 67.03125 132.066406 69.515625 C 132.253906 72.164062 133.15625 74.632812 134.398438 76.957031 C 136.785156 81.425781 140.40625 85.078125 142.839844 89.519531 C 145.085938 93.601562 146.40625 98.214844 146.988281 102.820312 C 147.390625 105.996094 147.496094 109.195312 147.347656 112.394531 C 147.332031 112.398438 147.316406 112.398438 147.300781 112.398438 C 147.15625 112.40625 147.011719 112.421875 146.867188 112.429688 C 146.714844 112.441406 146.566406 112.453125 146.414062 112.464844 C 145.933594 112.507812 145.453125 112.554688 144.976562 112.613281 C 144.867188 112.625 144.757812 112.640625 144.648438 112.65625 C 144.125 112.722656 143.597656 112.800781 143.082031 112.890625 C 142.683594 112.957031 142.289062 113.035156 141.898438 113.113281 C 141.746094 113.144531 141.597656 113.179688 141.449219 113.214844 C 141.207031 113.265625 140.964844 113.316406 140.726562 113.375 C 140.523438 113.421875 140.324219 113.476562 140.121094 113.527344 C 139.9375 113.578125 139.75 113.621094 139.5625 113.671875 C 139.351562 113.730469 139.136719 113.792969 138.925781 113.855469 C 138.753906 113.90625 138.582031 113.953125 138.410156 114.003906 C 138.195312 114.070312 137.984375 114.140625 137.769531 114.210938 C 137.601562 114.265625 137.433594 114.316406 137.269531 114.375 C 137.058594 114.445312 136.847656 114.523438 136.636719 114.597656 C 136.472656 114.660156 136.304688 114.714844 136.140625 114.777344 C 135.933594 114.855469 135.730469 114.9375 135.527344 115.019531 C 135.359375 115.085938 135.1875 115.148438 135.019531 115.21875 C 134.824219 115.300781 134.628906 115.386719 134.429688 115.46875 C 134.257812 115.542969 134.085938 115.617188 133.917969 115.695312 C 133.726562 115.777344 133.539062 115.867188 133.351562 115.957031 C 133.175781 116.039062 133 116.117188 132.828125 116.203125 C 132.644531 116.292969 132.464844 116.382812 132.285156 116.472656 C 132.109375 116.566406 131.929688 116.652344 131.753906 116.746094 C 131.578125 116.835938 131.410156 116.929688 131.238281 117.023438 C 131.054688 117.125 130.875 117.222656 130.695312 117.324219 C 130.53125 117.417969 130.367188 117.511719 130.207031 117.609375 C 130.023438 117.714844 129.835938 117.824219 129.65625 117.9375 C 129.5 118.03125 129.34375 118.128906 129.191406 118.226562 C 129.003906 118.34375 128.820312 118.460938 128.636719 118.578125 C 128.488281 118.675781 128.339844 118.777344 128.195312 118.875 C 128.007812 119 127.820312 119.128906 127.636719 119.257812 C 127.496094 119.355469 127.355469 119.457031 127.214844 119.554688 C 127.027344 119.691406 126.84375 119.824219 126.65625 119.964844 C 126.523438 120.066406 126.390625 120.167969 126.257812 120.269531 C 126.136719 120.359375 126.015625 120.449219 125.898438 120.542969 Z M 89.867188 230.519531 C 86.921875 232.117188 83.898438 233.691406 81.082031 235.546875 C 81.042969 235.515625 81.007812 235.488281 80.96875 235.457031 C 65.101562 222.59375 53.214844 205.546875 46.578125 186.136719 L 113.460938 163.429688 C 113.558594 163.714844 113.667969 163.992188 113.773438 164.273438 C 113.816406 164.386719 113.855469 164.503906 113.902344 164.621094 C 116.429688 171.152344 120.660156 176.824219 126.21875 181.101562 C 125.398438 181.863281 124.546875 182.582031 123.652344 183.261719 C 120.75 185.472656 117.660156 187.53125 115.609375 190.625 C 113.671875 193.558594 113.261719 197.007812 113.207031 200.449219 C 113.160156 203.648438 113.273438 206.757812 112.332031 209.851562 C 111.441406 212.777344 109.746094 215.453125 107.777344 217.761719 C 102.945312 223.445312 96.328125 227.015625 89.867188 230.519531 Z M 217.613281 235.96875 C 203.335938 247.402344 186.226562 255.101562 168.105469 258.238281 C 155.050781 260.5 141.863281 260.375 128.921875 257.871094 C 131.789062 253.59375 135.390625 249.789062 138.753906 245.894531 C 141.09375 243.1875 143.746094 240.5625 145.652344 237.515625 C 147.503906 234.566406 147.464844 231.253906 147.1875 227.910156 C 146.902344 224.410156 146.5625 220.878906 145.632812 217.480469 C 144.6875 214.015625 142.90625 210.898438 141.269531 207.71875 C 139.941406 205.128906 138.773438 202.367188 138.707031 199.414062 C 138.644531 196.417969 140.152344 194.359375 142.277344 192.398438 C 143.515625 191.253906 144.691406 190.101562 145.785156 188.890625 C 145.894531 188.902344 146.003906 188.917969 146.113281 188.925781 C 146.28125 188.941406 146.449219 188.949219 146.617188 188.964844 C 146.765625 188.976562 146.910156 188.988281 147.058594 188.996094 C 147.347656 189.015625 147.636719 189.03125 147.925781 189.042969 C 148.074219 189.050781 148.222656 189.054688 148.371094 189.0625 C 148.664062 189.070312 148.960938 189.074219 149.253906 189.078125 C 149.359375 189.078125 149.464844 189.082031 149.570312 189.082031 C 149.601562 189.082031 149.632812 189.082031 149.664062 189.078125 C 150.175781 189.078125 150.683594 189.070312 151.191406 189.046875 C 151.214844 189.046875 151.238281 189.042969 151.261719 189.042969 C 151.734375 189.023438 152.207031 188.992188 152.679688 188.953125 C 152.8125 188.941406 152.945312 188.929688 153.078125 188.917969 C 153.453125 188.882812 153.832031 188.839844 154.207031 188.792969 C 154.347656 188.777344 154.488281 188.761719 154.628906 188.742188 C 155.078125 188.683594 155.523438 188.617188 155.96875 188.539062 C 156.015625 188.53125 156.0625 188.527344 156.105469 188.519531 C 156.773438 188.402344 157.433594 188.265625 158.089844 188.117188 C 158.210938 188.089844 158.335938 188.0625 158.457031 188.035156 C 158.660156 187.988281 158.859375 187.933594 159.0625 187.882812 C 159.253906 187.832031 159.445312 187.785156 159.632812 187.734375 C 159.800781 187.691406 159.964844 187.640625 160.132812 187.589844 C 160.355469 187.527344 160.578125 187.464844 160.796875 187.398438 C 160.941406 187.355469 161.085938 187.304688 161.230469 187.257812 C 161.472656 187.183594 161.710938 187.105469 161.949219 187.023438 C 162.082031 186.980469 162.207031 186.933594 162.335938 186.886719 C 162.589844 186.796875 162.839844 186.710938 163.089844 186.617188 C 163.210938 186.570312 163.332031 186.519531 163.453125 186.472656 C 163.707031 186.375 163.960938 186.277344 164.210938 186.171875 C 164.328125 186.125 164.445312 186.070312 164.566406 186.023438 C 164.816406 185.914062 165.066406 185.808594 165.316406 185.695312 C 165.4375 185.640625 165.554688 185.585938 165.671875 185.53125 C 165.917969 185.417969 166.164062 185.304688 166.40625 185.183594 C 166.527344 185.125 166.648438 185.0625 166.769531 185.003906 C 167.003906 184.886719 167.242188 184.765625 167.472656 184.640625 C 167.601562 184.574219 167.726562 184.503906 167.851562 184.4375 C 168.078125 184.316406 168.300781 184.195312 168.523438 184.066406 C 168.65625 183.992188 168.792969 183.910156 168.925781 183.832031 C 169.132812 183.710938 169.34375 183.589844 169.546875 183.464844 C 169.695312 183.375 169.839844 183.28125 169.984375 183.191406 C 170.175781 183.070312 170.363281 182.953125 170.550781 182.832031 C 170.710938 182.726562 170.867188 182.621094 171.027344 182.511719 C 171.195312 182.398438 171.363281 182.285156 171.53125 182.167969 C 171.703125 182.046875 171.875 181.921875 172.046875 181.796875 C 172.195312 181.691406 172.339844 181.585938 172.484375 181.476562 C 172.671875 181.335938 172.859375 181.191406 173.046875 181.046875 C 173.128906 180.984375 173.210938 180.925781 173.292969 180.863281 Z M 40.683594 153.289062 L 111.300781 151.898438 C 111.386719 154.644531 111.773438 157.390625 112.449219 160.0625 L 44.167969 178.105469 C 42.054688 169.984375 40.882812 161.640625 40.683594 153.289062 Z M 255.019531 123.300781 C 257.136719 131.421875 258.304688 139.765625 258.503906 148.117188 L 187.882812 149.511719 C 187.796875 146.761719 187.414062 144.019531 186.738281 141.34375 Z M 255.019531 123.300781 " fill-opacity="1" fill-rule="nonzero"/><path fill="#619ccf" d="M 181.234375 170.722656 C 181.816406 169.804688 182.359375 168.855469 182.851562 167.902344 C 184.921875 163.890625 186.238281 159.59375 186.765625 155.128906 C 187.414062 149.628906 186.816406 143.9375 185.039062 138.671875 C 182.304688 130.566406 176.8125 123.578125 169.574219 119 C 163.546875 115.1875 156.636719 113.203125 149.617188 113.203125 C 147.488281 113.203125 145.355469 113.386719 143.234375 113.753906 C 138.921875 114.5 134.773438 116 131 118.15625 C 129.285156 119.136719 127.644531 120.253906 126.105469 121.5 C 122.90625 124.082031 120.164062 127.171875 117.949219 130.683594 C 117.367188 131.605469 116.828125 132.554688 116.335938 133.507812 C 114.265625 137.519531 112.949219 141.816406 112.421875 146.28125 C 111.773438 151.78125 112.371094 157.472656 114.148438 162.738281 C 116.886719 170.84375 122.375 177.832031 129.613281 182.410156 C 137.460938 187.375 146.820312 189.238281 155.957031 187.65625 C 162.234375 186.566406 168.15625 183.890625 173.085938 179.90625 C 176.28125 177.324219 179.023438 174.234375 181.234375 170.722656 Z M 167.621094 162.109375 C 164.582031 166.9375 159.847656 170.285156 154.292969 171.542969 C 152.714844 171.898438 151.128906 172.078125 149.554688 172.078125 C 145.570312 172.078125 141.660156 170.953125 138.207031 168.769531 C 133.390625 165.722656 130.050781 160.976562 128.792969 155.414062 C 127.539062 149.847656 128.523438 144.125 131.5625 139.296875 C 137.839844 129.335938 151.035156 126.347656 160.980469 132.636719 C 165.792969 135.683594 169.136719 140.429688 170.390625 145.996094 C 171.648438 151.5625 170.664062 157.285156 167.621094 162.109375 Z M 167.621094 162.109375 " fill-opacity="1" fill-rule="nonzero"/><path fill="#ffffff" d="M 133.160156 48.792969 C 132.410156 46.789062 131.40625 44.980469 130.199219 43.328125 C 130.492188 43.273438 130.785156 43.222656 131.082031 43.167969 C 139.75 41.667969 148.582031 41.21875 157.335938 41.835938 C 156.96875 42.753906 156.585938 43.664062 156.207031 44.570312 C 155.347656 46.644531 154.628906 48.800781 154.84375 51.074219 C 155.058594 53.390625 156.160156 55.585938 157.21875 57.621094 C 159.929688 62.84375 162.699219 68.042969 165.429688 73.261719 C 167.675781 77.554688 169.816406 81.941406 170.558594 86.777344 C 170.910156 89.121094 170.828125 91.574219 170.234375 93.878906 C 169.589844 96.371094 168.425781 98.691406 167.917969 101.222656 C 166.992188 105.804688 167.886719 110.558594 168.847656 115.054688 C 169.035156 115.941406 169.25 116.894531 169.421875 117.871094 C 169.425781 117.878906 169.425781 117.882812 169.425781 117.890625 C 162.75 113.835938 155.066406 111.945312 147.34375 112.402344 C 147.34375 112.402344 147.34375 112.398438 147.34375 112.394531 C 147.496094 109.195312 147.390625 105.996094 146.988281 102.820312 C 146.40625 98.214844 145.082031 93.597656 142.839844 89.519531 C 140.40625 85.078125 136.785156 81.421875 134.398438 76.957031 C 133.15625 74.632812 132.253906 72.164062 132.066406 69.515625 C 131.890625 67.03125 132.425781 64.558594 133.042969 62.167969 C 133.613281 59.945312 134.308594 57.691406 134.347656 55.375 C 134.386719 53.105469 133.953125 50.914062 133.160156 48.792969 Z M 138.753906 245.894531 C 141.09375 243.1875 143.746094 240.5625 145.652344 237.515625 C 147.503906 234.566406 147.464844 231.253906 147.1875 227.910156 C 146.902344 224.410156 146.5625 220.878906 145.632812 217.480469 C 144.6875 214.015625 142.90625 210.898438 141.269531 207.71875 C 139.941406 205.128906 138.773438 202.367188 138.707031 199.414062 C 138.644531 196.417969 140.152344 194.359375 142.277344 192.398438 C 143.515625 191.253906 144.691406 190.101562 145.785156 188.890625 C 139.917969 188.304688 134.222656 186.363281 129.144531 183.152344 C 128.136719 182.511719 127.164062 181.824219 126.222656 181.097656 C 126.222656 181.097656 126.21875 181.101562 126.214844 181.101562 C 125.398438 181.867188 124.546875 182.585938 123.652344 183.261719 C 120.75 185.472656 117.660156 187.53125 115.609375 190.628906 C 113.671875 193.558594 113.257812 197.007812 113.207031 200.449219 C 113.160156 203.648438 113.273438 206.757812 112.332031 209.851562 C 111.441406 212.777344 109.746094 215.453125 107.777344 217.761719 C 102.945312 223.445312 96.328125 227.015625 89.867188 230.519531 C 86.921875 232.117188 83.898438 233.691406 81.082031 235.546875 C 84.363281 238.199219 87.84375 240.699219 91.445312 242.972656 C 102.953125 250.253906 115.503906 255.253906 128.738281 257.835938 C 128.796875 257.847656 128.859375 257.859375 128.921875 257.871094 C 131.789062 253.59375 135.390625 249.789062 138.753906 245.894531 Z M 154.097656 170.6875 C 148.769531 171.894531 143.292969 170.949219 138.675781 168.027344 C 134.058594 165.105469 130.851562 160.558594 129.648438 155.21875 C 128.445312 149.882812 129.386719 144.394531 132.304688 139.765625 C 136.1875 133.601562 142.835938 130.222656 149.628906 130.222656 C 153.359375 130.222656 157.132812 131.242188 160.511719 133.378906 C 165.128906 136.300781 168.335938 140.851562 169.539062 146.1875 C 170.742188 151.527344 169.800781 157.015625 166.882812 161.644531 C 163.964844 166.269531 159.425781 169.484375 154.097656 170.6875 Z M 135.15625 141.570312 C 130.128906 149.546875 132.515625 160.132812 140.476562 165.171875 C 143.238281 166.917969 146.371094 167.820312 149.558594 167.820312 C 150.824219 167.820312 152.09375 167.675781 153.355469 167.390625 C 157.804688 166.386719 161.59375 163.703125 164.03125 159.839844 C 166.464844 155.976562 167.253906 151.390625 166.25 146.933594 C 165.246094 142.476562 162.566406 138.675781 158.710938 136.238281 C 154.851562 133.796875 150.277344 133.007812 145.832031 134.015625 C 141.382812 135.023438 137.589844 137.703125 135.15625 141.570312 Z M 189.710938 68.546875 C 195.289062 71.289062 200.628906 74.632812 205.578125 78.488281 C 212.824219 84.125 219.136719 90.757812 224.351562 98.207031 C 224.542969 98.476562 224.769531 98.71875 225.027344 98.917969 C 226.167969 99.808594 227.734375 99.84375 228.921875 99.011719 C 229.640625 98.507812 230.117188 97.753906 230.269531 96.886719 C 230.421875 96.023438 230.226562 95.152344 229.726562 94.433594 C 224.136719 86.445312 217.367188 79.335938 209.605469 73.296875 C 204.300781 69.167969 198.582031 65.582031 192.601562 62.644531 C 192.140625 62.417969 191.648438 62.308594 191.164062 62.308594 C 189.949219 62.308594 188.78125 62.988281 188.210938 64.148438 C 187.414062 65.773438 188.089844 67.75 189.710938 68.546875 Z M 181.96875 58.179688 C 178.503906 56.960938 174.925781 55.929688 171.335938 55.113281 C 171.089844 55.058594 170.84375 55.03125 170.601562 55.03125 C 169.988281 55.03125 169.390625 55.203125 168.859375 55.539062 C 168.117188 56.003906 167.601562 56.734375 167.410156 57.589844 C 167.125 58.832031 167.59375 60.136719 168.597656 60.917969 C 168.976562 61.214844 169.410156 61.417969 169.878906 61.523438 C 173.230469 62.289062 176.566406 63.25 179.796875 64.386719 C 180.625 64.675781 181.515625 64.628906 182.304688 64.246094 C 183.09375 63.867188 183.6875 63.199219 183.980469 62.371094 C 184.269531 61.542969 184.21875 60.648438 183.839844 59.859375 C 183.460938 59.066406 182.796875 58.472656 181.96875 58.179688 Z M 181.96875 58.179688 " fill-opacity="1" fill-rule="nonzero"/><g clip-path="url(#id2)"><path fill="#000000" d="M 243.828125 94.28125 C 243.792969 94.21875 243.753906 94.15625 243.71875 94.09375 C 243.34375 93.46875 242.960938 92.847656 242.570312 92.226562 C 242.554688 92.195312 242.535156 92.167969 242.515625 92.140625 C 242.222656 91.671875 241.933594 91.203125 241.632812 90.742188 C 227.835938 69.476562 207.613281 53.96875 183.886719 46.203125 C 183.871094 46.195312 183.855469 46.191406 183.839844 46.183594 C 183.375 46.035156 182.914062 45.882812 182.449219 45.738281 C 174.359375 43.1875 165.992188 41.578125 157.542969 40.972656 C 157.335938 40.957031 157.128906 40.949219 156.921875 40.933594 C 136.792969 39.542969 116.820312 43.726562 98.859375 53.144531 C 92.429688 56.492188 86.332031 60.472656 80.683594 65.03125 C 80.65625 65.050781 80.644531 65.082031 80.625 65.105469 C 60.984375 80.933594 47.488281 102.859375 42.191406 127.894531 C 37.03125 152.296875 40.1875 177.167969 51.039062 199.199219 C 55.726562 208.785156 61.765625 217.613281 68.988281 225.421875 C 80.128906 237.535156 93.765625 246.90625 109.054688 252.957031 C 109.695312 253.210938 110.335938 253.453125 110.976562 253.699219 C 111.039062 253.71875 111.097656 253.746094 111.160156 253.765625 C 116.804688 255.886719 122.617188 257.539062 128.570312 258.699219 C 133.5625 259.671875 138.585938 260.289062 143.628906 260.5625 C 143.816406 260.570312 144 260.585938 144.1875 260.59375 C 144.296875 260.601562 144.40625 260.601562 144.515625 260.605469 C 146.28125 260.691406 148.050781 260.742188 149.8125 260.742188 C 167.003906 260.742188 183.90625 256.675781 199.363281 248.761719 C 206.148438 245.316406 212.570312 241.167969 218.503906 236.375 C 218.535156 236.351562 218.550781 236.320312 218.570312 236.292969 C 238.203125 220.46875 251.699219 198.542969 256.992188 173.511719 C 262.785156 146.132812 258.101562 118.164062 243.828125 94.28125 Z M 168.105469 258.238281 C 155.050781 260.5 141.863281 260.375 128.921875 257.871094 C 128.859375 257.859375 128.796875 257.847656 128.738281 257.835938 C 115.503906 255.253906 102.953125 250.253906 91.445312 242.972656 C 87.84375 240.699219 84.363281 238.199219 81.082031 235.546875 C 81.042969 235.515625 81.007812 235.488281 80.96875 235.457031 C 65.101562 222.59375 53.214844 205.546875 46.578125 186.136719 L 113.460938 163.429688 C 113.558594 163.714844 113.667969 163.992188 113.773438 164.273438 C 113.816406 164.386719 113.855469 164.503906 113.902344 164.621094 C 116.429688 171.152344 120.660156 176.824219 126.21875 181.101562 C 126.21875 181.101562 126.222656 181.097656 126.222656 181.097656 C 127.164062 181.824219 128.136719 182.511719 129.144531 183.148438 C 134.222656 186.363281 139.917969 188.304688 145.785156 188.890625 C 145.894531 188.902344 146.003906 188.917969 146.113281 188.925781 C 146.28125 188.941406 146.449219 188.949219 146.621094 188.964844 C 146.765625 188.976562 146.910156 188.988281 147.058594 188.996094 C 147.347656 189.015625 147.636719 189.03125 147.925781 189.042969 C 148.074219 189.046875 148.222656 189.054688 148.371094 189.058594 C 148.667969 189.070312 148.960938 189.074219 149.253906 189.074219 C 149.359375 189.078125 149.464844 189.082031 149.570312 189.082031 C 149.601562 189.082031 149.632812 189.078125 149.667969 189.078125 C 150.175781 189.078125 150.683594 189.070312 151.191406 189.046875 C 151.214844 189.046875 151.238281 189.042969 151.261719 189.042969 C 151.734375 189.023438 152.207031 188.992188 152.679688 188.953125 C 152.8125 188.941406 152.945312 188.929688 153.078125 188.914062 C 153.453125 188.882812 153.832031 188.839844 154.207031 188.792969 C 154.347656 188.777344 154.488281 188.761719 154.628906 188.742188 C 155.078125 188.683594 155.523438 188.617188 155.972656 188.539062 C 156.015625 188.53125 156.0625 188.527344 156.105469 188.519531 C 156.773438 188.402344 157.433594 188.265625 158.089844 188.117188 C 158.214844 188.089844 158.335938 188.0625 158.457031 188.035156 C 158.660156 187.984375 158.863281 187.933594 159.0625 187.878906 C 159.253906 187.832031 159.445312 187.785156 159.632812 187.734375 C 159.800781 187.6875 159.964844 187.636719 160.132812 187.589844 C 160.355469 187.527344 160.578125 187.464844 160.796875 187.398438 C 160.941406 187.351562 161.085938 187.304688 161.230469 187.257812 C 161.472656 187.179688 161.710938 187.105469 161.953125 187.023438 C 162.082031 186.980469 162.207031 186.933594 162.339844 186.886719 C 162.589844 186.796875 162.839844 186.710938 163.089844 186.617188 C 163.210938 186.570312 163.332031 186.519531 163.453125 186.472656 C 163.707031 186.375 163.960938 186.277344 164.210938 186.171875 C 164.332031 186.125 164.449219 186.070312 164.566406 186.019531 C 164.816406 185.914062 165.070312 185.808594 165.316406 185.695312 C 165.4375 185.640625 165.554688 185.585938 165.671875 185.53125 C 165.917969 185.417969 166.164062 185.304688 166.40625 185.183594 C 166.527344 185.125 166.648438 185.0625 166.769531 185.003906 C 167.003906 184.882812 167.242188 184.765625 167.476562 184.640625 C 167.601562 184.574219 167.726562 184.503906 167.851562 184.4375 C 168.078125 184.316406 168.300781 184.195312 168.523438 184.066406 C 168.65625 183.992188 168.792969 183.910156 168.925781 183.832031 C 169.132812 183.710938 169.34375 183.589844 169.550781 183.464844 C 169.695312 183.375 169.839844 183.28125 169.984375 183.191406 C 170.175781 183.070312 170.363281 182.953125 170.550781 182.832031 C 170.710938 182.726562 170.867188 182.617188 171.027344 182.511719 C 171.195312 182.398438 171.363281 182.285156 171.53125 182.167969 C 171.703125 182.046875 171.875 181.921875 172.046875 181.796875 C 172.195312 181.691406 172.339844 181.585938 172.484375 181.476562 C 172.675781 181.335938 172.859375 181.191406 173.046875 181.046875 C 173.128906 180.984375 173.210938 180.925781 173.292969 180.863281 L 217.613281 235.96875 C 203.335938 247.402344 186.226562 255.101562 168.105469 258.238281 Z M 44.347656 178.964844 L 112.675781 160.910156 C 112.832031 161.476562 113.003906 162.039062 113.183594 162.601562 L 46.265625 185.320312 C 45.5625 183.21875 44.921875 181.101562 44.347656 178.964844 Z M 129.988281 43.367188 C 130.058594 43.351562 130.128906 43.339844 130.199219 43.328125 C 130.492188 43.273438 130.785156 43.222656 131.082031 43.167969 C 139.75 41.667969 148.582031 41.21875 157.335938 41.835938 C 157.386719 41.835938 157.433594 41.839844 157.480469 41.84375 C 175.222656 43.121094 192.605469 48.855469 207.746094 58.433594 C 228.679688 71.679688 244.597656 91.851562 252.605469 115.269531 L 185.726562 137.972656 C 185.636719 137.707031 185.53125 137.449219 185.433594 137.183594 C 185.375 137.03125 185.320312 136.878906 185.261719 136.726562 C 185.125 136.382812 184.984375 136.042969 184.839844 135.707031 C 184.769531 135.542969 184.703125 135.375 184.632812 135.214844 C 184.492188 134.890625 184.339844 134.574219 184.191406 134.257812 C 184.105469 134.082031 184.027344 133.90625 183.941406 133.730469 C 183.792969 133.433594 183.636719 133.136719 183.480469 132.84375 C 183.382812 132.65625 183.289062 132.46875 183.1875 132.285156 C 183.035156 132.007812 182.875 131.734375 182.714844 131.457031 C 182.605469 131.265625 182.492188 131.070312 182.378906 130.875 C 182.222656 130.617188 182.058594 130.363281 181.894531 130.109375 C 181.765625 129.90625 181.640625 129.703125 181.507812 129.503906 C 181.347656 129.261719 181.183594 129.027344 181.015625 128.789062 C 180.875 128.585938 180.734375 128.375 180.585938 128.171875 C 180.425781 127.949219 180.253906 127.730469 180.085938 127.507812 C 179.929688 127.300781 179.773438 127.089844 179.609375 126.882812 C 179.445312 126.671875 179.269531 126.46875 179.101562 126.261719 C 178.929688 126.054688 178.757812 125.84375 178.582031 125.636719 C 178.410156 125.4375 178.230469 125.242188 178.054688 125.046875 C 177.871094 124.84375 177.691406 124.636719 177.503906 124.4375 C 177.320312 124.242188 177.132812 124.054688 176.945312 123.863281 C 176.757812 123.671875 176.570312 123.472656 176.378906 123.285156 C 176.175781 123.085938 175.964844 122.894531 175.761719 122.699219 C 175.574219 122.527344 175.394531 122.351562 175.203125 122.179688 C 174.964844 121.960938 174.714844 121.753906 174.46875 121.539062 C 174.304688 121.402344 174.148438 121.261719 173.984375 121.125 C 173.644531 120.84375 173.296875 120.570312 172.945312 120.296875 C 172.871094 120.242188 172.800781 120.179688 172.726562 120.121094 C 171.859375 119.464844 170.96875 118.84375 170.046875 118.257812 C 169.949219 118.199219 169.851562 118.136719 169.761719 118.078125 C 169.648438 118.007812 169.539062 117.9375 169.421875 117.875 C 169.425781 117.878906 169.425781 117.882812 169.425781 117.890625 C 162.75 113.835938 155.066406 111.945312 147.34375 112.40625 C 147.34375 112.402344 147.347656 112.398438 147.347656 112.394531 C 147.332031 112.398438 147.316406 112.398438 147.300781 112.398438 C 147.15625 112.40625 147.011719 112.421875 146.867188 112.429688 C 146.714844 112.441406 146.566406 112.453125 146.414062 112.464844 C 145.933594 112.507812 145.453125 112.554688 144.976562 112.613281 C 144.867188 112.625 144.757812 112.640625 144.648438 112.65625 C 144.125 112.722656 143.597656 112.800781 143.082031 112.890625 C 142.683594 112.957031 142.289062 113.035156 141.898438 113.113281 C 141.746094 113.144531 141.597656 113.179688 141.449219 113.214844 C 141.207031 113.265625 140.964844 113.316406 140.726562 113.375 C 140.523438 113.421875 140.324219 113.476562 140.121094 113.527344 C 139.9375 113.578125 139.75 113.621094 139.5625 113.671875 C 139.351562 113.730469 139.136719 113.792969 138.925781 113.855469 C 138.753906 113.90625 138.582031 113.953125 138.410156 114.003906 C 138.195312 114.070312 137.984375 114.140625 137.769531 114.210938 C 137.601562 114.265625 137.433594 114.316406 137.269531 114.375 C 137.058594 114.445312 136.847656 114.523438 136.636719 114.597656 C 136.472656 114.660156 136.304688 114.714844 136.140625 114.777344 C 135.933594 114.855469 135.730469 114.9375 135.527344 115.019531 C 135.359375 115.085938 135.1875 115.148438 135.019531 115.21875 C 134.824219 115.300781 134.628906 115.386719 134.429688 115.46875 C 134.257812 115.542969 134.085938 115.617188 133.917969 115.695312 C 133.726562 115.777344 133.539062 115.867188 133.351562 115.957031 C 133.175781 116.039062 133 116.117188 132.828125 116.203125 C 132.644531 116.292969 132.464844 116.382812 132.285156 116.472656 C 132.109375 116.566406 131.929688 116.652344 131.753906 116.746094 C 131.578125 116.835938 131.410156 116.929688 131.238281 117.023438 C 131.054688 117.125 130.875 117.222656 130.695312 117.324219 C 130.53125 117.417969 130.367188 117.511719 130.207031 117.609375 C 130.023438 117.714844 129.835938 117.824219 129.65625 117.9375 C 129.5 118.03125 129.34375 118.128906 129.191406 118.226562 C 129.003906 118.34375 128.820312 118.460938 128.636719 118.578125 C 128.488281 118.675781 128.339844 118.777344 128.195312 118.875 C 128.007812 119 127.820312 119.128906 127.636719 119.257812 C 127.496094 119.355469 127.355469 119.457031 127.214844 119.554688 C 127.027344 119.691406 126.84375 119.824219 126.65625 119.964844 C 126.523438 120.066406 126.390625 120.167969 126.257812 120.269531 C 126.136719 120.359375 126.015625 120.449219 125.898438 120.542969 L 81.574219 65.4375 C 95.5625 54.242188 112.292969 46.609375 129.988281 43.367188 Z M 258.503906 148.117188 L 187.882812 149.511719 C 187.796875 146.761719 187.414062 144.019531 186.738281 141.34375 L 255.019531 123.300781 C 257.136719 131.421875 258.304688 139.765625 258.503906 148.117188 Z M 112.449219 160.0625 L 44.167969 178.105469 C 42.054688 169.984375 40.882812 161.640625 40.683594 153.289062 L 111.300781 151.898438 C 111.386719 154.644531 111.773438 157.386719 112.449219 160.0625 Z M 173.082031 179.90625 C 168.152344 183.886719 162.230469 186.566406 155.957031 187.65625 C 146.816406 189.238281 137.460938 187.375 129.613281 182.410156 C 122.375 177.832031 116.882812 170.84375 114.148438 162.738281 C 112.371094 157.472656 111.773438 151.78125 112.421875 146.28125 C 112.945312 141.816406 114.265625 137.519531 116.335938 133.507812 C 116.824219 132.554688 117.367188 131.605469 117.949219 130.683594 C 120.160156 127.171875 122.90625 124.082031 126.101562 121.5 C 127.644531 120.253906 129.285156 119.136719 131 118.15625 C 134.773438 116 138.921875 114.5 143.230469 113.753906 C 145.355469 113.386719 147.488281 113.203125 149.613281 113.203125 C 156.632812 113.203125 163.546875 115.1875 169.574219 119 C 176.808594 123.578125 182.304688 130.566406 185.039062 138.671875 C 186.816406 143.9375 187.414062 149.628906 186.761719 155.128906 C 186.238281 159.59375 184.921875 163.890625 182.851562 167.902344 C 182.359375 168.855469 181.816406 169.804688 181.234375 170.726562 C 179.023438 174.234375 176.28125 177.324219 173.082031 179.90625 Z M 186.511719 140.496094 C 186.355469 139.929688 186.183594 139.367188 186.003906 138.808594 L 252.894531 116.097656 C 253.597656 118.203125 254.226562 120.324219 254.792969 122.453125 Z M 80.90625 66.007812 L 125.21875 121.101562 C 122.089844 123.6875 119.394531 126.75 117.210938 130.214844 C 116.617188 131.160156 116.058594 132.132812 115.558594 133.105469 C 113.4375 137.210938 112.089844 141.609375 111.554688 146.179688 C 111.363281 147.78125 111.28125 149.398438 111.296875 151.019531 L 40.65625 152.414062 C 40.546875 144.332031 41.335938 136.179688 43.046875 128.078125 C 48.277344 103.355469 61.570312 81.691406 80.90625 66.007812 Z M 218.273438 235.394531 L 173.96875 180.308594 C 177.097656 177.71875 179.792969 174.65625 181.976562 171.191406 C 182.570312 170.25 183.125 169.277344 183.628906 168.300781 C 185.746094 164.199219 187.09375 159.800781 187.632812 155.230469 C 187.820312 153.625 187.902344 152.007812 187.886719 150.386719 L 258.457031 148.996094 C 258.914062 181.621094 244.800781 213.835938 218.273438 235.394531 Z M 160.976562 132.636719 C 151.035156 126.347656 137.839844 129.335938 131.5625 139.296875 C 128.523438 144.125 127.539062 149.847656 128.792969 155.414062 C 130.050781 160.980469 133.390625 165.722656 138.207031 168.769531 C 141.660156 170.953125 145.570312 172.078125 149.550781 172.078125 C 151.128906 172.078125 152.714844 171.898438 154.289062 171.542969 C 159.847656 170.285156 164.582031 166.9375 167.621094 162.109375 C 170.664062 157.285156 171.648438 151.5625 170.390625 145.996094 C 169.136719 140.429688 165.792969 135.683594 160.976562 132.636719 Z M 138.675781 168.027344 C 134.058594 165.105469 130.851562 160.558594 129.648438 155.21875 C 128.445312 149.882812 129.386719 144.394531 132.304688 139.765625 C 136.1875 133.601562 142.835938 130.222656 149.628906 130.222656 C 153.359375 130.222656 157.132812 131.242188 160.511719 133.378906 C 165.128906 136.300781 168.335938 140.851562 169.539062 146.1875 C 170.742188 151.527344 169.800781 157.015625 166.882812 161.644531 C 163.964844 166.269531 159.425781 169.484375 154.097656 170.6875 C 148.769531 171.894531 143.292969 170.949219 138.675781 168.027344 Z M 140.476562 165.171875 C 143.238281 166.917969 146.371094 167.820312 149.558594 167.820312 C 150.824219 167.820312 152.09375 167.679688 153.355469 167.390625 C 157.804688 166.386719 161.59375 163.703125 164.03125 159.839844 C 166.464844 155.976562 167.253906 151.390625 166.25 146.933594 C 165.246094 142.476562 162.566406 138.675781 158.710938 136.238281 C 154.851562 133.796875 150.277344 133.007812 145.832031 134.015625 C 141.382812 135.023438 137.589844 137.707031 135.15625 141.570312 C 130.128906 149.546875 132.515625 160.132812 140.476562 165.171875 Z M 153.164062 166.535156 C 151.816406 166.84375 150.457031 166.972656 149.113281 166.933594 C 147.296875 166.882812 145.503906 166.527344 143.804688 165.871094 C 142.816406 165.488281 141.859375 165.007812 140.945312 164.429688 C 140.226562 163.972656 139.554688 163.472656 138.933594 162.929688 C 133.535156 158.207031 131.867188 150.390625 134.910156 143.855469 C 134.953125 143.757812 134.996094 143.664062 135.042969 143.566406 C 135.058594 143.535156 135.070312 143.503906 135.085938 143.476562 C 135.171875 143.304688 135.265625 143.132812 135.359375 142.960938 C 135.398438 142.886719 135.433594 142.8125 135.476562 142.742188 C 135.546875 142.613281 135.625 142.484375 135.703125 142.359375 C 135.765625 142.25 135.828125 142.144531 135.894531 142.039062 C 138.207031 138.371094 141.800781 135.824219 146.023438 134.871094 C 146.308594 134.804688 146.59375 134.75 146.878906 134.699219 C 146.964844 134.6875 147.046875 134.675781 147.132812 134.664062 C 147.332031 134.632812 147.53125 134.601562 147.730469 134.578125 C 147.835938 134.566406 147.941406 134.558594 148.046875 134.546875 C 148.226562 134.527344 148.40625 134.511719 148.585938 134.5 C 148.699219 134.492188 148.8125 134.488281 148.925781 134.484375 C 149.097656 134.476562 149.269531 134.472656 149.441406 134.46875 C 149.546875 134.46875 149.652344 134.46875 149.753906 134.46875 C 150.074219 134.472656 150.394531 134.480469 150.710938 134.503906 C 150.730469 134.503906 150.75 134.503906 150.765625 134.503906 C 151.101562 134.53125 151.429688 134.566406 151.761719 134.613281 C 151.851562 134.625 151.945312 134.636719 152.035156 134.652344 C 152.203125 134.675781 152.371094 134.710938 152.535156 134.742188 C 152.636719 134.761719 152.742188 134.777344 152.84375 134.796875 C 152.910156 134.808594 152.976562 134.820312 153.042969 134.835938 C 153.363281 134.90625 153.6875 134.988281 154.003906 135.078125 C 154.082031 135.101562 154.164062 135.125 154.242188 135.152344 C 154.5 135.226562 154.753906 135.3125 155.007812 135.402344 C 155.085938 135.429688 155.167969 135.457031 155.246094 135.488281 C 155.558594 135.605469 155.867188 135.730469 156.175781 135.867188 C 156.230469 135.894531 156.285156 135.921875 156.339844 135.945312 C 156.597656 136.066406 156.851562 136.191406 157.105469 136.324219 C 157.1875 136.371094 157.273438 136.414062 157.355469 136.457031 C 157.652344 136.621094 157.945312 136.789062 158.234375 136.972656 C 158.238281 136.976562 158.238281 136.976562 158.242188 136.976562 C 158.460938 137.113281 158.671875 137.257812 158.878906 137.402344 C 158.890625 137.410156 158.90625 137.417969 158.917969 137.425781 C 159.027344 137.503906 159.132812 137.585938 159.238281 137.664062 C 159.351562 137.75 159.46875 137.835938 159.582031 137.921875 C 159.636719 137.964844 159.6875 138.011719 159.742188 138.054688 C 159.90625 138.183594 160.066406 138.316406 160.226562 138.453125 C 160.234375 138.457031 160.238281 138.464844 160.246094 138.472656 C 165.738281 143.269531 167.375 151.261719 164.132812 157.863281 C 164.121094 157.882812 164.113281 157.90625 164.101562 157.929688 C 164.007812 158.117188 163.910156 158.296875 163.808594 158.480469 C 163.777344 158.542969 163.746094 158.605469 163.710938 158.664062 C 163.621094 158.820312 163.527344 158.976562 163.433594 159.132812 C 163.382812 159.210938 163.339844 159.292969 163.289062 159.371094 C 162.980469 159.863281 162.644531 160.332031 162.289062 160.785156 C 160.847656 162.613281 159.054688 164.089844 157.007812 165.140625 C 155.804688 165.757812 154.515625 166.230469 153.164062 166.535156 Z M 189.328125 69.335938 C 194.851562 72.050781 200.136719 75.363281 205.042969 79.179688 C 212.214844 84.761719 218.472656 91.335938 223.636719 98.710938 C 223.875 99.054688 224.164062 99.355469 224.488281 99.609375 C 225.242188 100.195312 226.136719 100.488281 227.035156 100.488281 C 227.867188 100.488281 228.703125 100.238281 229.425781 99.730469 C 230.332031 99.089844 230.9375 98.136719 231.132812 97.039062 C 231.324219 95.941406 231.078125 94.839844 230.441406 93.929688 C 224.800781 85.871094 217.972656 78.695312 210.140625 72.601562 C 204.789062 68.4375 199.019531 64.824219 192.988281 61.859375 C 190.929688 60.847656 188.433594 61.703125 187.425781 63.761719 C 186.417969 65.824219 187.269531 68.324219 189.328125 69.335938 Z M 188.210938 64.148438 C 188.78125 62.984375 189.949219 62.308594 191.164062 62.308594 C 191.648438 62.308594 192.140625 62.417969 192.601562 62.644531 C 198.582031 65.582031 204.300781 69.167969 209.605469 73.292969 C 217.367188 79.335938 224.136719 86.445312 229.722656 94.429688 C 230.226562 95.148438 230.421875 96.023438 230.269531 96.886719 C 230.117188 97.753906 229.640625 98.507812 228.921875 99.011719 C 227.734375 99.84375 226.167969 99.808594 225.023438 98.917969 C 224.765625 98.714844 224.539062 98.476562 224.351562 98.207031 C 219.136719 90.757812 212.820312 84.125 205.578125 78.488281 C 200.625 74.632812 195.289062 71.289062 189.710938 68.546875 C 188.089844 67.75 187.414062 65.773438 188.210938 64.148438 Z M 168.394531 54.796875 C 167.453125 55.386719 166.800781 56.3125 166.554688 57.394531 C 166.199219 58.96875 166.789062 60.621094 168.058594 61.609375 C 168.542969 61.984375 169.089844 62.242188 169.6875 62.378906 C 173.003906 63.136719 176.308594 64.089844 179.507812 65.214844 C 179.957031 65.371094 180.421875 65.449219 180.886719 65.449219 C 181.5 65.449219 182.113281 65.3125 182.683594 65.035156 C 183.683594 64.554688 184.4375 63.710938 184.804688 62.660156 C 185.171875 61.613281 185.109375 60.480469 184.628906 59.480469 C 184.148438 58.476562 183.304688 57.722656 182.257812 57.351562 C 178.761719 56.125 175.148438 55.082031 171.53125 54.257812 C 170.445312 54.011719 169.332031 54.203125 168.394531 54.796875 Z M 183.980469 62.371094 C 183.6875 63.199219 183.09375 63.867188 182.304688 64.246094 C 181.515625 64.628906 180.625 64.675781 179.796875 64.386719 C 176.566406 63.25 173.230469 62.289062 169.878906 61.523438 C 169.410156 61.417969 168.976562 61.214844 168.597656 60.917969 C 167.59375 60.136719 167.125 58.832031 167.410156 57.589844 C 167.601562 56.734375 168.117188 56.003906 168.859375 55.539062 C 169.390625 55.203125 169.988281 55.03125 170.601562 55.03125 C 170.847656 55.03125 171.089844 55.058594 171.335938 55.113281 C 174.925781 55.929688 178.503906 56.960938 181.96875 58.179688 C 182.796875 58.472656 183.460938 59.066406 183.839844 59.859375 C 184.21875 60.652344 184.269531 61.542969 183.980469 62.371094 Z M 183.980469 62.371094 " fill-opacity="1" fill-rule="nonzero"/></g></svg>