<svg xmlns="http://www.w3.org/2000/svg" xmlns:xlink="http://www.w3.org/1999/xlink" width="40" zoomAndPan="magnify" viewBox="0 0 30 30.000001" height="40" preserveAspectRatio="xMidYMid meet" version="1.0"><defs><clipPath id="269d9516a9"><path d="M 0.484375 0 L 29.515625 0 L 29.515625 29.03125 L 0.484375 29.03125 Z M 0.484375 0 " clip-rule="nonzero"/></clipPath><clipPath id="5639a09cda"><path d="M 25 10 L 26.582031 10 L 26.582031 13 L 25 13 Z M 25 10 " clip-rule="nonzero"/></clipPath><clipPath id="901bb21fee"><path d="M 3.359375 10 L 5 10 L 5 13 L 3.359375 13 Z M 3.359375 10 " clip-rule="nonzero"/></clipPath><clipPath id="5498ade1bb"><path d="M 7 21.664062 L 9.542969 21.664062 L 9.542969 26.128906 L 7 26.128906 Z M 7 21.664062 " clip-rule="nonzero"/></clipPath><clipPath id="dac2ad1a2f"><path d="M 20.726562 21.664062 L 23.277344 21.664062 L 23.277344 26.128906 L 20.726562 26.128906 Z M 20.726562 21.664062 " clip-rule="nonzero"/></clipPath></defs><g clip-path="url(#269d9516a9)"><path fill="#ffffff" d="M 0.484375 0 L 29.515625 0 L 29.515625 29.03125 L 0.484375 29.03125 Z M 0.484375 0 " fill-opacity="1" fill-rule="nonzero"/><path fill="#d1dd82" d="M 0.484375 0 L 29.515625 0 L 29.515625 29.03125 L 0.484375 29.03125 Z M 0.484375 0 " fill-opacity="1" fill-rule="nonzero"/></g><path fill="#5f3b28" d="M 24.246094 12.457031 L 24.117188 11.945312 L 25.335938 11.640625 L 25.460938 12.152344 L 24.246094 12.457031 " fill-opacity="1" fill-rule="nonzero"/><g clip-path="url(#5639a09cda)"><path fill="#5f3b28" d="M 26.15625 12.53125 L 25.476562 12.53125 C 25.25 12.53125 25.0625 12.347656 25.0625 12.117188 L 25.0625 10.417969 C 25.0625 10.191406 25.25 10.003906 25.476562 10.003906 L 26.15625 10.003906 C 26.386719 10.003906 26.570312 10.191406 26.570312 10.417969 L 26.570312 12.117188 C 26.570312 12.347656 26.386719 12.53125 26.15625 12.53125 " fill-opacity="1" fill-rule="nonzero"/></g><path fill="#5f3b28" d="M 5.695312 12.457031 L 4.480469 12.152344 L 4.605469 11.640625 L 5.824219 11.945312 L 5.695312 12.457031 " fill-opacity="1" fill-rule="nonzero"/><g clip-path="url(#901bb21fee)"><path fill="#5f3b28" d="M 3.785156 12.53125 L 4.464844 12.53125 C 4.691406 12.53125 4.878906 12.347656 4.878906 12.117188 L 4.878906 10.417969 C 4.878906 10.191406 4.691406 10.003906 4.464844 10.003906 L 3.785156 10.003906 C 3.554688 10.003906 3.371094 10.191406 3.371094 10.417969 L 3.371094 12.117188 C 3.371094 12.347656 3.554688 12.53125 3.785156 12.53125 " fill-opacity="1" fill-rule="nonzero"/></g><g clip-path="url(#5498ade1bb)"><path fill="#5f3b28" d="M 8.773438 26.128906 L 7.765625 26.128906 C 7.351562 26.128906 7.015625 25.792969 7.015625 25.378906 L 7.015625 22.453125 C 7.015625 22.035156 7.351562 21.699219 7.765625 21.699219 L 8.773438 21.699219 C 9.1875 21.699219 9.523438 22.035156 9.523438 22.453125 L 9.523438 25.378906 C 9.523438 25.792969 9.1875 26.128906 8.773438 26.128906 " fill-opacity="1" fill-rule="nonzero"/></g><g clip-path="url(#dac2ad1a2f)"><path fill="#5f3b28" d="M 22.488281 26.128906 L 21.480469 26.128906 C 21.066406 26.128906 20.730469 25.792969 20.730469 25.378906 L 20.730469 22.453125 C 20.730469 22.035156 21.066406 21.699219 21.480469 21.699219 L 22.488281 21.699219 C 22.902344 21.699219 23.238281 22.035156 23.238281 22.453125 L 23.238281 25.378906 C 23.238281 25.792969 22.902344 26.128906 22.488281 26.128906 " fill-opacity="1" fill-rule="nonzero"/></g><path fill="#f7d8af" d="M 21.191406 21.207031 C 17.394531 21.832031 13.335938 21.859375 8.953125 21.144531 C 7.683594 20.9375 6.648438 20.007812 6.308594 18.761719 C 5.792969 16.867188 5.601562 14.855469 5.667969 12.753906 C 5.742188 10.453125 6.125 8.042969 6.71875 5.554688 C 6.890625 4.824219 7.433594 4.210938 8.160156 4.011719 C 12.226562 2.90625 18.710938 3.050781 22.125 3.992188 C 22.886719 4.203125 23.441406 4.863281 23.585938 5.644531 C 24.039062 8.089844 24.320312 10.46875 24.363281 12.753906 C 24.402344 14.785156 24.257812 16.742188 23.890625 18.609375 C 23.625 19.957031 22.539062 20.984375 21.191406 21.207031 " fill-opacity="1" fill-rule="nonzero"/><path fill="#5f3b28" d="M 15.152344 3.363281 C 12.496094 3.363281 10.035156 3.636719 8.195312 4.140625 C 7.53125 4.320312 7.011719 4.875 6.84375 5.585938 C 6.210938 8.238281 5.867188 10.585938 5.800781 12.757812 C 5.730469 14.921875 5.941406 16.929688 6.433594 18.726562 C 6.757812 19.917969 7.753906 20.816406 8.976562 21.015625 C 13.167969 21.699219 17.269531 21.71875 21.167969 21.078125 L 21.191406 21.207031 L 21.167969 21.078125 C 22.46875 20.863281 23.511719 19.863281 23.761719 18.585938 C 24.117188 16.796875 24.273438 14.835938 24.234375 12.757812 C 24.191406 10.570312 23.9375 8.25 23.460938 5.667969 C 23.320312 4.917969 22.785156 4.308594 22.089844 4.117188 C 20.414062 3.65625 17.96875 3.378906 15.386719 3.363281 C 15.308594 3.363281 15.230469 3.363281 15.152344 3.363281 Z M 15.375 21.804688 C 13.261719 21.804688 11.109375 21.628906 8.933594 21.273438 C 7.613281 21.058594 6.535156 20.085938 6.183594 18.792969 C 5.6875 16.972656 5.46875 14.941406 5.539062 12.75 C 5.609375 10.558594 5.953125 8.195312 6.589844 5.523438 C 6.785156 4.722656 7.371094 4.09375 8.125 3.886719 C 10.042969 3.367188 12.621094 3.085938 15.386719 3.105469 C 17.992188 3.121094 20.460938 3.398438 22.160156 3.867188 C 22.949219 4.085938 23.558594 4.773438 23.714844 5.621094 C 24.195312 8.21875 24.449219 10.550781 24.492188 12.753906 C 24.535156 14.851562 24.375 16.828125 24.015625 18.636719 C 23.742188 20.019531 22.617188 21.105469 21.210938 21.335938 C 19.308594 21.648438 17.359375 21.804688 15.375 21.804688 " fill-opacity="1" fill-rule="nonzero"/><path fill="#5f3b28" d="M 23.660156 10.691406 C 23.660156 11.328125 23.148438 11.84375 22.511719 11.84375 L 7.617188 11.714844 C 6.984375 11.714844 6.46875 11.199219 6.46875 10.5625 L 7.300781 5.851562 C 7.300781 5.214844 8.1875 4.8125 8.824219 4.8125 L 21.191406 4.8125 C 21.828125 4.8125 22.917969 5.214844 22.917969 5.851562 L 23.660156 10.691406 " fill-opacity="1" fill-rule="nonzero"/><path fill="#f7d8af" d="M 15.433594 4.371094 L 15.433594 12.15625 L 14.589844 12.15625 L 14.589844 4.371094 L 15.433594 4.371094 " fill-opacity="1" fill-rule="nonzero"/><path fill="#f7d8af" d="M 21.378906 23.21875 C 17.480469 23.878906 13.304688 23.914062 8.78125 23.160156 C 7.628906 22.964844 6.355469 21.964844 6.03125 20.835938 C 5.476562 18.886719 5.601562 16.96875 5.667969 14.796875 L 24.363281 14.796875 C 24.40625 16.882812 24.574219 18.71875 24.179688 20.632812 C 23.929688 21.875 22.625 23.003906 21.378906 23.21875 " fill-opacity="1" fill-rule="nonzero"/><path fill="#5f3b28" d="M 5.796875 14.925781 C 5.789062 15.070312 5.785156 15.214844 5.78125 15.359375 C 5.710938 17.332031 5.652344 19.039062 6.15625 20.800781 C 6.453125 21.835938 7.640625 22.835938 8.804688 23.03125 C 13.125 23.75 17.347656 23.769531 21.359375 23.089844 L 21.378906 23.21875 L 21.359375 23.089844 C 22.585938 22.878906 23.820312 21.742188 24.054688 20.605469 C 24.367188 19.082031 24.320312 17.578125 24.265625 15.988281 C 24.257812 15.644531 24.246094 15.289062 24.238281 14.925781 Z M 15.371094 23.847656 C 13.203125 23.847656 10.996094 23.660156 8.761719 23.285156 C 7.507812 23.078125 6.226562 21.992188 5.90625 20.871094 C 5.394531 19.070312 5.457031 17.261719 5.519531 15.347656 C 5.527344 15.164062 5.535156 14.980469 5.539062 14.792969 L 5.542969 14.667969 L 24.492188 14.667969 L 24.492188 14.792969 C 24.5 15.199219 24.515625 15.597656 24.527344 15.980469 C 24.578125 17.585938 24.628906 19.101562 24.308594 20.660156 C 24.050781 21.910156 22.746094 23.117188 21.402344 23.34375 C 19.4375 23.679688 17.421875 23.847656 15.371094 23.847656 " fill-opacity="1" fill-rule="nonzero"/><path fill="#ff9549" d="M 24.371094 19.257812 C 24.117188 20.496094 22.625 20.964844 21.378906 21.175781 C 20.191406 21.375 18.980469 21.519531 17.742188 21.601562 C 17.316406 21.628906 16.890625 21.648438 16.460938 21.660156 L 16.410156 21.664062 C 15.949219 21.675781 15.488281 21.679688 15.023438 21.675781 C 15.015625 21.675781 15.011719 21.675781 15.003906 21.675781 C 14.542969 21.671875 14.078125 21.660156 13.605469 21.636719 L 13.554688 21.632812 C 13.125 21.613281 12.695312 21.585938 12.257812 21.550781 C 11.125 21.457031 9.964844 21.3125 8.78125 21.117188 C 7.628906 20.925781 6.082031 20.136719 5.761719 19.007812 C 5.523438 18.1875 5.460938 17.332031 5.46875 16.457031 C 5.472656 16.074219 5.488281 15.683594 5.515625 15.292969 C 5.515625 15.277344 5.515625 15.261719 5.515625 15.246094 C 5.542969 14.808594 5.578125 14.367188 5.605469 13.925781 C 5.632812 13.535156 5.65625 13.148438 5.667969 12.753906 L 24.363281 12.753906 C 24.371094 13.132812 24.390625 13.523438 24.410156 13.925781 C 24.433594 14.359375 24.464844 14.804688 24.488281 15.246094 L 24.492188 15.292969 C 24.511719 15.683594 24.53125 16.074219 24.542969 16.460938 C 24.570312 17.449219 24.542969 18.410156 24.371094 19.257812 " fill-opacity="1" fill-rule="nonzero"/><path fill="#5f3b28" d="M 15.011719 21.546875 L 15.023438 21.546875 C 15.480469 21.550781 15.945312 21.546875 16.40625 21.535156 L 16.457031 21.53125 C 16.890625 21.519531 17.320312 21.5 17.734375 21.472656 C 18.941406 21.394531 20.160156 21.25 21.359375 21.046875 C 23.109375 20.75 24.054688 20.15625 24.242188 19.230469 C 24.390625 18.503906 24.445312 17.625 24.414062 16.464844 C 24.402344 16.128906 24.386719 15.769531 24.359375 15.300781 L 24.359375 15.253906 C 24.347656 15.054688 24.335938 14.855469 24.324219 14.65625 C 24.308594 14.414062 24.292969 14.171875 24.28125 13.933594 C 24.265625 13.636719 24.246094 13.261719 24.238281 12.882812 L 5.792969 12.882812 C 5.78125 13.261719 5.757812 13.625 5.734375 13.933594 C 5.726562 14.109375 5.710938 14.285156 5.699219 14.460938 C 5.679688 14.722656 5.664062 14.992188 5.648438 15.253906 L 5.644531 15.257812 C 5.644531 15.269531 5.644531 15.28125 5.644531 15.292969 L 5.644531 15.300781 C 5.617188 15.746094 5.601562 16.113281 5.597656 16.460938 C 5.589844 17.457031 5.679688 18.257812 5.882812 18.972656 C 6.171875 19.976562 7.59375 20.785156 8.804688 20.988281 C 9.972656 21.183594 11.136719 21.328125 12.269531 21.421875 C 12.710938 21.457031 13.144531 21.484375 13.558594 21.503906 L 13.613281 21.507812 C 14.0625 21.527344 14.53125 21.542969 15.007812 21.546875 Z M 15.398438 21.808594 C 15.273438 21.808594 15.148438 21.808594 15.027344 21.804688 C 15.015625 21.804688 15.007812 21.804688 15 21.804688 C 14.519531 21.800781 14.050781 21.789062 13.601562 21.765625 L 13.546875 21.761719 C 13.128906 21.742188 12.691406 21.714844 12.25 21.679688 C 11.109375 21.585938 9.9375 21.441406 8.761719 21.246094 C 7.488281 21.03125 5.960938 20.1875 5.636719 19.042969 C 5.425781 18.304688 5.328125 17.480469 5.339844 16.457031 C 5.34375 16.109375 5.355469 15.738281 5.386719 15.285156 C 5.386719 15.269531 5.386719 15.25 5.386719 15.234375 C 5.402344 14.972656 5.421875 14.703125 5.441406 14.441406 C 5.453125 14.265625 5.464844 14.09375 5.476562 13.917969 C 5.5 13.574219 5.527344 13.167969 5.539062 12.75 L 5.542969 12.625 L 24.492188 12.625 L 24.492188 12.753906 C 24.5 13.167969 24.523438 13.59375 24.539062 13.917969 C 24.554688 14.15625 24.566406 14.398438 24.582031 14.640625 C 24.59375 14.839844 24.605469 15.039062 24.617188 15.238281 L 24.621094 15.289062 C 24.648438 15.757812 24.664062 16.117188 24.671875 16.457031 C 24.707031 17.636719 24.648438 18.535156 24.496094 19.285156 C 24.285156 20.324219 23.269531 20.984375 21.402344 21.304688 C 20.195312 21.507812 18.96875 21.652344 17.75 21.730469 C 17.332031 21.757812 16.902344 21.777344 16.464844 21.792969 L 16.414062 21.792969 C 16.074219 21.804688 15.734375 21.808594 15.398438 21.808594 " fill-opacity="1" fill-rule="nonzero"/><path fill="#f7d8af" d="M 9.414062 19.257812 C 9.414062 19.84375 8.941406 20.316406 8.359375 20.316406 C 7.773438 20.316406 7.300781 19.84375 7.300781 19.257812 C 7.300781 18.671875 7.773438 18.199219 8.359375 18.199219 C 8.941406 18.199219 9.414062 18.671875 9.414062 19.257812 " fill-opacity="1" fill-rule="nonzero"/><path fill="#5f3b28" d="M 8.359375 18.328125 C 7.847656 18.328125 7.433594 18.746094 7.433594 19.257812 C 7.433594 19.769531 7.847656 20.1875 8.359375 20.1875 C 8.867188 20.1875 9.285156 19.769531 9.285156 19.257812 C 9.285156 18.746094 8.867188 18.328125 8.359375 18.328125 Z M 8.359375 20.445312 C 7.703125 20.445312 7.171875 19.914062 7.171875 19.257812 C 7.171875 18.601562 7.703125 18.070312 8.359375 18.070312 C 9.011719 18.070312 9.542969 18.601562 9.542969 19.257812 C 9.542969 19.914062 9.011719 20.445312 8.359375 20.445312 " fill-opacity="1" fill-rule="nonzero"/><path fill="#f7d8af" d="M 22.511719 19.257812 C 22.511719 19.84375 22.039062 20.316406 21.457031 20.316406 C 20.871094 20.316406 20.398438 19.84375 20.398438 19.257812 C 20.398438 18.671875 20.871094 18.199219 21.457031 18.199219 C 22.039062 18.199219 22.511719 18.671875 22.511719 19.257812 " fill-opacity="1" fill-rule="nonzero"/><path fill="#5f3b28" d="M 21.457031 18.328125 C 20.945312 18.328125 20.527344 18.746094 20.527344 19.257812 C 20.527344 19.769531 20.945312 20.1875 21.457031 20.1875 C 21.964844 20.1875 22.382812 19.769531 22.382812 19.257812 C 22.382812 18.746094 21.964844 18.328125 21.457031 18.328125 Z M 21.457031 20.445312 C 20.800781 20.445312 20.269531 19.914062 20.269531 19.257812 C 20.269531 18.601562 20.800781 18.070312 21.457031 18.070312 C 22.109375 18.070312 22.640625 18.601562 22.640625 19.257812 C 22.640625 19.914062 22.109375 20.445312 21.457031 20.445312 " fill-opacity="1" fill-rule="nonzero"/><path fill="#f7d8af" d="M 5.515625 15.246094 C 5.542969 14.808594 5.578125 14.367188 5.605469 13.925781 C 10.011719 14.472656 13.640625 17.546875 15.011719 21.652344 C 15.015625 21.660156 15.019531 21.667969 15.023438 21.675781 C 15.015625 21.675781 15.011719 21.675781 15.003906 21.675781 C 14.542969 21.671875 14.078125 21.660156 13.605469 21.636719 L 13.554688 21.632812 C 12.25 18.269531 9.191406 15.777344 5.515625 15.292969 L 5.515625 15.246094 " fill-opacity="1" fill-rule="nonzero"/><path fill="#5f3b28" d="M 13.644531 21.507812 C 14.03125 21.527344 14.429688 21.539062 14.839844 21.542969 C 14.160156 19.597656 12.960938 17.875 11.363281 16.554688 C 9.742188 15.210938 7.796875 14.355469 5.726562 14.070312 C 5.71875 14.203125 5.710938 14.332031 5.699219 14.460938 C 5.683594 14.695312 5.664062 14.941406 5.652344 15.179688 C 7.421875 15.4375 9.097656 16.160156 10.503906 17.28125 C 11.902344 18.394531 12.988281 19.855469 13.644531 21.507812 Z M 15.011719 21.804688 C 15.007812 21.804688 15.003906 21.804688 15 21.804688 C 14.519531 21.800781 14.050781 21.789062 13.601562 21.765625 L 13.464844 21.757812 L 13.433594 21.679688 C 12.796875 20.039062 11.726562 18.589844 10.34375 17.484375 C 8.941406 16.367188 7.265625 15.65625 5.496094 15.421875 L 5.378906 15.40625 L 5.386719 15.238281 C 5.402344 14.972656 5.421875 14.703125 5.441406 14.441406 C 5.453125 14.265625 5.464844 14.09375 5.476562 13.917969 L 5.488281 13.777344 L 5.621094 13.796875 C 7.792969 14.066406 9.835938 14.949219 11.53125 16.355469 C 13.203125 17.742188 14.449219 19.558594 15.136719 21.609375 C 15.136719 21.613281 15.140625 21.617188 15.140625 21.625 L 15.144531 21.632812 L 15.199219 21.78125 L 15.039062 21.804688 C 15.03125 21.804688 15.023438 21.804688 15.011719 21.804688 " fill-opacity="1" fill-rule="nonzero"/><path fill="#f7d8af" d="M 24.488281 15.246094 C 24.464844 14.804688 24.433594 14.359375 24.410156 13.925781 C 20.011719 14.476562 16.382812 17.550781 15.011719 21.652344 C 15.011719 21.660156 15.007812 21.667969 15.003906 21.675781 C 15.011719 21.675781 15.015625 21.675781 15.023438 21.675781 C 15.488281 21.679688 15.949219 21.675781 16.410156 21.664062 L 16.460938 21.660156 C 17.753906 18.289062 20.808594 15.789062 24.492188 15.292969 L 24.488281 15.246094 " fill-opacity="1" fill-rule="nonzero"/><path fill="#5f3b28" d="M 15.1875 21.546875 C 15.578125 21.550781 15.976562 21.546875 16.371094 21.535156 C 17.023438 19.878906 18.105469 18.414062 19.5 17.296875 C 20.90625 16.171875 22.582031 15.441406 24.355469 15.179688 C 24.34375 15.007812 24.335938 14.832031 24.324219 14.65625 C 24.3125 14.460938 24.300781 14.265625 24.289062 14.074219 C 22.222656 14.359375 20.277344 15.214844 18.660156 16.558594 C 17.0625 17.878906 15.863281 19.601562 15.1875 21.546875 Z M 15.398438 21.808594 C 15.273438 21.808594 15.148438 21.808594 15.027344 21.804688 C 15.015625 21.804688 15 21.804688 14.988281 21.804688 L 14.828125 21.78125 L 14.886719 21.625 C 14.886719 21.617188 14.890625 21.613281 14.890625 21.605469 C 15.574219 19.558594 16.820312 17.742188 18.492188 16.355469 C 20.1875 14.953125 22.226562 14.070312 24.394531 13.796875 L 24.53125 13.78125 L 24.539062 13.917969 C 24.554688 14.15625 24.566406 14.398438 24.582031 14.640625 C 24.59375 14.839844 24.605469 15.039062 24.617188 15.238281 L 24.617188 15.242188 L 24.625 15.40625 L 24.507812 15.421875 C 22.738281 15.660156 21.0625 16.378906 19.660156 17.5 C 18.277344 18.609375 17.214844 20.0625 16.582031 21.707031 L 16.550781 21.789062 L 16.414062 21.792969 C 16.074219 21.804688 15.734375 21.808594 15.398438 21.808594 " fill-opacity="1" fill-rule="nonzero"/></svg>