<svg xmlns="http://www.w3.org/2000/svg" xmlns:xlink="http://www.w3.org/1999/xlink" width="40" zoomAndPan="magnify" viewBox="0 0 30 30.000001" height="40" preserveAspectRatio="xMidYMid meet" version="1.0"><defs><clipPath id="d143df52eb"><path d="M 0.484375 0 L 29.515625 0 L 29.515625 29.03125 L 0.484375 29.03125 Z M 0.484375 0 " clip-rule="nonzero"/></clipPath><clipPath id="2d9aee4eb9"><path d="M 6 2.902344 L 24 2.902344 L 24 17 L 6 17 Z M 6 2.902344 " clip-rule="nonzero"/></clipPath><clipPath id="5ae7770878"><path d="M 2.34375 19 L 4 19 L 4 22 L 2.34375 22 Z M 2.34375 19 " clip-rule="nonzero"/></clipPath><clipPath id="a26931f6fb"><path d="M 2.34375 18 L 4 18 L 4 22 L 2.34375 22 Z M 2.34375 18 " clip-rule="nonzero"/></clipPath><clipPath id="ee633dcca0"><path d="M 22 14 L 27.746094 14 L 27.746094 20 L 22 20 Z M 22 14 " clip-rule="nonzero"/></clipPath><clipPath id="eea348eb52"><path d="M 22 20 L 27.746094 20 L 27.746094 26 L 22 26 Z M 22 20 " clip-rule="nonzero"/></clipPath><clipPath id="e2b5bc2b4a"><path d="M 26 19 L 27.746094 19 L 27.746094 22 L 26 22 Z M 26 19 " clip-rule="nonzero"/></clipPath><clipPath id="b1f7abbe34"><path d="M 26 18 L 27.746094 18 L 27.746094 22 L 26 22 Z M 26 18 " clip-rule="nonzero"/></clipPath></defs><g clip-path="url(#d143df52eb)"><path fill="#ffffff" d="M 0.484375 0 L 29.515625 0 L 29.515625 29.03125 L 0.484375 29.03125 Z M 0.484375 0 " fill-opacity="1" fill-rule="nonzero"/><path fill="#73a5a8" d="M 0.484375 0 L 29.515625 0 L 29.515625 29.03125 L 0.484375 29.03125 Z M 0.484375 0 " fill-opacity="1" fill-rule="nonzero"/></g><path fill="#f1eade" d="M 21.417969 16.363281 C 21.105469 10.113281 21.105469 5.085938 15.414062 5.085938 C 9.101562 5.085938 9.265625 10.015625 8.789062 16.40625 L 6.484375 16.40625 C 6.484375 16.40625 4.648438 3.082031 15.257812 3.082031 C 24.777344 3.082031 23.535156 16.40625 23.535156 16.40625 Z M 21.417969 16.363281 " fill-opacity="1" fill-rule="nonzero"/><g clip-path="url(#2d9aee4eb9)"><path fill="#1d1d1b" d="M 23.535156 16.570312 C 23.535156 16.570312 23.535156 16.570312 23.53125 16.570312 L 21.414062 16.527344 C 21.328125 16.527344 21.257812 16.460938 21.253906 16.375 C 21.238281 16.117188 21.226562 15.859375 21.214844 15.605469 C 21.070312 12.628906 20.945312 10.0625 20.183594 8.195312 C 19.363281 6.1875 17.847656 5.253906 15.414062 5.253906 C 9.71875 5.253906 9.4375 9.355469 9.050781 15.035156 C 9.019531 15.488281 8.988281 15.949219 8.953125 16.417969 C 8.945312 16.503906 8.875 16.570312 8.789062 16.570312 L 6.484375 16.570312 C 6.398438 16.570312 6.332031 16.511719 6.320312 16.429688 C 6.316406 16.414062 6.082031 14.667969 6.269531 12.476562 C 6.445312 10.441406 7.023438 7.59375 8.808594 5.558594 C 10.339844 3.804688 12.511719 2.917969 15.257812 2.917969 C 17.570312 2.917969 19.453125 3.695312 20.855469 5.230469 C 22.683594 7.226562 23.359375 10.164062 23.601562 12.28125 C 23.867188 14.5625 23.703125 16.402344 23.699219 16.421875 C 23.691406 16.507812 23.621094 16.570312 23.535156 16.570312 Z M 6.628906 16.242188 L 8.636719 16.242188 C 8.667969 15.828125 8.695312 15.414062 8.722656 15.011719 C 8.917969 12.132812 9.089844 9.644531 9.953125 7.847656 C 10.914062 5.851562 12.648438 4.925781 15.414062 4.925781 C 17.996094 4.925781 19.609375 5.925781 20.488281 8.070312 C 21.273438 9.988281 21.398438 12.585938 21.542969 15.589844 C 21.554688 15.792969 21.5625 16 21.574219 16.203125 L 23.382812 16.238281 C 23.453125 15.179688 23.726562 8.851562 20.613281 5.449219 C 19.273438 3.988281 17.472656 3.246094 15.257812 3.246094 C 12.609375 3.246094 10.523438 4.097656 9.054688 5.769531 C 6.015625 9.238281 6.519531 15.246094 6.628906 16.242188 Z M 6.628906 16.242188 " fill-opacity="1" fill-rule="nonzero"/></g><path fill="#f1eade" d="M 8.722656 14.828125 C 6.214844 14.828125 3.472656 15.019531 3.472656 19.25 C 3.472656 25.785156 5.75 25.515625 8.722656 25.515625 Z M 8.722656 14.828125 " fill-opacity="1" fill-rule="nonzero"/><path fill="#1d1d1b" d="M 8.050781 25.679688 C 6.695312 25.679688 5.523438 25.621094 4.660156 24.765625 C 3.738281 23.847656 3.308594 22.097656 3.308594 19.25 C 3.308594 14.664062 6.566406 14.664062 8.722656 14.664062 C 8.8125 14.664062 8.886719 14.738281 8.886719 14.828125 L 8.886719 25.515625 C 8.886719 25.605469 8.8125 25.679688 8.722656 25.679688 C 8.609375 25.679688 8.496094 25.679688 8.382812 25.679688 C 8.273438 25.679688 8.160156 25.679688 8.050781 25.679688 Z M 8.558594 14.992188 C 7.375 14.996094 6.160156 15.0625 5.238281 15.59375 C 4.160156 16.21875 3.636719 17.414062 3.636719 19.25 C 3.636719 22.003906 4.035156 23.683594 4.894531 24.535156 C 5.726562 25.359375 6.957031 25.355469 8.382812 25.351562 C 8.441406 25.351562 8.5 25.351562 8.558594 25.351562 Z M 8.558594 14.992188 " fill-opacity="1" fill-rule="nonzero"/><path fill="#ff5534" d="M 7.152344 16.339844 C 7.261719 16.019531 7.390625 15.054688 6.886719 14.828125 C 5.847656 14.359375 2.339844 16.03125 3.472656 19.492188 C 3.671875 20.105469 6.097656 19.441406 7.152344 16.339844 Z M 7.152344 16.339844 " fill-opacity="1" fill-rule="nonzero"/><path fill="#1d1d1b" d="M 3.886719 19.863281 C 3.882812 19.863281 3.878906 19.863281 3.878906 19.863281 C 3.585938 19.859375 3.382812 19.746094 3.316406 19.542969 C 2.625 17.429688 3.628906 16.125 4.289062 15.535156 C 5.132812 14.78125 6.328125 14.398438 6.953125 14.679688 C 7.574219 14.957031 7.429688 16.03125 7.308594 16.390625 C 6.492188 18.789062 4.820312 19.863281 3.886719 19.863281 Z M 6.464844 14.914062 C 5.941406 14.914062 5.148438 15.207031 4.511719 15.777344 C 3.910156 16.3125 2.996094 17.503906 3.628906 19.441406 C 3.648438 19.5 3.746094 19.535156 3.878906 19.535156 C 3.882812 19.535156 3.882812 19.535156 3.882812 19.535156 C 4.515625 19.535156 6.167969 18.722656 6.996094 16.289062 C 7.097656 15.992188 7.195312 15.144531 6.816406 14.976562 C 6.722656 14.9375 6.601562 14.914062 6.464844 14.914062 Z M 7.152344 16.339844 Z M 7.152344 16.339844 " fill-opacity="1" fill-rule="nonzero"/><path fill="#ff5534" d="M 7.152344 24.132812 C 7.261719 24.453125 7.390625 25.417969 6.886719 25.644531 C 5.847656 26.109375 2.339844 24.441406 3.472656 20.980469 C 3.671875 20.367188 6.097656 21.03125 7.152344 24.132812 Z M 7.152344 24.132812 " fill-opacity="1" fill-rule="nonzero"/><path fill="#1d1d1b" d="M 6.460938 25.886719 C 5.8125 25.886719 4.945312 25.523438 4.289062 24.9375 C 3.628906 24.347656 2.625 23.042969 3.316406 20.929688 C 3.382812 20.726562 3.585938 20.609375 3.878906 20.609375 C 3.878906 20.609375 3.882812 20.609375 3.886719 20.609375 C 4.820312 20.609375 6.492188 21.683594 7.308594 24.078125 C 7.429688 24.4375 7.574219 25.511719 6.953125 25.792969 C 6.8125 25.855469 6.644531 25.886719 6.460938 25.886719 Z M 3.882812 20.9375 C 3.882812 20.9375 3.882812 20.9375 3.878906 20.9375 C 3.742188 20.9375 3.648438 20.972656 3.628906 21.03125 C 2.996094 22.96875 3.910156 24.15625 4.507812 24.695312 C 5.316406 25.414062 6.371094 25.695312 6.816406 25.496094 C 7.191406 25.324219 7.097656 24.476562 6.996094 24.183594 C 6.167969 21.75 4.515625 20.9375 3.882812 20.9375 Z M 3.882812 20.9375 " fill-opacity="1" fill-rule="nonzero"/><path fill="#ff5534" d="M 4.167969 18.542969 C 5.113281 17.898438 6.519531 17.996094 7.332031 18.722656 C 7.882812 19.214844 8.164062 19.992188 7.914062 20.644531 C 7.410156 21.964844 4.839844 22.546875 3.789062 21.59375 C 3.023438 20.898438 3.007812 19.335938 4.167969 18.542969 Z M 4.167969 18.542969 " fill-opacity="1" fill-rule="nonzero"/><path fill="#1d1d1b" d="M 5.25 22.230469 C 4.613281 22.230469 4.050781 22.050781 3.679688 21.714844 C 3.265625 21.339844 3.046875 20.742188 3.089844 20.113281 C 3.140625 19.421875 3.496094 18.800781 4.074219 18.410156 C 5.078125 17.722656 6.558594 17.808594 7.445312 18.601562 C 8.078125 19.171875 8.332031 20.015625 8.066406 20.703125 C 7.820312 21.351562 7.078125 21.898438 6.128906 22.121094 C 5.828125 22.195312 5.535156 22.230469 5.25 22.230469 Z M 5.628906 18.28125 C 5.140625 18.28125 4.652344 18.410156 4.261719 18.679688 C 3.765625 19.015625 3.460938 19.546875 3.417969 20.136719 C 3.382812 20.667969 3.5625 21.167969 3.902344 21.472656 C 4.355469 21.886719 5.179688 22.011719 6.054688 21.804688 C 6.898438 21.601562 7.550781 21.136719 7.761719 20.585938 C 7.972656 20.035156 7.75 19.316406 7.222656 18.847656 C 6.804688 18.472656 6.21875 18.28125 5.628906 18.28125 Z M 4.167969 18.542969 Z M 4.167969 18.542969 " fill-opacity="1" fill-rule="nonzero"/><g clip-path="url(#5ae7770878)"><path fill="#f1eade" d="M 3.65625 20.125 C 3.65625 20.433594 3.609375 20.699219 3.515625 20.917969 C 3.421875 21.136719 3.308594 21.246094 3.175781 21.246094 C 3.042969 21.246094 2.929688 21.136719 2.835938 20.917969 C 2.742188 20.699219 2.695312 20.433594 2.695312 20.125 C 2.695312 19.816406 2.742188 19.554688 2.835938 19.335938 C 2.929688 19.117188 3.042969 19.007812 3.175781 19.007812 C 3.308594 19.007812 3.421875 19.117188 3.515625 19.335938 C 3.609375 19.554688 3.65625 19.816406 3.65625 20.125 Z M 3.65625 20.125 " fill-opacity="1" fill-rule="nonzero"/></g><g clip-path="url(#a26931f6fb)"><path fill="#1d1d1b" d="M 3.175781 21.410156 C 2.753906 21.410156 2.53125 20.765625 2.53125 20.125 C 2.53125 19.488281 2.753906 18.84375 3.175781 18.84375 C 3.601562 18.84375 3.820312 19.488281 3.820312 20.125 C 3.820312 20.765625 3.597656 21.410156 3.175781 21.410156 Z M 3.175781 19.171875 C 3.066406 19.171875 2.859375 19.53125 2.859375 20.125 C 2.859375 20.71875 3.066406 21.082031 3.175781 21.082031 C 3.289062 21.082031 3.492188 20.71875 3.492188 20.125 C 3.492188 19.53125 3.289062 19.171875 3.175781 19.171875 Z M 3.175781 19.171875 " fill-opacity="1" fill-rule="nonzero"/></g><path fill="#ec996d" d="M 8.722656 25.515625 C 9.65625 25.515625 10.585938 25.515625 10.585938 20.089844 C 10.585938 15.429688 9.660156 14.828125 8.722656 14.828125 Z M 8.722656 25.515625 " fill-opacity="1" fill-rule="nonzero"/><path fill="#1d1d1b" d="M 8.722656 25.679688 C 8.632812 25.679688 8.558594 25.605469 8.558594 25.515625 L 8.558594 14.828125 C 8.558594 14.738281 8.632812 14.664062 8.722656 14.664062 C 9.777344 14.664062 10.753906 15.320312 10.753906 20.089844 C 10.753906 22.582031 10.5625 24.117188 10.152344 24.910156 C 9.753906 25.679688 9.207031 25.679688 8.722656 25.679688 Z M 8.886719 14.996094 L 8.886719 25.347656 C 9.667969 25.328125 10.421875 25.003906 10.421875 20.089844 C 10.421875 15.457031 9.472656 15.035156 8.886719 14.996094 Z M 8.886719 14.996094 " fill-opacity="1" fill-rule="nonzero"/><path fill="#f1eade" d="M 21.363281 14.828125 C 23.871094 14.828125 26.613281 15.019531 26.613281 19.25 C 26.613281 25.785156 24.335938 25.515625 21.363281 25.515625 Z M 21.363281 14.828125 " fill-opacity="1" fill-rule="nonzero"/><path fill="#1d1d1b" d="M 22.03125 25.679688 C 21.925781 25.679688 21.8125 25.679688 21.703125 25.679688 C 21.589844 25.679688 21.476562 25.675781 21.363281 25.675781 C 21.273438 25.675781 21.199219 25.605469 21.199219 25.515625 L 21.199219 14.828125 C 21.199219 14.738281 21.273438 14.664062 21.363281 14.664062 C 23.519531 14.664062 26.777344 14.664062 26.777344 19.25 C 26.777344 22.097656 26.347656 23.847656 25.425781 24.765625 C 24.5625 25.621094 23.390625 25.679688 22.03125 25.679688 Z M 21.527344 25.351562 C 21.585938 25.351562 21.644531 25.351562 21.703125 25.351562 C 23.125 25.355469 24.355469 25.359375 25.191406 24.535156 C 26.046875 23.683594 26.449219 22.003906 26.449219 19.25 C 26.449219 17.414062 25.921875 16.21875 24.84375 15.59375 C 23.925781 15.0625 22.710938 14.996094 21.527344 14.992188 Z M 21.527344 25.351562 " fill-opacity="1" fill-rule="nonzero"/><path fill="#ff5534" d="M 22.933594 16.339844 C 22.824219 16.019531 22.695312 15.054688 23.199219 14.828125 C 24.238281 14.359375 27.746094 16.03125 26.613281 19.492188 C 26.410156 20.105469 23.988281 19.441406 22.933594 16.339844 Z M 22.933594 16.339844 " fill-opacity="1" fill-rule="nonzero"/><g clip-path="url(#ee633dcca0)"><path fill="#1d1d1b" d="M 26.199219 19.863281 C 25.265625 19.863281 23.59375 18.789062 22.777344 16.394531 C 22.65625 16.035156 22.511719 14.957031 23.132812 14.679688 C 23.757812 14.398438 24.953125 14.78125 25.792969 15.535156 C 26.457031 16.125 27.460938 17.429688 26.769531 19.542969 C 26.703125 19.746094 26.5 19.863281 26.207031 19.863281 C 26.203125 19.863281 26.203125 19.863281 26.199219 19.863281 Z M 23.089844 16.289062 C 23.914062 18.722656 25.570312 19.535156 26.199219 19.535156 C 26.203125 19.535156 26.203125 19.535156 26.203125 19.535156 C 26.339844 19.535156 26.4375 19.5 26.457031 19.441406 C 27.089844 17.503906 26.175781 16.316406 25.574219 15.777344 C 24.769531 15.058594 23.710938 14.777344 23.269531 14.976562 C 22.890625 15.148438 22.988281 15.992188 23.089844 16.289062 Z M 23.089844 16.289062 " fill-opacity="1" fill-rule="nonzero"/></g><path fill="#ff5534" d="M 22.933594 24.132812 C 22.824219 24.453125 22.695312 25.417969 23.199219 25.644531 C 24.238281 26.109375 27.746094 24.441406 26.613281 20.980469 C 26.410156 20.367188 23.988281 21.03125 22.933594 24.132812 Z M 22.933594 24.132812 " fill-opacity="1" fill-rule="nonzero"/><g clip-path="url(#eea348eb52)"><path fill="#1d1d1b" d="M 23.625 25.886719 C 23.4375 25.886719 23.273438 25.855469 23.132812 25.792969 C 22.511719 25.515625 22.65625 24.441406 22.777344 24.078125 C 23.59375 21.683594 25.265625 20.609375 26.199219 20.609375 C 26.203125 20.609375 26.203125 20.609375 26.207031 20.609375 C 26.5 20.613281 26.703125 20.726562 26.769531 20.929688 C 27.460938 23.042969 26.457031 24.347656 25.792969 24.941406 C 25.140625 25.523438 24.273438 25.886719 23.625 25.886719 Z M 23.089844 24.183594 C 22.988281 24.476562 22.890625 25.324219 23.269531 25.496094 C 23.710938 25.695312 24.769531 25.414062 25.574219 24.695312 C 26.175781 24.160156 27.089844 22.96875 26.457031 21.03125 C 26.4375 20.972656 26.339844 20.9375 26.203125 20.9375 C 26.203125 20.9375 26.203125 20.9375 26.199219 20.9375 C 25.570312 20.9375 23.917969 21.75 23.089844 24.183594 Z M 23.089844 24.183594 " fill-opacity="1" fill-rule="nonzero"/></g><path fill="#ff5534" d="M 25.917969 18.542969 C 24.96875 17.898438 23.566406 17.996094 22.75 18.722656 C 22.203125 19.214844 21.921875 19.992188 22.171875 20.644531 C 22.675781 21.964844 25.246094 22.546875 26.296875 21.59375 C 27.0625 20.898438 27.074219 19.335938 25.917969 18.542969 Z M 25.917969 18.542969 " fill-opacity="1" fill-rule="nonzero"/><path fill="#1d1d1b" d="M 24.832031 22.230469 C 24.550781 22.230469 24.253906 22.195312 23.957031 22.121094 C 23.007812 21.898438 22.265625 21.351562 22.019531 20.703125 C 21.753906 20.015625 22.007812 19.171875 22.644531 18.601562 C 23.527344 17.808594 25.007812 17.722656 26.011719 18.410156 C 26.589844 18.800781 26.945312 19.421875 26.996094 20.113281 C 27.039062 20.742188 26.820312 21.339844 26.40625 21.714844 C 26.035156 22.050781 25.472656 22.230469 24.832031 22.230469 Z M 24.457031 18.28125 C 23.867188 18.28125 23.28125 18.472656 22.863281 18.84375 C 22.335938 19.316406 22.113281 20.035156 22.324219 20.585938 C 22.535156 21.136719 23.1875 21.601562 24.03125 21.804688 C 24.90625 22.011719 25.730469 21.882812 26.183594 21.472656 C 26.523438 21.164062 26.703125 20.667969 26.664062 20.136719 C 26.625 19.546875 26.320312 19.015625 25.824219 18.679688 C 25.429688 18.410156 24.941406 18.28125 24.457031 18.28125 Z M 24.457031 18.28125 " fill-opacity="1" fill-rule="nonzero"/><g clip-path="url(#e2b5bc2b4a)"><path fill="#f1eade" d="M 27.203125 20.132812 C 27.203125 20.421875 27.160156 20.671875 27.070312 20.875 C 26.984375 21.082031 26.878906 21.183594 26.753906 21.183594 C 26.628906 21.183594 26.523438 21.082031 26.433594 20.875 C 26.347656 20.671875 26.304688 20.421875 26.304688 20.132812 C 26.304688 19.84375 26.347656 19.59375 26.433594 19.390625 C 26.523438 19.183594 26.628906 19.082031 26.753906 19.082031 C 26.878906 19.082031 26.984375 19.183594 27.070312 19.390625 C 27.160156 19.59375 27.203125 19.84375 27.203125 20.132812 Z M 27.203125 20.132812 " fill-opacity="1" fill-rule="nonzero"/></g><g clip-path="url(#b1f7abbe34)"><path fill="#1d1d1b" d="M 26.753906 21.347656 C 26.351562 21.347656 26.136719 20.738281 26.136719 20.132812 C 26.136719 19.53125 26.351562 18.917969 26.753906 18.917969 C 27.15625 18.917969 27.367188 19.527344 27.367188 20.132812 C 27.367188 20.738281 27.15625 21.347656 26.753906 21.347656 Z M 26.753906 19.246094 C 26.671875 19.246094 26.46875 19.558594 26.46875 20.132812 C 26.46875 20.710938 26.671875 21.019531 26.753906 21.019531 C 26.835938 21.019531 27.039062 20.710938 27.039062 20.132812 C 27.039062 19.558594 26.835938 19.246094 26.753906 19.246094 Z M 26.753906 19.246094 " fill-opacity="1" fill-rule="nonzero"/></g><path fill="#ec996d" d="M 21.363281 25.515625 C 20.429688 25.515625 19.496094 25.515625 19.496094 20.089844 C 19.496094 15.429688 20.425781 14.828125 21.363281 14.828125 Z M 21.363281 25.515625 " fill-opacity="1" fill-rule="nonzero"/><path fill="#1d1d1b" d="M 21.363281 25.679688 C 20.878906 25.679688 20.328125 25.679688 19.933594 24.910156 C 19.523438 24.117188 19.332031 22.582031 19.332031 20.089844 C 19.332031 15.320312 20.308594 14.664062 21.363281 14.664062 C 21.453125 14.664062 21.527344 14.738281 21.527344 14.828125 L 21.527344 25.515625 C 21.527344 25.605469 21.453125 25.679688 21.363281 25.679688 Z M 21.199219 14.996094 C 20.609375 15.035156 19.664062 15.457031 19.664062 20.089844 C 19.664062 25.007812 20.417969 25.328125 21.199219 25.347656 Z M 21.199219 14.996094 " fill-opacity="1" fill-rule="nonzero"/></svg>