<svg xmlns="http://www.w3.org/2000/svg" xmlns:xlink="http://www.w3.org/1999/xlink" width="500" zoomAndPan="magnify" viewBox="0 0 375 374.999991" height="500" preserveAspectRatio="xMidYMid meet" version="1.0"><defs><g/></defs><g fill="#e9c46a" fill-opacity="1"><g transform="translate(37.500002, 253.411306)"><g><path d="M 306.136719 -79.359375 C 299.765625 -69.800781 291.074219 -64.585938 282.386719 -64.585938 C 269.355469 -64.585938 264.71875 -72.984375 264.71875 -84.859375 C 264.71875 -102.527344 274.277344 -152.34375 288.757812 -152.34375 C 292.523438 -152.34375 295.128906 -149.15625 299.476562 -149.15625 C 309.613281 -149.15625 320.90625 -168.273438 320.90625 -185.652344 C 320.90625 -201.292969 312.507812 -215.484375 290.207031 -215.484375 C 258.058594 -215.484375 221.566406 -176.671875 202.449219 -136.414062 C 197.527344 -184.492188 169.722656 -215.484375 119.328125 -215.484375 C 61.113281 -215.484375 23.75 -176.382812 23.75 -132.648438 C 23.75 -105.425781 40.546875 -87.46875 63.429688 -87.46875 C 89.207031 -87.46875 103.105469 -110.347656 97.894531 -122.222656 C 89.496094 -122.222656 83.125 -130.042969 83.125 -140.179688 C 83.125 -158.425781 95.867188 -169.140625 109.769531 -169.140625 C 122.222656 -169.140625 129.753906 -160.742188 129.753906 -145.394531 C 129.753906 -114.113281 99.921875 -58.792969 59.375 -58.792969 C 42.574219 -58.792969 30.121094 -67.484375 30.121094 -80.226562 C 30.121094 -82.253906 28.09375 -83.703125 25.777344 -83.703125 C 2.605469 -83.703125 -12.742188 -60.242188 -12.742188 -36.492188 C -12.742188 -12.453125 3.765625 12.164062 37.363281 12.164062 C 86.597656 12.164062 130.042969 -24.328125 149.15625 -118.457031 C 150.316406 -123.960938 153.214844 -126.566406 157.269531 -126.566406 C 161.03125 -126.566406 164.21875 -123.960938 164.21875 -112.664062 C 164.21875 -86.019531 147.421875 -53.582031 147.421875 -32.148438 C 147.421875 -20.273438 152.054688 -13.902344 170.300781 -13.902344 C 179.859375 -13.902344 190.285156 -17.667969 195.5 -37.652344 C 214.324219 -110.925781 223.304688 -125.699219 233.441406 -125.699219 C 236.914062 -125.699219 238.941406 -123.671875 238.941406 -119.328125 C 238.941406 -107.742188 218.667969 -75.304688 218.667969 -42.285156 C 218.667969 -15.929688 229.675781 0 251.105469 0 C 290.207031 0 309.902344 -56.1875 319.167969 -72.117188 C 316.5625 -77.621094 310.191406 -85.441406 306.136719 -79.359375 Z M 306.136719 -79.359375 "/></g></g></g></svg>