<svg xmlns="http://www.w3.org/2000/svg" xmlns:xlink="http://www.w3.org/1999/xlink" width="500" zoomAndPan="magnify" viewBox="0 0 375 374.999991" height="500" preserveAspectRatio="xMidYMid meet" version="1.0"><defs><clipPath id="id1"><path d="M 12.886719 4.417969 L 362.386719 4.417969 L 362.386719 370.417969 L 12.886719 370.417969 Z M 12.886719 4.417969 " clip-rule="nonzero"/></clipPath><clipPath id="id2"><path d="M 12.886719 21 L 335 21 L 335 370.417969 L 12.886719 370.417969 Z M 12.886719 21 " clip-rule="nonzero"/></clipPath><clipPath id="id3"><path d="M 19 4.417969 L 100 4.417969 L 100 27 L 19 27 Z M 19 4.417969 " clip-rule="nonzero"/></clipPath><clipPath id="id4"><path d="M 276 4.417969 L 358 4.417969 L 358 27 L 276 27 Z M 276 4.417969 " clip-rule="nonzero"/></clipPath><clipPath id="id5"><path d="M 327 7 L 362.386719 7 L 362.386719 368 L 327 368 Z M 327 7 " clip-rule="nonzero"/></clipPath></defs><path fill="#52a675" d="M 348.425781 5.882812 L 311.664062 5.882812 C 309.394531 5.882812 307.230469 6.511719 305.339844 7.597656 L 305.335938 7.578125 L 304.960938 7.804688 C 304.898438 7.84375 304.835938 7.878906 304.773438 7.917969 L 277.273438 24.5625 L 277.277344 24.574219 C 275.128906 25.855469 273.351562 27.746094 272.257812 30.101562 L 191.558594 203.601562 L 102.941406 13.121094 C 100.855469 8.636719 96.347656 5.773438 91.398438 5.785156 L 54.710938 5.878906 C 52.222656 5.882812 49.914062 6.613281 47.957031 7.855469 L 47.953125 7.84375 L 20.808594 24.285156 C 20.460938 24.476562 20.121094 24.679688 19.792969 24.902344 L 19.746094 24.929688 C 16.371094 27.210938 14.15625 31.066406 14.15625 35.4375 L 14.15625 355.859375 C 14.15625 362.859375 19.839844 368.539062 26.851562 368.539062 L 76.332031 368.539062 C 79.140625 368.539062 81.726562 367.617188 83.828125 366.074219 L 110.148438 350.1875 C 110.582031 349.957031 111.003906 349.703125 111.40625 349.425781 L 111.445312 349.402344 L 111.441406 349.402344 C 114.75 347.113281 116.917969 343.300781 116.917969 338.976562 L 116.917969 293.289062 L 150.105469 361.875 C 152.222656 366.253906 156.664062 369.035156 161.535156 369.035156 L 185.847656 369.035156 C 188.09375 369.035156 190.234375 368.421875 192.113281 367.355469 L 192.121094 367.371094 L 192.425781 367.1875 C 192.515625 367.132812 192.605469 367.082031 192.695312 367.023438 L 219.941406 350.53125 L 219.917969 350.519531 C 222.148438 349.273438 224.011719 347.382812 225.171875 344.992188 L 258.351562 276.410156 L 258.351562 355.855469 C 258.351562 362.859375 264.035156 368.535156 271.046875 368.535156 L 320.53125 368.535156 C 323.460938 368.535156 326.148438 367.535156 328.296875 365.875 L 328.300781 365.875 L 355.277344 349.644531 L 355.269531 349.644531 C 358.785156 347.390625 361.117188 343.457031 361.117188 338.976562 L 361.117188 18.5625 C 361.121094 11.5625 355.4375 5.882812 348.425781 5.882812 Z M 348.425781 5.882812 " fill-opacity="1" fill-rule="nonzero"/><g clip-path="url(#id1)"><path fill="#52a675" d="M 161.535156 370.304688 C 156.210938 370.304688 151.277344 367.210938 148.960938 362.425781 L 118.1875 298.828125 L 118.1875 338.976562 C 118.1875 343.507812 115.972656 347.761719 112.253906 350.378906 C 112.207031 350.417969 112.15625 350.457031 112.101562 350.488281 L 112.09375 350.492188 C 111.675781 350.777344 111.234375 351.046875 110.773438 351.289062 L 84.53125 367.128906 C 82.125 368.878906 79.289062 369.804688 76.332031 369.804688 L 26.851562 369.804688 C 19.152344 369.804688 12.886719 363.546875 12.886719 355.855469 L 12.886719 35.4375 C 12.886719 30.800781 15.183594 26.480469 19.03125 23.878906 C 19.050781 23.867188 19.070312 23.855469 19.089844 23.84375 L 19.113281 23.832031 C 19.460938 23.597656 19.820312 23.382812 20.171875 23.1875 L 47.296875 6.757812 C 47.335938 6.734375 47.378906 6.710938 47.421875 6.691406 C 49.621094 5.335938 52.136719 4.617188 54.707031 4.609375 L 91.394531 4.519531 C 91.40625 4.519531 91.417969 4.519531 91.429688 4.519531 C 96.84375 4.519531 101.808594 7.683594 104.09375 12.589844 L 191.558594 200.589844 L 271.105469 29.570312 C 272.257812 27.09375 274.109375 25.027344 276.46875 23.582031 C 276.511719 23.542969 276.5625 23.507812 276.613281 23.476562 L 304.117188 6.835938 C 304.136719 6.820312 304.183594 6.792969 304.230469 6.765625 L 304.679688 6.492188 C 304.757812 6.445312 304.835938 6.410156 304.921875 6.378906 C 307.011719 5.226562 309.335938 4.617188 311.660156 4.617188 L 348.421875 4.617188 C 356.125 4.617188 362.386719 10.875 362.386719 18.5625 L 362.386719 338.976562 C 362.386719 343.695312 360.027344 348.042969 356.070312 350.636719 C 356.027344 350.671875 355.980469 350.703125 355.929688 350.734375 L 328.988281 366.941406 C 326.53125 368.816406 323.609375 369.804688 320.53125 369.804688 L 271.050781 369.804688 C 263.347656 369.804688 257.085938 363.546875 257.085938 355.859375 L 257.085938 281.949219 L 226.3125 345.542969 C 225.109375 348.03125 223.195312 350.085938 220.761719 351.5 C 220.710938 351.542969 220.65625 351.582031 220.597656 351.617188 L 193.351562 368.109375 C 193.3125 368.136719 193.242188 368.179688 193.171875 368.21875 L 192.777344 368.457031 C 192.703125 368.503906 192.621094 368.542969 192.539062 368.570312 C 190.464844 369.707031 188.15625 370.304688 185.847656 370.304688 Z M 116.917969 292.023438 C 117.398438 292.023438 117.847656 292.292969 118.0625 292.738281 L 151.246094 361.324219 C 153.140625 365.238281 157.179688 367.769531 161.535156 367.769531 L 185.847656 367.769531 C 187.792969 367.769531 189.742188 367.246094 191.484375 366.253906 C 191.539062 366.222656 191.59375 366.195312 191.652344 366.175781 L 191.875 366.039062 C 191.917969 366.011719 191.964844 365.988281 192.007812 365.957031 L 219.070312 349.578125 C 219.140625 349.515625 219.214844 349.460938 219.296875 349.414062 C 221.378906 348.25 223.015625 346.53125 224.027344 344.441406 L 257.210938 275.859375 C 257.46875 275.328125 258.058594 275.042969 258.636719 275.175781 C 259.214844 275.304688 259.625 275.820312 259.625 276.410156 L 259.625 355.855469 C 259.625 362.148438 264.75 367.269531 271.050781 367.269531 L 320.53125 367.269531 C 323.078125 367.269531 325.492188 366.4375 327.519531 364.871094 C 327.585938 364.820312 327.652344 364.777344 327.726562 364.742188 L 354.511719 348.625 C 354.535156 348.609375 354.558594 348.59375 354.582031 348.574219 C 357.878906 346.460938 359.847656 342.871094 359.847656 338.976562 L 359.847656 18.5625 C 359.847656 12.269531 354.722656 7.152344 348.421875 7.152344 L 311.660156 7.152344 C 309.699219 7.152344 307.734375 7.6875 305.976562 8.699219 C 305.917969 8.730469 305.855469 8.761719 305.796875 8.785156 L 305.457031 8.988281 L 278.082031 25.554688 C 278.03125 25.59375 277.980469 25.628906 277.925781 25.664062 C 275.929688 26.851562 274.367188 28.574219 273.410156 30.636719 L 192.710938 204.132812 C 192.503906 204.582031 192.054688 204.867188 191.558594 204.867188 C 191.066406 204.867188 190.617188 204.582031 190.410156 204.132812 L 101.789062 13.65625 C 99.921875 9.644531 95.859375 7.054688 91.429688 7.054688 C 91.417969 7.054688 91.410156 7.054688 91.398438 7.054688 L 54.714844 7.144531 C 52.566406 7.152344 50.464844 7.765625 48.636719 8.925781 C 48.585938 8.957031 48.53125 8.988281 48.472656 9.011719 L 21.464844 25.371094 C 21.449219 25.382812 21.429688 25.390625 21.414062 25.402344 C 21.109375 25.566406 20.804688 25.75 20.5 25.953125 C 20.484375 25.964844 20.464844 25.976562 20.449219 25.988281 L 20.429688 25.996094 C 17.296875 28.128906 15.425781 31.65625 15.425781 35.4375 L 15.425781 355.859375 C 15.425781 362.148438 20.550781 367.269531 26.851562 367.269531 L 76.332031 367.269531 C 78.765625 367.269531 81.097656 366.503906 83.074219 365.054688 C 83.105469 365.03125 83.136719 365.007812 83.171875 364.988281 L 109.492188 349.101562 C 109.511719 349.089844 109.535156 349.078125 109.554688 349.066406 C 109.941406 348.863281 110.316406 348.636719 110.667969 348.398438 C 110.683594 348.382812 110.699219 348.371094 110.71875 348.359375 C 113.804688 346.222656 115.648438 342.714844 115.648438 338.976562 L 115.648438 293.289062 C 115.648438 292.699219 116.058594 292.1875 116.636719 292.054688 C 116.730469 292.03125 116.824219 292.023438 116.917969 292.023438 Z M 116.917969 292.023438 " fill-opacity="1" fill-rule="nonzero"/></g><path fill="#ffffff" d="M 89.027344 235.644531 L 89.027344 355.855469 C 89.027344 362.859375 83.34375 368.535156 76.332031 368.535156 L 26.851562 368.535156 C 19.839844 368.535156 14.15625 362.859375 14.15625 355.855469 L 14.15625 35.4375 C 14.15625 28.449219 19.820312 22.777344 26.820312 22.757812 L 63.503906 22.667969 C 68.457031 22.65625 72.964844 25.519531 75.050781 30.003906 L 173.691406 242.023438 L 272.257812 30.101562 C 274.339844 25.628906 278.828125 22.765625 283.769531 22.765625 L 320.53125 22.765625 C 327.542969 22.765625 333.226562 28.441406 333.226562 35.445312 L 333.226562 355.859375 C 333.226562 362.859375 327.542969 368.539062 320.53125 368.539062 L 271.050781 368.539062 C 264.039062 368.539062 258.355469 362.859375 258.355469 355.859375 L 258.355469 235.644531 L 197.277344 361.875 C 195.160156 366.253906 190.71875 369.035156 185.847656 369.035156 L 161.535156 369.035156 C 156.664062 369.035156 152.222656 366.253906 150.105469 361.875 Z M 89.027344 235.644531 " fill-opacity="1" fill-rule="nonzero"/><g clip-path="url(#id2)"><path fill="#52a675" d="M 161.535156 370.304688 C 156.210938 370.304688 151.277344 367.210938 148.960938 362.425781 L 90.296875 241.183594 L 90.296875 355.855469 C 90.296875 363.546875 84.03125 369.804688 76.332031 369.804688 L 26.851562 369.804688 C 19.148438 369.804688 12.886719 363.546875 12.886719 355.855469 L 12.886719 35.4375 C 12.886719 27.765625 19.132812 21.511719 26.816406 21.492188 L 63.5 21.398438 C 63.511719 21.398438 63.523438 21.398438 63.535156 21.398438 C 68.949219 21.398438 73.917969 24.5625 76.203125 29.46875 L 173.691406 239.011719 L 271.105469 29.570312 C 273.386719 24.664062 278.359375 21.496094 283.769531 21.496094 L 320.53125 21.496094 C 328.230469 21.496094 334.496094 27.753906 334.496094 35.445312 L 334.496094 355.859375 C 334.496094 363.546875 328.230469 369.804688 320.53125 369.804688 L 271.046875 369.804688 C 263.347656 369.804688 257.082031 363.546875 257.082031 355.859375 L 257.082031 241.183594 L 198.421875 362.425781 C 196.105469 367.210938 191.171875 370.304688 185.847656 370.304688 Z M 89.027344 234.375 C 89.507812 234.375 89.953125 234.648438 90.171875 235.09375 L 151.246094 361.324219 C 153.140625 365.238281 157.179688 367.769531 161.535156 367.769531 L 185.847656 367.769531 C 190.203125 367.769531 194.242188 365.238281 196.136719 361.320312 L 257.210938 235.09375 C 257.46875 234.5625 258.058594 234.277344 258.636719 234.410156 C 259.214844 234.542969 259.625 235.054688 259.625 235.644531 L 259.625 355.855469 C 259.625 362.148438 264.75 367.269531 271.050781 367.269531 L 320.53125 367.269531 C 326.832031 367.269531 331.957031 362.148438 331.957031 355.855469 L 331.957031 35.445312 C 331.957031 29.152344 326.832031 24.03125 320.53125 24.03125 L 283.769531 24.03125 C 279.34375 24.03125 275.273438 26.625 273.410156 30.636719 L 174.839844 242.554688 C 174.632812 243.003906 174.183594 243.289062 173.691406 243.289062 C 173.195312 243.289062 172.746094 243.003906 172.539062 242.554688 L 73.898438 30.539062 C 72.03125 26.523438 67.964844 23.933594 63.535156 23.933594 C 63.527344 23.933594 63.519531 23.933594 63.507812 23.933594 L 26.824219 24.027344 C 20.539062 24.042969 15.425781 29.160156 15.425781 35.4375 L 15.425781 355.859375 C 15.425781 362.148438 20.550781 367.269531 26.851562 367.269531 L 76.332031 367.269531 C 82.632812 367.269531 87.757812 362.148438 87.757812 355.859375 L 87.757812 235.644531 C 87.757812 235.054688 88.167969 234.542969 88.742188 234.410156 C 88.839844 234.386719 88.933594 234.375 89.027344 234.375 Z M 89.027344 234.375 " fill-opacity="1" fill-rule="nonzero"/></g><path fill="#52a675" d="M 89.027344 355.855469 C 89.027344 360.054688 86.976562 363.765625 83.828125 366.074219 L 110.148438 350.1875 C 110.582031 349.957031 111.003906 349.703125 111.40625 349.425781 L 111.445312 349.402344 L 111.441406 349.402344 C 114.75 347.113281 116.917969 343.300781 116.917969 338.976562 L 116.917969 293.289062 L 89.027344 235.644531 Z M 89.027344 355.855469 " fill-opacity="1" fill-rule="nonzero"/><path fill="#52a675" d="M 83.828125 367.34375 C 83.417969 367.34375 83.015625 367.144531 82.769531 366.777344 C 82.394531 366.214844 82.527344 365.453125 83.074219 365.054688 C 86.050781 362.871094 87.757812 359.519531 87.757812 355.859375 L 87.757812 235.644531 C 87.757812 235.054688 88.167969 234.542969 88.746094 234.410156 C 89.320312 234.277344 89.914062 234.5625 90.171875 235.09375 L 118.0625 292.738281 C 118.144531 292.910156 118.1875 293.097656 118.1875 293.289062 L 118.1875 338.976562 C 118.1875 343.511719 115.972656 347.765625 112.257812 350.378906 C 112.207031 350.417969 112.15625 350.457031 112.101562 350.488281 L 112.09375 350.492188 C 111.675781 350.777344 111.234375 351.046875 110.773438 351.289062 L 84.484375 367.160156 C 84.277344 367.285156 84.050781 367.34375 83.828125 367.34375 Z M 90.296875 241.183594 L 90.296875 355.855469 C 90.296875 357.777344 89.890625 359.660156 89.140625 361.386719 L 109.492188 349.101562 C 109.511719 349.089844 109.535156 349.078125 109.554688 349.066406 C 109.941406 348.859375 110.316406 348.636719 110.667969 348.394531 C 110.683594 348.382812 110.699219 348.371094 110.71875 348.359375 C 113.804688 346.222656 115.648438 342.714844 115.648438 338.976562 L 115.648438 293.582031 Z M 90.296875 241.183594 " fill-opacity="1" fill-rule="nonzero"/><path fill="#52a675" d="M 197.277344 361.875 C 196.238281 364.023438 194.632812 365.785156 192.695312 367.023438 L 219.941406 350.53125 L 219.917969 350.519531 C 222.148438 349.273438 224.015625 347.382812 225.171875 344.992188 L 258.355469 276.410156 L 258.355469 235.644531 Z M 197.277344 361.875 " fill-opacity="1" fill-rule="nonzero"/><path fill="#52a675" d="M 192.695312 368.292969 C 192.273438 368.292969 191.859375 368.082031 191.617188 367.695312 C 191.25 367.105469 191.425781 366.332031 192.011719 365.957031 C 193.792969 364.816406 195.222656 363.210938 196.136719 361.320312 L 257.210938 235.09375 C 257.46875 234.5625 258.054688 234.277344 258.636719 234.410156 C 259.214844 234.542969 259.625 235.054688 259.625 235.644531 L 259.625 276.410156 C 259.625 276.601562 259.578125 276.789062 259.496094 276.960938 L 226.3125 345.542969 C 225.109375 348.03125 223.195312 350.085938 220.761719 351.5 C 220.710938 351.542969 220.65625 351.582031 220.597656 351.617188 L 193.351562 368.109375 C 193.148438 368.234375 192.921875 368.292969 192.695312 368.292969 Z M 197.277344 361.875 L 198.101562 362.269531 Z M 257.085938 241.183594 L 198.660156 361.929688 L 219.070312 349.578125 C 219.140625 349.515625 219.214844 349.460938 219.296875 349.414062 C 221.378906 348.253906 223.015625 346.53125 224.027344 344.441406 L 257.085938 276.121094 Z M 257.085938 241.183594 " fill-opacity="1" fill-rule="nonzero"/><path fill="#52a675" d="M 91.398438 5.785156 L 54.710938 5.878906 C 52.222656 5.882812 49.914062 6.613281 47.957031 7.855469 L 47.953125 7.84375 L 20.808594 24.285156 C 22.59375 23.316406 24.640625 22.765625 26.820312 22.757812 L 63.503906 22.667969 C 66.152344 22.660156 68.65625 23.496094 70.746094 24.941406 L 98.628906 8.050781 C 96.539062 6.613281 94.039062 5.78125 91.398438 5.785156 Z M 91.398438 5.785156 " fill-opacity="1" fill-rule="nonzero"/><g clip-path="url(#id3)"><path fill="#52a675" d="M 70.746094 26.207031 C 70.492188 26.207031 70.238281 26.132812 70.023438 25.980469 C 68.082031 24.644531 65.839844 23.933594 63.535156 23.933594 C 63.527344 23.933594 63.515625 23.933594 63.507812 23.933594 L 26.824219 24.027344 C 24.933594 24.03125 23.0625 24.507812 21.414062 25.402344 C 20.804688 25.730469 20.050781 25.515625 19.707031 24.917969 C 19.363281 24.320312 19.558594 23.558594 20.148438 23.203125 L 47.296875 6.757812 C 47.335938 6.734375 47.378906 6.710938 47.421875 6.691406 C 49.621094 5.335938 52.136719 4.617188 54.707031 4.609375 L 91.394531 4.519531 C 91.40625 4.519531 91.417969 4.519531 91.429688 4.519531 C 94.246094 4.519531 96.984375 5.378906 99.347656 7.007812 C 99.703125 7.253906 99.910156 7.660156 99.898438 8.089844 C 99.882812 8.519531 99.652344 8.914062 99.285156 9.136719 L 71.402344 26.023438 C 71.199219 26.148438 70.972656 26.207031 70.746094 26.207031 Z M 63.535156 21.398438 C 66.085938 21.398438 68.570312 22.101562 70.769531 23.441406 L 96.128906 8.082031 C 94.648438 7.40625 93.054688 7.054688 91.429688 7.054688 C 91.417969 7.054688 91.410156 7.054688 91.402344 7.054688 L 54.714844 7.144531 C 52.566406 7.152344 50.464844 7.765625 48.636719 8.925781 C 48.585938 8.957031 48.53125 8.988281 48.472656 9.011719 L 27.875 21.488281 L 63.5 21.398438 C 63.511719 21.398438 63.523438 21.398438 63.535156 21.398438 Z M 63.535156 21.398438 " fill-opacity="1" fill-rule="nonzero"/></g><path fill="#52a675" d="M 102.941406 13.121094 C 101.96875 11.03125 100.453125 9.3125 98.628906 8.050781 L 70.746094 24.941406 C 72.566406 26.199219 74.078125 27.914062 75.050781 30.003906 L 173.691406 242.023438 L 191.558594 203.601562 Z M 102.941406 13.121094 " fill-opacity="1" fill-rule="nonzero"/><path fill="#52a675" d="M 173.691406 243.289062 C 173.195312 243.289062 172.746094 243.003906 172.539062 242.554688 L 73.898438 30.539062 C 73.054688 28.726562 71.714844 27.152344 70.023438 25.984375 C 69.667969 25.738281 69.464844 25.332031 69.476562 24.902344 C 69.488281 24.472656 69.71875 24.078125 70.085938 23.855469 L 97.96875 6.96875 C 98.398438 6.710938 98.9375 6.722656 99.347656 7.007812 C 101.417969 8.433594 103.058594 10.363281 104.09375 12.589844 L 192.710938 203.066406 C 192.871094 203.40625 192.871094 203.796875 192.710938 204.136719 L 174.839844 242.554688 C 174.632812 243.003906 174.183594 243.289062 173.691406 243.289062 Z M 72.960938 25.082031 C 74.324219 26.324219 75.429688 27.816406 76.199219 29.46875 L 173.691406 239.011719 L 190.160156 203.601562 L 101.789062 13.65625 C 101.058594 12.082031 99.949219 10.683594 98.558594 9.578125 Z M 72.960938 25.082031 " fill-opacity="1" fill-rule="nonzero"/><path fill="#52a675" d="M 348.425781 5.882812 L 311.664062 5.882812 C 309.394531 5.882812 307.230469 6.511719 305.339844 7.597656 L 305.335938 7.578125 L 304.960938 7.804688 C 304.898438 7.84375 304.835938 7.878906 304.773438 7.917969 L 277.273438 24.5625 L 277.277344 24.574219 C 279.207031 23.425781 281.433594 22.765625 283.769531 22.765625 L 320.53125 22.765625 C 323.492188 22.765625 326.210938 23.785156 328.371094 25.484375 L 356.25 8.59375 C 354.09375 6.902344 351.378906 5.882812 348.425781 5.882812 Z M 348.425781 5.882812 " fill-opacity="1" fill-rule="nonzero"/><g clip-path="url(#id4)"><path fill="#52a675" d="M 328.371094 26.75 C 328.089844 26.75 327.8125 26.660156 327.585938 26.480469 C 325.546875 24.878906 323.109375 24.03125 320.53125 24.03125 L 283.769531 24.03125 C 281.738281 24.03125 279.714844 24.597656 277.925781 25.664062 C 277.589844 25.863281 277.175781 25.898438 276.808594 25.753906 C 276.441406 25.605469 276.164062 25.300781 276.054688 24.921875 C 275.898438 24.371094 276.125 23.773438 276.613281 23.476562 L 304.117188 6.835938 C 304.136719 6.820312 304.183594 6.792969 304.230469 6.765625 L 304.679688 6.492188 C 304.757812 6.449219 304.835938 6.410156 304.921875 6.378906 C 307.011719 5.226562 309.335938 4.617188 311.660156 4.617188 L 348.421875 4.617188 C 351.570312 4.617188 354.550781 5.648438 357.035156 7.597656 C 357.363281 7.855469 357.542969 8.257812 357.519531 8.671875 C 357.492188 9.085938 357.265625 9.464844 356.910156 9.679688 L 329.027344 26.566406 C 328.824219 26.691406 328.597656 26.75 328.371094 26.75 Z M 284.785156 21.496094 L 320.53125 21.496094 C 323.386719 21.496094 326.101562 22.34375 328.4375 23.957031 L 353.886719 8.546875 C 352.21875 7.628906 350.359375 7.152344 348.425781 7.152344 L 311.664062 7.152344 C 309.699219 7.152344 307.734375 7.6875 305.976562 8.699219 C 305.917969 8.730469 305.859375 8.757812 305.796875 8.785156 L 305.460938 8.984375 Z M 284.785156 21.496094 " fill-opacity="1" fill-rule="nonzero"/></g><path fill="#52a675" d="M 356.25 8.59375 L 328.371094 25.484375 C 331.324219 27.804688 333.226562 31.398438 333.226562 35.445312 L 333.226562 355.855469 C 333.226562 359.933594 331.292969 363.554688 328.296875 365.875 L 328.300781 365.875 L 355.277344 349.644531 L 355.269531 349.644531 C 358.785156 347.390625 361.121094 343.457031 361.121094 338.976562 L 361.121094 18.5625 C 361.121094 14.515625 359.210938 10.917969 356.25 8.59375 Z M 356.25 8.59375 " fill-opacity="1" fill-rule="nonzero"/><g clip-path="url(#id5)"><path fill="#52a675" d="M 328.300781 367.144531 C 327.972656 367.144531 327.648438 367.015625 327.402344 366.773438 C 327.144531 366.515625 327.007812 366.15625 327.03125 365.792969 C 327.054688 365.429688 327.230469 365.09375 327.519531 364.871094 C 330.339844 362.6875 331.957031 359.402344 331.957031 355.855469 L 331.957031 35.445312 C 331.957031 31.929688 330.363281 28.664062 327.582031 26.480469 C 327.257812 26.222656 327.078125 25.820312 327.101562 25.40625 C 327.128906 24.992188 327.355469 24.613281 327.710938 24.398438 L 355.59375 7.511719 C 356.046875 7.238281 356.621094 7.273438 357.035156 7.597656 C 360.4375 10.265625 362.386719 14.261719 362.386719 18.5625 L 362.386719 338.976562 C 362.386719 343.695312 360.027344 348.042969 356.070312 350.636719 C 356.027344 350.671875 355.980469 350.703125 355.929688 350.734375 L 328.953125 366.960938 C 328.75 367.085938 328.523438 367.144531 328.300781 367.144531 Z M 330.492188 25.679688 C 333.054688 28.277344 334.496094 31.75 334.496094 35.445312 L 334.496094 355.855469 C 334.496094 357.777344 334.109375 359.636719 333.378906 361.339844 L 354.511719 348.625 C 354.535156 348.609375 354.558594 348.59375 354.582031 348.578125 C 357.878906 346.460938 359.847656 342.871094 359.847656 338.976562 L 359.847656 18.5625 C 359.847656 15.335938 358.503906 12.316406 356.128906 10.152344 Z M 330.492188 25.679688 " fill-opacity="1" fill-rule="nonzero"/></g></svg>