<svg xmlns="http://www.w3.org/2000/svg" xmlns:xlink="http://www.w3.org/1999/xlink" width="950" zoomAndPan="magnify" viewBox="0 0 712.5 44.999999" height="60" preserveAspectRatio="xMidYMid meet" version="1.0"><defs><g/><clipPath id="id1"><path d="M 5 0.015625 L 703 0.015625 L 703 42 L 5 42 Z M 5 0.015625 " clip-rule="nonzero"/></clipPath></defs><g fill="#e76f51" fill-opacity="1"><g transform="translate(12.586686, 33.286398)"><g><path d="M 6.753906 -13.273438 C 10.519531 -13.273438 12.535156 -16.613281 11.835938 -18.320312 C 10.984375 -18.320312 10.363281 -19.09375 10.363281 -20.144531 C 10.363281 -22.628906 13.117188 -24.839844 17.699219 -24.839844 C 22.511719 -24.839844 23.753906 -22.820312 27.441406 -22.820312 C 31.632812 -22.820312 33.804688 -25.578125 33.804688 -28.566406 C 33.804688 -29.613281 33.457031 -30.15625 32.292969 -30.15625 C 31.320312 -30.15625 29.960938 -29.730469 27.167969 -29.730469 C 24.488281 -29.730469 22.316406 -30.039062 18.164062 -30.039062 C 7.0625 -30.039062 1.902344 -24.179688 1.902344 -18.667969 C 1.902344 -15.835938 3.570312 -13.273438 6.753906 -13.273438 Z M 5.589844 1.628906 C 10.441406 1.628906 14.59375 -1.589844 17.542969 -8.65625 C 18.980469 -12.070312 20.144531 -15.5625 21.460938 -19.675781 C 21.890625 -20.957031 21.386719 -21.773438 19.675781 -21.773438 C 18.511719 -21.773438 17.660156 -21.269531 17.15625 -19.910156 C 16.496094 -18.242188 15.757812 -16.261719 15.097656 -14.515625 C 13.234375 -9.78125 9.898438 -7.878906 7.492188 -7.878906 C 5.277344 -7.878906 3.804688 -9.042969 3.804688 -10.75 C 3.804688 -11.023438 3.53125 -11.214844 3.222656 -11.214844 C 0.117188 -11.214844 -1.941406 -8.074219 -1.941406 -4.890625 C -1.941406 -1.667969 0.195312 1.628906 5.589844 1.628906 Z M 5.589844 1.628906 "/></g></g></g><g fill="#e76f51" fill-opacity="1"><g transform="translate(34.861413, 33.286398)"><g><path d="M 2.640625 0 C 5.199219 0 5.707031 -2.132812 5.707031 -4.113281 L 5.707031 -5.859375 C 5.707031 -9.316406 7.644531 -12.535156 9.898438 -12.535156 C 10.789062 -12.535156 11.371094 -12.070312 11.371094 -11.179688 C 11.371094 -9.585938 9.546875 -6.984375 9.546875 -4.035156 C 9.546875 -1.863281 10.402344 0 12.964844 0 C 18.203125 0 20.84375 -7.53125 22.082031 -9.664062 C 22.511719 -10.402344 20.957031 -11.566406 20.335938 -10.632812 C 19.5625 -9.46875 18.824219 -8.65625 17.660156 -8.65625 C 16.417969 -8.65625 15.875 -9.277344 15.875 -10.59375 C 15.875 -12.535156 17.117188 -13.777344 17.117188 -15.835938 C 17.117188 -17.777344 15.992188 -19.40625 13.621094 -19.40625 C 11.914062 -19.40625 10.363281 -18.589844 8.925781 -17.195312 C 8.074219 -16.339844 7.453125 -16.496094 7.878906 -18.085938 C 8.34375 -19.910156 9.703125 -22.007812 10.710938 -24.257812 C 11.835938 -26.742188 11.371094 -27.90625 9.78125 -27.90625 C 6.636719 -27.90625 4.851562 -21.96875 0.929688 -10.632812 C 0.15625 -8.421875 -0.386719 -5.976562 -0.386719 -3.996094 C -0.386719 -1.707031 0.386719 0 2.640625 0 Z M 2.640625 0 "/></g></g></g><g fill="#e76f51" fill-opacity="1"><g transform="translate(56.243616, 33.286398)"><g><path d="M 7.296875 0 C 11.796875 0 15.914062 -3.335938 19.328125 -9.664062 C 19.753906 -10.402344 18.203125 -11.566406 17.582031 -10.632812 C 15.835938 -7.957031 12.691406 -6.597656 10.050781 -6.597656 C 7.839844 -6.597656 6.015625 -7.296875 6.015625 -8.65625 C 6.015625 -9.160156 6.402344 -9.277344 6.675781 -9.121094 C 7.566406 -8.617188 8.617188 -8.5 9.703125 -8.5 C 13.507812 -8.5 15.953125 -11.683594 15.953125 -14.515625 C 15.953125 -17.078125 14.359375 -19.40625 10.75 -19.40625 C -0.386719 -19.40625 -3.609375 0 7.296875 0 Z M 8.695312 -11.410156 C 7.453125 -11.410156 6.871094 -12.148438 6.871094 -13 C 6.871094 -14.050781 7.800781 -15.175781 9.316406 -15.175781 C 10.519531 -15.175781 11.101562 -14.4375 11.101562 -13.585938 C 11.101562 -12.613281 10.207031 -11.410156 8.695312 -11.410156 Z M 8.695312 -11.410156 "/></g></g></g><g fill="#e76f51" fill-opacity="1"><g transform="translate(74.870634, 33.286398)"><g/></g></g><g fill="#e76f51" fill-opacity="1"><g transform="translate(90.781273, 33.286398)"><g><path d="M 34.039062 -10.632812 C 33.300781 -9.507812 32.019531 -9.042969 30.855469 -9.042969 C 29.378906 -9.042969 28.875 -10.167969 28.875 -11.761719 C 28.875 -13.234375 29.417969 -15.175781 29.886719 -16.804688 C 30.855469 -19.988281 31.824219 -21.230469 32.601562 -21.230469 C 33.144531 -21.269531 33.535156 -20.84375 34.039062 -20.84375 C 35.667969 -20.84375 36.949219 -22.898438 36.988281 -25.382812 C 36.988281 -27.515625 35.707031 -29.1875 32.988281 -29.1875 C 28.71875 -29.1875 23.636719 -26.351562 17.738281 -15.71875 C 17.386719 -15.097656 17.039062 -14.515625 16.6875 -13.933594 C 15.253906 -15.136719 14.515625 -16.765625 14.515625 -18.746094 C 14.515625 -21.578125 16.261719 -22.316406 17.777344 -22.160156 C 18.359375 -22.082031 18.667969 -22.511719 18.628906 -23.09375 C 18.628906 -24.917969 17.308594 -26.742188 14.359375 -26.742188 C 11.0625 -26.742188 8.113281 -24.488281 8.113281 -20.414062 C 8.113281 -16.535156 10.59375 -13.195312 14.59375 -11.179688 C 12.847656 -9.160156 10.789062 -7.878906 8.382812 -7.878906 C 6.25 -7.878906 4.578125 -9.042969 4.578125 -10.75 C 4.578125 -11.023438 4.308594 -11.214844 3.996094 -11.214844 C 0.894531 -11.214844 -1.164062 -8.074219 -1.164062 -4.890625 C -1.164062 -1.667969 0.96875 1.628906 6.289062 1.628906 C 10.480469 1.628906 14.398438 -2.5625 17.078125 -7.179688 C 17.542969 -7.996094 18.007812 -8.886719 18.472656 -9.703125 C 19.949219 -9.355469 21.539062 -9.121094 23.210938 -9.042969 C 23.015625 -7.839844 22.898438 -6.753906 22.898438 -5.78125 C 22.898438 -2.601562 23.90625 0 26.664062 0 C 31.902344 0 34.542969 -7.53125 35.785156 -9.664062 C 36.210938 -10.402344 34.660156 -11.566406 34.039062 -10.632812 Z M 23.792969 -11.683594 C 22.316406 -11.761719 20.996094 -11.953125 19.871094 -12.304688 C 21.269531 -14.824219 22.664062 -17.269531 24.21875 -19.289062 C 25.34375 -20.609375 25.808594 -20.878906 26.3125 -20.878906 C 26.585938 -20.878906 26.78125 -20.726562 26.78125 -20.335938 C 26.78125 -18.746094 25.34375 -17.117188 23.792969 -11.683594 Z M 23.792969 -11.683594 "/></g></g></g><g fill="#e76f51" fill-opacity="1"><g transform="translate(125.861777, 33.286398)"><g><path d="M 3.300781 0 C 8.539062 0 11.179688 -7.53125 12.417969 -9.664062 C 12.847656 -10.402344 11.292969 -11.566406 10.671875 -10.632812 C 9.859375 -9.390625 8.886719 -8.65625 7.53125 -8.65625 C 5.199219 -8.65625 5.511719 -10.867188 6.171875 -13.117188 C 7.0625 -16.378906 8.578125 -19.949219 10.710938 -24.257812 C 11.914062 -26.703125 11.371094 -27.90625 9.78125 -27.90625 C 6.636719 -27.90625 4.851562 -21.96875 0.929688 -10.632812 C 0.15625 -8.421875 -0.386719 -5.976562 -0.386719 -3.996094 C -0.386719 -1.707031 0.542969 0 3.300781 0 Z M 3.300781 0 "/></g></g></g><g fill="#e76f51" fill-opacity="1"><g transform="translate(137.581438, 33.286398)"><g><path d="M 2.445312 0 C 5.199219 0 5.707031 -2.132812 5.707031 -4.113281 L 5.707031 -5.859375 C 5.707031 -9.316406 7.644531 -12.535156 9.898438 -12.535156 C 10.789062 -12.535156 11.371094 -12.070312 11.371094 -11.023438 C 11.371094 -9.042969 9.429688 -6.402344 9.429688 -3.453125 C 9.429688 -0.894531 10.75 -0.078125 12.535156 -0.078125 C 15.445312 -0.078125 15.992188 -2.210938 15.992188 -3.84375 C 15.992188 -4.96875 15.71875 -5.355469 15.71875 -6.480469 C 15.71875 -9.390625 17.660156 -12.613281 19.910156 -12.613281 C 20.804688 -12.613281 21.386719 -12.148438 21.386719 -11.253906 C 21.386719 -9.664062 19.753906 -7.0625 19.753906 -4.113281 C 19.753906 -1.902344 20.609375 0 23.09375 0 C 28.332031 0 30.972656 -7.53125 32.214844 -9.664062 C 32.640625 -10.402344 31.089844 -11.566406 30.46875 -10.632812 C 29.691406 -9.46875 28.953125 -8.65625 27.789062 -8.65625 C 26.46875 -8.65625 25.886719 -9.316406 25.886719 -10.671875 C 25.886719 -12.613281 27.128906 -13.855469 27.128906 -15.914062 C 27.128906 -17.851562 26.003906 -19.484375 22.976562 -19.484375 C 21.113281 -19.484375 19.445312 -18.589844 17.96875 -16.960938 C 17.386719 -16.300781 17.117188 -16.457031 17 -16.960938 C 16.613281 -18.359375 15.523438 -19.40625 13.621094 -19.40625 C 11.914062 -19.40625 10.363281 -18.589844 8.925781 -17.195312 C 7.683594 -15.953125 6.832031 -16.613281 6.832031 -17.929688 C 6.832031 -18.707031 6.519531 -19.40625 5.628906 -19.40625 C 4.074219 -19.40625 2.484375 -15.410156 0.894531 -10.632812 C -0.195312 -7.453125 -0.386719 -4.65625 -0.386719 -2.832031 C -0.386719 -1.203125 0.621094 0 2.445312 0 Z M 2.445312 0 "/></g></g></g><g fill="#e76f51" fill-opacity="1"><g transform="translate(169.091848, 33.286398)"><g><path d="M 19.367188 -10.632812 C 18.433594 -9.277344 17.386719 -8.734375 16.261719 -8.734375 L 15.992188 -8.734375 C 16.378906 -10.011719 16.574219 -11.371094 16.574219 -12.730469 C 16.574219 -17.621094 14.089844 -19.40625 10.90625 -19.40625 C 4.734375 -19.40625 0.234375 -12.34375 0.234375 -6.519531 C 0.234375 -2.484375 2.753906 0 6.25 0 C 9.160156 0 11.914062 -1.707031 13.855469 -4.347656 L 14.320312 -4.347656 C 18.085938 -4.347656 19.988281 -7.296875 21.113281 -9.664062 C 21.539062 -10.558594 19.832031 -11.292969 19.367188 -10.632812 Z M 8.460938 -8.035156 C 6.984375 -8.035156 6.441406 -9.003906 6.441406 -10.128906 C 6.441406 -11.835938 7.722656 -13.738281 9.625 -13.738281 C 11.140625 -13.738281 11.761719 -12.808594 11.761719 -11.683594 C 11.761719 -10.050781 10.402344 -8.035156 8.460938 -8.035156 Z M 8.460938 -8.035156 "/></g></g></g><g fill="#e76f51" fill-opacity="1"><g transform="translate(189.503912, 33.286398)"><g><path d="M 15.953125 -10.632812 C 15.175781 -9.46875 14.359375 -8.617188 13.195312 -8.578125 C 12.691406 -10.984375 10.632812 -14.089844 10.632812 -14.824219 C 10.632812 -16.378906 13.46875 -16.496094 13.429688 -17.738281 C 13.46875 -18.980469 12.304688 -20.375 9.898438 -20.375 C 6.558594 -20.375 3.804688 -14.59375 1.046875 -10.867188 L 0.894531 -10.632812 C -1.4375 -6.753906 -0.621094 -0.0390625 6.210938 -0.0390625 C 13.429688 -0.0390625 16.613281 -7.414062 17.699219 -9.664062 C 18.046875 -10.402344 16.574219 -11.566406 15.953125 -10.632812 Z M 4.8125 -8.035156 C 3.53125 -8.035156 2.640625 -8.734375 2.640625 -9.664062 C 3.53125 -10.789062 4.734375 -12.382812 5.707031 -13.816406 C 6.054688 -14.320312 6.363281 -14.320312 6.636719 -13.816406 C 7.179688 -12.769531 7.492188 -11.796875 7.492188 -10.867188 C 7.492188 -9.277344 6.519531 -8.035156 4.8125 -8.035156 Z M 4.8125 -8.035156 "/></g></g></g><g fill="#e76f51" fill-opacity="1"><g transform="translate(206.462293, 33.286398)"><g><path d="M 3.921875 0 C 9.507812 0 12.496094 -7.453125 13.660156 -9.664062 C 14.050781 -10.402344 12.535156 -11.527344 11.914062 -10.632812 C 11.140625 -9.429688 9.898438 -8.695312 8.34375 -8.695312 C 6.054688 -8.695312 4.851562 -10.402344 5.667969 -13.117188 C 6.402344 -15.71875 6.636719 -15.796875 10.246094 -15.796875 C 11.796875 -15.796875 12.265625 -19.367188 11.214844 -19.367188 L 9.199219 -19.367188 C 8.460938 -19.367188 8.578125 -20.027344 9.160156 -21.269531 C 10.363281 -23.714844 9.859375 -24.917969 8.421875 -24.917969 C 7.453125 -24.917969 6.597656 -24.566406 5.667969 -22.316406 C 5.125 -20.917969 3.882812 -19.367188 1.628906 -19.367188 C 0.738281 -19.367188 0.777344 -16.378906 3.027344 -16.378906 C 2.058594 -13.699219 1.203125 -11.410156 0.542969 -9.46875 C -1.203125 -4.503906 -0.425781 0 3.921875 0 Z M 3.921875 0 "/></g></g></g><g fill="#e76f51" fill-opacity="1"><g transform="translate(219.423733, 33.286398)"><g/></g></g><g fill="#e76f51" fill-opacity="1"><g transform="translate(235.334372, 33.286398)"><g><path d="M 4.734375 1.628906 C 10.285156 1.628906 14.710938 -3.375 17.15625 -9.972656 C 17.347656 -10.558594 17.582031 -10.867188 18.164062 -10.867188 C 20.066406 -10.867188 19.910156 -7.179688 20.105469 -4.96875 C 20.375 -1.4375 22.082031 0 24.257812 0 C 28.332031 0 32.136719 -4.96875 34.117188 -9.664062 C 34.425781 -10.441406 32.988281 -11.566406 32.367188 -10.632812 C 31.320312 -9.082031 30.351562 -8.035156 28.605469 -8.035156 C 27.089844 -8.035156 26.429688 -8.808594 25.847656 -9.859375 C 25.035156 -11.332031 24.296875 -11.179688 24.296875 -11.683594 C 24.296875 -11.953125 24.566406 -12.148438 25.65625 -12.304688 C 29.496094 -12.925781 31.824219 -16.183594 31.824219 -20.492188 C 31.824219 -25.730469 27.828125 -28.875 19.328125 -28.875 C 8.808594 -28.875 2.289062 -22.628906 2.289062 -17.117188 C 2.289062 -14.28125 3.957031 -11.722656 7.140625 -11.722656 C 10.90625 -11.722656 12.925781 -15.058594 12.226562 -16.765625 C 11.371094 -16.765625 10.75 -17.542969 10.75 -18.589844 C 10.75 -21.074219 13.507812 -23.675781 18.628906 -23.675781 C 22.589844 -23.675781 25.5 -22.511719 25.5 -19.367188 C 25.5 -16.613281 23.324219 -14.515625 20.917969 -14.515625 C 19.988281 -14.515625 19.367188 -14.632812 19.445312 -15.5625 C 19.5625 -16.496094 19.949219 -17.777344 20.609375 -19.675781 C 20.996094 -20.957031 20.53125 -21.773438 18.902344 -21.773438 C 17.738281 -21.773438 16.882812 -21.269531 16.378906 -19.910156 C 15.71875 -18.242188 14.980469 -16.261719 14.320312 -14.515625 C 12.03125 -9.46875 9.585938 -7.878906 7.453125 -7.878906 C 5.628906 -7.878906 4.191406 -9.042969 4.191406 -10.75 C 4.191406 -11.023438 3.921875 -11.214844 3.609375 -11.214844 C 0.503906 -11.214844 -1.550781 -8.074219 -1.550781 -4.890625 C -1.550781 -1.667969 0.234375 1.628906 4.734375 1.628906 Z M 4.734375 1.628906 "/></g></g></g><g fill="#e76f51" fill-opacity="1"><g transform="translate(268.746251, 33.286398)"><g><path d="M 7.296875 0 C 11.796875 0 15.914062 -3.335938 19.328125 -9.664062 C 19.753906 -10.402344 18.203125 -11.566406 17.582031 -10.632812 C 15.835938 -7.957031 12.691406 -6.597656 10.050781 -6.597656 C 7.839844 -6.597656 6.015625 -7.296875 6.015625 -8.65625 C 6.015625 -9.160156 6.402344 -9.277344 6.675781 -9.121094 C 7.566406 -8.617188 8.617188 -8.5 9.703125 -8.5 C 13.507812 -8.5 15.953125 -11.683594 15.953125 -14.515625 C 15.953125 -17.078125 14.359375 -19.40625 10.75 -19.40625 C -0.386719 -19.40625 -3.609375 0 7.296875 0 Z M 8.695312 -11.410156 C 7.453125 -11.410156 6.871094 -12.148438 6.871094 -13 C 6.871094 -14.050781 7.800781 -15.175781 9.316406 -15.175781 C 10.519531 -15.175781 11.101562 -14.4375 11.101562 -13.585938 C 11.101562 -12.613281 10.207031 -11.410156 8.695312 -11.410156 Z M 8.695312 -11.410156 "/></g></g></g><g fill="#e76f51" fill-opacity="1"><g transform="translate(287.373269, 33.286398)"><g><path d="M 3.921875 0 C 9.507812 0 12.496094 -7.453125 13.660156 -9.664062 C 14.050781 -10.402344 12.535156 -11.527344 11.914062 -10.632812 C 11.140625 -9.429688 9.898438 -8.695312 8.34375 -8.695312 C 6.054688 -8.695312 4.851562 -10.402344 5.667969 -13.117188 C 6.402344 -15.71875 6.636719 -15.796875 10.246094 -15.796875 C 11.796875 -15.796875 12.265625 -19.367188 11.214844 -19.367188 L 9.199219 -19.367188 C 8.460938 -19.367188 8.578125 -20.027344 9.160156 -21.269531 C 10.363281 -23.714844 9.859375 -24.917969 8.421875 -24.917969 C 7.453125 -24.917969 6.597656 -24.566406 5.667969 -22.316406 C 5.125 -20.917969 3.882812 -19.367188 1.628906 -19.367188 C 0.738281 -19.367188 0.777344 -16.378906 3.027344 -16.378906 C 2.058594 -13.699219 1.203125 -11.410156 0.542969 -9.46875 C -1.203125 -4.503906 -0.425781 0 3.921875 0 Z M 3.921875 0 "/></g></g></g><g fill="#e76f51" fill-opacity="1"><g transform="translate(300.334685, 33.286398)"><g><path d="M 16.222656 -10.632812 C 15.445312 -9.46875 14.710938 -8.65625 13.546875 -8.65625 C 11.796875 -8.65625 11.140625 -9.46875 11.140625 -10.558594 C 11.140625 -12.964844 12.808594 -14.59375 12.808594 -16.804688 C 12.808594 -18.902344 9.082031 -21.386719 5.433594 -21.386719 C 3.335938 -21.386719 1.980469 -19.484375 1.980469 -17.890625 C 1.980469 -16.496094 2.484375 -15.992188 3.261719 -15.71875 C 2.601562 -13.933594 1.628906 -11.683594 0.894531 -10.632812 C 0.386719 -9.898438 2.132812 -8.65625 2.640625 -9.664062 C 3.261719 -10.945312 4.539062 -13.585938 5.238281 -15.136719 C 6.792969 -14.554688 7.296875 -13.585938 7.296875 -13.195312 C 7.296875 -11.332031 4.578125 -7.683594 4.578125 -4.074219 C 4.578125 -2.097656 5.667969 0 8.847656 0 C 14.089844 0 16.726562 -7.53125 17.96875 -9.664062 C 18.398438 -10.402344 16.84375 -11.566406 16.222656 -10.632812 Z M 16.222656 -10.632812 "/></g></g></g><g fill="#e76f51" fill-opacity="1"><g transform="translate(317.603502, 33.286398)"><g><path d="M 19.367188 -10.632812 C 18.433594 -9.277344 17.386719 -8.734375 16.261719 -8.734375 L 15.992188 -8.734375 C 16.378906 -10.011719 16.574219 -11.371094 16.574219 -12.730469 C 16.574219 -17.621094 14.089844 -19.40625 10.90625 -19.40625 C 4.734375 -19.40625 0.234375 -12.34375 0.234375 -6.519531 C 0.234375 -2.484375 2.753906 0 6.25 0 C 9.160156 0 11.914062 -1.707031 13.855469 -4.347656 L 14.320312 -4.347656 C 18.085938 -4.347656 19.988281 -7.296875 21.113281 -9.664062 C 21.539062 -10.558594 19.832031 -11.292969 19.367188 -10.632812 Z M 8.460938 -8.035156 C 6.984375 -8.035156 6.441406 -9.003906 6.441406 -10.128906 C 6.441406 -11.835938 7.722656 -13.738281 9.625 -13.738281 C 11.140625 -13.738281 11.761719 -12.808594 11.761719 -11.683594 C 11.761719 -10.050781 10.402344 -8.035156 8.460938 -8.035156 Z M 8.460938 -8.035156 "/></g></g></g><g fill="#e76f51" fill-opacity="1"><g transform="translate(338.015567, 33.286398)"><g/></g></g><g fill="#e76f51" fill-opacity="1"><g transform="translate(353.926206, 33.286398)"><g><path d="M 41.023438 -10.632812 C 40.171875 -9.355469 39.003906 -8.65625 37.839844 -8.65625 C 36.09375 -8.65625 35.472656 -9.78125 35.472656 -11.371094 C 35.472656 -13.738281 36.753906 -20.414062 38.695312 -20.414062 C 39.199219 -20.414062 39.550781 -19.988281 40.132812 -19.988281 C 41.488281 -19.988281 43.003906 -22.550781 43.003906 -24.878906 C 43.003906 -26.972656 41.878906 -28.875 38.890625 -28.875 C 34.582031 -28.875 29.691406 -23.675781 27.128906 -18.28125 C 26.46875 -24.722656 22.742188 -28.875 15.992188 -28.875 C 8.1875 -28.875 3.183594 -23.636719 3.183594 -17.777344 C 3.183594 -14.128906 5.433594 -11.722656 8.5 -11.722656 C 11.953125 -11.722656 13.816406 -14.789062 13.117188 -16.378906 C 11.992188 -16.378906 11.140625 -17.425781 11.140625 -18.785156 C 11.140625 -21.230469 12.847656 -22.664062 14.710938 -22.664062 C 16.378906 -22.664062 17.386719 -21.539062 17.386719 -19.484375 C 17.386719 -15.292969 13.390625 -7.878906 7.957031 -7.878906 C 5.707031 -7.878906 4.035156 -9.042969 4.035156 -10.75 C 4.035156 -11.023438 3.765625 -11.214844 3.453125 -11.214844 C 0.347656 -11.214844 -1.707031 -8.074219 -1.707031 -4.890625 C -1.707031 -1.667969 0.503906 1.628906 5.007812 1.628906 C 11.605469 1.628906 17.425781 -3.261719 19.988281 -15.875 C 20.144531 -16.613281 20.53125 -16.960938 21.074219 -16.960938 C 21.578125 -16.960938 22.007812 -16.613281 22.007812 -15.097656 C 22.007812 -11.527344 19.753906 -7.179688 19.753906 -4.308594 C 19.753906 -2.71875 20.375 -1.863281 22.820312 -1.863281 C 24.101562 -1.863281 25.5 -2.367188 26.199219 -5.046875 C 28.71875 -14.863281 29.921875 -16.84375 31.28125 -16.84375 C 31.746094 -16.84375 32.019531 -16.574219 32.019531 -15.992188 C 32.019531 -14.4375 29.304688 -10.089844 29.304688 -5.667969 C 29.304688 -2.132812 30.777344 0 33.648438 0 C 38.890625 0 41.527344 -7.53125 42.769531 -9.664062 C 42.421875 -10.402344 41.566406 -11.449219 41.023438 -10.632812 Z M 41.023438 -10.632812 "/></g></g></g><g fill="#e76f51" fill-opacity="1"><g transform="translate(395.99168, 33.286398)"><g><path d="M 4.113281 0 C 6.871094 0 9.199219 -2.523438 10.75 -5.667969 L 10.90625 -5.667969 C 10.441406 -2.445312 11.566406 0 14.242188 0 C 18.550781 0 20.6875 -6.054688 22.589844 -9.664062 C 22.976562 -10.402344 21.425781 -11.566406 20.84375 -10.632812 C 20.066406 -9.390625 19.09375 -8.65625 17.777344 -8.65625 C 16.066406 -8.65625 15.640625 -10.207031 16.960938 -13.039062 C 17.816406 -15.292969 18.824219 -16.496094 18.824219 -17.96875 C 18.824219 -18.824219 18.472656 -19.40625 17.464844 -19.40625 C 15.640625 -19.40625 15.371094 -17.929688 14.089844 -17.929688 C 13.078125 -17.929688 13.234375 -19.40625 10.128906 -19.40625 C 3.453125 -19.40625 0.117188 -11.253906 0.117188 -5.859375 C 0.117188 -2.40625 1.476562 0 4.113281 0 Z M 7.996094 -8.035156 C 6.792969 -8.035156 6.054688 -8.808594 6.054688 -10.128906 C 6.054688 -11.835938 7.335938 -13.738281 9.355469 -13.738281 C 10.59375 -13.738281 11.371094 -12.964844 11.371094 -11.683594 C 11.371094 -10.050781 10.011719 -8.035156 7.996094 -8.035156 Z M 7.996094 -8.035156 "/></g></g></g><g fill="#e76f51" fill-opacity="1"><g transform="translate(417.878379, 33.286398)"><g><path d="M 3.921875 0 C 9.507812 0 12.496094 -7.453125 13.660156 -9.664062 C 14.050781 -10.402344 12.535156 -11.527344 11.914062 -10.632812 C 11.140625 -9.429688 9.898438 -8.695312 8.34375 -8.695312 C 6.054688 -8.695312 4.851562 -10.402344 5.667969 -13.117188 C 6.402344 -15.71875 6.636719 -15.796875 10.246094 -15.796875 C 11.796875 -15.796875 12.265625 -19.367188 11.214844 -19.367188 L 9.199219 -19.367188 C 8.460938 -19.367188 8.578125 -20.027344 9.160156 -21.269531 C 10.363281 -23.714844 9.859375 -24.917969 8.421875 -24.917969 C 7.453125 -24.917969 6.597656 -24.566406 5.667969 -22.316406 C 5.125 -20.917969 3.882812 -19.367188 1.628906 -19.367188 C 0.738281 -19.367188 0.777344 -16.378906 3.027344 -16.378906 C 2.058594 -13.699219 1.203125 -11.410156 0.542969 -9.46875 C -1.203125 -4.503906 -0.425781 0 3.921875 0 Z M 3.921875 0 "/></g></g></g><g fill="#e76f51" fill-opacity="1"><g transform="translate(430.839795, 33.286398)"><g><path d="M 6.832031 0 C 11.371094 0 15.523438 -3.335938 18.941406 -9.664062 C 19.367188 -10.402344 17.816406 -11.566406 17.195312 -10.632812 C 13.546875 -5.355469 5.898438 -5.667969 5.898438 -10.867188 C 5.898438 -12.808594 6.910156 -14.632812 8.65625 -14.632812 C 9.820312 -14.632812 10.246094 -13.972656 10.246094 -13.273438 C 10.246094 -11.875 9.355469 -11.722656 9.355469 -11.0625 C 9.355469 -10.558594 10.011719 -9.972656 11.371094 -9.972656 C 13.039062 -9.972656 15.332031 -11.292969 15.332031 -14.632812 C 15.332031 -17.15625 13.699219 -19.40625 9.972656 -19.40625 C 3.84375 -19.40625 0.117188 -13 0.117188 -7.566406 C 0.117188 -3.53125 2.171875 0 6.832031 0 Z M 6.832031 0 "/></g></g></g><g fill="#e76f51" fill-opacity="1"><g transform="translate(449.078738, 33.286398)"><g><path d="M 2.640625 0 C 5.199219 0 5.707031 -2.132812 5.707031 -4.113281 L 5.707031 -5.859375 C 5.707031 -9.316406 7.644531 -12.535156 9.898438 -12.535156 C 10.789062 -12.535156 11.371094 -12.070312 11.371094 -11.179688 C 11.371094 -9.585938 9.546875 -6.984375 9.546875 -4.035156 C 9.546875 -1.863281 10.402344 0 12.964844 0 C 18.203125 0 20.84375 -7.53125 22.082031 -9.664062 C 22.511719 -10.402344 20.957031 -11.566406 20.335938 -10.632812 C 19.5625 -9.46875 18.824219 -8.65625 17.660156 -8.65625 C 16.417969 -8.65625 15.875 -9.277344 15.875 -10.59375 C 15.875 -12.535156 17.117188 -13.777344 17.117188 -15.835938 C 17.117188 -17.777344 15.992188 -19.40625 13.621094 -19.40625 C 11.914062 -19.40625 10.363281 -18.589844 8.925781 -17.195312 C 8.074219 -16.339844 7.453125 -16.496094 7.878906 -18.085938 C 8.34375 -19.910156 9.703125 -22.007812 10.710938 -24.257812 C 11.835938 -26.742188 11.371094 -27.90625 9.78125 -27.90625 C 6.636719 -27.90625 4.851562 -21.96875 0.929688 -10.632812 C 0.15625 -8.421875 -0.386719 -5.976562 -0.386719 -3.996094 C -0.386719 -1.707031 0.386719 0 2.640625 0 Z M 2.640625 0 "/></g></g></g><g fill="#e76f51" fill-opacity="1"><g transform="translate(470.460929, 33.286398)"><g/></g></g><g fill="#e76f51" fill-opacity="1"><g transform="translate(486.371568, 33.286398)"><g><path d="M 10.90625 0.464844 C 16.882812 0.464844 20.957031 -3.105469 24.21875 -9.664062 C 24.605469 -10.402344 23.09375 -11.566406 22.472656 -10.632812 C 21.152344 -8.695312 18.320312 -8.113281 15.914062 -8.113281 C 10.789062 -8.113281 8.304688 -10.984375 8.304688 -14.476562 C 8.304688 -18.320312 10.984375 -22.046875 14.515625 -22.046875 C 16.6875 -22.046875 17.621094 -20.453125 15.601562 -16.613281 C 15.175781 -15.757812 15.796875 -15.019531 16.882812 -15.019531 C 19.753906 -15.019531 23.832031 -18.359375 23.832031 -22.898438 C 23.832031 -26.238281 21.386719 -28.449219 16.457031 -28.449219 C 8.460938 -28.449219 1.28125 -20.105469 1.28125 -10.671875 C 1.28125 -2.910156 5.394531 0.464844 10.90625 0.464844 Z M 10.90625 0.464844 "/></g></g></g><g fill="#e76f51" fill-opacity="1"><g transform="translate(509.888085, 33.286398)"><g><path d="M 4.113281 0 C 6.871094 0 9.199219 -2.523438 10.75 -5.667969 L 10.90625 -5.667969 C 10.441406 -2.445312 11.566406 0 14.242188 0 C 18.550781 0 20.6875 -6.054688 22.589844 -9.664062 C 22.976562 -10.402344 21.425781 -11.566406 20.84375 -10.632812 C 20.066406 -9.390625 19.09375 -8.65625 17.777344 -8.65625 C 16.066406 -8.65625 15.640625 -10.207031 16.960938 -13.039062 C 17.816406 -15.292969 18.824219 -16.496094 18.824219 -17.96875 C 18.824219 -18.824219 18.472656 -19.40625 17.464844 -19.40625 C 15.640625 -19.40625 15.371094 -17.929688 14.089844 -17.929688 C 13.078125 -17.929688 13.234375 -19.40625 10.128906 -19.40625 C 3.453125 -19.40625 0.117188 -11.253906 0.117188 -5.859375 C 0.117188 -2.40625 1.476562 0 4.113281 0 Z M 7.996094 -8.035156 C 6.792969 -8.035156 6.054688 -8.808594 6.054688 -10.128906 C 6.054688 -11.835938 7.335938 -13.738281 9.355469 -13.738281 C 10.59375 -13.738281 11.371094 -12.964844 11.371094 -11.683594 C 11.371094 -10.050781 10.011719 -8.035156 7.996094 -8.035156 Z M 7.996094 -8.035156 "/></g></g></g><g fill="#e76f51" fill-opacity="1"><g transform="translate(531.774761, 33.286398)"><g><path d="M 16.222656 -10.632812 C 15.445312 -9.46875 14.710938 -8.65625 13.546875 -8.65625 C 11.796875 -8.65625 11.140625 -9.46875 11.140625 -10.558594 C 11.140625 -12.964844 12.808594 -14.59375 12.808594 -16.804688 C 12.808594 -18.902344 9.082031 -21.386719 5.433594 -21.386719 C 3.335938 -21.386719 1.980469 -19.484375 1.980469 -17.890625 C 1.980469 -16.496094 2.484375 -15.992188 3.261719 -15.71875 C 2.601562 -13.933594 1.628906 -11.683594 0.894531 -10.632812 C 0.386719 -9.898438 2.132812 -8.65625 2.640625 -9.664062 C 3.261719 -10.945312 4.539062 -13.585938 5.238281 -15.136719 C 6.792969 -14.554688 7.296875 -13.585938 7.296875 -13.195312 C 7.296875 -11.332031 4.578125 -7.683594 4.578125 -4.074219 C 4.578125 -2.097656 5.667969 0 8.847656 0 C 14.089844 0 16.726562 -7.53125 17.96875 -9.664062 C 18.398438 -10.402344 16.84375 -11.566406 16.222656 -10.632812 Z M 16.222656 -10.632812 "/></g></g></g><g fill="#e76f51" fill-opacity="1"><g transform="translate(549.043578, 33.286398)"><g><path d="M 4.539062 0 C 6.910156 0 9.160156 -2.523438 10.75 -5.667969 L 10.90625 -5.667969 C 10.480469 -2.445312 11.761719 0 14.242188 0 C 18.550781 0 20.6875 -6.054688 22.589844 -9.664062 C 22.976562 -10.402344 21.425781 -11.566406 20.84375 -10.632812 C 20.066406 -9.390625 19.09375 -8.65625 17.777344 -8.65625 C 16.066406 -8.65625 15.640625 -10.207031 16.960938 -13.039062 L 21.347656 -24.257812 C 22.355469 -26.46875 21.8125 -27.90625 20.453125 -27.90625 C 19.289062 -27.90625 17.851562 -27.246094 16.378906 -23.675781 C 14.710938 -19.675781 14.710938 -17.542969 14.089844 -17.542969 C 13.078125 -17.542969 13.234375 -19.40625 10.128906 -19.40625 C 3.453125 -19.40625 0.117188 -11.253906 0.117188 -5.511719 C 0.117188 -2.40625 1.476562 0 4.539062 0 Z M 8.074219 -8.035156 C 6.597656 -8.035156 6.054688 -9.003906 6.054688 -10.128906 C 6.054688 -11.835938 7.335938 -13.738281 9.238281 -13.738281 C 10.75 -13.738281 11.371094 -12.808594 11.371094 -11.683594 C 11.371094 -10.050781 10.011719 -8.035156 8.074219 -8.035156 Z M 8.074219 -8.035156 "/></g></g></g><g fill="#e76f51" fill-opacity="1"><g transform="translate(570.930254, 33.286398)"><g><path d="M 15.953125 -10.632812 C 15.175781 -9.46875 14.359375 -8.617188 13.195312 -8.578125 C 12.691406 -10.984375 10.632812 -14.089844 10.632812 -14.824219 C 10.632812 -16.378906 13.46875 -16.496094 13.429688 -17.738281 C 13.46875 -18.980469 12.304688 -20.375 9.898438 -20.375 C 6.558594 -20.375 3.804688 -14.59375 1.046875 -10.867188 L 0.894531 -10.632812 C -1.4375 -6.753906 -0.621094 -0.0390625 6.210938 -0.0390625 C 13.429688 -0.0390625 16.613281 -7.414062 17.699219 -9.664062 C 18.046875 -10.402344 16.574219 -11.566406 15.953125 -10.632812 Z M 4.8125 -8.035156 C 3.53125 -8.035156 2.640625 -8.734375 2.640625 -9.664062 C 3.53125 -10.789062 4.734375 -12.382812 5.707031 -13.816406 C 6.054688 -14.320312 6.363281 -14.320312 6.636719 -13.816406 C 7.179688 -12.769531 7.492188 -11.796875 7.492188 -10.867188 C 7.492188 -9.277344 6.519531 -8.035156 4.8125 -8.035156 Z M 4.8125 -8.035156 "/></g></g></g><g fill="#e76f51" fill-opacity="1"><g transform="translate(587.888611, 33.286398)"><g/></g></g><g fill="#e76f51" fill-opacity="1"><g transform="translate(603.79925, 33.286398)"><g><path d="M 6.132812 3.609375 C 11.953125 3.609375 16.613281 -0.386719 18.511719 -6.09375 C 19.484375 -9.003906 20.296875 -11.214844 21.035156 -14.28125 C 21.269531 -15.332031 19.714844 -16.222656 18.746094 -15.136719 C 17.699219 -13.933594 16.339844 -13.546875 14.980469 -13.546875 C 12.535156 -13.546875 11.140625 -15.175781 11.140625 -17.425781 C 11.140625 -19.910156 13.15625 -22.355469 15.875 -22.355469 C 17.96875 -22.355469 18.359375 -20.570312 17.660156 -18.980469 C 17.347656 -18.320312 18.242188 -17.851562 19.019531 -17.851562 C 21.851562 -17.851562 24.683594 -19.832031 24.683594 -23.441406 C 24.683594 -26.664062 22.589844 -28.953125 18.433594 -28.953125 C 10.867188 -28.953125 4.152344 -21.617188 4.152344 -13.46875 C 4.152344 -8.539062 6.441406 -5.859375 9.507812 -5.859375 C 11.292969 -5.859375 12.769531 -6.714844 13.855469 -8.152344 C 14.203125 -8.578125 14.632812 -8.074219 14.398438 -7.566406 C 13.273438 -5.199219 11.332031 -3.765625 8.5 -3.765625 C 5.085938 -3.765625 2.367188 -5.78125 2.367188 -8.769531 C 2.367188 -9.042969 2.097656 -9.238281 1.785156 -9.238281 C -0.816406 -9.238281 -2.523438 -6.714844 -2.523438 -3.6875 C -2.523438 0.347656 0.816406 3.609375 6.132812 3.609375 Z M 6.132812 3.609375 "/></g></g></g><g fill="#e76f51" fill-opacity="1"><g transform="translate(627.199332, 33.286398)"><g><path d="M 4.113281 0 C 6.871094 0 9.199219 -2.523438 10.75 -5.667969 L 10.90625 -5.667969 C 10.441406 -2.445312 11.566406 0 14.242188 0 C 18.550781 0 20.6875 -6.054688 22.589844 -9.664062 C 22.976562 -10.402344 21.425781 -11.566406 20.84375 -10.632812 C 20.066406 -9.390625 19.09375 -8.65625 17.777344 -8.65625 C 16.066406 -8.65625 15.640625 -10.207031 16.960938 -13.039062 C 17.816406 -15.292969 18.824219 -16.496094 18.824219 -17.96875 C 18.824219 -18.824219 18.472656 -19.40625 17.464844 -19.40625 C 15.640625 -19.40625 15.371094 -17.929688 14.089844 -17.929688 C 13.078125 -17.929688 13.234375 -19.40625 10.128906 -19.40625 C 3.453125 -19.40625 0.117188 -11.253906 0.117188 -5.859375 C 0.117188 -2.40625 1.476562 0 4.113281 0 Z M 7.996094 -8.035156 C 6.792969 -8.035156 6.054688 -8.808594 6.054688 -10.128906 C 6.054688 -11.835938 7.335938 -13.738281 9.355469 -13.738281 C 10.59375 -13.738281 11.371094 -12.964844 11.371094 -11.683594 C 11.371094 -10.050781 10.011719 -8.035156 7.996094 -8.035156 Z M 7.996094 -8.035156 "/></g></g></g><g fill="#e76f51" fill-opacity="1"><g transform="translate(649.086008, 33.286398)"><g><path d="M 2.445312 0 C 5.199219 0 5.707031 -2.132812 5.707031 -4.113281 L 5.707031 -5.859375 C 5.707031 -9.316406 7.644531 -12.535156 9.898438 -12.535156 C 10.789062 -12.535156 11.371094 -12.070312 11.371094 -11.023438 C 11.371094 -9.042969 9.429688 -6.402344 9.429688 -3.453125 C 9.429688 -0.894531 10.75 -0.078125 12.535156 -0.078125 C 15.445312 -0.078125 15.992188 -2.210938 15.992188 -3.84375 C 15.992188 -4.96875 15.71875 -5.355469 15.71875 -6.480469 C 15.71875 -9.390625 17.660156 -12.613281 19.910156 -12.613281 C 20.804688 -12.613281 21.386719 -12.148438 21.386719 -11.253906 C 21.386719 -9.664062 19.753906 -7.0625 19.753906 -4.113281 C 19.753906 -1.902344 20.609375 0 23.09375 0 C 28.332031 0 30.972656 -7.53125 32.214844 -9.664062 C 32.640625 -10.402344 31.089844 -11.566406 30.46875 -10.632812 C 29.691406 -9.46875 28.953125 -8.65625 27.789062 -8.65625 C 26.46875 -8.65625 25.886719 -9.316406 25.886719 -10.671875 C 25.886719 -12.613281 27.128906 -13.855469 27.128906 -15.914062 C 27.128906 -17.851562 26.003906 -19.484375 22.976562 -19.484375 C 21.113281 -19.484375 19.445312 -18.589844 17.96875 -16.960938 C 17.386719 -16.300781 17.117188 -16.457031 17 -16.960938 C 16.613281 -18.359375 15.523438 -19.40625 13.621094 -19.40625 C 11.914062 -19.40625 10.363281 -18.589844 8.925781 -17.195312 C 7.683594 -15.953125 6.832031 -16.613281 6.832031 -17.929688 C 6.832031 -18.707031 6.519531 -19.40625 5.628906 -19.40625 C 4.074219 -19.40625 2.484375 -15.410156 0.894531 -10.632812 C -0.195312 -7.453125 -0.386719 -4.65625 -0.386719 -2.832031 C -0.386719 -1.203125 0.621094 0 2.445312 0 Z M 2.445312 0 "/></g></g></g><g fill="#e76f51" fill-opacity="1"><g transform="translate(680.596406, 33.286398)"><g><path d="M 7.296875 0 C 11.796875 0 15.914062 -3.335938 19.328125 -9.664062 C 19.753906 -10.402344 18.203125 -11.566406 17.582031 -10.632812 C 15.835938 -7.957031 12.691406 -6.597656 10.050781 -6.597656 C 7.839844 -6.597656 6.015625 -7.296875 6.015625 -8.65625 C 6.015625 -9.160156 6.402344 -9.277344 6.675781 -9.121094 C 7.566406 -8.617188 8.617188 -8.5 9.703125 -8.5 C 13.507812 -8.5 15.953125 -11.683594 15.953125 -14.515625 C 15.953125 -17.078125 14.359375 -19.40625 10.75 -19.40625 C -0.386719 -19.40625 -3.609375 0 7.296875 0 Z M 8.695312 -11.410156 C 7.453125 -11.410156 6.871094 -12.148438 6.871094 -13 C 6.871094 -14.050781 7.800781 -15.175781 9.316406 -15.175781 C 10.519531 -15.175781 11.101562 -14.4375 11.101562 -13.585938 C 11.101562 -12.613281 10.207031 -11.410156 8.695312 -11.410156 Z M 8.695312 -11.410156 "/></g></g></g><g clip-path="url(#id1)"><path stroke-linecap="butt" transform="matrix(0.765818, 0, 0, 0.765818, 0.970349, 6.897173)" fill="none" stroke-linejoin="miter" d="M 22.772778 17.665562 C 27.684804 17.665562 30.321894 13.309518 29.408859 11.080489 C 28.291794 11.080489 27.490976 10.070539 27.490976 8.693336 C 27.490976 5.454357 31.076806 2.572431 37.065091 2.572431 C 43.349219 2.572431 44.971259 5.20442 49.786371 5.20442 C 55.254379 5.20442 58.1006 1.603288 58.1006 -2.30389 C 58.1006 -3.665791 57.641532 -4.384997 56.121507 -4.384997 C 54.846319 -4.384997 53.076357 -3.829015 49.424217 -3.829015 C 45.935302 -3.829015 43.094182 -4.221773 37.67208 -4.221773 C 23.170637 -4.221773 16.437642 3.424257 16.437642 10.626521 C 16.437642 14.324568 18.615664 17.665562 22.772778 17.665562 Z M 21.252754 37.130039 C 27.58789 37.130039 33.009991 32.921917 36.85596 23.704854 C 38.738138 19.236594 40.258163 14.681621 41.977117 9.300325 C 42.533099 7.632379 41.880202 6.566321 39.651173 6.566321 C 38.131148 6.566321 37.014083 7.224319 36.345884 9.004482 C 35.494058 11.182504 34.530016 13.768586 33.662888 16.043522 C 31.24003 22.230737 26.868684 24.719904 23.741921 24.719904 C 20.844693 24.719904 18.916608 23.194779 18.916608 20.955548 C 18.916608 20.608697 18.569757 20.348558 18.161697 20.348558 C 14.101497 20.348558 11.4185 24.459766 11.4185 28.61688 C 11.4185 32.819902 14.198411 37.130039 21.252754 37.130039 Z M 46.491284 34.997924 C 49.832278 34.997924 50.490275 32.218013 50.490275 29.63193 L 50.490275 27.351893 C 50.490275 22.837726 53.02535 18.629604 55.958283 18.629604 C 57.131456 18.629604 57.886368 19.236594 57.886368 20.399566 C 57.886368 22.480674 55.509417 25.882876 55.509417 29.728845 C 55.509417 32.564864 56.626482 34.997924 59.967476 34.997924 C 66.807587 34.997924 70.260797 25.16367 71.882837 22.378658 C 72.438819 21.414616 70.408719 19.894591 69.592598 21.118772 C 68.577548 22.638797 67.623707 23.704854 66.103683 23.704854 C 64.481643 23.704854 63.762437 22.888734 63.762437 21.164679 C 63.762437 18.629604 65.384476 17.007565 65.384476 14.324568 C 65.384476 11.789493 63.925661 9.662479 60.829503 9.662479 C 58.590272 9.662479 56.575474 10.723436 54.693296 12.544405 C 53.581332 13.666571 52.765211 13.45744 53.321193 11.381433 C 53.938385 9.004482 55.708346 6.270478 57.01924 3.327343 C 58.493358 0.0832632 57.886368 -1.436761 55.810361 -1.436761 C 51.699154 -1.436761 49.37321 6.321485 44.252053 21.118772 C 43.237003 24.000698 42.533099 27.19377 42.533099 29.779852 C 42.533099 32.773995 43.548149 34.997924 46.491284 34.997924 Z M 80.487809 34.997924 C 86.363877 34.997924 91.734971 30.64698 96.203231 22.378658 C 96.759213 21.414616 94.729113 19.894591 93.912993 21.118772 C 91.632956 24.607688 87.526849 26.387851 84.088941 26.387851 C 81.191713 26.387851 78.814761 25.474816 78.814761 23.704854 C 78.814761 23.036656 79.324837 22.888734 79.681889 23.082562 C 80.844861 23.750761 82.206763 23.903784 83.629873 23.903784 C 88.592906 23.903784 91.785978 19.741569 91.785978 16.043522 C 91.785978 12.702528 89.715072 9.662479 85.001976 9.662479 C 70.454626 9.662479 66.246504 34.997924 80.487809 34.997924 Z M 82.318979 20.103722 C 80.686738 20.103722 79.931826 19.13968 79.931826 18.022615 C 79.931826 16.650512 81.140705 15.176394 83.124898 15.176394 C 84.695931 15.176394 85.450842 16.145537 85.450842 17.257502 C 85.450842 18.53269 84.28787 20.103722 82.318979 20.103722 Z M 160.503335 21.118772 C 159.539292 22.577588 157.866245 23.194779 156.34622 23.194779 C 154.428337 23.194779 153.760138 21.725762 153.760138 19.644654 C 153.760138 17.716569 154.479344 15.176394 155.081233 13.04938 C 156.34622 8.907567 157.621409 7.270225 158.636459 7.270225 C 159.340363 7.224319 159.845338 7.780301 160.503335 7.780301 C 162.630349 7.780301 164.303396 5.092204 164.349303 1.853225 C 164.349303 -0.931787 162.681357 -3.109809 159.141434 -3.109809 C 153.561209 -3.109809 146.914926 0.588238 139.22299 14.47249 C 138.763922 15.288611 138.304854 16.043522 137.845786 16.813736 C 135.97891 15.242704 135.014868 13.110589 135.014868 10.524506 C 135.014868 6.82646 137.289804 5.862417 139.268896 6.061347 C 140.023808 6.158261 140.431868 5.602279 140.385961 4.847367 C 140.385961 2.460214 138.667007 0.0832632 134.815938 0.0832632 C 130.5007 0.0832632 126.649631 3.016197 126.649631 8.346484 C 126.649631 13.411533 129.893711 17.762476 135.111782 20.399566 C 132.836846 23.036656 130.153849 24.719904 127.006684 24.719904 C 124.211471 24.719904 122.033449 23.194779 122.033449 20.955548 C 122.033449 20.608697 121.686598 20.348558 121.278537 20.348558 C 117.223438 20.348558 114.535341 24.459766 114.535341 28.61688 C 114.535341 32.819902 117.320352 37.130039 124.27268 37.130039 C 129.745789 37.130039 134.866946 31.65693 138.355861 25.622738 C 138.962851 24.55668 139.580042 23.393708 140.187032 22.327651 C 142.104916 22.786719 144.180922 23.082562 146.358944 23.194779 C 146.114108 24.765811 145.966186 26.17872 145.966186 27.453909 C 145.966186 31.611023 147.27708 34.997924 150.878212 34.997924 C 157.718323 34.997924 161.161332 25.16367 162.793573 22.378658 C 163.349556 21.414616 161.319455 19.894591 160.503335 21.118772 Z M 147.129158 19.741569 C 145.195972 19.644654 143.477018 19.384516 142.0029 18.94075 C 143.834071 15.635462 145.65504 12.44239 147.68514 9.810401 C 149.159258 8.086346 149.761147 7.729293 150.419144 7.729293 C 150.776197 7.729293 151.026134 7.938424 151.026134 8.4485 C 151.026134 10.524506 149.159258 12.656622 147.129158 19.741569 Z M 166.170272 34.997924 C 173.015484 34.997924 176.468695 25.16367 178.085634 22.378658 C 178.646716 21.414616 176.616616 19.894591 175.800496 21.118772 C 174.734438 22.740812 173.474552 23.704854 171.70459 23.704854 C 168.65944 23.704854 169.067501 20.807626 169.919327 17.874693 C 171.087399 13.605362 173.066492 8.953474 175.846403 3.327343 C 177.417435 0.134271 176.713531 -1.436761 174.637524 -1.436761 C 170.526316 -1.436761 168.200372 6.321485 163.079216 21.118772 C 162.064166 24.000698 161.360261 27.19377 161.360261 29.779852 C 161.360261 32.773995 162.574241 34.997924 166.170272 34.997924 Z M 180.36057 34.997924 C 183.961702 34.997924 184.619699 32.218013 184.619699 29.63193 L 184.619699 27.351893 C 184.619699 22.837726 187.154774 18.629604 190.087707 18.629604 C 191.260881 18.629604 192.015792 19.236594 192.015792 20.608697 C 192.015792 23.194779 189.480718 26.637788 189.480718 30.483756 C 189.480718 33.834952 191.214974 34.901009 193.540918 34.901009 C 197.340979 34.901009 198.055085 32.115998 198.055085 29.978782 C 198.055085 28.514865 197.698032 28.009891 197.698032 26.535773 C 197.698032 22.740812 200.233107 18.53269 203.16604 18.53269 C 204.329012 18.53269 205.094125 19.13968 205.094125 20.302652 C 205.094125 22.378658 202.967111 25.780861 202.967111 29.63193 C 202.967111 32.513856 204.084176 34.997924 207.323155 34.997924 C 214.163266 34.997924 217.616476 25.16367 219.238516 22.378658 C 219.794498 21.414616 217.764398 19.894591 216.948277 21.118772 C 215.933227 22.638797 214.984487 23.704854 213.459362 23.704854 C 211.730206 23.704854 210.975295 22.837726 210.975295 21.067765 C 210.975295 18.53269 212.592234 16.91065 212.592234 14.227654 C 212.592234 11.687478 211.123216 9.560464 207.175233 9.560464 C 204.737073 9.560464 202.559051 10.723436 200.630966 12.85045 C 199.876054 13.717578 199.513901 13.508447 199.365979 12.85045 C 198.861004 11.034582 197.437894 9.662479 194.964028 9.662479 C 192.724797 9.662479 190.704899 10.723436 188.827821 12.544405 C 187.205781 14.176646 186.093817 13.309518 186.093817 11.590564 C 186.093817 10.575514 185.680656 9.662479 184.517684 9.662479 C 182.492685 9.662479 180.411577 14.88055 178.33557 21.118772 C 176.922662 25.275887 176.662523 28.912724 176.662523 31.299877 C 176.662523 33.426891 177.988719 34.997924 180.36057 34.997924 Z M 243.604817 21.118772 C 242.395939 22.888734 241.018735 23.592638 239.549718 23.592638 L 239.202867 23.592638 C 239.707841 21.919591 239.957778 20.15473 239.957778 18.384768 C 239.957778 11.988423 236.713699 9.662479 232.556584 9.662479 C 224.502494 9.662479 218.626425 18.879541 218.626425 26.489866 C 218.626425 31.758945 221.916412 34.997924 226.471385 34.997924 C 230.281648 34.997924 233.867478 32.773995 236.407654 29.320784 L 237.014643 29.320784 C 241.936871 29.320784 244.410736 25.474816 245.884854 22.378658 C 246.440836 21.215687 244.211807 20.251644 243.604817 21.118772 Z M 229.363512 24.505673 C 227.435427 24.505673 226.731523 23.245787 226.731523 21.771669 C 226.731523 19.54774 228.39947 17.058572 230.888638 17.058572 C 232.86773 17.058572 233.673649 18.272552 233.673649 19.741569 C 233.673649 21.873684 231.903688 24.505673 229.363512 24.505673 Z M 265.793097 21.118772 C 264.793349 22.638797 263.727291 23.750761 262.207267 23.801769 C 261.539068 20.659704 258.850971 16.599504 258.850971 15.635462 C 258.850971 13.605362 262.554118 13.45744 262.50311 11.8354 C 262.554118 10.218461 261.028993 8.397492 257.886928 8.397492 C 253.530884 8.397492 249.929752 15.946608 246.343922 20.807626 L 246.134791 21.118772 C 243.089641 26.17872 244.155699 34.952017 253.076917 34.952017 C 262.50311 34.952017 266.660225 25.321793 268.083335 22.378658 C 268.542403 21.414616 266.609217 19.894591 265.793097 21.118772 Z M 251.255948 24.505673 C 249.588002 24.505673 248.42503 23.592638 248.42503 22.378658 C 249.588002 20.909641 251.159034 18.828534 252.41892 16.961658 C 252.877988 16.303661 253.286048 16.303661 253.632899 16.961658 C 254.347005 18.323559 254.755065 19.593647 254.755065 20.807626 C 254.755065 22.888734 253.484978 24.505673 251.255948 24.505673 Z M 272.235349 34.997924 C 279.539628 34.997924 283.436604 25.275887 284.956629 22.378658 C 285.461604 21.414616 283.482511 19.940498 282.666391 21.118772 C 281.666643 22.689804 280.034402 23.643645 278.014503 23.643645 C 275.02036 23.643645 273.449328 21.414616 274.515386 17.874693 C 275.479428 14.47249 275.775272 14.375576 280.488369 14.375576 C 282.518469 14.375576 283.125458 9.708386 281.763557 9.708386 L 279.126467 9.708386 C 278.162425 9.708386 278.310347 8.841258 279.080561 7.224319 C 280.651593 4.031247 279.983394 2.460214 278.116518 2.460214 C 276.84133 2.460214 275.724265 2.914182 274.515386 5.862417 C 273.806381 7.678286 272.189442 9.708386 269.241206 9.708386 C 268.078234 9.708386 268.129242 13.605362 271.062175 13.605362 C 269.797188 17.10958 268.685224 20.103722 267.818096 22.638797 C 265.54316 29.121855 266.55821 34.997924 272.235349 34.997924 Z M 311.001078 37.130039 C 318.239048 37.130039 324.018202 30.595973 327.211274 21.970598 C 327.471413 21.215687 327.767256 20.807626 328.53237 20.807626 C 331.021537 20.807626 330.812407 25.622738 331.072545 28.514865 C 331.419396 33.120846 333.658627 34.997924 336.489546 34.997924 C 341.809632 34.997924 346.772665 28.514865 349.358748 22.378658 C 349.766808 21.363608 347.899932 19.894591 347.083811 21.118772 C 345.706608 23.148872 344.446722 24.505673 342.171785 24.505673 C 340.187592 24.505673 339.325565 23.490623 338.570653 22.133822 C 337.504596 20.200637 336.540553 20.399566 336.540553 19.741569 C 336.540553 19.384516 336.897606 19.13968 338.310515 18.94075 C 343.334757 18.12463 346.374807 13.8655 346.374807 8.239369 C 346.374807 1.394157 341.156735 -2.701748 330.057495 -2.701748 C 316.321165 -2.701748 307.808006 5.454357 307.808006 12.656622 C 307.808006 16.354668 309.986028 19.695662 314.143143 19.695662 C 319.055169 19.695662 321.692259 15.339618 320.779224 13.110589 C 319.662159 13.110589 318.86134 12.095539 318.86134 10.723436 C 318.86134 7.484457 322.44717 4.082254 329.139359 4.082254 C 334.311524 4.082254 338.111585 5.602279 338.111585 9.708386 C 338.111585 13.309518 335.275566 16.043522 332.133502 16.043522 C 330.909321 16.043522 330.108503 15.8956 330.205417 14.681621 C 330.353339 13.45744 330.858313 11.789493 331.725441 9.300325 C 332.235517 7.632379 331.628527 6.566321 329.501513 6.566321 C 327.976387 6.566321 326.864423 7.224319 326.206426 9.004482 C 325.344398 11.182504 324.375255 13.768586 323.513228 16.043522 C 320.529287 22.638797 317.336215 24.719904 314.541002 24.719904 C 312.16405 24.719904 310.281872 23.194779 310.281872 20.955548 C 310.281872 20.608697 309.940122 20.348558 309.532061 20.348558 C 305.471861 20.348558 302.788865 24.459766 302.788865 28.61688 C 302.788865 32.819902 305.12501 37.130039 311.001078 37.130039 Z M 357.973921 34.997924 C 363.84999 34.997924 369.221083 30.64698 373.684243 22.378658 C 374.240225 21.414616 372.215226 19.894591 371.394005 21.118772 C 369.119068 24.607688 365.012961 26.387851 361.569953 26.387851 C 358.677825 26.387851 356.300874 25.474816 356.300874 23.704854 C 356.300874 23.036656 356.810949 22.888734 357.168002 23.082562 C 358.330974 23.750761 359.692875 23.903784 361.115985 23.903784 C 366.073918 23.903784 369.26699 19.741569 369.26699 16.043522 C 369.26699 12.702528 367.201185 9.662479 362.488088 9.662479 C 347.935637 9.662479 343.732616 34.997924 357.973921 34.997924 Z M 359.805092 20.103722 C 358.16775 20.103722 357.412838 19.13968 357.412838 18.022615 C 357.412838 16.650512 358.626818 15.176394 360.60591 15.176394 C 362.176942 15.176394 362.931854 16.145537 362.931854 17.257502 C 362.931854 18.53269 361.768882 20.103722 359.805092 20.103722 Z M 377.892365 34.997924 C 385.191544 34.997924 389.08852 25.275887 390.608544 22.378658 C 391.11862 21.414616 389.139527 19.940498 388.318306 21.118772 C 387.318558 22.689804 385.686317 23.643645 383.666418 23.643645 C 380.672276 23.643645 379.101244 21.414616 380.167301 17.874693 C 381.131344 14.47249 381.427187 14.375576 386.140284 14.375576 C 388.170384 14.375576 388.777374 9.708386 387.415472 9.708386 L 384.783483 9.708386 C 383.81434 9.708386 383.967363 8.841258 384.732476 7.224319 C 386.303508 4.031247 385.635309 2.460214 383.768433 2.460214 C 382.493245 2.460214 381.381281 2.914182 380.167301 5.862417 C 379.463397 7.678286 377.841357 9.708386 374.898222 9.708386 C 373.73015 9.708386 373.781157 13.605362 376.714091 13.605362 C 375.454205 17.10958 374.33714 20.103722 373.475112 22.638797 C 371.195075 29.121855 372.210125 34.997924 377.892365 34.997924 Z M 410.87384 21.118772 C 409.85879 22.638797 408.894747 23.704854 407.384924 23.704854 C 405.094685 23.704854 404.24286 22.638797 404.24286 21.215687 C 404.24286 18.073622 406.420881 15.946608 406.420881 13.04938 C 406.420881 10.315375 401.544561 7.076397 396.780457 7.076397 C 394.046453 7.076397 392.276491 9.560464 392.276491 11.641571 C 392.276491 13.45744 392.934488 14.115437 393.949538 14.47249 C 393.08241 16.813736 391.822524 19.741569 390.853381 21.118772 C 390.200484 22.082815 392.47542 23.704854 393.143619 22.378658 C 393.949538 20.710712 395.617485 17.257502 396.53562 15.242704 C 398.56572 15.992515 399.218617 17.257502 399.218617 17.762476 C 399.218617 20.200637 395.668492 24.964741 395.668492 29.677837 C 395.668492 32.263919 397.091603 34.997924 401.248717 34.997924 C 408.088828 34.997924 411.531837 25.16367 413.153877 22.378658 C 413.72006 21.414616 411.68996 19.894591 410.87384 21.118772 Z M 437.530379 21.118772 C 436.321501 22.888734 434.944297 23.592638 433.47528 23.592638 L 433.128429 23.592638 C 433.633403 21.919591 433.88334 20.15473 433.88334 18.384768 C 433.88334 11.988423 430.639261 9.662479 426.482147 9.662479 C 418.428056 9.662479 412.551988 18.879541 412.551988 26.489866 C 412.551988 31.758945 415.841974 34.997924 420.396947 34.997924 C 424.20721 34.997924 427.79304 32.773995 430.333216 29.320784 L 430.935105 29.320784 C 435.862433 29.320784 438.336299 25.474816 439.810416 22.378658 C 440.366399 21.215687 438.137369 20.251644 437.530379 21.118772 Z M 423.289075 24.505673 C 421.36099 24.505673 420.657086 23.245787 420.657086 21.771669 C 420.657086 19.54774 422.325032 17.058572 424.8142 17.058572 C 426.793293 17.058572 427.599212 18.272552 427.599212 19.741569 C 427.599212 21.873684 425.82925 24.505673 423.289075 24.505673 Z M 513.235769 21.118772 C 512.118704 22.786719 510.598679 23.704854 509.088856 23.704854 C 506.798617 23.704854 505.997799 22.230737 505.997799 20.15473 C 505.997799 17.058572 507.665745 8.346484 510.205921 8.346484 C 510.858817 8.346484 511.317885 8.907567 512.072797 8.907567 C 513.85296 8.907567 515.821851 5.551271 515.821851 2.506121 C 515.821851 -0.227883 514.363035 -2.701748 510.450757 -2.701748 C 504.834827 -2.701748 498.438482 4.082254 495.097488 11.131496 C 494.23036 2.720353 489.369341 -2.701748 480.555239 -2.701748 C 470.363932 -2.701748 463.829867 4.143463 463.829867 11.789493 C 463.829867 16.553597 466.7628 19.695662 470.771993 19.695662 C 475.28616 19.695662 477.714119 15.686469 476.795983 13.605362 C 475.337167 13.605362 474.220102 12.24346 474.220102 10.4786 C 474.220102 7.270225 476.449132 5.403349 478.877091 5.403349 C 481.065314 5.403349 482.376208 6.877467 482.376208 9.560464 C 482.376208 15.028472 477.153036 24.719904 470.062988 24.719904 C 467.119853 24.719904 464.941831 23.194779 464.941831 20.955548 C 464.941831 20.608697 464.584778 20.348558 464.186919 20.348558 C 460.13182 20.348558 457.443723 24.459766 457.443723 28.61688 C 457.443723 32.819902 460.325649 37.130039 466.206818 37.130039 C 474.827092 37.130039 482.427215 30.743895 485.768209 14.273561 C 485.97734 13.309518 486.482315 12.85045 487.191319 12.85045 C 487.844216 12.85045 488.400198 13.309518 488.400198 15.288611 C 488.400198 19.940498 485.467265 25.622738 485.467265 29.371792 C 485.467265 31.447799 486.273184 32.564864 489.466256 32.564864 C 491.149504 32.564864 492.965373 31.906867 493.883508 28.417951 C 497.173495 15.584454 498.744527 12.998372 500.514489 12.998372 C 501.13168 12.998372 501.478531 13.360526 501.478531 14.115437 C 501.478531 16.145537 497.928406 21.822676 497.928406 27.60183 C 497.928406 32.218013 499.861592 34.997924 503.610646 34.997924 C 510.450757 34.997924 513.903967 25.16367 515.526007 22.378658 C 515.066939 21.414616 513.954975 20.052715 513.235769 21.118772 Z M 519.968764 34.997924 C 523.569896 34.997924 526.615046 31.707937 528.645146 27.60183 L 528.844076 27.60183 C 528.237086 31.809952 529.706103 34.997924 533.195019 34.997924 C 538.826251 34.997924 541.611263 27.091755 544.100431 22.378658 C 544.605405 21.414616 542.575305 19.894591 541.820394 21.118772 C 540.805344 22.740812 539.530155 23.704854 537.811201 23.704854 C 535.587272 23.704854 535.026189 21.674754 536.750244 17.976708 C 537.862209 15.028472 539.188405 13.45744 539.188405 11.539556 C 539.188405 10.41229 538.729337 9.662479 537.403141 9.662479 C 535.026189 9.662479 534.669137 11.590564 533.00119 11.590564 C 531.674994 11.590564 531.884125 9.662479 527.829026 9.662479 C 519.116938 9.662479 514.750693 20.302652 514.750693 27.351893 C 514.750693 31.855859 516.530856 34.997924 519.968764 34.997924 Z M 525.044014 24.505673 C 523.472982 24.505673 522.508939 23.490623 522.508939 21.771669 C 522.508939 19.54774 524.176886 17.058572 526.813976 17.058572 C 528.436015 17.058572 529.445965 18.073622 529.445965 19.741569 C 529.445965 21.873684 527.681104 24.505673 525.044014 24.505673 Z M 548.303452 34.997924 C 555.602631 34.997924 559.499607 25.275887 561.019631 22.378658 C 561.529707 21.414616 559.550614 19.940498 558.734493 21.118772 C 557.729645 22.689804 556.097404 23.643645 554.082606 23.643645 C 551.088463 23.643645 549.517431 21.414616 550.578388 17.874693 C 551.54243 14.47249 551.843375 14.375576 556.556472 14.375576 C 558.586572 14.375576 559.188461 9.708386 557.83166 9.708386 L 555.19457 9.708386 C 554.230528 9.708386 554.37845 8.841258 555.143563 7.224319 C 556.714595 4.031247 556.046396 2.460214 554.17952 2.460214 C 552.904332 2.460214 551.792367 2.914182 550.578388 5.862417 C 549.874484 7.678286 548.252444 9.708386 545.309309 9.708386 C 544.146337 9.708386 544.192244 13.605362 547.125178 13.605362 C 545.865291 17.10958 544.753327 20.103722 543.886199 22.638797 C 541.611263 29.121855 542.621212 34.997924 548.303452 34.997924 Z M 569.027815 34.997924 C 574.954891 34.997924 580.371891 30.64698 584.840152 22.378658 C 585.396134 21.414616 583.366034 19.894591 582.560115 21.118772 C 577.801111 28.009891 567.813835 27.60183 567.813835 20.807626 C 567.813835 18.272552 569.124729 15.8956 571.399665 15.8956 C 572.924791 15.8956 573.480773 16.747426 573.480773 17.665562 C 573.480773 19.496732 572.317801 19.695662 572.317801 20.56279 C 572.317801 21.215687 573.184929 21.970598 574.954891 21.970598 C 577.132913 21.970598 580.127055 20.251644 580.127055 15.8956 C 580.127055 12.605614 577.99494 9.662479 573.133922 9.662479 C 565.130839 9.662479 560.254518 18.022615 560.254518 25.112663 C 560.254518 30.386842 562.937515 34.997924 569.027815 34.997924 Z M 587.375227 34.997924 C 590.71622 34.997924 591.369117 32.218013 591.369117 29.63193 L 591.369117 27.351893 C 591.369117 22.837726 593.904192 18.629604 596.837125 18.629604 C 598.015399 18.629604 598.770311 19.236594 598.770311 20.399566 C 598.770311 22.480674 596.393359 25.882876 596.393359 29.728845 C 596.393359 32.564864 597.505324 34.997924 600.846318 34.997924 C 607.691529 34.997924 611.139639 25.16367 612.761679 22.378658 C 613.317661 21.414616 611.292662 19.894591 610.47144 21.118772 C 609.461491 22.638797 608.50765 23.704854 606.982525 23.704854 C 605.365586 23.704854 604.646379 22.888734 604.646379 21.164679 C 604.646379 18.629604 606.268419 17.007565 606.268419 14.324568 C 606.268419 11.789493 604.809603 9.662479 601.713446 9.662479 C 599.474215 9.662479 597.459417 10.723436 595.577239 12.544405 C 594.465274 13.666571 593.649154 13.45744 594.205136 11.381433 C 594.822327 9.004482 596.592289 6.270478 597.903183 3.327343 C 599.3773 0.0832632 598.770311 -1.436761 596.689203 -1.436761 C 592.583096 -1.436761 590.257153 6.321485 585.135996 21.118772 C 584.120946 24.000698 583.411941 27.19377 583.411941 29.779852 C 583.411941 32.773995 584.426991 34.997924 587.375227 34.997924 Z M 646.860218 35.604913 C 654.664372 35.604913 659.989559 30.942824 664.243588 22.378658 C 664.748562 21.414616 662.76947 19.894591 661.968651 21.118772 C 660.234395 23.643645 656.536349 24.408758 653.394284 24.408758 C 646.712297 24.408758 643.468217 20.659704 643.468217 16.09453 C 643.468217 11.080489 646.957133 6.209269 651.573315 6.209269 C 654.409334 6.209269 655.633515 8.285275 652.996425 13.309518 C 652.440443 14.421482 653.246362 15.390626 654.664372 15.390626 C 658.413426 15.390626 663.738613 11.034582 663.738613 5.092204 C 663.738613 0.74126 660.545541 -2.145766 654.10839 -2.145766 C 643.667147 -2.145766 634.28686 8.744343 634.28686 21.067765 C 634.28686 31.202963 639.657954 35.604913 646.860218 35.604913 Z M 668.696546 34.997924 C 672.297678 34.997924 675.337727 31.707937 677.367827 27.60183 L 677.566757 27.60183 C 676.959767 31.809952 678.433885 34.997924 681.922801 34.997924 C 687.554033 34.997924 690.333944 27.091755 692.823112 22.378658 C 693.328086 21.414616 691.303087 19.894591 690.548176 21.118772 C 689.533126 22.740812 688.257937 23.704854 686.538983 23.704854 C 684.309954 23.704854 683.753971 21.674754 685.472925 17.976708 C 686.58489 15.028472 687.911086 13.45744 687.911086 11.539556 C 687.911086 10.41229 687.452018 9.662479 686.130923 9.662479 C 683.753971 9.662479 683.396919 11.590564 681.723871 11.590564 C 680.402776 11.590564 680.611907 9.662479 676.551707 9.662479 C 667.839619 9.662479 663.473374 20.302652 663.473374 27.351893 C 663.473374 31.855859 665.253537 34.997924 668.696546 34.997924 Z M 673.766695 24.505673 C 672.195663 24.505673 671.231621 23.490623 671.231621 21.771669 C 671.231621 19.54774 672.904668 17.058572 675.536657 17.058572 C 677.158697 17.058572 678.173747 18.073622 678.173747 19.741569 C 678.173747 21.873684 676.403785 24.505673 673.766695 24.505673 Z M 713.088407 21.118772 C 712.073357 22.638797 711.109314 23.704854 709.599491 23.704854 C 707.309253 23.704854 706.457427 22.638797 706.457427 21.215687 C 706.457427 18.073622 708.635449 15.946608 708.635449 13.04938 C 708.635449 10.315375 703.759128 7.076397 698.995024 7.076397 C 696.26102 7.076397 694.491058 9.560464 694.491058 11.641571 C 694.491058 13.45744 695.149056 14.115437 696.164106 14.47249 C 695.296977 16.813736 694.03199 19.741569 693.067948 21.118772 C 692.415051 22.082815 694.689988 23.704854 695.358186 22.378658 C 696.164106 20.710712 697.832052 17.257502 698.745087 15.242704 C 700.775187 15.992515 701.433184 17.257502 701.433184 17.762476 C 701.433184 20.200637 697.88306 24.964741 697.88306 29.677837 C 697.88306 32.263919 699.30617 34.997924 703.463284 34.997924 C 710.303395 34.997924 713.741303 25.16367 715.363343 22.378658 C 715.934628 21.414616 713.904528 19.894591 713.088407 21.118772 Z M 720.382485 34.997924 C 723.473542 34.997924 726.421778 31.707937 728.497784 27.60183 L 728.696714 27.60183 C 728.140732 31.809952 729.808678 34.997924 733.052758 34.997924 C 738.678889 34.997924 741.463901 27.091755 743.953069 22.378658 C 744.458043 21.414616 742.427943 19.894591 741.673032 21.118772 C 740.663083 22.740812 739.387894 23.704854 737.66894 23.704854 C 735.439911 23.704854 734.883928 21.674754 736.602882 17.976708 L 742.331029 3.327343 C 743.641923 0.440316 742.938019 -1.436761 741.168057 -1.436761 C 739.648032 -1.436761 737.765854 -0.574734 735.847971 4.082254 C 733.659747 9.300325 733.659747 12.095539 732.853828 12.095539 C 731.527632 12.095539 731.741864 9.662479 727.681664 9.662479 C 718.969576 9.662479 714.603331 20.302652 714.603331 27.80076 C 714.603331 31.855859 716.383494 34.997924 720.382485 34.997924 Z M 724.998667 24.505673 C 723.065482 24.505673 722.361578 23.245787 722.361578 21.771669 C 722.361578 19.54774 724.029524 17.058572 726.518692 17.058572 C 728.497784 17.058572 729.303704 18.272552 729.303704 19.741569 C 729.303704 21.873684 727.533742 24.505673 724.998667 24.505673 Z M 763.85621 21.118772 C 762.856463 22.638797 761.790405 23.750761 760.27038 23.801769 C 759.602182 20.659704 756.919185 16.599504 756.919185 15.635462 C 756.919185 13.605362 760.617232 13.45744 760.566224 11.8354 C 760.617232 10.218461 759.092106 8.397492 755.950042 8.397492 C 751.593998 8.397492 747.997967 15.946608 744.407036 20.807626 L 744.197905 21.118772 C 741.152755 26.17872 742.218812 34.952017 751.140031 34.952017 C 760.566224 34.952017 764.723339 25.321793 766.146449 22.378658 C 766.605517 21.414616 764.672331 19.894591 763.85621 21.118772 Z M 749.319062 24.505673 C 747.651115 24.505673 746.488143 23.592638 746.488143 22.378658 C 747.651115 20.909641 749.222148 18.828534 750.482034 16.961658 C 750.941102 16.303661 751.349162 16.303661 751.696013 16.961658 C 752.415219 18.323559 752.82328 19.593647 752.82328 20.807626 C 752.82328 22.888734 751.548091 24.505673 749.319062 24.505673 Z M 793.96086 39.716121 C 801.571185 39.716121 807.646183 34.492949 810.13025 27.045848 C 811.395237 23.245787 812.456194 20.348558 813.420236 16.354668 C 813.731382 14.982565 811.701282 13.819593 810.426093 15.242704 C 809.069293 16.813736 807.284029 17.308509 805.514067 17.308509 C 802.326096 17.308509 800.505127 15.176394 800.505127 12.24346 C 800.505127 9.004482 803.142217 5.81141 806.677039 5.81141 C 809.416144 5.81141 809.921119 8.137354 809.018285 10.218461 C 808.610225 11.080489 809.773197 11.687478 810.788247 11.687478 C 814.486294 11.687478 818.18434 9.101396 818.18434 4.388299 C 818.18434 0.180178 815.450336 -2.813965 810.033335 -2.813965 C 800.148074 -2.813965 791.374778 6.775452 791.374778 17.415625 C 791.374778 23.852776 794.36892 27.351893 798.378113 27.351893 C 800.704057 27.351893 802.632142 26.229728 804.04505 24.357751 C 804.499017 23.801769 805.0601 24.459766 804.759156 25.112663 C 803.290139 28.20882 800.749963 30.085898 797.051917 30.085898 C 792.598959 30.085898 789.048834 27.453909 789.048834 23.54163 C 789.048834 23.194779 788.68668 22.934641 788.27862 22.934641 C 784.89172 22.934641 782.66269 26.229728 782.66269 30.187913 C 782.66269 35.456991 787.018734 39.716121 793.96086 39.716121 Z M 821.882387 34.997924 C 825.478418 34.997924 828.523568 31.707937 830.553668 27.60183 L 830.752598 27.60183 C 830.145608 31.809952 831.619726 34.997924 835.108642 34.997924 C 840.734773 34.997924 843.519785 27.091755 846.008953 22.378658 C 846.513927 21.414616 844.483827 19.894591 843.728916 21.118772 C 842.713866 22.740812 841.443778 23.704854 839.719723 23.704854 C 837.495794 23.704854 836.939812 21.674754 838.658766 17.976708 C 839.770731 15.028472 841.096927 13.45744 841.096927 11.539556 C 841.096927 10.41229 840.637859 9.662479 839.311663 9.662479 C 836.939812 9.662479 836.577659 11.590564 834.909712 11.590564 C 833.583516 11.590564 833.792647 9.662479 829.737548 9.662479 C 821.02546 9.662479 816.659215 20.302652 816.659215 27.351893 C 816.659215 31.855859 818.439378 34.997924 821.882387 34.997924 Z M 826.952536 24.505673 C 825.381504 24.505673 824.417461 23.490623 824.417461 21.771669 C 824.417461 19.54774 826.085408 17.058572 828.722498 17.058572 C 830.344537 17.058572 831.359587 18.073622 831.359587 19.741569 C 831.359587 21.873684 829.589626 24.505673 826.952536 24.505673 Z M 848.283889 34.997924 C 851.87992 34.997924 852.537918 32.218013 852.537918 29.63193 L 852.537918 27.351893 C 852.537918 22.837726 855.072992 18.629604 858.005926 18.629604 C 859.1842 18.629604 859.939112 19.236594 859.939112 20.608697 C 859.939112 23.194779 857.398936 26.637788 857.398936 30.483756 C 857.398936 33.834952 859.133192 34.901009 861.459136 34.901009 C 865.259198 34.901009 865.973303 32.115998 865.973303 29.978782 C 865.973303 28.514865 865.616251 28.009891 865.616251 26.535773 C 865.616251 22.740812 868.151325 18.53269 871.084259 18.53269 C 872.247231 18.53269 873.017445 19.13968 873.017445 20.302652 C 873.017445 22.378658 870.885329 25.780861 870.885329 29.63193 C 870.885329 32.513856 872.002394 34.997924 875.241373 34.997924 C 882.086585 34.997924 885.534695 25.16367 887.156734 22.378658 C 887.712716 21.414616 885.687717 19.894591 884.866496 21.118772 C 883.856547 22.638797 882.902706 23.704854 881.37758 23.704854 C 879.648425 23.704854 878.893513 22.837726 878.893513 21.067765 C 878.893513 18.53269 880.515553 16.91065 880.515553 14.227654 C 880.515553 11.687478 879.041435 9.560464 875.093451 9.560464 C 872.655291 9.560464 870.477269 10.723436 868.549184 12.85045 C 867.794273 13.717578 867.43722 13.508447 867.284197 12.85045 C 866.779222 11.034582 865.356112 9.662479 862.882247 9.662479 C 860.643016 9.662479 858.623117 10.723436 856.74604 12.544405 C 855.124 14.176646 854.012036 13.309518 854.012036 11.590564 C 854.012036 10.575514 853.603975 9.662479 852.441003 9.662479 C 850.410903 9.662479 848.329796 14.88055 846.253789 21.118772 C 844.84088 25.275887 844.580742 28.912724 844.580742 31.299877 C 844.580742 33.426891 845.906938 34.997924 848.283889 34.997924 Z M 895.761706 34.997924 C 901.637775 34.997924 907.008868 30.64698 911.477129 22.378658 C 912.033111 21.414616 910.003011 19.894591 909.18689 21.118772 C 906.911954 24.607688 902.800746 26.387851 899.362838 26.387851 C 896.46561 26.387851 894.09376 25.474816 894.09376 23.704854 C 894.09376 23.036656 894.598734 22.888734 894.960888 23.082562 C 896.12386 23.750761 897.48066 23.903784 898.903771 23.903784 C 903.866804 23.903784 907.059876 19.741569 907.059876 16.043522 C 907.059876 12.702528 904.994071 9.662479 900.280974 9.662479 C 885.728523 9.662479 881.520401 34.997924 895.761706 34.997924 Z M 897.592877 20.103722 C 895.960636 20.103722 895.205724 19.13968 895.205724 18.022615 C 895.205724 16.650512 896.419703 15.176394 898.398796 15.176394 C 899.969828 15.176394 900.72474 16.145537 900.72474 17.257502 C 900.72474 18.53269 899.561768 20.103722 897.592877 20.103722 Z M 897.592877 20.103722 " stroke="#e76f51" stroke-width="0.886953" stroke-opacity="1" stroke-miterlimit="4"/></g></svg>